%TF.GenerationSoftware,KiCad,Pcbnew,9.0.1*%
%TF.CreationDate,2025-07-30T00:23:40-04:00*%
%TF.ProjectId,T5848,54353834-382e-46b6-9963-61645f706362,rev?*%
%TF.SameCoordinates,Original*%
%TF.FileFunction,Paste,Bot*%
%TF.FilePolarity,Positive*%
%FSLAX46Y46*%
G04 Gerber Fmt 4.6, Leading zero omitted, Abs format (unit mm)*
G04 Created by KiCad (PCBNEW 9.0.1) date 2025-07-30 00:23:40*
%MOMM*%
%LPD*%
G01*
G04 APERTURE LIST*
G04 Aperture macros list*
%AMRoundRect*
0 Rectangle with rounded corners*
0 $1 Rounding radius*
0 $2 $3 $4 $5 $6 $7 $8 $9 X,Y pos of 4 corners*
0 Add a 4 corners polygon primitive as box body*
4,1,4,$2,$3,$4,$5,$6,$7,$8,$9,$2,$3,0*
0 Add four circle primitives for the rounded corners*
1,1,$1+$1,$2,$3*
1,1,$1+$1,$4,$5*
1,1,$1+$1,$6,$7*
1,1,$1+$1,$8,$9*
0 Add four rect primitives between the rounded corners*
20,1,$1+$1,$2,$3,$4,$5,0*
20,1,$1+$1,$4,$5,$6,$7,0*
20,1,$1+$1,$6,$7,$8,$9,0*
20,1,$1+$1,$8,$9,$2,$3,0*%
G04 Aperture macros list end*
%ADD10C,0.000000*%
%ADD11RoundRect,0.140000X-0.170000X0.140000X-0.170000X-0.140000X0.170000X-0.140000X0.170000X0.140000X0*%
%ADD12RoundRect,0.140000X0.170000X-0.140000X0.170000X0.140000X-0.170000X0.140000X-0.170000X-0.140000X0*%
%ADD13RoundRect,0.105500X0.144500X0.105500X-0.144500X0.105500X-0.144500X-0.105500X0.144500X-0.105500X0*%
%ADD14RoundRect,0.067500X0.067500X0.067500X-0.067500X0.067500X-0.067500X-0.067500X0.067500X-0.067500X0*%
%ADD15RoundRect,0.135000X-0.135000X-0.185000X0.135000X-0.185000X0.135000X0.185000X-0.135000X0.185000X0*%
%ADD16RoundRect,0.140000X0.140000X0.170000X-0.140000X0.170000X-0.140000X-0.170000X0.140000X-0.170000X0*%
%ADD17RoundRect,0.135000X0.185000X-0.135000X0.185000X0.135000X-0.185000X0.135000X-0.185000X-0.135000X0*%
%ADD18RoundRect,0.150000X0.150000X-0.512500X0.150000X0.512500X-0.150000X0.512500X-0.150000X-0.512500X0*%
%ADD19RoundRect,0.050000X-0.500000X0.050000X-0.500000X-0.050000X0.500000X-0.050000X0.500000X0.050000X0*%
%ADD20RoundRect,0.050000X-0.450000X0.050000X-0.450000X-0.050000X0.450000X-0.050000X0.450000X0.050000X0*%
%ADD21RoundRect,0.140000X-0.140000X-0.170000X0.140000X-0.170000X0.140000X0.170000X-0.140000X0.170000X0*%
G04 APERTURE END LIST*
D10*
%TO.C,MK2*%
G36*
X157170700Y-105869800D02*
G01*
X157212900Y-105973200D01*
X157274700Y-106066300D01*
X157353700Y-106145300D01*
X157446800Y-106207100D01*
X157550200Y-106249300D01*
X157660000Y-106270300D01*
X157660000Y-106521000D01*
X157494500Y-106493400D01*
X157338300Y-106432500D01*
X157197800Y-106340800D01*
X157079200Y-106222200D01*
X156987500Y-106081700D01*
X156926600Y-105925500D01*
X156899000Y-105760000D01*
X157149700Y-105760000D01*
X157170700Y-105869800D01*
G37*
G36*
X157660000Y-105149700D02*
G01*
X157550200Y-105170700D01*
X157446800Y-105212900D01*
X157353700Y-105274700D01*
X157274700Y-105353700D01*
X157212900Y-105446800D01*
X157170700Y-105550200D01*
X157149700Y-105660000D01*
X156899000Y-105660000D01*
X156926600Y-105494500D01*
X156987500Y-105338300D01*
X157079200Y-105197800D01*
X157197800Y-105079200D01*
X157338300Y-104987500D01*
X157494500Y-104926600D01*
X157660000Y-104899000D01*
X157660000Y-105149700D01*
G37*
G36*
X158493400Y-105925500D02*
G01*
X158432500Y-106081700D01*
X158340800Y-106222200D01*
X158222200Y-106340800D01*
X158081700Y-106432500D01*
X157925500Y-106493400D01*
X157760000Y-106521000D01*
X157760000Y-106270300D01*
X157869800Y-106249300D01*
X157973200Y-106207100D01*
X158066300Y-106145300D01*
X158145300Y-106066300D01*
X158207100Y-105973200D01*
X158249300Y-105869800D01*
X158270300Y-105760000D01*
X158521000Y-105760000D01*
X158493400Y-105925500D01*
G37*
G36*
X157925500Y-104926600D02*
G01*
X158081700Y-104987500D01*
X158222200Y-105079200D01*
X158340800Y-105197800D01*
X158432500Y-105338300D01*
X158493400Y-105494500D01*
X158521000Y-105660000D01*
X158270300Y-105660000D01*
X158249300Y-105550200D01*
X158207100Y-105446800D01*
X158145300Y-105353700D01*
X158066300Y-105274700D01*
X157973200Y-105212900D01*
X157869800Y-105170700D01*
X157760000Y-105149700D01*
X157760000Y-104899000D01*
X157925500Y-104926600D01*
G37*
%TO.C,MK1*%
G36*
X138750700Y-105869800D02*
G01*
X138792900Y-105973200D01*
X138854700Y-106066300D01*
X138933700Y-106145300D01*
X139026800Y-106207100D01*
X139130200Y-106249300D01*
X139240000Y-106270300D01*
X139240000Y-106521000D01*
X139074500Y-106493400D01*
X138918300Y-106432500D01*
X138777800Y-106340800D01*
X138659200Y-106222200D01*
X138567500Y-106081700D01*
X138506600Y-105925500D01*
X138479000Y-105760000D01*
X138729700Y-105760000D01*
X138750700Y-105869800D01*
G37*
G36*
X139240000Y-105149700D02*
G01*
X139130200Y-105170700D01*
X139026800Y-105212900D01*
X138933700Y-105274700D01*
X138854700Y-105353700D01*
X138792900Y-105446800D01*
X138750700Y-105550200D01*
X138729700Y-105660000D01*
X138479000Y-105660000D01*
X138506600Y-105494500D01*
X138567500Y-105338300D01*
X138659200Y-105197800D01*
X138777800Y-105079200D01*
X138918300Y-104987500D01*
X139074500Y-104926600D01*
X139240000Y-104899000D01*
X139240000Y-105149700D01*
G37*
G36*
X140073400Y-105925500D02*
G01*
X140012500Y-106081700D01*
X139920800Y-106222200D01*
X139802200Y-106340800D01*
X139661700Y-106432500D01*
X139505500Y-106493400D01*
X139340000Y-106521000D01*
X139340000Y-106270300D01*
X139449800Y-106249300D01*
X139553200Y-106207100D01*
X139646300Y-106145300D01*
X139725300Y-106066300D01*
X139787100Y-105973200D01*
X139829300Y-105869800D01*
X139850300Y-105760000D01*
X140101000Y-105760000D01*
X140073400Y-105925500D01*
G37*
G36*
X139505500Y-104926600D02*
G01*
X139661700Y-104987500D01*
X139802200Y-105079200D01*
X139920800Y-105197800D01*
X140012500Y-105338300D01*
X140073400Y-105494500D01*
X140101000Y-105660000D01*
X139850300Y-105660000D01*
X139829300Y-105550200D01*
X139787100Y-105446800D01*
X139725300Y-105353700D01*
X139646300Y-105274700D01*
X139553200Y-105212900D01*
X139449800Y-105170700D01*
X139340000Y-105149700D01*
X139340000Y-104899000D01*
X139505500Y-104926600D01*
G37*
%TD*%
D11*
%TO.C,C5*%
X163200000Y-104120000D03*
X163200000Y-105080000D03*
%TD*%
D12*
%TO.C,C4*%
X155600000Y-103640000D03*
X155600000Y-102680000D03*
%TD*%
%TO.C,C3*%
X137180000Y-103640000D03*
X137180000Y-102680000D03*
%TD*%
D13*
%TO.C,MK2*%
X158610000Y-103636000D03*
X158610000Y-104458000D03*
D14*
X158760000Y-106475000D03*
X156660000Y-106475000D03*
D13*
X156810000Y-104458000D03*
X156810000Y-103636000D03*
X157710000Y-103636000D03*
%TD*%
D15*
%TO.C,R2*%
X170619999Y-105030000D03*
X171640001Y-105030000D03*
%TD*%
D16*
%TO.C,C2*%
X133780000Y-106300000D03*
X132820000Y-106300000D03*
%TD*%
D17*
%TO.C,R1*%
X139300000Y-102510001D03*
X139300000Y-101489999D03*
%TD*%
D18*
%TO.C,U2*%
X134249999Y-110037500D03*
X133300000Y-110037500D03*
X132350000Y-110037501D03*
X132350001Y-107762500D03*
X134250000Y-107762499D03*
%TD*%
D16*
%TO.C,C1*%
X133780000Y-111500000D03*
X132820000Y-111500000D03*
%TD*%
D19*
%TO.C,U3*%
X167350000Y-102500000D03*
D20*
X167400000Y-102900000D03*
X167400000Y-103300000D03*
X167400000Y-103700000D03*
X167400000Y-104100000D03*
X167400000Y-104500000D03*
X167400000Y-104900000D03*
X167400000Y-105300000D03*
X167400000Y-105700000D03*
X167400000Y-106100000D03*
X165600000Y-106100000D03*
X165600000Y-105700000D03*
X165600000Y-105300000D03*
X165600000Y-104900000D03*
X165600000Y-104500000D03*
X165600000Y-104100000D03*
X165600000Y-103700000D03*
X165600000Y-103300000D03*
X165600000Y-102900000D03*
X165600000Y-102500000D03*
%TD*%
D13*
%TO.C,MK1*%
X140190000Y-103636000D03*
X140190000Y-104458000D03*
D14*
X140340000Y-106475000D03*
X138240000Y-106475000D03*
D13*
X138390000Y-104458000D03*
X138390000Y-103636000D03*
X139290000Y-103636000D03*
%TD*%
D21*
%TO.C,C6*%
X170640000Y-104100000D03*
X171600000Y-104100000D03*
%TD*%
M02*
