M48
; DRILL file {KiCad 9.0.1} date 2025-07-30T00:23:37-0400
; FORMAT={-:-/ absolute / metric / decimal}
; #@! TF.CreationDate,2025-07-30T00:23:37-04:00
; #@! TF.GenerationSoftware,Kicad,Pcbnew,9.0.1
; #@! TF.FileFunction,Plated,1,4,PTH
FMAT,2
METRIC
; #@! TA.AperFunction,Plated,PTH,ViaDrill
T1C0.300
; #@! TA.AperFunction,Plated,PTH,ComponentDrill
T2C1.000
%
G90
G05
T1
X132.04Y-106.3
X132.8Y-112.2
X133.78Y-105.6
X136.5Y-102.7
X137.03Y-106.47
X137.45Y-104.7
X137.52Y-105.71
X139.3Y-100.7
X141.15Y-104.45
X141.43Y-106.47
X143.0Y-101.85
X143.0Y-102.65
X143.4Y-109.15
X145.0Y-103.6
X145.95Y-109.55
X149.8Y-112.55
X152.3Y-110.05
X152.35Y-112.5
X154.9Y-102.7
X154.9Y-103.64
X155.05Y-111.05
X155.9Y-105.71
X160.0Y-101.8
X160.0Y-102.6
X160.0Y-103.4
X160.77Y-105.74
X162.45Y-103.1
X162.48Y-104.12
X162.48Y-105.08
X163.0Y-99.5
X165.0Y-97.0
X166.5Y-106.8
X168.5Y-102.4
X169.2Y-104.8
X169.4Y-103.3
X169.99Y-104.1
X171.0Y-102.25
X171.7Y-107.5
X172.1Y-102.2
X172.3Y-104.1
T2
X132.025Y-100.87
X133.26Y-115.16
X134.565Y-100.87
X135.8Y-115.16
X138.34Y-115.16
X140.88Y-115.16
X143.42Y-94.84
X143.42Y-115.16
X145.96Y-94.84
X145.96Y-115.16
X148.5Y-94.84
X148.5Y-115.16
X151.04Y-94.84
X151.04Y-115.16
X153.58Y-115.16
X153.58Y-94.84
X156.12Y-94.84
X156.12Y-115.16
X158.66Y-115.16
X158.66Y-94.84
X161.2Y-94.84
X161.2Y-115.16
X163.74Y-94.84
X163.74Y-115.16
X166.28Y-94.84
X166.28Y-115.16
X168.82Y-94.84
X168.82Y-115.16
X171.36Y-94.84
X171.36Y-115.16
M30
