%TF.GenerationSoftware,KiCad,Pcbnew,9.0.1*%
%TF.CreationDate,2025-07-30T00:23:40-04:00*%
%TF.ProjectId,T5848,54353834-382e-46b6-9963-61645f706362,rev?*%
%TF.SameCoordinates,Original*%
%TF.FileFunction,Copper,L2,Inr*%
%TF.FilePolarity,Positive*%
%FSLAX46Y46*%
G04 Gerber Fmt 4.6, Leading zero omitted, Abs format (unit mm)*
G04 Created by KiCad (PCBNEW 9.0.1) date 2025-07-30 00:23:40*
%MOMM*%
%LPD*%
G01*
G04 APERTURE LIST*
%TA.AperFunction,ComponentPad*%
%ADD10R,1.700000X1.700000*%
%TD*%
%TA.AperFunction,ComponentPad*%
%ADD11C,1.700000*%
%TD*%
%TA.AperFunction,ViaPad*%
%ADD12C,0.600000*%
%TD*%
G04 APERTURE END LIST*
D10*
%TO.N,+1.8V*%
%TO.C,J3*%
X134564999Y-100870000D03*
D11*
%TO.N,Net-(J3-Pin_2)*%
X132024999Y-100870000D03*
%TD*%
%TO.N,unconnected-(J1-Pin_1-Pad1)*%
%TO.C,J1*%
X133260000Y-115160000D03*
%TO.N,VDD*%
X135800000Y-115160000D03*
%TO.N,unconnected-(J1-Pin_3-Pad3)*%
X138340000Y-115160001D03*
%TO.N,GND*%
X140880000Y-115160000D03*
%TO.N,/WS*%
X143420000Y-115160000D03*
%TO.N,/SCK*%
X145960000Y-115160000D03*
%TO.N,/SD*%
X148500001Y-115159999D03*
%TO.N,/THSEL_1*%
X151040000Y-115160001D03*
%TO.N,/WAKE_1*%
X153579999Y-115160001D03*
%TO.N,unconnected-(J1-Pin_10-Pad10)*%
X156120000Y-115160000D03*
%TO.N,unconnected-(J1-Pin_11-Pad11)*%
X158660000Y-115160000D03*
%TO.N,unconnected-(J1-Pin_12-Pad12)*%
X161200000Y-115160000D03*
%TO.N,unconnected-(J1-Pin_13-Pad13)*%
X163740001Y-115160000D03*
%TO.N,unconnected-(J1-Pin_14-Pad14)*%
X166280000Y-115160000D03*
%TO.N,unconnected-(J1-Pin_15-Pad15)*%
X168820000Y-115160000D03*
%TO.N,unconnected-(J1-Pin_16-Pad16)*%
X171360000Y-115160001D03*
%TD*%
%TO.N,unconnected-(J2-Pin_1-Pad1)*%
%TO.C,J2*%
X143420000Y-94840000D03*
%TO.N,unconnected-(J2-Pin_2-Pad2)*%
X145960000Y-94840000D03*
%TO.N,unconnected-(J2-Pin_3-Pad3)*%
X148500000Y-94840001D03*
%TO.N,unconnected-(J2-Pin_4-Pad4)*%
X151040000Y-94840000D03*
%TO.N,unconnected-(J2-Pin_5-Pad5)*%
X153580000Y-94840000D03*
%TO.N,unconnected-(J2-Pin_6-Pad6)*%
X156120000Y-94840000D03*
%TO.N,unconnected-(J2-Pin_7-Pad7)*%
X158660001Y-94839999D03*
%TO.N,unconnected-(J2-Pin_8-Pad8)*%
X161200000Y-94840001D03*
%TO.N,/WAKE_2*%
X163739999Y-94840001D03*
%TO.N,/THSEL_2*%
X166280000Y-94840000D03*
%TO.N,unconnected-(J2-Pin_11-Pad11)*%
X168820000Y-94840000D03*
%TO.N,unconnected-(J2-Pin_12-Pad12)*%
X171360000Y-94840000D03*
%TD*%
D12*
%TO.N,/THSEL_1*%
X169400000Y-103300000D03*
%TO.N,GND*%
X166500000Y-106800000D03*
X171700000Y-107500000D03*
X152300000Y-110050000D03*
X154900000Y-102700000D03*
X165000000Y-97000000D03*
X132800000Y-112200000D03*
X172300000Y-104100000D03*
X172100000Y-102200000D03*
X162480000Y-105080000D03*
X155900000Y-105710000D03*
X141150000Y-104450000D03*
X163000000Y-99500000D03*
X149800000Y-112550000D03*
X139300000Y-100700000D03*
X136500000Y-102700000D03*
X171000000Y-102250000D03*
X132040000Y-106300000D03*
X137520000Y-105710000D03*
X152350000Y-112500000D03*
%TO.N,/WAKE_1*%
X169200000Y-104800000D03*
%TO.N,/WS*%
X143400000Y-109150000D03*
%TO.N,/SD*%
X168500000Y-102400000D03*
%TO.N,+1.8V*%
X162480000Y-104120000D03*
X145000000Y-103600000D03*
X154900000Y-103640000D03*
%TO.N,/SCK*%
X145950000Y-109550000D03*
%TO.N,VDD*%
X155050000Y-111050000D03*
X169990000Y-104100000D03*
%TO.N,/THSEL_1_{LS}*%
X137030000Y-106470000D03*
X162450000Y-103100000D03*
%TO.N,/WAKE_1_{LS}*%
X141430000Y-106470000D03*
X160770000Y-105740000D03*
%TO.N,/WS_{LS}*%
X160000000Y-103400003D03*
X143000000Y-102650000D03*
%TO.N,/SD_{LS}*%
X143000000Y-101850000D03*
X160000000Y-102600000D03*
%TO.N,/SCK_{LS}*%
X137450000Y-104700000D03*
X160000000Y-101800000D03*
%TO.N,Net-(J3-Pin_2)*%
X133780000Y-105600000D03*
%TD*%
%TA.AperFunction,Conductor*%
%TO.N,GND*%
G36*
X142650835Y-93840185D02*
G01*
X142696590Y-93892989D01*
X142706534Y-93962147D01*
X142677509Y-94025703D01*
X142671477Y-94032181D01*
X142580588Y-94123069D01*
X142580588Y-94123070D01*
X142580586Y-94123072D01*
X142536859Y-94183256D01*
X142478768Y-94263211D01*
X142400128Y-94417552D01*
X142346597Y-94582302D01*
X142319500Y-94753389D01*
X142319500Y-94926610D01*
X142346597Y-95097697D01*
X142346597Y-95097699D01*
X142346598Y-95097701D01*
X142400127Y-95262445D01*
X142478768Y-95416788D01*
X142580586Y-95556928D01*
X142703072Y-95679414D01*
X142843212Y-95781232D01*
X142997555Y-95859873D01*
X143162299Y-95913402D01*
X143333389Y-95940500D01*
X143333390Y-95940500D01*
X143506610Y-95940500D01*
X143506611Y-95940500D01*
X143677701Y-95913402D01*
X143842445Y-95859873D01*
X143996788Y-95781232D01*
X144136928Y-95679414D01*
X144259414Y-95556928D01*
X144361232Y-95416788D01*
X144439873Y-95262445D01*
X144493402Y-95097701D01*
X144520500Y-94926611D01*
X144520500Y-94753389D01*
X144493402Y-94582299D01*
X144439873Y-94417555D01*
X144361232Y-94263212D01*
X144259414Y-94123072D01*
X144168523Y-94032181D01*
X144135038Y-93970858D01*
X144140022Y-93901166D01*
X144181894Y-93845233D01*
X144247358Y-93820816D01*
X144256204Y-93820500D01*
X145123796Y-93820500D01*
X145190835Y-93840185D01*
X145236590Y-93892989D01*
X145246534Y-93962147D01*
X145217509Y-94025703D01*
X145211477Y-94032181D01*
X145120588Y-94123069D01*
X145120588Y-94123070D01*
X145120586Y-94123072D01*
X145076859Y-94183256D01*
X145018768Y-94263211D01*
X144940128Y-94417552D01*
X144886597Y-94582302D01*
X144859500Y-94753389D01*
X144859500Y-94926610D01*
X144886597Y-95097697D01*
X144886597Y-95097699D01*
X144886598Y-95097701D01*
X144940127Y-95262445D01*
X145018768Y-95416788D01*
X145120586Y-95556928D01*
X145243072Y-95679414D01*
X145383212Y-95781232D01*
X145537555Y-95859873D01*
X145702299Y-95913402D01*
X145873389Y-95940500D01*
X145873390Y-95940500D01*
X146046610Y-95940500D01*
X146046611Y-95940500D01*
X146217701Y-95913402D01*
X146382445Y-95859873D01*
X146536788Y-95781232D01*
X146676928Y-95679414D01*
X146799414Y-95556928D01*
X146901232Y-95416788D01*
X146979873Y-95262445D01*
X147033402Y-95097701D01*
X147060500Y-94926611D01*
X147060500Y-94753389D01*
X147033402Y-94582299D01*
X146979873Y-94417555D01*
X146901232Y-94263212D01*
X146799414Y-94123072D01*
X146708523Y-94032181D01*
X146675038Y-93970858D01*
X146680022Y-93901166D01*
X146721894Y-93845233D01*
X146787358Y-93820816D01*
X146796204Y-93820500D01*
X147663797Y-93820500D01*
X147730836Y-93840185D01*
X147776591Y-93892989D01*
X147786535Y-93962147D01*
X147757510Y-94025703D01*
X147751478Y-94032181D01*
X147660588Y-94123070D01*
X147660588Y-94123071D01*
X147660586Y-94123073D01*
X147616859Y-94183257D01*
X147558768Y-94263212D01*
X147480128Y-94417553D01*
X147426597Y-94582303D01*
X147422290Y-94609500D01*
X147399500Y-94753390D01*
X147399500Y-94926612D01*
X147426598Y-95097702D01*
X147480126Y-95262444D01*
X147480128Y-95262448D01*
X147511269Y-95323566D01*
X147558768Y-95416789D01*
X147660586Y-95556929D01*
X147783072Y-95679415D01*
X147923212Y-95781233D01*
X148077555Y-95859874D01*
X148242299Y-95913403D01*
X148413389Y-95940501D01*
X148413390Y-95940501D01*
X148586610Y-95940501D01*
X148586611Y-95940501D01*
X148757701Y-95913403D01*
X148922445Y-95859874D01*
X149076788Y-95781233D01*
X149216928Y-95679415D01*
X149339414Y-95556929D01*
X149441232Y-95416789D01*
X149519873Y-95262446D01*
X149573402Y-95097702D01*
X149600500Y-94926612D01*
X149600500Y-94753390D01*
X149573402Y-94582300D01*
X149519873Y-94417556D01*
X149441232Y-94263213D01*
X149339414Y-94123073D01*
X149248522Y-94032181D01*
X149215037Y-93970858D01*
X149220021Y-93901166D01*
X149261893Y-93845233D01*
X149327357Y-93820816D01*
X149336203Y-93820500D01*
X150203796Y-93820500D01*
X150270835Y-93840185D01*
X150316590Y-93892989D01*
X150326534Y-93962147D01*
X150297509Y-94025703D01*
X150291477Y-94032181D01*
X150200588Y-94123069D01*
X150200588Y-94123070D01*
X150200586Y-94123072D01*
X150156859Y-94183256D01*
X150098768Y-94263211D01*
X150020128Y-94417552D01*
X149966597Y-94582302D01*
X149939500Y-94753389D01*
X149939500Y-94926610D01*
X149966597Y-95097697D01*
X149966597Y-95097699D01*
X149966598Y-95097701D01*
X150020127Y-95262445D01*
X150098768Y-95416788D01*
X150200586Y-95556928D01*
X150323072Y-95679414D01*
X150463212Y-95781232D01*
X150617555Y-95859873D01*
X150782299Y-95913402D01*
X150953389Y-95940500D01*
X150953390Y-95940500D01*
X151126610Y-95940500D01*
X151126611Y-95940500D01*
X151297701Y-95913402D01*
X151462445Y-95859873D01*
X151616788Y-95781232D01*
X151756928Y-95679414D01*
X151879414Y-95556928D01*
X151981232Y-95416788D01*
X152059873Y-95262445D01*
X152113402Y-95097701D01*
X152140500Y-94926611D01*
X152140500Y-94753389D01*
X152113402Y-94582299D01*
X152059873Y-94417555D01*
X151981232Y-94263212D01*
X151879414Y-94123072D01*
X151788523Y-94032181D01*
X151755038Y-93970858D01*
X151760022Y-93901166D01*
X151801894Y-93845233D01*
X151867358Y-93820816D01*
X151876204Y-93820500D01*
X152743796Y-93820500D01*
X152810835Y-93840185D01*
X152856590Y-93892989D01*
X152866534Y-93962147D01*
X152837509Y-94025703D01*
X152831477Y-94032181D01*
X152740588Y-94123069D01*
X152740588Y-94123070D01*
X152740586Y-94123072D01*
X152696859Y-94183256D01*
X152638768Y-94263211D01*
X152560128Y-94417552D01*
X152506597Y-94582302D01*
X152479500Y-94753389D01*
X152479500Y-94926610D01*
X152506597Y-95097697D01*
X152506597Y-95097699D01*
X152506598Y-95097701D01*
X152560127Y-95262445D01*
X152638768Y-95416788D01*
X152740586Y-95556928D01*
X152863072Y-95679414D01*
X153003212Y-95781232D01*
X153157555Y-95859873D01*
X153322299Y-95913402D01*
X153493389Y-95940500D01*
X153493390Y-95940500D01*
X153666610Y-95940500D01*
X153666611Y-95940500D01*
X153837701Y-95913402D01*
X154002445Y-95859873D01*
X154156788Y-95781232D01*
X154296928Y-95679414D01*
X154419414Y-95556928D01*
X154521232Y-95416788D01*
X154599873Y-95262445D01*
X154653402Y-95097701D01*
X154680500Y-94926611D01*
X154680500Y-94753389D01*
X154653402Y-94582299D01*
X154599873Y-94417555D01*
X154521232Y-94263212D01*
X154419414Y-94123072D01*
X154328523Y-94032181D01*
X154295038Y-93970858D01*
X154300022Y-93901166D01*
X154341894Y-93845233D01*
X154407358Y-93820816D01*
X154416204Y-93820500D01*
X155283796Y-93820500D01*
X155350835Y-93840185D01*
X155396590Y-93892989D01*
X155406534Y-93962147D01*
X155377509Y-94025703D01*
X155371477Y-94032181D01*
X155280588Y-94123069D01*
X155280588Y-94123070D01*
X155280586Y-94123072D01*
X155236859Y-94183256D01*
X155178768Y-94263211D01*
X155100128Y-94417552D01*
X155046597Y-94582302D01*
X155019500Y-94753389D01*
X155019500Y-94926610D01*
X155046597Y-95097697D01*
X155046597Y-95097699D01*
X155046598Y-95097701D01*
X155100127Y-95262445D01*
X155178768Y-95416788D01*
X155280586Y-95556928D01*
X155403072Y-95679414D01*
X155543212Y-95781232D01*
X155697555Y-95859873D01*
X155862299Y-95913402D01*
X156033389Y-95940500D01*
X156033390Y-95940500D01*
X156206610Y-95940500D01*
X156206611Y-95940500D01*
X156377701Y-95913402D01*
X156542445Y-95859873D01*
X156696788Y-95781232D01*
X156836928Y-95679414D01*
X156959414Y-95556928D01*
X157061232Y-95416788D01*
X157139873Y-95262445D01*
X157193402Y-95097701D01*
X157220500Y-94926611D01*
X157220500Y-94753389D01*
X157193402Y-94582299D01*
X157139873Y-94417555D01*
X157061232Y-94263212D01*
X156959414Y-94123072D01*
X156868523Y-94032181D01*
X156835038Y-93970858D01*
X156840022Y-93901166D01*
X156881894Y-93845233D01*
X156947358Y-93820816D01*
X156956204Y-93820500D01*
X157823796Y-93820500D01*
X157890835Y-93840185D01*
X157936590Y-93892989D01*
X157946534Y-93962147D01*
X157917509Y-94025703D01*
X157911477Y-94032181D01*
X157820589Y-94123068D01*
X157820589Y-94123069D01*
X157820587Y-94123071D01*
X157820586Y-94123073D01*
X157718769Y-94263210D01*
X157640129Y-94417551D01*
X157586598Y-94582301D01*
X157559501Y-94753388D01*
X157559501Y-94926609D01*
X157586598Y-95097696D01*
X157586598Y-95097698D01*
X157586599Y-95097700D01*
X157640128Y-95262444D01*
X157718769Y-95416787D01*
X157820587Y-95556927D01*
X157943073Y-95679413D01*
X158083213Y-95781231D01*
X158237556Y-95859872D01*
X158402300Y-95913401D01*
X158573390Y-95940499D01*
X158573391Y-95940499D01*
X158746611Y-95940499D01*
X158746612Y-95940499D01*
X158917702Y-95913401D01*
X159082446Y-95859872D01*
X159236789Y-95781231D01*
X159376929Y-95679413D01*
X159499415Y-95556927D01*
X159601233Y-95416787D01*
X159679874Y-95262444D01*
X159733403Y-95097700D01*
X159760501Y-94926610D01*
X159760501Y-94753388D01*
X159733403Y-94582298D01*
X159679874Y-94417554D01*
X159601233Y-94263211D01*
X159499415Y-94123071D01*
X159408525Y-94032181D01*
X159375040Y-93970858D01*
X159380024Y-93901166D01*
X159421896Y-93845233D01*
X159487360Y-93820816D01*
X159496206Y-93820500D01*
X160363797Y-93820500D01*
X160430836Y-93840185D01*
X160476591Y-93892989D01*
X160486535Y-93962147D01*
X160457510Y-94025703D01*
X160451478Y-94032181D01*
X160360588Y-94123070D01*
X160360588Y-94123071D01*
X160360586Y-94123073D01*
X160316859Y-94183257D01*
X160258768Y-94263212D01*
X160180128Y-94417553D01*
X160126597Y-94582303D01*
X160122290Y-94609500D01*
X160099500Y-94753390D01*
X160099500Y-94926612D01*
X160126598Y-95097702D01*
X160180126Y-95262444D01*
X160180128Y-95262448D01*
X160211269Y-95323566D01*
X160258768Y-95416789D01*
X160360586Y-95556929D01*
X160483072Y-95679415D01*
X160623212Y-95781233D01*
X160777555Y-95859874D01*
X160942299Y-95913403D01*
X161113389Y-95940501D01*
X161113390Y-95940501D01*
X161286610Y-95940501D01*
X161286611Y-95940501D01*
X161457701Y-95913403D01*
X161622445Y-95859874D01*
X161776788Y-95781233D01*
X161916928Y-95679415D01*
X162039414Y-95556929D01*
X162141232Y-95416789D01*
X162219873Y-95262446D01*
X162273402Y-95097702D01*
X162300500Y-94926612D01*
X162300500Y-94753390D01*
X162273402Y-94582300D01*
X162219873Y-94417556D01*
X162141232Y-94263213D01*
X162039414Y-94123073D01*
X161948522Y-94032181D01*
X161915037Y-93970858D01*
X161920021Y-93901166D01*
X161961893Y-93845233D01*
X162027357Y-93820816D01*
X162036203Y-93820500D01*
X162903796Y-93820500D01*
X162970835Y-93840185D01*
X163016590Y-93892989D01*
X163026534Y-93962147D01*
X162997509Y-94025703D01*
X162991477Y-94032181D01*
X162900587Y-94123070D01*
X162900587Y-94123071D01*
X162900585Y-94123073D01*
X162856858Y-94183257D01*
X162798767Y-94263212D01*
X162720127Y-94417553D01*
X162666596Y-94582303D01*
X162662289Y-94609500D01*
X162639499Y-94753390D01*
X162639499Y-94926612D01*
X162666597Y-95097702D01*
X162720125Y-95262444D01*
X162720127Y-95262448D01*
X162751268Y-95323566D01*
X162798767Y-95416789D01*
X162900585Y-95556929D01*
X163023071Y-95679415D01*
X163163211Y-95781233D01*
X163317554Y-95859874D01*
X163482298Y-95913403D01*
X163653388Y-95940501D01*
X163653389Y-95940501D01*
X163826609Y-95940501D01*
X163826610Y-95940501D01*
X163997700Y-95913403D01*
X164162444Y-95859874D01*
X164316787Y-95781233D01*
X164456927Y-95679415D01*
X164579413Y-95556929D01*
X164681231Y-95416789D01*
X164759872Y-95262446D01*
X164813401Y-95097702D01*
X164840499Y-94926612D01*
X164840499Y-94753390D01*
X164813401Y-94582300D01*
X164759872Y-94417556D01*
X164681231Y-94263213D01*
X164579413Y-94123073D01*
X164488521Y-94032181D01*
X164455036Y-93970858D01*
X164460020Y-93901166D01*
X164501892Y-93845233D01*
X164567356Y-93820816D01*
X164576202Y-93820500D01*
X165443796Y-93820500D01*
X165510835Y-93840185D01*
X165556590Y-93892989D01*
X165566534Y-93962147D01*
X165537509Y-94025703D01*
X165531477Y-94032181D01*
X165440588Y-94123069D01*
X165440588Y-94123070D01*
X165440586Y-94123072D01*
X165396859Y-94183256D01*
X165338768Y-94263211D01*
X165260128Y-94417552D01*
X165206597Y-94582302D01*
X165179500Y-94753389D01*
X165179500Y-94926610D01*
X165206597Y-95097697D01*
X165206597Y-95097699D01*
X165206598Y-95097701D01*
X165260127Y-95262445D01*
X165338768Y-95416788D01*
X165440586Y-95556928D01*
X165563072Y-95679414D01*
X165703212Y-95781232D01*
X165857555Y-95859873D01*
X166022299Y-95913402D01*
X166193389Y-95940500D01*
X166193390Y-95940500D01*
X166366610Y-95940500D01*
X166366611Y-95940500D01*
X166537701Y-95913402D01*
X166702445Y-95859873D01*
X166856788Y-95781232D01*
X166996928Y-95679414D01*
X167119414Y-95556928D01*
X167221232Y-95416788D01*
X167299873Y-95262445D01*
X167353402Y-95097701D01*
X167380500Y-94926611D01*
X167380500Y-94753389D01*
X167353402Y-94582299D01*
X167299873Y-94417555D01*
X167221232Y-94263212D01*
X167119414Y-94123072D01*
X167028523Y-94032181D01*
X166995038Y-93970858D01*
X167000022Y-93901166D01*
X167041894Y-93845233D01*
X167107358Y-93820816D01*
X167116204Y-93820500D01*
X167983796Y-93820500D01*
X168050835Y-93840185D01*
X168096590Y-93892989D01*
X168106534Y-93962147D01*
X168077509Y-94025703D01*
X168071477Y-94032181D01*
X167980588Y-94123069D01*
X167980588Y-94123070D01*
X167980586Y-94123072D01*
X167936859Y-94183256D01*
X167878768Y-94263211D01*
X167800128Y-94417552D01*
X167746597Y-94582302D01*
X167719500Y-94753389D01*
X167719500Y-94926610D01*
X167746597Y-95097697D01*
X167746597Y-95097699D01*
X167746598Y-95097701D01*
X167800127Y-95262445D01*
X167878768Y-95416788D01*
X167980586Y-95556928D01*
X168103072Y-95679414D01*
X168243212Y-95781232D01*
X168397555Y-95859873D01*
X168562299Y-95913402D01*
X168733389Y-95940500D01*
X168733390Y-95940500D01*
X168906610Y-95940500D01*
X168906611Y-95940500D01*
X169077701Y-95913402D01*
X169242445Y-95859873D01*
X169396788Y-95781232D01*
X169536928Y-95679414D01*
X169659414Y-95556928D01*
X169761232Y-95416788D01*
X169839873Y-95262445D01*
X169893402Y-95097701D01*
X169920500Y-94926611D01*
X169920500Y-94753389D01*
X169893402Y-94582299D01*
X169839873Y-94417555D01*
X169761232Y-94263212D01*
X169659414Y-94123072D01*
X169568523Y-94032181D01*
X169535038Y-93970858D01*
X169540022Y-93901166D01*
X169581894Y-93845233D01*
X169647358Y-93820816D01*
X169656204Y-93820500D01*
X170523796Y-93820500D01*
X170590835Y-93840185D01*
X170636590Y-93892989D01*
X170646534Y-93962147D01*
X170617509Y-94025703D01*
X170611477Y-94032181D01*
X170520588Y-94123069D01*
X170520588Y-94123070D01*
X170520586Y-94123072D01*
X170476859Y-94183256D01*
X170418768Y-94263211D01*
X170340128Y-94417552D01*
X170286597Y-94582302D01*
X170259500Y-94753389D01*
X170259500Y-94926610D01*
X170286597Y-95097697D01*
X170286597Y-95097699D01*
X170286598Y-95097701D01*
X170340127Y-95262445D01*
X170418768Y-95416788D01*
X170520586Y-95556928D01*
X170643072Y-95679414D01*
X170783212Y-95781232D01*
X170937555Y-95859873D01*
X171102299Y-95913402D01*
X171273389Y-95940500D01*
X171273390Y-95940500D01*
X171446610Y-95940500D01*
X171446611Y-95940500D01*
X171617701Y-95913402D01*
X171782445Y-95859873D01*
X171936788Y-95781232D01*
X172076928Y-95679414D01*
X172199414Y-95556928D01*
X172301232Y-95416788D01*
X172379873Y-95262445D01*
X172433402Y-95097701D01*
X172460500Y-94926611D01*
X172460500Y-94753389D01*
X172433402Y-94582299D01*
X172379873Y-94417555D01*
X172301232Y-94263212D01*
X172199414Y-94123072D01*
X172108523Y-94032181D01*
X172075038Y-93970858D01*
X172080022Y-93901166D01*
X172121894Y-93845233D01*
X172187358Y-93820816D01*
X172196204Y-93820500D01*
X175125830Y-93820500D01*
X175166249Y-93820500D01*
X175173736Y-93820726D01*
X175438483Y-93836740D01*
X175453345Y-93838544D01*
X175710541Y-93885678D01*
X175725063Y-93889257D01*
X175974720Y-93967052D01*
X175988697Y-93972353D01*
X176227151Y-94079673D01*
X176240397Y-94086625D01*
X176464171Y-94221901D01*
X176476485Y-94230401D01*
X176518365Y-94263212D01*
X176682318Y-94391662D01*
X176693525Y-94401591D01*
X176878408Y-94586474D01*
X176888337Y-94597681D01*
X177049595Y-94803510D01*
X177058100Y-94815831D01*
X177125069Y-94926611D01*
X177193371Y-95039596D01*
X177200330Y-95052855D01*
X177307644Y-95291298D01*
X177312950Y-95305288D01*
X177390738Y-95554920D01*
X177394321Y-95569458D01*
X177441454Y-95826652D01*
X177443259Y-95841517D01*
X177459274Y-96106263D01*
X177459500Y-96113750D01*
X177459500Y-113886249D01*
X177459274Y-113893736D01*
X177443259Y-114158482D01*
X177441454Y-114173347D01*
X177394321Y-114430541D01*
X177390737Y-114445079D01*
X177313149Y-114694075D01*
X177312954Y-114694700D01*
X177307644Y-114708701D01*
X177200330Y-114947144D01*
X177193371Y-114960403D01*
X177058102Y-115184165D01*
X177049595Y-115196489D01*
X176888337Y-115402318D01*
X176878408Y-115413525D01*
X176693525Y-115598408D01*
X176682318Y-115608337D01*
X176476489Y-115769595D01*
X176464165Y-115778102D01*
X176240403Y-115913371D01*
X176227144Y-115920330D01*
X175988701Y-116027644D01*
X175974705Y-116032951D01*
X175727174Y-116110085D01*
X175725079Y-116110738D01*
X175710541Y-116114321D01*
X175453347Y-116161454D01*
X175438482Y-116163259D01*
X175173736Y-116179274D01*
X175166249Y-116179500D01*
X172196205Y-116179500D01*
X172129166Y-116159815D01*
X172083411Y-116107011D01*
X172073467Y-116037853D01*
X172102492Y-115974297D01*
X172108524Y-115967819D01*
X172199414Y-115876929D01*
X172301232Y-115736789D01*
X172379873Y-115582446D01*
X172433402Y-115417702D01*
X172460500Y-115246612D01*
X172460500Y-115073390D01*
X172433402Y-114902300D01*
X172379873Y-114737556D01*
X172301232Y-114583213D01*
X172199414Y-114443073D01*
X172076928Y-114320587D01*
X171936788Y-114218769D01*
X171782445Y-114140128D01*
X171617701Y-114086599D01*
X171617699Y-114086598D01*
X171617698Y-114086598D01*
X171486271Y-114065782D01*
X171446611Y-114059501D01*
X171273389Y-114059501D01*
X171233728Y-114065782D01*
X171102302Y-114086598D01*
X170937552Y-114140129D01*
X170783211Y-114218769D01*
X170752107Y-114241368D01*
X170643072Y-114320587D01*
X170643070Y-114320589D01*
X170643069Y-114320589D01*
X170520588Y-114443070D01*
X170520588Y-114443071D01*
X170520586Y-114443073D01*
X170476859Y-114503257D01*
X170418768Y-114583212D01*
X170340128Y-114737553D01*
X170286597Y-114902303D01*
X170277395Y-114960403D01*
X170259500Y-115073390D01*
X170259500Y-115246612D01*
X170264407Y-115277596D01*
X170282289Y-115390500D01*
X170286598Y-115417702D01*
X170340127Y-115582446D01*
X170418768Y-115736789D01*
X170520586Y-115876929D01*
X170520588Y-115876931D01*
X170611476Y-115967819D01*
X170644961Y-116029142D01*
X170639977Y-116098834D01*
X170598105Y-116154767D01*
X170532641Y-116179184D01*
X170523795Y-116179500D01*
X169656204Y-116179500D01*
X169589165Y-116159815D01*
X169543410Y-116107011D01*
X169533466Y-116037853D01*
X169562491Y-115974297D01*
X169568523Y-115967819D01*
X169659414Y-115876928D01*
X169761232Y-115736788D01*
X169839873Y-115582445D01*
X169893402Y-115417701D01*
X169920500Y-115246611D01*
X169920500Y-115073389D01*
X169893402Y-114902299D01*
X169839873Y-114737555D01*
X169761232Y-114583212D01*
X169659414Y-114443072D01*
X169536928Y-114320586D01*
X169396788Y-114218768D01*
X169364805Y-114202472D01*
X169242447Y-114140128D01*
X169242446Y-114140127D01*
X169242445Y-114140127D01*
X169077701Y-114086598D01*
X169077699Y-114086597D01*
X169077698Y-114086597D01*
X168946271Y-114065781D01*
X168906611Y-114059500D01*
X168733389Y-114059500D01*
X168693728Y-114065781D01*
X168562302Y-114086597D01*
X168397552Y-114140128D01*
X168243211Y-114218768D01*
X168163256Y-114276859D01*
X168103072Y-114320586D01*
X168103070Y-114320588D01*
X168103069Y-114320588D01*
X167980588Y-114443069D01*
X167980588Y-114443070D01*
X167980586Y-114443072D01*
X167963934Y-114465992D01*
X167878768Y-114583211D01*
X167800128Y-114737552D01*
X167746597Y-114902302D01*
X167737395Y-114960403D01*
X167719500Y-115073389D01*
X167719500Y-115246611D01*
X167719894Y-115249096D01*
X167746597Y-115417697D01*
X167746597Y-115417699D01*
X167746598Y-115417701D01*
X167799104Y-115579298D01*
X167800128Y-115582447D01*
X167813320Y-115608337D01*
X167878768Y-115736788D01*
X167980586Y-115876928D01*
X167980588Y-115876930D01*
X168071477Y-115967819D01*
X168104962Y-116029142D01*
X168099978Y-116098834D01*
X168058106Y-116154767D01*
X167992642Y-116179184D01*
X167983796Y-116179500D01*
X167116204Y-116179500D01*
X167049165Y-116159815D01*
X167003410Y-116107011D01*
X166993466Y-116037853D01*
X167022491Y-115974297D01*
X167028523Y-115967819D01*
X167119414Y-115876928D01*
X167221232Y-115736788D01*
X167299873Y-115582445D01*
X167353402Y-115417701D01*
X167380500Y-115246611D01*
X167380500Y-115073389D01*
X167353402Y-114902299D01*
X167299873Y-114737555D01*
X167221232Y-114583212D01*
X167119414Y-114443072D01*
X166996928Y-114320586D01*
X166856788Y-114218768D01*
X166824805Y-114202472D01*
X166702447Y-114140128D01*
X166702446Y-114140127D01*
X166702445Y-114140127D01*
X166537701Y-114086598D01*
X166537699Y-114086597D01*
X166537698Y-114086597D01*
X166406271Y-114065781D01*
X166366611Y-114059500D01*
X166193389Y-114059500D01*
X166153728Y-114065781D01*
X166022302Y-114086597D01*
X165857552Y-114140128D01*
X165703211Y-114218768D01*
X165623256Y-114276859D01*
X165563072Y-114320586D01*
X165563070Y-114320588D01*
X165563069Y-114320588D01*
X165440588Y-114443069D01*
X165440588Y-114443070D01*
X165440586Y-114443072D01*
X165423934Y-114465992D01*
X165338768Y-114583211D01*
X165260128Y-114737552D01*
X165206597Y-114902302D01*
X165197395Y-114960403D01*
X165179500Y-115073389D01*
X165179500Y-115246611D01*
X165179894Y-115249096D01*
X165206597Y-115417697D01*
X165206597Y-115417699D01*
X165206598Y-115417701D01*
X165259104Y-115579298D01*
X165260128Y-115582447D01*
X165273320Y-115608337D01*
X165338768Y-115736788D01*
X165440586Y-115876928D01*
X165440588Y-115876930D01*
X165531477Y-115967819D01*
X165564962Y-116029142D01*
X165559978Y-116098834D01*
X165518106Y-116154767D01*
X165452642Y-116179184D01*
X165443796Y-116179500D01*
X164576205Y-116179500D01*
X164509166Y-116159815D01*
X164463411Y-116107011D01*
X164453467Y-116037853D01*
X164482492Y-115974297D01*
X164488524Y-115967819D01*
X164579415Y-115876928D01*
X164681233Y-115736788D01*
X164759874Y-115582445D01*
X164813403Y-115417701D01*
X164840501Y-115246611D01*
X164840501Y-115073389D01*
X164813403Y-114902299D01*
X164759874Y-114737555D01*
X164681233Y-114583212D01*
X164579415Y-114443072D01*
X164456929Y-114320586D01*
X164316789Y-114218768D01*
X164284806Y-114202472D01*
X164162448Y-114140128D01*
X164162447Y-114140127D01*
X164162446Y-114140127D01*
X163997702Y-114086598D01*
X163997700Y-114086597D01*
X163997699Y-114086597D01*
X163866272Y-114065781D01*
X163826612Y-114059500D01*
X163653390Y-114059500D01*
X163613729Y-114065781D01*
X163482303Y-114086597D01*
X163317553Y-114140128D01*
X163163212Y-114218768D01*
X163083257Y-114276859D01*
X163023073Y-114320586D01*
X163023071Y-114320588D01*
X163023070Y-114320588D01*
X162900589Y-114443069D01*
X162900589Y-114443070D01*
X162900587Y-114443072D01*
X162883935Y-114465992D01*
X162798769Y-114583211D01*
X162720129Y-114737552D01*
X162666598Y-114902302D01*
X162657396Y-114960403D01*
X162639501Y-115073389D01*
X162639501Y-115246611D01*
X162639895Y-115249096D01*
X162666598Y-115417697D01*
X162666598Y-115417699D01*
X162666599Y-115417701D01*
X162719105Y-115579298D01*
X162720129Y-115582447D01*
X162733321Y-115608337D01*
X162798769Y-115736788D01*
X162900587Y-115876928D01*
X162900589Y-115876930D01*
X162991478Y-115967819D01*
X163024963Y-116029142D01*
X163019979Y-116098834D01*
X162978107Y-116154767D01*
X162912643Y-116179184D01*
X162903797Y-116179500D01*
X162036204Y-116179500D01*
X161969165Y-116159815D01*
X161923410Y-116107011D01*
X161913466Y-116037853D01*
X161942491Y-115974297D01*
X161948523Y-115967819D01*
X162039414Y-115876928D01*
X162141232Y-115736788D01*
X162219873Y-115582445D01*
X162273402Y-115417701D01*
X162300500Y-115246611D01*
X162300500Y-115073389D01*
X162273402Y-114902299D01*
X162219873Y-114737555D01*
X162141232Y-114583212D01*
X162039414Y-114443072D01*
X161916928Y-114320586D01*
X161776788Y-114218768D01*
X161744805Y-114202472D01*
X161622447Y-114140128D01*
X161622446Y-114140127D01*
X161622445Y-114140127D01*
X161457701Y-114086598D01*
X161457699Y-114086597D01*
X161457698Y-114086597D01*
X161326271Y-114065781D01*
X161286611Y-114059500D01*
X161113389Y-114059500D01*
X161073728Y-114065781D01*
X160942302Y-114086597D01*
X160777552Y-114140128D01*
X160623211Y-114218768D01*
X160543256Y-114276859D01*
X160483072Y-114320586D01*
X160483070Y-114320588D01*
X160483069Y-114320588D01*
X160360588Y-114443069D01*
X160360588Y-114443070D01*
X160360586Y-114443072D01*
X160343934Y-114465992D01*
X160258768Y-114583211D01*
X160180128Y-114737552D01*
X160126597Y-114902302D01*
X160117395Y-114960403D01*
X160099500Y-115073389D01*
X160099500Y-115246611D01*
X160099894Y-115249096D01*
X160126597Y-115417697D01*
X160126597Y-115417699D01*
X160126598Y-115417701D01*
X160179104Y-115579298D01*
X160180128Y-115582447D01*
X160193320Y-115608337D01*
X160258768Y-115736788D01*
X160360586Y-115876928D01*
X160360588Y-115876930D01*
X160451477Y-115967819D01*
X160484962Y-116029142D01*
X160479978Y-116098834D01*
X160438106Y-116154767D01*
X160372642Y-116179184D01*
X160363796Y-116179500D01*
X159496204Y-116179500D01*
X159429165Y-116159815D01*
X159383410Y-116107011D01*
X159373466Y-116037853D01*
X159402491Y-115974297D01*
X159408523Y-115967819D01*
X159499414Y-115876928D01*
X159601232Y-115736788D01*
X159679873Y-115582445D01*
X159733402Y-115417701D01*
X159760500Y-115246611D01*
X159760500Y-115073389D01*
X159733402Y-114902299D01*
X159679873Y-114737555D01*
X159601232Y-114583212D01*
X159499414Y-114443072D01*
X159376928Y-114320586D01*
X159236788Y-114218768D01*
X159204805Y-114202472D01*
X159082447Y-114140128D01*
X159082446Y-114140127D01*
X159082445Y-114140127D01*
X158917701Y-114086598D01*
X158917699Y-114086597D01*
X158917698Y-114086597D01*
X158786271Y-114065781D01*
X158746611Y-114059500D01*
X158573389Y-114059500D01*
X158533728Y-114065781D01*
X158402302Y-114086597D01*
X158237552Y-114140128D01*
X158083211Y-114218768D01*
X158003256Y-114276859D01*
X157943072Y-114320586D01*
X157943070Y-114320588D01*
X157943069Y-114320588D01*
X157820588Y-114443069D01*
X157820588Y-114443070D01*
X157820586Y-114443072D01*
X157803934Y-114465992D01*
X157718768Y-114583211D01*
X157640128Y-114737552D01*
X157586597Y-114902302D01*
X157577395Y-114960403D01*
X157559500Y-115073389D01*
X157559500Y-115246611D01*
X157559894Y-115249096D01*
X157586597Y-115417697D01*
X157586597Y-115417699D01*
X157586598Y-115417701D01*
X157639104Y-115579298D01*
X157640128Y-115582447D01*
X157653320Y-115608337D01*
X157718768Y-115736788D01*
X157820586Y-115876928D01*
X157820588Y-115876930D01*
X157911477Y-115967819D01*
X157944962Y-116029142D01*
X157939978Y-116098834D01*
X157898106Y-116154767D01*
X157832642Y-116179184D01*
X157823796Y-116179500D01*
X156956204Y-116179500D01*
X156889165Y-116159815D01*
X156843410Y-116107011D01*
X156833466Y-116037853D01*
X156862491Y-115974297D01*
X156868523Y-115967819D01*
X156959414Y-115876928D01*
X157061232Y-115736788D01*
X157139873Y-115582445D01*
X157193402Y-115417701D01*
X157220500Y-115246611D01*
X157220500Y-115073389D01*
X157193402Y-114902299D01*
X157139873Y-114737555D01*
X157061232Y-114583212D01*
X156959414Y-114443072D01*
X156836928Y-114320586D01*
X156696788Y-114218768D01*
X156664805Y-114202472D01*
X156542447Y-114140128D01*
X156542446Y-114140127D01*
X156542445Y-114140127D01*
X156377701Y-114086598D01*
X156377699Y-114086597D01*
X156377698Y-114086597D01*
X156246271Y-114065781D01*
X156206611Y-114059500D01*
X156033389Y-114059500D01*
X155993728Y-114065781D01*
X155862302Y-114086597D01*
X155697552Y-114140128D01*
X155543211Y-114218768D01*
X155463256Y-114276859D01*
X155403072Y-114320586D01*
X155403070Y-114320588D01*
X155403069Y-114320588D01*
X155280588Y-114443069D01*
X155280588Y-114443070D01*
X155280586Y-114443072D01*
X155263934Y-114465992D01*
X155178768Y-114583211D01*
X155100128Y-114737552D01*
X155046597Y-114902302D01*
X155037395Y-114960403D01*
X155019500Y-115073389D01*
X155019500Y-115246611D01*
X155019894Y-115249096D01*
X155046597Y-115417697D01*
X155046597Y-115417699D01*
X155046598Y-115417701D01*
X155099104Y-115579298D01*
X155100128Y-115582447D01*
X155113320Y-115608337D01*
X155178768Y-115736788D01*
X155280586Y-115876928D01*
X155280588Y-115876930D01*
X155371477Y-115967819D01*
X155404962Y-116029142D01*
X155399978Y-116098834D01*
X155358106Y-116154767D01*
X155292642Y-116179184D01*
X155283796Y-116179500D01*
X154416204Y-116179500D01*
X154349165Y-116159815D01*
X154303410Y-116107011D01*
X154293466Y-116037853D01*
X154322491Y-115974297D01*
X154328523Y-115967819D01*
X154419413Y-115876929D01*
X154521231Y-115736789D01*
X154599872Y-115582446D01*
X154653401Y-115417702D01*
X154680499Y-115246612D01*
X154680499Y-115073390D01*
X154653401Y-114902300D01*
X154599872Y-114737556D01*
X154521231Y-114583213D01*
X154419413Y-114443073D01*
X154296927Y-114320587D01*
X154156787Y-114218769D01*
X154002444Y-114140128D01*
X153837700Y-114086599D01*
X153837698Y-114086598D01*
X153837697Y-114086598D01*
X153706270Y-114065782D01*
X153666610Y-114059501D01*
X153493388Y-114059501D01*
X153453727Y-114065782D01*
X153322301Y-114086598D01*
X153157551Y-114140129D01*
X153003210Y-114218769D01*
X152972106Y-114241368D01*
X152863071Y-114320587D01*
X152863069Y-114320589D01*
X152863068Y-114320589D01*
X152740587Y-114443070D01*
X152740587Y-114443071D01*
X152740585Y-114443073D01*
X152696858Y-114503257D01*
X152638767Y-114583212D01*
X152560127Y-114737553D01*
X152506596Y-114902303D01*
X152497394Y-114960403D01*
X152479499Y-115073390D01*
X152479499Y-115246612D01*
X152484406Y-115277596D01*
X152502288Y-115390500D01*
X152506597Y-115417702D01*
X152560126Y-115582446D01*
X152638767Y-115736789D01*
X152740585Y-115876929D01*
X152740587Y-115876931D01*
X152831475Y-115967819D01*
X152864960Y-116029142D01*
X152859976Y-116098834D01*
X152818104Y-116154767D01*
X152752640Y-116179184D01*
X152743794Y-116179500D01*
X151876205Y-116179500D01*
X151809166Y-116159815D01*
X151763411Y-116107011D01*
X151753467Y-116037853D01*
X151782492Y-115974297D01*
X151788524Y-115967819D01*
X151879414Y-115876929D01*
X151981232Y-115736789D01*
X152059873Y-115582446D01*
X152113402Y-115417702D01*
X152140500Y-115246612D01*
X152140500Y-115073390D01*
X152113402Y-114902300D01*
X152059873Y-114737556D01*
X151981232Y-114583213D01*
X151879414Y-114443073D01*
X151756928Y-114320587D01*
X151616788Y-114218769D01*
X151462445Y-114140128D01*
X151297701Y-114086599D01*
X151297699Y-114086598D01*
X151297698Y-114086598D01*
X151166271Y-114065782D01*
X151126611Y-114059501D01*
X150953389Y-114059501D01*
X150913728Y-114065782D01*
X150782302Y-114086598D01*
X150617552Y-114140129D01*
X150463211Y-114218769D01*
X150432107Y-114241368D01*
X150323072Y-114320587D01*
X150323070Y-114320589D01*
X150323069Y-114320589D01*
X150200588Y-114443070D01*
X150200588Y-114443071D01*
X150200586Y-114443073D01*
X150156859Y-114503257D01*
X150098768Y-114583212D01*
X150020128Y-114737553D01*
X149966597Y-114902303D01*
X149957395Y-114960403D01*
X149939500Y-115073390D01*
X149939500Y-115246612D01*
X149944407Y-115277596D01*
X149962289Y-115390500D01*
X149966598Y-115417702D01*
X150020127Y-115582446D01*
X150098768Y-115736789D01*
X150200586Y-115876929D01*
X150200588Y-115876931D01*
X150291476Y-115967819D01*
X150324961Y-116029142D01*
X150319977Y-116098834D01*
X150278105Y-116154767D01*
X150212641Y-116179184D01*
X150203795Y-116179500D01*
X149336204Y-116179500D01*
X149269165Y-116159815D01*
X149223410Y-116107011D01*
X149213466Y-116037853D01*
X149242491Y-115974297D01*
X149248523Y-115967819D01*
X149339415Y-115876927D01*
X149441233Y-115736787D01*
X149519874Y-115582444D01*
X149573403Y-115417700D01*
X149600501Y-115246610D01*
X149600501Y-115073388D01*
X149573403Y-114902298D01*
X149519874Y-114737554D01*
X149441233Y-114583211D01*
X149339415Y-114443071D01*
X149216929Y-114320585D01*
X149076789Y-114218767D01*
X148922446Y-114140126D01*
X148757702Y-114086597D01*
X148757700Y-114086596D01*
X148757699Y-114086596D01*
X148626272Y-114065780D01*
X148586612Y-114059499D01*
X148413390Y-114059499D01*
X148373729Y-114065780D01*
X148242303Y-114086596D01*
X148077553Y-114140127D01*
X147923212Y-114218767D01*
X147892105Y-114241368D01*
X147783073Y-114320585D01*
X147783071Y-114320587D01*
X147783070Y-114320587D01*
X147660589Y-114443068D01*
X147660589Y-114443069D01*
X147660587Y-114443071D01*
X147643934Y-114465992D01*
X147558769Y-114583210D01*
X147480129Y-114737551D01*
X147426598Y-114902301D01*
X147399501Y-115073388D01*
X147399501Y-115246609D01*
X147426598Y-115417696D01*
X147426598Y-115417698D01*
X147426599Y-115417700D01*
X147480128Y-115582444D01*
X147558769Y-115736787D01*
X147660587Y-115876927D01*
X147660589Y-115876929D01*
X147751479Y-115967819D01*
X147784964Y-116029142D01*
X147779980Y-116098834D01*
X147738108Y-116154767D01*
X147672644Y-116179184D01*
X147663798Y-116179500D01*
X146796204Y-116179500D01*
X146729165Y-116159815D01*
X146683410Y-116107011D01*
X146673466Y-116037853D01*
X146702491Y-115974297D01*
X146708523Y-115967819D01*
X146799414Y-115876928D01*
X146901232Y-115736788D01*
X146979873Y-115582445D01*
X147033402Y-115417701D01*
X147060500Y-115246611D01*
X147060500Y-115073389D01*
X147033402Y-114902299D01*
X146979873Y-114737555D01*
X146901232Y-114583212D01*
X146799414Y-114443072D01*
X146676928Y-114320586D01*
X146536788Y-114218768D01*
X146504805Y-114202472D01*
X146382447Y-114140128D01*
X146382446Y-114140127D01*
X146382445Y-114140127D01*
X146217701Y-114086598D01*
X146217699Y-114086597D01*
X146217698Y-114086597D01*
X146086271Y-114065781D01*
X146046611Y-114059500D01*
X145873389Y-114059500D01*
X145833728Y-114065781D01*
X145702302Y-114086597D01*
X145537552Y-114140128D01*
X145383211Y-114218768D01*
X145303256Y-114276859D01*
X145243072Y-114320586D01*
X145243070Y-114320588D01*
X145243069Y-114320588D01*
X145120588Y-114443069D01*
X145120588Y-114443070D01*
X145120586Y-114443072D01*
X145103934Y-114465992D01*
X145018768Y-114583211D01*
X144940128Y-114737552D01*
X144886597Y-114902302D01*
X144877395Y-114960403D01*
X144859500Y-115073389D01*
X144859500Y-115246611D01*
X144859894Y-115249096D01*
X144886597Y-115417697D01*
X144886597Y-115417699D01*
X144886598Y-115417701D01*
X144939104Y-115579298D01*
X144940128Y-115582447D01*
X144953320Y-115608337D01*
X145018768Y-115736788D01*
X145120586Y-115876928D01*
X145120588Y-115876930D01*
X145211477Y-115967819D01*
X145244962Y-116029142D01*
X145239978Y-116098834D01*
X145198106Y-116154767D01*
X145132642Y-116179184D01*
X145123796Y-116179500D01*
X144256204Y-116179500D01*
X144189165Y-116159815D01*
X144143410Y-116107011D01*
X144133466Y-116037853D01*
X144162491Y-115974297D01*
X144168523Y-115967819D01*
X144259414Y-115876928D01*
X144361232Y-115736788D01*
X144439873Y-115582445D01*
X144493402Y-115417701D01*
X144520500Y-115246611D01*
X144520500Y-115073389D01*
X144493402Y-114902299D01*
X144439873Y-114737555D01*
X144361232Y-114583212D01*
X144259414Y-114443072D01*
X144136928Y-114320586D01*
X143996788Y-114218768D01*
X143964805Y-114202472D01*
X143842447Y-114140128D01*
X143842446Y-114140127D01*
X143842445Y-114140127D01*
X143677701Y-114086598D01*
X143677699Y-114086597D01*
X143677698Y-114086597D01*
X143546271Y-114065781D01*
X143506611Y-114059500D01*
X143333389Y-114059500D01*
X143293728Y-114065781D01*
X143162302Y-114086597D01*
X142997552Y-114140128D01*
X142843211Y-114218768D01*
X142763256Y-114276859D01*
X142703072Y-114320586D01*
X142703070Y-114320588D01*
X142703069Y-114320588D01*
X142580588Y-114443069D01*
X142580588Y-114443070D01*
X142580586Y-114443072D01*
X142563934Y-114465992D01*
X142478768Y-114583211D01*
X142400128Y-114737550D01*
X142399487Y-114739522D01*
X142399102Y-114740712D01*
X142399099Y-114740720D01*
X142398381Y-114741769D01*
X142398266Y-114742048D01*
X142398207Y-114742023D01*
X142359657Y-114798393D01*
X142295297Y-114825587D01*
X142226451Y-114813668D01*
X142174979Y-114766420D01*
X142163239Y-114740711D01*
X142131096Y-114641784D01*
X142034624Y-114452449D01*
X141995270Y-114398282D01*
X141995269Y-114398282D01*
X141362962Y-115030589D01*
X141345925Y-114967007D01*
X141280099Y-114852993D01*
X141187007Y-114759901D01*
X141072993Y-114694075D01*
X141009409Y-114677037D01*
X141641716Y-114044728D01*
X141587550Y-114005375D01*
X141398217Y-113908904D01*
X141324545Y-113884967D01*
X141196129Y-113843242D01*
X140986246Y-113810000D01*
X140773754Y-113810000D01*
X140563872Y-113843242D01*
X140563869Y-113843242D01*
X140361782Y-113908904D01*
X140172439Y-114005380D01*
X140118282Y-114044727D01*
X140118282Y-114044728D01*
X140750591Y-114677037D01*
X140687007Y-114694075D01*
X140572993Y-114759901D01*
X140479901Y-114852993D01*
X140414075Y-114967007D01*
X140397037Y-115030591D01*
X139764728Y-114398282D01*
X139764727Y-114398282D01*
X139725380Y-114452439D01*
X139628904Y-114641783D01*
X139596760Y-114740712D01*
X139557322Y-114798388D01*
X139492964Y-114825586D01*
X139424117Y-114813671D01*
X139372642Y-114766427D01*
X139360898Y-114740712D01*
X139359873Y-114737556D01*
X139281232Y-114583213D01*
X139179414Y-114443073D01*
X139056928Y-114320587D01*
X138916788Y-114218769D01*
X138762445Y-114140128D01*
X138597701Y-114086599D01*
X138597699Y-114086598D01*
X138597698Y-114086598D01*
X138466271Y-114065782D01*
X138426611Y-114059501D01*
X138253389Y-114059501D01*
X138213728Y-114065782D01*
X138082302Y-114086598D01*
X137917552Y-114140129D01*
X137763211Y-114218769D01*
X137732107Y-114241368D01*
X137623072Y-114320587D01*
X137623070Y-114320589D01*
X137623069Y-114320589D01*
X137500588Y-114443070D01*
X137500588Y-114443071D01*
X137500586Y-114443073D01*
X137456859Y-114503257D01*
X137398768Y-114583212D01*
X137320128Y-114737553D01*
X137266597Y-114902303D01*
X137257395Y-114960403D01*
X137239500Y-115073390D01*
X137239500Y-115246612D01*
X137244407Y-115277596D01*
X137262289Y-115390500D01*
X137266598Y-115417702D01*
X137320127Y-115582446D01*
X137398768Y-115736789D01*
X137500586Y-115876929D01*
X137500588Y-115876931D01*
X137591476Y-115967819D01*
X137624961Y-116029142D01*
X137619977Y-116098834D01*
X137578105Y-116154767D01*
X137512641Y-116179184D01*
X137503795Y-116179500D01*
X136636204Y-116179500D01*
X136569165Y-116159815D01*
X136523410Y-116107011D01*
X136513466Y-116037853D01*
X136542491Y-115974297D01*
X136548523Y-115967819D01*
X136639414Y-115876928D01*
X136741232Y-115736788D01*
X136819873Y-115582445D01*
X136873402Y-115417701D01*
X136900500Y-115246611D01*
X136900500Y-115073389D01*
X136873402Y-114902299D01*
X136819873Y-114737555D01*
X136741232Y-114583212D01*
X136639414Y-114443072D01*
X136516928Y-114320586D01*
X136376788Y-114218768D01*
X136344805Y-114202472D01*
X136222447Y-114140128D01*
X136222446Y-114140127D01*
X136222445Y-114140127D01*
X136057701Y-114086598D01*
X136057699Y-114086597D01*
X136057698Y-114086597D01*
X135926271Y-114065781D01*
X135886611Y-114059500D01*
X135713389Y-114059500D01*
X135673728Y-114065781D01*
X135542302Y-114086597D01*
X135377552Y-114140128D01*
X135223211Y-114218768D01*
X135143256Y-114276859D01*
X135083072Y-114320586D01*
X135083070Y-114320588D01*
X135083069Y-114320588D01*
X134960588Y-114443069D01*
X134960588Y-114443070D01*
X134960586Y-114443072D01*
X134943934Y-114465992D01*
X134858768Y-114583211D01*
X134780128Y-114737552D01*
X134726597Y-114902302D01*
X134717395Y-114960403D01*
X134699500Y-115073389D01*
X134699500Y-115246611D01*
X134699894Y-115249096D01*
X134726597Y-115417697D01*
X134726597Y-115417699D01*
X134726598Y-115417701D01*
X134779104Y-115579298D01*
X134780128Y-115582447D01*
X134793320Y-115608337D01*
X134858768Y-115736788D01*
X134960586Y-115876928D01*
X134960588Y-115876930D01*
X135051477Y-115967819D01*
X135084962Y-116029142D01*
X135079978Y-116098834D01*
X135038106Y-116154767D01*
X134972642Y-116179184D01*
X134963796Y-116179500D01*
X134096204Y-116179500D01*
X134029165Y-116159815D01*
X133983410Y-116107011D01*
X133973466Y-116037853D01*
X134002491Y-115974297D01*
X134008523Y-115967819D01*
X134099414Y-115876928D01*
X134201232Y-115736788D01*
X134279873Y-115582445D01*
X134333402Y-115417701D01*
X134360500Y-115246611D01*
X134360500Y-115073389D01*
X134333402Y-114902299D01*
X134279873Y-114737555D01*
X134201232Y-114583212D01*
X134099414Y-114443072D01*
X133976928Y-114320586D01*
X133836788Y-114218768D01*
X133804805Y-114202472D01*
X133682447Y-114140128D01*
X133682446Y-114140127D01*
X133682445Y-114140127D01*
X133517701Y-114086598D01*
X133517699Y-114086597D01*
X133517698Y-114086597D01*
X133386271Y-114065781D01*
X133346611Y-114059500D01*
X133173389Y-114059500D01*
X133133728Y-114065781D01*
X133002302Y-114086597D01*
X132837552Y-114140128D01*
X132683211Y-114218768D01*
X132603256Y-114276859D01*
X132543072Y-114320586D01*
X132543070Y-114320588D01*
X132543069Y-114320588D01*
X132420588Y-114443069D01*
X132420588Y-114443070D01*
X132420586Y-114443072D01*
X132403934Y-114465992D01*
X132318768Y-114583211D01*
X132240128Y-114737552D01*
X132186597Y-114902302D01*
X132177395Y-114960403D01*
X132159500Y-115073389D01*
X132159500Y-115246611D01*
X132159894Y-115249096D01*
X132186597Y-115417697D01*
X132186597Y-115417699D01*
X132186598Y-115417701D01*
X132239104Y-115579298D01*
X132240128Y-115582447D01*
X132253320Y-115608337D01*
X132318768Y-115736788D01*
X132420586Y-115876928D01*
X132420588Y-115876930D01*
X132511477Y-115967819D01*
X132544962Y-116029142D01*
X132539978Y-116098834D01*
X132498106Y-116154767D01*
X132432642Y-116179184D01*
X132423796Y-116179500D01*
X121833751Y-116179500D01*
X121826264Y-116179274D01*
X121561517Y-116163259D01*
X121546652Y-116161454D01*
X121289458Y-116114321D01*
X121274924Y-116110739D01*
X121025288Y-116032950D01*
X121011298Y-116027644D01*
X120772855Y-115920330D01*
X120759596Y-115913371D01*
X120699310Y-115876927D01*
X120535831Y-115778100D01*
X120523510Y-115769595D01*
X120317681Y-115608337D01*
X120306474Y-115598408D01*
X120121591Y-115413525D01*
X120111662Y-115402318D01*
X119991619Y-115249096D01*
X119950401Y-115196485D01*
X119941901Y-115184171D01*
X119806625Y-114960397D01*
X119799673Y-114947151D01*
X119692353Y-114708697D01*
X119687052Y-114694720D01*
X119609257Y-114445063D01*
X119605678Y-114430541D01*
X119558545Y-114173347D01*
X119556740Y-114158482D01*
X119547643Y-114008097D01*
X119540726Y-113893736D01*
X119540500Y-113886249D01*
X119540500Y-113771902D01*
X120329500Y-113771902D01*
X120329500Y-114008097D01*
X120366446Y-114241368D01*
X120439433Y-114465996D01*
X120499159Y-114583213D01*
X120546657Y-114676433D01*
X120685483Y-114867510D01*
X120852490Y-115034517D01*
X121043567Y-115173343D01*
X121088994Y-115196489D01*
X121254003Y-115280566D01*
X121254005Y-115280566D01*
X121254008Y-115280568D01*
X121374412Y-115319689D01*
X121478631Y-115353553D01*
X121711903Y-115390500D01*
X121711908Y-115390500D01*
X121948097Y-115390500D01*
X122181368Y-115353553D01*
X122183091Y-115352993D01*
X122405992Y-115280568D01*
X122616433Y-115173343D01*
X122807510Y-115034517D01*
X122974517Y-114867510D01*
X123113343Y-114676433D01*
X123220568Y-114465992D01*
X123293553Y-114241368D01*
X123297132Y-114218769D01*
X123330500Y-114008097D01*
X123330500Y-113771902D01*
X173669500Y-113771902D01*
X173669500Y-114008097D01*
X173706446Y-114241368D01*
X173779433Y-114465996D01*
X173839159Y-114583213D01*
X173886657Y-114676433D01*
X174025483Y-114867510D01*
X174192490Y-115034517D01*
X174383567Y-115173343D01*
X174428994Y-115196489D01*
X174594003Y-115280566D01*
X174594005Y-115280566D01*
X174594008Y-115280568D01*
X174714412Y-115319689D01*
X174818631Y-115353553D01*
X175051903Y-115390500D01*
X175051908Y-115390500D01*
X175288097Y-115390500D01*
X175521368Y-115353553D01*
X175523091Y-115352993D01*
X175745992Y-115280568D01*
X175956433Y-115173343D01*
X176147510Y-115034517D01*
X176314517Y-114867510D01*
X176453343Y-114676433D01*
X176560568Y-114465992D01*
X176633553Y-114241368D01*
X176637132Y-114218769D01*
X176670500Y-114008097D01*
X176670500Y-113771902D01*
X176633553Y-113538631D01*
X176560566Y-113314003D01*
X176453342Y-113103566D01*
X176314517Y-112912490D01*
X176147510Y-112745483D01*
X175956433Y-112606657D01*
X175745996Y-112499433D01*
X175521368Y-112426446D01*
X175288097Y-112389500D01*
X175288092Y-112389500D01*
X175051908Y-112389500D01*
X175051903Y-112389500D01*
X174818631Y-112426446D01*
X174594003Y-112499433D01*
X174383566Y-112606657D01*
X174274550Y-112685862D01*
X174192490Y-112745483D01*
X174192488Y-112745485D01*
X174192487Y-112745485D01*
X174025485Y-112912487D01*
X174025485Y-112912488D01*
X174025483Y-112912490D01*
X173965862Y-112994550D01*
X173886657Y-113103566D01*
X173779433Y-113314003D01*
X173706446Y-113538631D01*
X173669500Y-113771902D01*
X123330500Y-113771902D01*
X123293553Y-113538631D01*
X123220566Y-113314003D01*
X123113342Y-113103566D01*
X122974517Y-112912490D01*
X122807510Y-112745483D01*
X122616433Y-112606657D01*
X122405996Y-112499433D01*
X122181368Y-112426446D01*
X121948097Y-112389500D01*
X121948092Y-112389500D01*
X121711908Y-112389500D01*
X121711903Y-112389500D01*
X121478631Y-112426446D01*
X121254003Y-112499433D01*
X121043566Y-112606657D01*
X120934550Y-112685862D01*
X120852490Y-112745483D01*
X120852488Y-112745485D01*
X120852487Y-112745485D01*
X120685485Y-112912487D01*
X120685485Y-112912488D01*
X120685483Y-112912490D01*
X120625862Y-112994550D01*
X120546657Y-113103566D01*
X120439433Y-113314003D01*
X120366446Y-113538631D01*
X120329500Y-113771902D01*
X119540500Y-113771902D01*
X119540500Y-110977525D01*
X154499500Y-110977525D01*
X154499500Y-111122475D01*
X154537016Y-111262485D01*
X154537017Y-111262488D01*
X154609488Y-111388011D01*
X154609490Y-111388013D01*
X154609491Y-111388015D01*
X154711985Y-111490509D01*
X154711986Y-111490510D01*
X154711988Y-111490511D01*
X154837511Y-111562982D01*
X154837512Y-111562982D01*
X154837515Y-111562984D01*
X154977525Y-111600500D01*
X154977528Y-111600500D01*
X155122472Y-111600500D01*
X155122475Y-111600500D01*
X155262485Y-111562984D01*
X155388015Y-111490509D01*
X155490509Y-111388015D01*
X155562984Y-111262485D01*
X155600500Y-111122475D01*
X155600500Y-110977525D01*
X155562984Y-110837515D01*
X155490509Y-110711985D01*
X155388015Y-110609491D01*
X155388013Y-110609490D01*
X155388011Y-110609488D01*
X155262488Y-110537017D01*
X155262489Y-110537017D01*
X155251006Y-110533940D01*
X155122475Y-110499500D01*
X154977525Y-110499500D01*
X154848993Y-110533940D01*
X154837511Y-110537017D01*
X154711988Y-110609488D01*
X154711982Y-110609493D01*
X154609493Y-110711982D01*
X154609488Y-110711988D01*
X154537017Y-110837511D01*
X154537016Y-110837515D01*
X154499500Y-110977525D01*
X119540500Y-110977525D01*
X119540500Y-109077525D01*
X142849500Y-109077525D01*
X142849500Y-109222475D01*
X142887016Y-109362485D01*
X142887017Y-109362488D01*
X142959488Y-109488011D01*
X142959490Y-109488013D01*
X142959491Y-109488015D01*
X143061985Y-109590509D01*
X143061986Y-109590510D01*
X143061988Y-109590511D01*
X143187511Y-109662982D01*
X143187512Y-109662982D01*
X143187515Y-109662984D01*
X143327525Y-109700500D01*
X143327528Y-109700500D01*
X143472472Y-109700500D01*
X143472475Y-109700500D01*
X143612485Y-109662984D01*
X143738015Y-109590509D01*
X143840509Y-109488015D01*
X143846565Y-109477525D01*
X145399500Y-109477525D01*
X145399500Y-109622475D01*
X145420407Y-109700500D01*
X145437017Y-109762488D01*
X145509488Y-109888011D01*
X145509490Y-109888013D01*
X145509491Y-109888015D01*
X145611985Y-109990509D01*
X145611986Y-109990510D01*
X145611988Y-109990511D01*
X145737511Y-110062982D01*
X145737512Y-110062982D01*
X145737515Y-110062984D01*
X145877525Y-110100500D01*
X145877528Y-110100500D01*
X146022472Y-110100500D01*
X146022475Y-110100500D01*
X146162485Y-110062984D01*
X146288015Y-109990509D01*
X146390509Y-109888015D01*
X146462984Y-109762485D01*
X146500500Y-109622475D01*
X146500500Y-109477525D01*
X146462984Y-109337515D01*
X146396565Y-109222475D01*
X146390511Y-109211988D01*
X146390506Y-109211982D01*
X146288017Y-109109493D01*
X146288011Y-109109488D01*
X146162488Y-109037017D01*
X146162489Y-109037017D01*
X146151006Y-109033940D01*
X146022475Y-108999500D01*
X145877525Y-108999500D01*
X145748993Y-109033940D01*
X145737511Y-109037017D01*
X145611988Y-109109488D01*
X145611982Y-109109493D01*
X145509493Y-109211982D01*
X145509488Y-109211988D01*
X145437017Y-109337511D01*
X145437016Y-109337515D01*
X145399500Y-109477525D01*
X143846565Y-109477525D01*
X143912984Y-109362485D01*
X143950500Y-109222475D01*
X143950500Y-109077525D01*
X143912984Y-108937515D01*
X143840509Y-108811985D01*
X143738015Y-108709491D01*
X143738013Y-108709490D01*
X143738011Y-108709488D01*
X143612488Y-108637017D01*
X143612489Y-108637017D01*
X143601006Y-108633940D01*
X143472475Y-108599500D01*
X143327525Y-108599500D01*
X143198993Y-108633940D01*
X143187511Y-108637017D01*
X143061988Y-108709488D01*
X143061982Y-108709493D01*
X142959493Y-108811982D01*
X142959488Y-108811988D01*
X142887017Y-108937511D01*
X142887016Y-108937515D01*
X142849500Y-109077525D01*
X119540500Y-109077525D01*
X119540500Y-106397525D01*
X136479500Y-106397525D01*
X136479500Y-106542475D01*
X136517016Y-106682485D01*
X136517017Y-106682488D01*
X136589488Y-106808011D01*
X136589490Y-106808013D01*
X136589491Y-106808015D01*
X136691985Y-106910509D01*
X136691986Y-106910510D01*
X136691988Y-106910511D01*
X136817511Y-106982982D01*
X136817512Y-106982982D01*
X136817515Y-106982984D01*
X136957525Y-107020500D01*
X136957528Y-107020500D01*
X137102472Y-107020500D01*
X137102475Y-107020500D01*
X137242485Y-106982984D01*
X137368015Y-106910509D01*
X137470509Y-106808015D01*
X137542984Y-106682485D01*
X137580500Y-106542475D01*
X137580500Y-106397525D01*
X140879500Y-106397525D01*
X140879500Y-106542475D01*
X140917016Y-106682485D01*
X140917017Y-106682488D01*
X140989488Y-106808011D01*
X140989490Y-106808013D01*
X140989491Y-106808015D01*
X141091985Y-106910509D01*
X141091986Y-106910510D01*
X141091988Y-106910511D01*
X141217511Y-106982982D01*
X141217512Y-106982982D01*
X141217515Y-106982984D01*
X141357525Y-107020500D01*
X141357528Y-107020500D01*
X141502472Y-107020500D01*
X141502475Y-107020500D01*
X141642485Y-106982984D01*
X141768015Y-106910509D01*
X141870509Y-106808015D01*
X141942984Y-106682485D01*
X141980500Y-106542475D01*
X141980500Y-106397525D01*
X141942984Y-106257515D01*
X141915839Y-106210499D01*
X141870511Y-106131988D01*
X141870506Y-106131982D01*
X141768017Y-106029493D01*
X141768011Y-106029488D01*
X141642488Y-105957017D01*
X141642489Y-105957017D01*
X141625575Y-105952485D01*
X141502475Y-105919500D01*
X141357525Y-105919500D01*
X141234425Y-105952485D01*
X141217511Y-105957017D01*
X141091988Y-106029488D01*
X141091982Y-106029493D01*
X140989493Y-106131982D01*
X140989488Y-106131988D01*
X140917017Y-106257511D01*
X140917016Y-106257515D01*
X140879500Y-106397525D01*
X137580500Y-106397525D01*
X137542984Y-106257515D01*
X137515839Y-106210499D01*
X137470511Y-106131988D01*
X137470506Y-106131982D01*
X137368017Y-106029493D01*
X137368011Y-106029488D01*
X137242488Y-105957017D01*
X137242489Y-105957017D01*
X137225575Y-105952485D01*
X137102475Y-105919500D01*
X136957525Y-105919500D01*
X136834425Y-105952485D01*
X136817511Y-105957017D01*
X136691988Y-106029488D01*
X136691982Y-106029493D01*
X136589493Y-106131982D01*
X136589488Y-106131988D01*
X136517017Y-106257511D01*
X136517016Y-106257515D01*
X136479500Y-106397525D01*
X119540500Y-106397525D01*
X119540500Y-105527525D01*
X133229500Y-105527525D01*
X133229500Y-105672475D01*
X133267016Y-105812485D01*
X133267017Y-105812488D01*
X133339488Y-105938011D01*
X133339490Y-105938013D01*
X133339491Y-105938015D01*
X133441985Y-106040509D01*
X133441986Y-106040510D01*
X133441988Y-106040511D01*
X133567511Y-106112982D01*
X133567512Y-106112982D01*
X133567515Y-106112984D01*
X133707525Y-106150500D01*
X133707528Y-106150500D01*
X133852472Y-106150500D01*
X133852475Y-106150500D01*
X133992485Y-106112984D01*
X134118015Y-106040509D01*
X134220509Y-105938015D01*
X134292984Y-105812485D01*
X134330500Y-105672475D01*
X134330500Y-105644108D01*
X138789500Y-105644108D01*
X138789500Y-105775892D01*
X138799302Y-105812475D01*
X138823608Y-105903187D01*
X138843718Y-105938017D01*
X138889500Y-106017314D01*
X138982686Y-106110500D01*
X139096814Y-106176392D01*
X139224108Y-106210500D01*
X139224110Y-106210500D01*
X139355890Y-106210500D01*
X139355892Y-106210500D01*
X139483186Y-106176392D01*
X139597314Y-106110500D01*
X139690500Y-106017314D01*
X139756392Y-105903186D01*
X139790500Y-105775892D01*
X139790500Y-105644108D01*
X157209500Y-105644108D01*
X157209500Y-105775892D01*
X157219302Y-105812475D01*
X157243608Y-105903187D01*
X157263718Y-105938017D01*
X157309500Y-106017314D01*
X157402686Y-106110500D01*
X157516814Y-106176392D01*
X157644108Y-106210500D01*
X157644110Y-106210500D01*
X157775890Y-106210500D01*
X157775892Y-106210500D01*
X157903186Y-106176392D01*
X158017314Y-106110500D01*
X158110500Y-106017314D01*
X158176392Y-105903186D01*
X158210500Y-105775892D01*
X158210500Y-105667525D01*
X160219500Y-105667525D01*
X160219500Y-105812475D01*
X160257016Y-105952485D01*
X160257017Y-105952488D01*
X160329488Y-106078011D01*
X160329490Y-106078013D01*
X160329491Y-106078015D01*
X160431985Y-106180509D01*
X160431986Y-106180510D01*
X160431988Y-106180511D01*
X160557511Y-106252982D01*
X160557512Y-106252982D01*
X160557515Y-106252984D01*
X160697525Y-106290500D01*
X160697528Y-106290500D01*
X160842472Y-106290500D01*
X160842475Y-106290500D01*
X160982485Y-106252984D01*
X161108015Y-106180509D01*
X161210509Y-106078015D01*
X161282984Y-105952485D01*
X161320500Y-105812475D01*
X161320500Y-105667525D01*
X161282984Y-105527515D01*
X161210509Y-105401985D01*
X161108015Y-105299491D01*
X161108013Y-105299490D01*
X161108011Y-105299488D01*
X160982488Y-105227017D01*
X160982489Y-105227017D01*
X160930117Y-105212984D01*
X160842475Y-105189500D01*
X160697525Y-105189500D01*
X160609883Y-105212984D01*
X160557511Y-105227017D01*
X160431988Y-105299488D01*
X160431982Y-105299493D01*
X160329493Y-105401982D01*
X160329488Y-105401988D01*
X160257017Y-105527511D01*
X160257016Y-105527515D01*
X160219500Y-105667525D01*
X158210500Y-105667525D01*
X158210500Y-105644108D01*
X158176392Y-105516814D01*
X158110500Y-105402686D01*
X158017314Y-105309500D01*
X157935011Y-105261982D01*
X157903187Y-105243608D01*
X157839539Y-105226554D01*
X157775892Y-105209500D01*
X157644108Y-105209500D01*
X157516812Y-105243608D01*
X157402686Y-105309500D01*
X157402683Y-105309502D01*
X157309502Y-105402683D01*
X157309500Y-105402686D01*
X157243608Y-105516812D01*
X157240738Y-105527525D01*
X157209500Y-105644108D01*
X139790500Y-105644108D01*
X139756392Y-105516814D01*
X139690500Y-105402686D01*
X139597314Y-105309500D01*
X139515011Y-105261982D01*
X139483187Y-105243608D01*
X139419539Y-105226554D01*
X139355892Y-105209500D01*
X139224108Y-105209500D01*
X139096812Y-105243608D01*
X138982686Y-105309500D01*
X138982683Y-105309502D01*
X138889502Y-105402683D01*
X138889500Y-105402686D01*
X138823608Y-105516812D01*
X138820738Y-105527525D01*
X138789500Y-105644108D01*
X134330500Y-105644108D01*
X134330500Y-105527525D01*
X134292984Y-105387515D01*
X134271613Y-105350500D01*
X134220511Y-105261988D01*
X134220506Y-105261982D01*
X134118017Y-105159493D01*
X134118011Y-105159488D01*
X133992488Y-105087017D01*
X133992489Y-105087017D01*
X133981006Y-105083940D01*
X133852475Y-105049500D01*
X133707525Y-105049500D01*
X133578993Y-105083940D01*
X133567511Y-105087017D01*
X133441988Y-105159488D01*
X133441982Y-105159493D01*
X133339493Y-105261982D01*
X133339488Y-105261988D01*
X133267017Y-105387511D01*
X133267016Y-105387515D01*
X133229500Y-105527525D01*
X119540500Y-105527525D01*
X119540500Y-104627525D01*
X136899500Y-104627525D01*
X136899500Y-104772475D01*
X136937016Y-104912485D01*
X136937017Y-104912488D01*
X137009488Y-105038011D01*
X137009490Y-105038013D01*
X137009491Y-105038015D01*
X137111985Y-105140509D01*
X137111986Y-105140510D01*
X137111988Y-105140511D01*
X137237511Y-105212982D01*
X137237512Y-105212982D01*
X137237515Y-105212984D01*
X137377525Y-105250500D01*
X137377528Y-105250500D01*
X137522472Y-105250500D01*
X137522475Y-105250500D01*
X137662485Y-105212984D01*
X137788015Y-105140509D01*
X137890509Y-105038015D01*
X137962984Y-104912485D01*
X138000500Y-104772475D01*
X138000500Y-104627525D01*
X137962984Y-104487515D01*
X137948244Y-104461985D01*
X137890511Y-104361988D01*
X137890506Y-104361982D01*
X137788017Y-104259493D01*
X137788011Y-104259488D01*
X137662488Y-104187017D01*
X137662489Y-104187017D01*
X137651006Y-104183940D01*
X137522475Y-104149500D01*
X137377525Y-104149500D01*
X137248993Y-104183940D01*
X137237511Y-104187017D01*
X137111988Y-104259488D01*
X137111982Y-104259493D01*
X137009493Y-104361982D01*
X137009488Y-104361988D01*
X136937017Y-104487511D01*
X136937016Y-104487515D01*
X136899500Y-104627525D01*
X119540500Y-104627525D01*
X119540500Y-103527525D01*
X144449500Y-103527525D01*
X144449500Y-103672475D01*
X144487016Y-103812485D01*
X144487017Y-103812488D01*
X144559488Y-103938011D01*
X144559490Y-103938013D01*
X144559491Y-103938015D01*
X144661985Y-104040509D01*
X144661986Y-104040510D01*
X144661988Y-104040511D01*
X144787511Y-104112982D01*
X144787512Y-104112982D01*
X144787515Y-104112984D01*
X144927525Y-104150500D01*
X144927528Y-104150500D01*
X145072472Y-104150500D01*
X145072475Y-104150500D01*
X145212485Y-104112984D01*
X145338015Y-104040509D01*
X145440509Y-103938015D01*
X145512984Y-103812485D01*
X145550500Y-103672475D01*
X145550500Y-103567525D01*
X154349500Y-103567525D01*
X154349500Y-103712475D01*
X154387016Y-103852485D01*
X154387017Y-103852488D01*
X154459488Y-103978011D01*
X154459490Y-103978013D01*
X154459491Y-103978015D01*
X154561985Y-104080509D01*
X154561986Y-104080510D01*
X154561988Y-104080511D01*
X154687511Y-104152982D01*
X154687512Y-104152982D01*
X154687515Y-104152984D01*
X154827525Y-104190500D01*
X154827528Y-104190500D01*
X154972472Y-104190500D01*
X154972475Y-104190500D01*
X155112485Y-104152984D01*
X155238015Y-104080509D01*
X155340509Y-103978015D01*
X155412984Y-103852485D01*
X155450500Y-103712475D01*
X155450500Y-103567525D01*
X155412984Y-103427515D01*
X155381205Y-103372473D01*
X155340511Y-103301988D01*
X155340506Y-103301982D01*
X155238017Y-103199493D01*
X155238011Y-103199488D01*
X155112488Y-103127017D01*
X155112489Y-103127017D01*
X155101006Y-103123940D01*
X154972475Y-103089500D01*
X154827525Y-103089500D01*
X154698993Y-103123940D01*
X154687511Y-103127017D01*
X154561988Y-103199488D01*
X154561982Y-103199493D01*
X154459493Y-103301982D01*
X154459488Y-103301988D01*
X154387017Y-103427511D01*
X154384202Y-103438017D01*
X154349500Y-103567525D01*
X145550500Y-103567525D01*
X145550500Y-103527525D01*
X145512984Y-103387515D01*
X145504299Y-103372473D01*
X145440511Y-103261988D01*
X145440506Y-103261982D01*
X145338017Y-103159493D01*
X145338011Y-103159488D01*
X145212488Y-103087017D01*
X145212489Y-103087017D01*
X145191522Y-103081399D01*
X145072475Y-103049500D01*
X144927525Y-103049500D01*
X144808478Y-103081399D01*
X144787511Y-103087017D01*
X144661988Y-103159488D01*
X144661982Y-103159493D01*
X144559493Y-103261982D01*
X144559488Y-103261988D01*
X144487017Y-103387511D01*
X144487016Y-103387515D01*
X144449500Y-103527525D01*
X119540500Y-103527525D01*
X119540500Y-100783389D01*
X130924499Y-100783389D01*
X130924499Y-100956611D01*
X130951597Y-101127701D01*
X131005126Y-101292445D01*
X131083767Y-101446788D01*
X131185585Y-101586928D01*
X131308071Y-101709414D01*
X131448211Y-101811232D01*
X131602554Y-101889873D01*
X131767298Y-101943402D01*
X131938388Y-101970500D01*
X131938389Y-101970500D01*
X132111609Y-101970500D01*
X132111610Y-101970500D01*
X132282700Y-101943402D01*
X132447444Y-101889873D01*
X132601787Y-101811232D01*
X132741927Y-101709414D01*
X132864413Y-101586928D01*
X132966231Y-101446788D01*
X133044872Y-101292445D01*
X133098401Y-101127701D01*
X133125499Y-100956611D01*
X133125499Y-100783389D01*
X133098401Y-100612299D01*
X133044872Y-100447555D01*
X132966231Y-100293212D01*
X132864413Y-100153072D01*
X132741927Y-100030586D01*
X132693389Y-99995321D01*
X133464499Y-99995321D01*
X133464499Y-101744678D01*
X133479031Y-101817735D01*
X133479032Y-101817739D01*
X133479033Y-101817740D01*
X133534398Y-101900601D01*
X133617259Y-101955966D01*
X133617263Y-101955967D01*
X133690320Y-101970499D01*
X133690323Y-101970500D01*
X133690325Y-101970500D01*
X135439675Y-101970500D01*
X135439676Y-101970499D01*
X135512739Y-101955966D01*
X135595600Y-101900601D01*
X135650965Y-101817740D01*
X135658964Y-101777527D01*
X135658964Y-101777525D01*
X142449500Y-101777525D01*
X142449500Y-101922475D01*
X142486881Y-102061982D01*
X142487017Y-102062488D01*
X142559482Y-102188000D01*
X142575955Y-102255900D01*
X142559482Y-102312000D01*
X142487017Y-102437511D01*
X142487016Y-102437515D01*
X142449500Y-102577525D01*
X142449500Y-102722475D01*
X142481128Y-102840511D01*
X142487017Y-102862488D01*
X142559488Y-102988011D01*
X142559490Y-102988013D01*
X142559491Y-102988015D01*
X142661985Y-103090509D01*
X142661986Y-103090510D01*
X142661988Y-103090511D01*
X142787511Y-103162982D01*
X142787512Y-103162982D01*
X142787515Y-103162984D01*
X142927525Y-103200500D01*
X142927528Y-103200500D01*
X143072472Y-103200500D01*
X143072475Y-103200500D01*
X143212485Y-103162984D01*
X143338015Y-103090509D01*
X143440509Y-102988015D01*
X143512984Y-102862485D01*
X143550500Y-102722475D01*
X143550500Y-102577525D01*
X143512984Y-102437515D01*
X143440516Y-102311997D01*
X143424044Y-102244101D01*
X143440515Y-102188003D01*
X143512984Y-102062485D01*
X143550500Y-101922475D01*
X143550500Y-101777525D01*
X143537102Y-101727525D01*
X159449500Y-101727525D01*
X159449500Y-101872475D01*
X159472817Y-101959493D01*
X159487017Y-102012488D01*
X159559482Y-102138000D01*
X159575955Y-102205900D01*
X159559482Y-102262000D01*
X159487017Y-102387511D01*
X159487016Y-102387515D01*
X159449500Y-102527525D01*
X159449500Y-102672475D01*
X159486488Y-102810513D01*
X159487017Y-102812488D01*
X159559482Y-102938001D01*
X159575955Y-103005901D01*
X159559482Y-103062001D01*
X159487017Y-103187514D01*
X159487016Y-103187518D01*
X159449500Y-103327528D01*
X159449500Y-103472478D01*
X159485550Y-103607016D01*
X159487017Y-103612491D01*
X159559488Y-103738014D01*
X159559490Y-103738016D01*
X159559491Y-103738018D01*
X159661985Y-103840512D01*
X159661986Y-103840513D01*
X159661988Y-103840514D01*
X159787511Y-103912985D01*
X159787512Y-103912985D01*
X159787515Y-103912987D01*
X159927525Y-103950503D01*
X159927528Y-103950503D01*
X160072472Y-103950503D01*
X160072475Y-103950503D01*
X160212485Y-103912987D01*
X160338015Y-103840512D01*
X160440509Y-103738018D01*
X160512984Y-103612488D01*
X160550500Y-103472478D01*
X160550500Y-103327528D01*
X160512984Y-103187518D01*
X160440515Y-103061998D01*
X160432152Y-103027525D01*
X161899500Y-103027525D01*
X161899500Y-103172475D01*
X161937016Y-103312485D01*
X161937017Y-103312488D01*
X162009488Y-103438011D01*
X162009493Y-103438017D01*
X162108795Y-103537319D01*
X162142280Y-103598642D01*
X162137296Y-103668334D01*
X162108795Y-103712681D01*
X162039493Y-103781982D01*
X162039488Y-103781988D01*
X161967017Y-103907511D01*
X161967016Y-103907515D01*
X161929500Y-104047525D01*
X161929500Y-104192475D01*
X161954833Y-104287017D01*
X161967017Y-104332488D01*
X162039488Y-104458011D01*
X162039490Y-104458013D01*
X162039491Y-104458015D01*
X162141985Y-104560509D01*
X162141986Y-104560510D01*
X162141988Y-104560511D01*
X162267511Y-104632982D01*
X162267512Y-104632982D01*
X162267515Y-104632984D01*
X162407525Y-104670500D01*
X162407528Y-104670500D01*
X162552472Y-104670500D01*
X162552475Y-104670500D01*
X162692485Y-104632984D01*
X162818015Y-104560509D01*
X162920509Y-104458015D01*
X162992984Y-104332485D01*
X163030500Y-104192475D01*
X163030500Y-104047525D01*
X162992984Y-103907515D01*
X162971431Y-103870185D01*
X162920511Y-103781988D01*
X162920506Y-103781982D01*
X162821205Y-103682681D01*
X162787720Y-103621358D01*
X162792704Y-103551666D01*
X162821205Y-103507319D01*
X162851513Y-103477011D01*
X162890509Y-103438015D01*
X162962984Y-103312485D01*
X163000500Y-103172475D01*
X163000500Y-103027525D01*
X162962984Y-102887515D01*
X162946805Y-102859493D01*
X162890511Y-102761988D01*
X162890506Y-102761982D01*
X162788017Y-102659493D01*
X162788011Y-102659488D01*
X162662488Y-102587017D01*
X162662489Y-102587017D01*
X162651006Y-102583940D01*
X162522475Y-102549500D01*
X162377525Y-102549500D01*
X162248993Y-102583940D01*
X162237511Y-102587017D01*
X162111988Y-102659488D01*
X162111982Y-102659493D01*
X162009493Y-102761982D01*
X162009488Y-102761988D01*
X161937017Y-102887511D01*
X161937016Y-102887515D01*
X161899500Y-103027525D01*
X160432152Y-103027525D01*
X160424043Y-102994101D01*
X160440517Y-102938001D01*
X160512984Y-102812485D01*
X160550500Y-102672475D01*
X160550500Y-102527525D01*
X160512984Y-102387515D01*
X160512982Y-102387511D01*
X160509454Y-102381400D01*
X160509453Y-102381399D01*
X160505022Y-102373725D01*
X160478348Y-102327525D01*
X167949500Y-102327525D01*
X167949500Y-102472475D01*
X167977649Y-102577527D01*
X167987017Y-102612488D01*
X168059488Y-102738011D01*
X168059490Y-102738013D01*
X168059491Y-102738015D01*
X168161985Y-102840509D01*
X168161986Y-102840510D01*
X168161988Y-102840511D01*
X168287511Y-102912982D01*
X168287512Y-102912982D01*
X168287515Y-102912984D01*
X168427525Y-102950500D01*
X168427528Y-102950500D01*
X168572472Y-102950500D01*
X168572475Y-102950500D01*
X168712485Y-102912984D01*
X168724651Y-102905960D01*
X168792550Y-102889485D01*
X168858578Y-102912335D01*
X168901770Y-102967255D01*
X168908414Y-103036808D01*
X168894043Y-103075342D01*
X168887017Y-103087511D01*
X168886214Y-103090509D01*
X168849500Y-103227525D01*
X168849500Y-103372475D01*
X168876296Y-103472478D01*
X168887017Y-103512488D01*
X168959488Y-103638011D01*
X168959490Y-103638013D01*
X168959491Y-103638015D01*
X169061985Y-103740509D01*
X169061986Y-103740510D01*
X169061988Y-103740511D01*
X169187511Y-103812982D01*
X169187512Y-103812982D01*
X169187515Y-103812984D01*
X169327525Y-103850500D01*
X169327528Y-103850500D01*
X169335585Y-103851561D01*
X169335337Y-103853437D01*
X169392373Y-103870185D01*
X169438128Y-103922989D01*
X169449095Y-103982195D01*
X169448324Y-103994593D01*
X169439500Y-104027525D01*
X169439500Y-104136505D01*
X169439261Y-104140349D01*
X169428615Y-104169723D01*
X169419815Y-104199693D01*
X169416809Y-104202297D01*
X169415454Y-104206038D01*
X169390612Y-104224997D01*
X169367011Y-104245448D01*
X169363075Y-104246013D01*
X169359912Y-104248428D01*
X169328771Y-104250946D01*
X169297853Y-104255392D01*
X169291050Y-104253996D01*
X169290270Y-104254060D01*
X169289591Y-104253697D01*
X169283410Y-104252430D01*
X169277871Y-104250946D01*
X169272475Y-104249500D01*
X169127525Y-104249500D01*
X168998993Y-104283940D01*
X168987511Y-104287017D01*
X168861988Y-104359488D01*
X168861982Y-104359493D01*
X168759493Y-104461982D01*
X168759488Y-104461988D01*
X168687017Y-104587511D01*
X168687016Y-104587515D01*
X168649500Y-104727525D01*
X168649500Y-104872475D01*
X168660221Y-104912485D01*
X168687017Y-105012488D01*
X168759488Y-105138011D01*
X168759490Y-105138013D01*
X168759491Y-105138015D01*
X168861985Y-105240509D01*
X168861986Y-105240510D01*
X168861988Y-105240511D01*
X168987511Y-105312982D01*
X168987512Y-105312982D01*
X168987515Y-105312984D01*
X169127525Y-105350500D01*
X169127528Y-105350500D01*
X169272472Y-105350500D01*
X169272475Y-105350500D01*
X169412485Y-105312984D01*
X169538015Y-105240509D01*
X169640509Y-105138015D01*
X169712984Y-105012485D01*
X169750500Y-104872475D01*
X169750500Y-104767345D01*
X169770185Y-104700306D01*
X169822989Y-104654551D01*
X169892147Y-104644607D01*
X169906587Y-104647569D01*
X169917525Y-104650500D01*
X169917527Y-104650500D01*
X170062472Y-104650500D01*
X170062475Y-104650500D01*
X170202485Y-104612984D01*
X170328015Y-104540509D01*
X170430509Y-104438015D01*
X170502984Y-104312485D01*
X170540500Y-104172475D01*
X170540500Y-104027525D01*
X170502984Y-103887515D01*
X170492978Y-103870185D01*
X170430511Y-103761988D01*
X170430506Y-103761982D01*
X170328017Y-103659493D01*
X170328011Y-103659488D01*
X170202488Y-103587017D01*
X170202489Y-103587017D01*
X170093126Y-103557713D01*
X170062475Y-103549500D01*
X170062471Y-103549499D01*
X170054415Y-103548439D01*
X170054662Y-103546562D01*
X169997627Y-103529815D01*
X169951872Y-103477011D01*
X169941928Y-103407853D01*
X169944891Y-103393407D01*
X169950500Y-103372475D01*
X169950500Y-103227525D01*
X169912984Y-103087515D01*
X169912696Y-103087017D01*
X169840511Y-102961988D01*
X169840506Y-102961982D01*
X169738017Y-102859493D01*
X169738011Y-102859488D01*
X169612488Y-102787017D01*
X169612489Y-102787017D01*
X169601006Y-102783940D01*
X169472475Y-102749500D01*
X169327525Y-102749500D01*
X169198993Y-102783940D01*
X169187511Y-102787017D01*
X169175342Y-102794043D01*
X169107441Y-102810513D01*
X169041415Y-102787659D01*
X168998226Y-102732737D01*
X168991587Y-102663183D01*
X169005960Y-102624651D01*
X169012982Y-102612488D01*
X169012981Y-102612488D01*
X169012984Y-102612485D01*
X169050500Y-102472475D01*
X169050500Y-102327525D01*
X169012984Y-102187515D01*
X168984396Y-102138000D01*
X168940511Y-102061988D01*
X168940506Y-102061982D01*
X168838017Y-101959493D01*
X168838011Y-101959488D01*
X168712488Y-101887017D01*
X168712489Y-101887017D01*
X168701006Y-101883940D01*
X168572475Y-101849500D01*
X168427525Y-101849500D01*
X168298993Y-101883940D01*
X168287511Y-101887017D01*
X168161988Y-101959488D01*
X168161982Y-101959493D01*
X168059493Y-102061982D01*
X168059488Y-102061988D01*
X167987017Y-102187511D01*
X167987016Y-102187515D01*
X167949500Y-102327525D01*
X160478348Y-102327525D01*
X160440516Y-102261997D01*
X160424044Y-102194101D01*
X160440515Y-102138003D01*
X160512984Y-102012485D01*
X160550500Y-101872475D01*
X160550500Y-101727525D01*
X160512984Y-101587515D01*
X160512646Y-101586930D01*
X160440511Y-101461988D01*
X160440506Y-101461982D01*
X160338017Y-101359493D01*
X160338011Y-101359488D01*
X160212488Y-101287017D01*
X160212489Y-101287017D01*
X160201006Y-101283940D01*
X160072475Y-101249500D01*
X159927525Y-101249500D01*
X159798993Y-101283940D01*
X159787511Y-101287017D01*
X159661988Y-101359488D01*
X159661982Y-101359493D01*
X159559493Y-101461982D01*
X159559488Y-101461988D01*
X159487017Y-101587511D01*
X159487016Y-101587515D01*
X159449500Y-101727525D01*
X143537102Y-101727525D01*
X143512984Y-101637515D01*
X143484116Y-101587515D01*
X143440511Y-101511988D01*
X143440506Y-101511982D01*
X143338017Y-101409493D01*
X143338011Y-101409488D01*
X143212488Y-101337017D01*
X143212489Y-101337017D01*
X143201006Y-101333940D01*
X143072475Y-101299500D01*
X142927525Y-101299500D01*
X142798993Y-101333940D01*
X142787511Y-101337017D01*
X142661988Y-101409488D01*
X142661982Y-101409493D01*
X142559493Y-101511982D01*
X142559488Y-101511988D01*
X142487017Y-101637511D01*
X142487016Y-101637515D01*
X142449500Y-101777525D01*
X135658964Y-101777525D01*
X135665388Y-101745234D01*
X135665392Y-101745213D01*
X135665499Y-101744674D01*
X135665499Y-99995323D01*
X135665498Y-99995321D01*
X135650966Y-99922264D01*
X135650965Y-99922260D01*
X135595600Y-99839399D01*
X135512739Y-99784034D01*
X135512738Y-99784033D01*
X135512734Y-99784032D01*
X135439676Y-99769500D01*
X135439673Y-99769500D01*
X133690325Y-99769500D01*
X133690322Y-99769500D01*
X133617263Y-99784032D01*
X133617259Y-99784033D01*
X133534398Y-99839399D01*
X133479032Y-99922260D01*
X133479031Y-99922264D01*
X133464499Y-99995321D01*
X132693389Y-99995321D01*
X132601787Y-99928768D01*
X132447444Y-99850127D01*
X132282700Y-99796598D01*
X132282698Y-99796597D01*
X132282697Y-99796597D01*
X132151270Y-99775781D01*
X132111610Y-99769500D01*
X131938388Y-99769500D01*
X131898727Y-99775781D01*
X131767301Y-99796597D01*
X131602551Y-99850128D01*
X131448210Y-99928768D01*
X131368255Y-99986859D01*
X131308071Y-100030586D01*
X131308069Y-100030588D01*
X131308068Y-100030588D01*
X131185587Y-100153069D01*
X131185587Y-100153070D01*
X131185585Y-100153072D01*
X131141858Y-100213256D01*
X131083767Y-100293211D01*
X131005127Y-100447552D01*
X130951596Y-100612302D01*
X130924499Y-100783389D01*
X119540500Y-100783389D01*
X119540500Y-96113750D01*
X119540726Y-96106263D01*
X119547644Y-95991902D01*
X120329500Y-95991902D01*
X120329500Y-96228097D01*
X120366446Y-96461368D01*
X120439433Y-96685996D01*
X120546657Y-96896433D01*
X120685483Y-97087510D01*
X120852490Y-97254517D01*
X121043567Y-97393343D01*
X121142991Y-97444002D01*
X121254003Y-97500566D01*
X121254005Y-97500566D01*
X121254008Y-97500568D01*
X121374412Y-97539689D01*
X121478631Y-97573553D01*
X121711903Y-97610500D01*
X121711908Y-97610500D01*
X121948097Y-97610500D01*
X122181368Y-97573553D01*
X122405992Y-97500568D01*
X122616433Y-97393343D01*
X122807510Y-97254517D01*
X122974517Y-97087510D01*
X123113343Y-96896433D01*
X123220568Y-96685992D01*
X123293553Y-96461368D01*
X123330500Y-96228097D01*
X123330500Y-95991902D01*
X173669500Y-95991902D01*
X173669500Y-96228097D01*
X173706446Y-96461368D01*
X173779433Y-96685996D01*
X173886657Y-96896433D01*
X174025483Y-97087510D01*
X174192490Y-97254517D01*
X174383567Y-97393343D01*
X174482991Y-97444002D01*
X174594003Y-97500566D01*
X174594005Y-97500566D01*
X174594008Y-97500568D01*
X174714412Y-97539689D01*
X174818631Y-97573553D01*
X175051903Y-97610500D01*
X175051908Y-97610500D01*
X175288097Y-97610500D01*
X175521368Y-97573553D01*
X175745992Y-97500568D01*
X175956433Y-97393343D01*
X176147510Y-97254517D01*
X176314517Y-97087510D01*
X176453343Y-96896433D01*
X176560568Y-96685992D01*
X176633553Y-96461368D01*
X176670500Y-96228097D01*
X176670500Y-95991902D01*
X176633553Y-95758631D01*
X176568016Y-95556930D01*
X176560568Y-95534008D01*
X176560566Y-95534005D01*
X176560566Y-95534003D01*
X176453342Y-95323566D01*
X176408937Y-95262448D01*
X176314517Y-95132490D01*
X176147510Y-94965483D01*
X175956433Y-94826657D01*
X175922596Y-94809416D01*
X175745996Y-94719433D01*
X175521368Y-94646446D01*
X175288097Y-94609500D01*
X175288092Y-94609500D01*
X175051908Y-94609500D01*
X175051903Y-94609500D01*
X174818631Y-94646446D01*
X174594003Y-94719433D01*
X174383566Y-94826657D01*
X174274550Y-94905862D01*
X174192490Y-94965483D01*
X174192488Y-94965485D01*
X174192487Y-94965485D01*
X174025485Y-95132487D01*
X174025485Y-95132488D01*
X174025483Y-95132490D01*
X173965862Y-95214550D01*
X173886657Y-95323566D01*
X173779433Y-95534003D01*
X173706446Y-95758631D01*
X173669500Y-95991902D01*
X123330500Y-95991902D01*
X123293553Y-95758631D01*
X123228016Y-95556930D01*
X123220568Y-95534008D01*
X123220566Y-95534005D01*
X123220566Y-95534003D01*
X123113342Y-95323566D01*
X123068937Y-95262448D01*
X122974517Y-95132490D01*
X122807510Y-94965483D01*
X122616433Y-94826657D01*
X122582596Y-94809416D01*
X122405996Y-94719433D01*
X122181368Y-94646446D01*
X121948097Y-94609500D01*
X121948092Y-94609500D01*
X121711908Y-94609500D01*
X121711903Y-94609500D01*
X121478631Y-94646446D01*
X121254003Y-94719433D01*
X121043566Y-94826657D01*
X120934550Y-94905862D01*
X120852490Y-94965483D01*
X120852488Y-94965485D01*
X120852487Y-94965485D01*
X120685485Y-95132487D01*
X120685485Y-95132488D01*
X120685483Y-95132490D01*
X120625862Y-95214550D01*
X120546657Y-95323566D01*
X120439433Y-95534003D01*
X120366446Y-95758631D01*
X120329500Y-95991902D01*
X119547644Y-95991902D01*
X119548391Y-95979549D01*
X119556740Y-95841517D01*
X119558545Y-95826652D01*
X119566869Y-95781233D01*
X119605678Y-95569454D01*
X119609256Y-95554940D01*
X119687054Y-95305273D01*
X119692351Y-95291308D01*
X119799676Y-95052841D01*
X119806621Y-95039608D01*
X119941906Y-94815820D01*
X119950396Y-94803521D01*
X120111667Y-94597674D01*
X120121583Y-94586482D01*
X120306482Y-94401583D01*
X120317674Y-94391667D01*
X120523521Y-94230396D01*
X120535820Y-94221906D01*
X120759608Y-94086621D01*
X120772841Y-94079676D01*
X121011308Y-93972351D01*
X121025273Y-93967054D01*
X121274940Y-93889256D01*
X121289454Y-93885678D01*
X121546656Y-93838544D01*
X121561514Y-93836740D01*
X121826264Y-93820726D01*
X121833751Y-93820500D01*
X121874170Y-93820500D01*
X142583796Y-93820500D01*
X142650835Y-93840185D01*
G37*
%TD.AperFunction*%
%TD*%
M02*
