%TF.GenerationSoftware,KiCad,Pcbnew,9.0.1*%
%TF.CreationDate,2025-07-30T00:23:40-04:00*%
%TF.ProjectId,T5848,54353834-382e-46b6-9963-61645f706362,rev?*%
%TF.SameCoordinates,Original*%
%TF.FileFunction,Legend,Top*%
%TF.FilePolarity,Positive*%
%FSLAX46Y46*%
G04 Gerber Fmt 4.6, Leading zero omitted, Abs format (unit mm)*
G04 Created by KiCad (PCBNEW 9.0.1) date 2025-07-30 00:23:40*
%MOMM*%
%LPD*%
G01*
G04 APERTURE LIST*
%ADD10C,0.150000*%
%ADD11C,0.300000*%
%ADD12C,0.000000*%
%ADD13C,0.120000*%
G04 APERTURE END LIST*
D10*
X140000070Y-105710000D02*
G75*
G02*
X138579930Y-105710000I-710070J0D01*
G01*
X138579930Y-105710000D02*
G75*
G02*
X140000070Y-105710000I710070J0D01*
G01*
X158400072Y-105710000D02*
G75*
G02*
X157019928Y-105710000I-690072J0D01*
G01*
X157019928Y-105710000D02*
G75*
G02*
X158400072Y-105710000I690072J0D01*
G01*
D11*
G36*
X154433405Y-107292562D02*
G01*
X154935507Y-107292562D01*
X155283919Y-108112028D01*
X155634347Y-107292562D01*
X156135441Y-107292562D01*
X156135441Y-108822500D01*
X155762391Y-108822500D01*
X155762391Y-107703806D01*
X155409948Y-108529408D01*
X155159905Y-108529408D01*
X154807462Y-107703806D01*
X154807462Y-108822500D01*
X154433405Y-108822500D01*
X154433405Y-107292562D01*
G37*
G36*
X156506752Y-107673581D02*
G01*
X156873574Y-107673581D01*
X156873574Y-108822500D01*
X156506752Y-108822500D01*
X156506752Y-107673581D01*
G37*
G36*
X156506752Y-107228082D02*
G01*
X156873574Y-107228082D01*
X156873574Y-107527035D01*
X156506752Y-107527035D01*
X156506752Y-107228082D01*
G37*
G36*
X158153651Y-107708752D02*
G01*
X158153651Y-108007705D01*
X158077454Y-107962865D01*
X158003533Y-107932509D01*
X157927037Y-107914201D01*
X157847278Y-107908054D01*
X157771068Y-107914264D01*
X157707184Y-107931758D01*
X157653370Y-107959562D01*
X157607951Y-107997722D01*
X157561951Y-108062359D01*
X157532901Y-108144163D01*
X157522405Y-108248040D01*
X157532899Y-108351919D01*
X157561947Y-108433757D01*
X157607951Y-108498450D01*
X157653364Y-108536568D01*
X157707176Y-108564344D01*
X157771062Y-108581822D01*
X157847278Y-108588026D01*
X157931746Y-108581665D01*
X158010677Y-108562930D01*
X158085044Y-108531736D01*
X158153651Y-108488375D01*
X158153651Y-108787329D01*
X158066705Y-108815596D01*
X157978895Y-108835689D01*
X157890082Y-108847788D01*
X157801208Y-108851809D01*
X157674842Y-108844538D01*
X157565267Y-108823914D01*
X157470126Y-108791280D01*
X157387404Y-108747348D01*
X157315501Y-108692165D01*
X157253754Y-108625030D01*
X157205490Y-108548623D01*
X157170154Y-108461622D01*
X157148042Y-108362183D01*
X157140287Y-108248040D01*
X157148043Y-108133895D01*
X157170156Y-108034466D01*
X157205493Y-107947485D01*
X157253756Y-107871107D01*
X157315501Y-107804007D01*
X157387408Y-107748789D01*
X157470134Y-107704832D01*
X157565275Y-107672181D01*
X157674847Y-107651547D01*
X157801208Y-107644272D01*
X157890822Y-107648314D01*
X157978895Y-107660392D01*
X158065975Y-107680422D01*
X158153651Y-107708752D01*
G37*
G36*
X158508383Y-108423895D02*
G01*
X158877312Y-108423895D01*
X158877312Y-108822500D01*
X158508383Y-108822500D01*
X158508383Y-108423895D01*
G37*
G36*
X160013865Y-107292562D02*
G01*
X160408348Y-107292562D01*
X160408348Y-108523546D01*
X161101051Y-108523546D01*
X161101051Y-108822500D01*
X160013865Y-108822500D01*
X160013865Y-107292562D01*
G37*
G36*
X135894187Y-107292562D02*
G01*
X136396289Y-107292562D01*
X136744701Y-108112028D01*
X137095129Y-107292562D01*
X137596223Y-107292562D01*
X137596223Y-108822500D01*
X137223173Y-108822500D01*
X137223173Y-107703806D01*
X136870730Y-108529408D01*
X136620687Y-108529408D01*
X136268244Y-107703806D01*
X136268244Y-108822500D01*
X135894187Y-108822500D01*
X135894187Y-107292562D01*
G37*
G36*
X137967534Y-107673581D02*
G01*
X138334356Y-107673581D01*
X138334356Y-108822500D01*
X137967534Y-108822500D01*
X137967534Y-107673581D01*
G37*
G36*
X137967534Y-107228082D02*
G01*
X138334356Y-107228082D01*
X138334356Y-107527035D01*
X137967534Y-107527035D01*
X137967534Y-107228082D01*
G37*
G36*
X139614433Y-107708752D02*
G01*
X139614433Y-108007705D01*
X139538236Y-107962865D01*
X139464315Y-107932509D01*
X139387819Y-107914201D01*
X139308060Y-107908054D01*
X139231850Y-107914264D01*
X139167966Y-107931758D01*
X139114152Y-107959562D01*
X139068733Y-107997722D01*
X139022733Y-108062359D01*
X138993683Y-108144163D01*
X138983187Y-108248040D01*
X138993681Y-108351919D01*
X139022729Y-108433757D01*
X139068733Y-108498450D01*
X139114146Y-108536568D01*
X139167958Y-108564344D01*
X139231844Y-108581822D01*
X139308060Y-108588026D01*
X139392528Y-108581665D01*
X139471459Y-108562930D01*
X139545826Y-108531736D01*
X139614433Y-108488375D01*
X139614433Y-108787329D01*
X139527487Y-108815596D01*
X139439677Y-108835689D01*
X139350864Y-108847788D01*
X139261990Y-108851809D01*
X139135624Y-108844538D01*
X139026049Y-108823914D01*
X138930908Y-108791280D01*
X138848186Y-108747348D01*
X138776283Y-108692165D01*
X138714536Y-108625030D01*
X138666272Y-108548623D01*
X138630936Y-108461622D01*
X138608824Y-108362183D01*
X138601069Y-108248040D01*
X138608825Y-108133895D01*
X138630938Y-108034466D01*
X138666275Y-107947485D01*
X138714538Y-107871107D01*
X138776283Y-107804007D01*
X138848190Y-107748789D01*
X138930916Y-107704832D01*
X139026057Y-107672181D01*
X139135629Y-107651547D01*
X139261990Y-107644272D01*
X139351604Y-107648314D01*
X139439677Y-107660392D01*
X139526757Y-107680422D01*
X139614433Y-107708752D01*
G37*
G36*
X139969165Y-108423895D02*
G01*
X140338094Y-108423895D01*
X140338094Y-108822500D01*
X139969165Y-108822500D01*
X139969165Y-108423895D01*
G37*
G36*
X142233498Y-107300453D02*
G01*
X142355361Y-107321736D01*
X142449159Y-107353462D01*
X142520342Y-107393679D01*
X142580286Y-107449513D01*
X142623757Y-107519185D01*
X142651298Y-107605658D01*
X142661209Y-107713332D01*
X142652386Y-107811697D01*
X142627556Y-107893307D01*
X142587937Y-107961452D01*
X142533312Y-108018448D01*
X142460949Y-108066216D01*
X142367202Y-108104426D01*
X142418634Y-108121731D01*
X142466735Y-108149423D01*
X142512191Y-108188506D01*
X142572468Y-108264605D01*
X142641792Y-108386984D01*
X142855932Y-108822500D01*
X142435804Y-108822500D01*
X142249324Y-108441481D01*
X142207595Y-108366592D01*
X142169669Y-108316115D01*
X142135110Y-108284310D01*
X142094467Y-108261800D01*
X142043881Y-108247389D01*
X141980871Y-108242178D01*
X141869130Y-108242178D01*
X141869130Y-108822500D01*
X141474647Y-108822500D01*
X141474647Y-107966673D01*
X141869130Y-107966673D01*
X142035184Y-107966673D01*
X142117014Y-107960499D01*
X142174103Y-107944495D01*
X142212871Y-107921243D01*
X142241279Y-107887064D01*
X142259786Y-107838836D01*
X142266727Y-107771675D01*
X142259783Y-107705291D01*
X142241284Y-107657805D01*
X142212871Y-107624305D01*
X142174185Y-107601556D01*
X142117103Y-107585856D01*
X142035184Y-107579792D01*
X141869130Y-107579792D01*
X141869130Y-107966673D01*
X141474647Y-107966673D01*
X141474647Y-107292562D01*
X142077225Y-107292562D01*
X142233498Y-107300453D01*
G37*
G36*
X127452229Y-96769449D02*
G01*
X127620440Y-96787281D01*
X127736588Y-96812296D01*
X127845870Y-96853529D01*
X127942887Y-96909569D01*
X128029130Y-96980824D01*
X128095102Y-97053845D01*
X128148138Y-97133199D01*
X128188956Y-97219602D01*
X128217397Y-97311195D01*
X128235104Y-97412836D01*
X128241255Y-97525974D01*
X128235085Y-97640538D01*
X128217361Y-97743040D01*
X128188956Y-97835002D01*
X128148115Y-97921699D01*
X128095075Y-98001201D01*
X128029130Y-98074238D01*
X127942169Y-98145461D01*
X127844274Y-98201544D01*
X127733932Y-98242857D01*
X127616935Y-98267900D01*
X127449342Y-98285664D01*
X127217541Y-98292500D01*
X126801535Y-98292500D01*
X126801535Y-97993546D01*
X127196017Y-97993546D01*
X127337434Y-97993546D01*
X127458906Y-97984937D01*
X127558490Y-97961017D01*
X127640096Y-97923756D01*
X127706821Y-97873837D01*
X127760648Y-97810228D01*
X127800237Y-97733075D01*
X127825398Y-97639571D01*
X127834407Y-97525974D01*
X127825422Y-97412872D01*
X127800342Y-97319895D01*
X127760898Y-97243283D01*
X127707279Y-97180218D01*
X127640892Y-97130815D01*
X127559375Y-97093859D01*
X127459554Y-97070085D01*
X127337434Y-97061516D01*
X127196017Y-97061516D01*
X127196017Y-97993546D01*
X126801535Y-97993546D01*
X126801535Y-96762562D01*
X127217541Y-96762562D01*
X127452229Y-96769449D01*
G37*
G36*
X128515295Y-97846817D02*
G01*
X128515295Y-97143581D01*
X128884224Y-97143581D01*
X128884224Y-97258711D01*
X128883125Y-97493734D01*
X128882117Y-97682320D01*
X128889261Y-97882355D01*
X128900084Y-97938785D01*
X128913899Y-97971290D01*
X128939982Y-98003206D01*
X128972792Y-98026794D01*
X129011162Y-98041262D01*
X129056323Y-98046303D01*
X129128397Y-98036171D01*
X129187434Y-98007055D01*
X129236666Y-97957917D01*
X129271385Y-97895570D01*
X129293966Y-97815249D01*
X129302245Y-97712178D01*
X129302245Y-97143581D01*
X129669068Y-97143581D01*
X129669068Y-98292500D01*
X129302245Y-98292500D01*
X129302245Y-98128368D01*
X129243623Y-98190848D01*
X129185141Y-98239054D01*
X129126482Y-98274731D01*
X129063219Y-98300679D01*
X128995398Y-98316432D01*
X128922051Y-98321809D01*
X128823821Y-98313358D01*
X128742643Y-98289652D01*
X128675236Y-98252033D01*
X128619251Y-98200267D01*
X128576320Y-98137394D01*
X128543890Y-98059716D01*
X128522890Y-97964124D01*
X128515295Y-97846817D01*
G37*
G36*
X130670493Y-97123821D02*
G01*
X130793819Y-97149574D01*
X130888183Y-97188165D01*
X130959403Y-97237737D01*
X131016069Y-97303530D01*
X131058916Y-97388976D01*
X131086956Y-97498810D01*
X131097247Y-97639180D01*
X131097247Y-98292500D01*
X130727311Y-98292500D01*
X130727311Y-98122506D01*
X130674124Y-98187794D01*
X130618902Y-98237724D01*
X130561348Y-98274273D01*
X130498150Y-98299853D01*
X130424041Y-98316060D01*
X130336950Y-98321809D01*
X130248791Y-98314805D01*
X130172433Y-98294810D01*
X130105830Y-98262638D01*
X130047430Y-98218128D01*
X129999071Y-98162776D01*
X129964726Y-98100484D01*
X129943657Y-98029865D01*
X129936330Y-97948941D01*
X129938306Y-97928700D01*
X130306175Y-97928700D01*
X130311661Y-97972441D01*
X130327199Y-98007742D01*
X130352795Y-98036594D01*
X130385995Y-98057405D01*
X130428358Y-98070753D01*
X130482396Y-98075612D01*
X130548283Y-98067309D01*
X130605632Y-98043078D01*
X130656603Y-98002156D01*
X130695626Y-97949544D01*
X130719150Y-97889021D01*
X130727311Y-97818241D01*
X130727311Y-97776659D01*
X130536710Y-97776659D01*
X130460694Y-97781768D01*
X130404656Y-97795286D01*
X130364061Y-97815218D01*
X130332014Y-97844777D01*
X130312907Y-97881789D01*
X130306175Y-97928700D01*
X129938306Y-97928700D01*
X129945938Y-97850498D01*
X129972782Y-97770894D01*
X130015542Y-97706156D01*
X130075182Y-97653743D01*
X130144967Y-97616511D01*
X130237163Y-97586995D01*
X130357153Y-97567141D01*
X130511156Y-97559771D01*
X130727311Y-97559771D01*
X130727311Y-97530187D01*
X130719248Y-97475466D01*
X130696568Y-97433612D01*
X130658618Y-97401410D01*
X130610759Y-97380601D01*
X130541605Y-97366069D01*
X130444478Y-97360469D01*
X130329079Y-97366513D01*
X130225209Y-97383916D01*
X130126813Y-97413441D01*
X130036714Y-97454258D01*
X130036714Y-97172890D01*
X130155009Y-97147554D01*
X130273386Y-97129201D01*
X130392381Y-97117997D01*
X130511156Y-97114272D01*
X130670493Y-97123821D01*
G37*
G36*
X131439431Y-96698082D02*
G01*
X131806254Y-96698082D01*
X131806254Y-98292500D01*
X131439431Y-98292500D01*
X131439431Y-96698082D01*
G37*
G36*
X132722805Y-96762562D02*
G01*
X134132758Y-96762562D01*
X134132758Y-97061516D01*
X133625527Y-97061516D01*
X133625527Y-98292500D01*
X133231044Y-98292500D01*
X133231044Y-97061516D01*
X132722805Y-97061516D01*
X132722805Y-96762562D01*
G37*
G36*
X134366682Y-96762562D02*
G01*
X135347256Y-96762562D01*
X135347256Y-97049792D01*
X134681206Y-97049792D01*
X134681206Y-97286463D01*
X134771881Y-97267504D01*
X134866678Y-97260818D01*
X135006830Y-97270757D01*
X135123563Y-97298569D01*
X135220918Y-97342214D01*
X135302102Y-97401044D01*
X135368865Y-97476026D01*
X135417092Y-97564227D01*
X135447238Y-97668282D01*
X135457898Y-97791863D01*
X135450549Y-97890639D01*
X135429499Y-97977175D01*
X135395605Y-98053473D01*
X135348833Y-98121108D01*
X135288271Y-98181125D01*
X135200620Y-98239850D01*
X135095362Y-98283708D01*
X134969059Y-98311766D01*
X134817493Y-98321809D01*
X134688040Y-98315625D01*
X134559847Y-98297079D01*
X134433311Y-98266225D01*
X134306232Y-98222158D01*
X134306232Y-97911481D01*
X134431126Y-97974394D01*
X134543453Y-98016994D01*
X134654688Y-98043741D01*
X134755028Y-98052165D01*
X134848224Y-98043494D01*
X134922140Y-98019520D01*
X134980892Y-97981823D01*
X135026338Y-97930022D01*
X135053781Y-97867614D01*
X135063415Y-97791313D01*
X135053741Y-97714359D01*
X135026265Y-97651839D01*
X134980892Y-97600346D01*
X134922175Y-97562910D01*
X134848259Y-97539083D01*
X134755028Y-97530462D01*
X134668840Y-97535641D01*
X134573586Y-97551986D01*
X134476337Y-97578469D01*
X134366682Y-97618389D01*
X134366682Y-96762562D01*
G37*
G36*
X136478121Y-96740838D02*
G01*
X136592869Y-96761638D01*
X136684850Y-96793286D01*
X136758033Y-96834278D01*
X136820989Y-96890342D01*
X136865451Y-96956783D01*
X136892889Y-97035638D01*
X136902564Y-97130209D01*
X136894178Y-97214555D01*
X136870244Y-97286195D01*
X136831306Y-97347738D01*
X136778810Y-97398896D01*
X136709783Y-97442121D01*
X136620830Y-97476973D01*
X136720221Y-97513581D01*
X136797296Y-97560410D01*
X136855944Y-97616924D01*
X136899226Y-97685384D01*
X136925951Y-97765870D01*
X136935353Y-97861472D01*
X136924969Y-97973156D01*
X136895769Y-98065320D01*
X136849120Y-98141883D01*
X136784228Y-98205488D01*
X136707024Y-98252822D01*
X136609628Y-98289210D01*
X136487651Y-98313094D01*
X136335890Y-98321809D01*
X136183665Y-98313100D01*
X136061179Y-98289224D01*
X135963259Y-98252833D01*
X135885537Y-98205488D01*
X135820160Y-98141818D01*
X135773210Y-98065226D01*
X135743843Y-97973085D01*
X135733404Y-97861472D01*
X135735350Y-97841688D01*
X136106454Y-97841688D01*
X136113828Y-97914929D01*
X136134075Y-97971551D01*
X136165897Y-98015345D01*
X136209145Y-98047724D01*
X136264632Y-98068190D01*
X136335981Y-98075612D01*
X136406625Y-98068187D01*
X136461401Y-98047726D01*
X136503959Y-98015345D01*
X136535201Y-97971632D01*
X136555128Y-97915013D01*
X136562395Y-97841688D01*
X136555101Y-97767614D01*
X136535151Y-97710703D01*
X136503959Y-97667024D01*
X136461393Y-97634590D01*
X136406618Y-97614100D01*
X136335981Y-97606666D01*
X136264677Y-97614145D01*
X136209189Y-97634784D01*
X136165897Y-97667482D01*
X136134061Y-97711557D01*
X136113819Y-97768377D01*
X136106454Y-97841688D01*
X135735350Y-97841688D01*
X135742806Y-97765870D01*
X135769531Y-97685384D01*
X135812813Y-97616924D01*
X135871464Y-97560415D01*
X135948567Y-97513585D01*
X136048019Y-97476973D01*
X135959082Y-97442102D01*
X135890224Y-97398875D01*
X135838001Y-97347738D01*
X135799381Y-97286233D01*
X135775621Y-97214591D01*
X135771162Y-97169410D01*
X136140251Y-97169410D01*
X136146484Y-97228659D01*
X136163697Y-97274833D01*
X136190993Y-97310918D01*
X136227756Y-97337470D01*
X136275056Y-97354337D01*
X136335981Y-97360469D01*
X136395527Y-97354369D01*
X136442018Y-97337535D01*
X136478406Y-97310918D01*
X136505382Y-97274876D01*
X136522422Y-97228705D01*
X136528597Y-97169410D01*
X136522411Y-97110188D01*
X136505365Y-97064248D01*
X136478406Y-97028543D01*
X136442054Y-97002191D01*
X136395564Y-96985502D01*
X136335981Y-96979450D01*
X136275056Y-96985582D01*
X136227756Y-97002449D01*
X136190993Y-97029001D01*
X136163648Y-97065063D01*
X136146459Y-97110906D01*
X136140251Y-97169410D01*
X135771162Y-97169410D01*
X135767293Y-97130209D01*
X135776933Y-97036225D01*
X135804312Y-96957615D01*
X135848744Y-96891145D01*
X135911732Y-96834828D01*
X135984968Y-96793654D01*
X136077271Y-96761833D01*
X136192697Y-96740896D01*
X136335981Y-96733253D01*
X136478121Y-96740838D01*
G37*
G36*
X138212041Y-97729764D02*
G01*
X138430303Y-97729764D01*
X138430303Y-98016994D01*
X138212041Y-98016994D01*
X138212041Y-98292500D01*
X137838991Y-98292500D01*
X137838991Y-98016994D01*
X137160667Y-98016994D01*
X137160667Y-97729764D01*
X137406589Y-97729764D01*
X137838991Y-97729764D01*
X137838991Y-97088077D01*
X137406589Y-97729764D01*
X137160667Y-97729764D01*
X137160667Y-97677923D01*
X137773412Y-96762562D01*
X138212041Y-96762562D01*
X138212041Y-97729764D01*
G37*
G36*
X139400243Y-96740838D02*
G01*
X139514991Y-96761638D01*
X139606972Y-96793286D01*
X139680155Y-96834278D01*
X139743111Y-96890342D01*
X139787572Y-96956783D01*
X139815010Y-97035638D01*
X139824685Y-97130209D01*
X139816299Y-97214555D01*
X139792365Y-97286195D01*
X139753427Y-97347738D01*
X139700932Y-97398896D01*
X139631905Y-97442121D01*
X139542951Y-97476973D01*
X139642342Y-97513581D01*
X139719417Y-97560410D01*
X139778065Y-97616924D01*
X139821347Y-97685384D01*
X139848072Y-97765870D01*
X139857475Y-97861472D01*
X139847091Y-97973156D01*
X139817890Y-98065320D01*
X139771241Y-98141883D01*
X139706350Y-98205488D01*
X139629146Y-98252822D01*
X139531749Y-98289210D01*
X139409772Y-98313094D01*
X139258011Y-98321809D01*
X139105786Y-98313100D01*
X138983301Y-98289224D01*
X138885380Y-98252833D01*
X138807658Y-98205488D01*
X138742282Y-98141818D01*
X138695331Y-98065226D01*
X138665964Y-97973085D01*
X138655525Y-97861472D01*
X138657471Y-97841688D01*
X139028576Y-97841688D01*
X139035949Y-97914929D01*
X139056196Y-97971551D01*
X139088018Y-98015345D01*
X139131266Y-98047724D01*
X139186753Y-98068190D01*
X139258103Y-98075612D01*
X139328747Y-98068187D01*
X139383522Y-98047726D01*
X139426081Y-98015345D01*
X139457322Y-97971632D01*
X139477249Y-97915013D01*
X139484516Y-97841688D01*
X139477223Y-97767614D01*
X139457272Y-97710703D01*
X139426081Y-97667024D01*
X139383515Y-97634590D01*
X139328739Y-97614100D01*
X139258103Y-97606666D01*
X139186799Y-97614145D01*
X139131310Y-97634784D01*
X139088018Y-97667482D01*
X139056182Y-97711557D01*
X139035941Y-97768377D01*
X139028576Y-97841688D01*
X138657471Y-97841688D01*
X138664928Y-97765870D01*
X138691653Y-97685384D01*
X138734935Y-97616924D01*
X138793586Y-97560415D01*
X138870688Y-97513585D01*
X138970141Y-97476973D01*
X138881204Y-97442102D01*
X138812345Y-97398875D01*
X138760122Y-97347738D01*
X138721503Y-97286233D01*
X138697743Y-97214591D01*
X138693283Y-97169410D01*
X139062373Y-97169410D01*
X139068606Y-97228659D01*
X139085819Y-97274833D01*
X139113114Y-97310918D01*
X139149877Y-97337470D01*
X139197177Y-97354337D01*
X139258103Y-97360469D01*
X139317648Y-97354369D01*
X139364139Y-97337535D01*
X139400527Y-97310918D01*
X139427503Y-97274876D01*
X139444543Y-97228705D01*
X139450719Y-97169410D01*
X139444532Y-97110188D01*
X139427486Y-97064248D01*
X139400527Y-97028543D01*
X139364176Y-97002191D01*
X139317686Y-96985502D01*
X139258103Y-96979450D01*
X139197177Y-96985582D01*
X139149877Y-97002449D01*
X139113114Y-97029001D01*
X139085770Y-97065063D01*
X139068580Y-97110906D01*
X139062373Y-97169410D01*
X138693283Y-97169410D01*
X138689414Y-97130209D01*
X138699054Y-97036225D01*
X138726434Y-96957615D01*
X138770865Y-96891145D01*
X138833853Y-96834828D01*
X138907090Y-96793654D01*
X138999392Y-96761833D01*
X139114819Y-96740896D01*
X139258103Y-96733253D01*
X139400243Y-96740838D01*
G37*
G36*
X140910955Y-96762562D02*
G01*
X141413058Y-96762562D01*
X141761470Y-97582028D01*
X142111897Y-96762562D01*
X142612992Y-96762562D01*
X142612992Y-98292500D01*
X142239942Y-98292500D01*
X142239942Y-97173806D01*
X141887499Y-97999408D01*
X141637456Y-97999408D01*
X141285013Y-97173806D01*
X141285013Y-98292500D01*
X140910955Y-98292500D01*
X140910955Y-96762562D01*
G37*
G36*
X142984302Y-97143581D02*
G01*
X143351125Y-97143581D01*
X143351125Y-98292500D01*
X142984302Y-98292500D01*
X142984302Y-97143581D01*
G37*
G36*
X142984302Y-96698082D02*
G01*
X143351125Y-96698082D01*
X143351125Y-96997035D01*
X142984302Y-96997035D01*
X142984302Y-96698082D01*
G37*
G36*
X144631201Y-97178752D02*
G01*
X144631201Y-97477705D01*
X144555005Y-97432865D01*
X144481084Y-97402509D01*
X144404588Y-97384201D01*
X144324829Y-97378054D01*
X144248619Y-97384264D01*
X144184735Y-97401758D01*
X144130921Y-97429562D01*
X144085502Y-97467722D01*
X144039501Y-97532359D01*
X144010452Y-97614163D01*
X143999956Y-97718040D01*
X144010450Y-97821919D01*
X144039498Y-97903757D01*
X144085502Y-97968450D01*
X144130915Y-98006568D01*
X144184726Y-98034344D01*
X144248613Y-98051822D01*
X144324829Y-98058026D01*
X144409296Y-98051665D01*
X144488228Y-98032930D01*
X144562595Y-98001736D01*
X144631201Y-97958375D01*
X144631201Y-98257329D01*
X144544256Y-98285596D01*
X144456446Y-98305689D01*
X144367633Y-98317788D01*
X144278759Y-98321809D01*
X144152393Y-98314538D01*
X144042818Y-98293914D01*
X143947677Y-98261280D01*
X143864954Y-98217348D01*
X143793051Y-98162165D01*
X143731305Y-98095030D01*
X143683040Y-98018623D01*
X143647704Y-97931622D01*
X143625593Y-97832183D01*
X143617838Y-97718040D01*
X143625594Y-97603895D01*
X143647707Y-97504466D01*
X143683044Y-97417485D01*
X143731307Y-97341107D01*
X143793051Y-97274007D01*
X143864959Y-97218789D01*
X143947685Y-97174832D01*
X144042826Y-97142181D01*
X144152398Y-97121547D01*
X144278759Y-97114272D01*
X144368373Y-97118314D01*
X144456446Y-97130392D01*
X144543526Y-97150422D01*
X144631201Y-97178752D01*
G37*
G36*
X145800544Y-97460120D02*
G01*
X145751949Y-97439055D01*
X145704740Y-97424674D01*
X145608936Y-97413225D01*
X145539401Y-97419461D01*
X145481287Y-97437066D01*
X145432379Y-97465238D01*
X145391132Y-97504358D01*
X145350733Y-97569384D01*
X145324493Y-97654516D01*
X145314837Y-97765484D01*
X145314837Y-98292500D01*
X144948015Y-98292500D01*
X144948015Y-97143581D01*
X145314837Y-97143581D01*
X145314837Y-97331160D01*
X145366507Y-97259950D01*
X145420565Y-97205769D01*
X145477228Y-97166204D01*
X145540361Y-97138053D01*
X145613006Y-97120454D01*
X145697047Y-97114272D01*
X145736980Y-97115921D01*
X145799537Y-97122973D01*
X145800544Y-97460120D01*
G37*
G36*
X146648876Y-97121518D02*
G01*
X146753083Y-97142093D01*
X146843693Y-97174727D01*
X146922637Y-97218818D01*
X146991412Y-97274465D01*
X147049802Y-97341326D01*
X147095665Y-97417538D01*
X147129366Y-97504451D01*
X147150503Y-97603884D01*
X147157924Y-97718040D01*
X147150503Y-97832197D01*
X147129366Y-97931630D01*
X147095665Y-98018543D01*
X147049802Y-98094755D01*
X146991412Y-98161616D01*
X146922637Y-98217262D01*
X146843693Y-98261353D01*
X146753083Y-98293987D01*
X146648876Y-98314563D01*
X146528785Y-98321809D01*
X146408272Y-98314564D01*
X146303648Y-98293987D01*
X146212631Y-98261350D01*
X146133295Y-98217256D01*
X146064144Y-98161616D01*
X146005359Y-98094700D01*
X145959218Y-98018458D01*
X145925329Y-97931544D01*
X145904081Y-97832140D01*
X145896623Y-97718040D01*
X146278741Y-97718040D01*
X146286999Y-97826486D01*
X146309207Y-97908711D01*
X146342764Y-97970465D01*
X146391196Y-98018624D01*
X146451890Y-98047718D01*
X146528785Y-98058026D01*
X146604251Y-98047767D01*
X146664104Y-98018727D01*
X146712150Y-97970465D01*
X146745452Y-97908747D01*
X146767510Y-97826524D01*
X146775715Y-97718040D01*
X146767510Y-97609557D01*
X146745452Y-97527333D01*
X146712150Y-97465615D01*
X146664104Y-97417353D01*
X146604251Y-97388313D01*
X146528785Y-97378054D01*
X146451890Y-97388363D01*
X146391196Y-97417456D01*
X146342764Y-97465615D01*
X146309207Y-97527370D01*
X146286999Y-97609594D01*
X146278741Y-97718040D01*
X145896623Y-97718040D01*
X145904081Y-97603940D01*
X145925329Y-97504536D01*
X145959218Y-97417623D01*
X146005359Y-97341380D01*
X146064144Y-97274465D01*
X146133295Y-97218825D01*
X146212631Y-97174731D01*
X146303648Y-97142093D01*
X146408272Y-97121517D01*
X146528785Y-97114272D01*
X146648876Y-97121518D01*
G37*
G36*
X148273767Y-97125001D02*
G01*
X148364294Y-97156241D01*
X148445850Y-97208191D01*
X148520066Y-97283166D01*
X148578069Y-97370635D01*
X148620482Y-97470677D01*
X148647030Y-97585543D01*
X148656354Y-97718040D01*
X148647030Y-97850538D01*
X148620482Y-97965404D01*
X148578069Y-98065446D01*
X148520066Y-98152915D01*
X148445850Y-98227889D01*
X148364294Y-98279840D01*
X148273767Y-98311079D01*
X148171654Y-98321809D01*
X148092856Y-98316298D01*
X148022589Y-98300418D01*
X147959529Y-98274731D01*
X147901572Y-98238809D01*
X147845647Y-98190569D01*
X147791459Y-98128368D01*
X147791459Y-98726275D01*
X147424637Y-98726275D01*
X147424637Y-97718040D01*
X147791459Y-97718040D01*
X147799597Y-97826505D01*
X147821471Y-97908735D01*
X147854474Y-97970465D01*
X147902191Y-98018830D01*
X147961263Y-98047817D01*
X148035367Y-98058026D01*
X148109412Y-98047848D01*
X148168090Y-98019018D01*
X148215160Y-97971015D01*
X148247548Y-97909694D01*
X148269115Y-97827354D01*
X148277167Y-97718040D01*
X148269113Y-97608726D01*
X148247545Y-97526421D01*
X148215160Y-97465157D01*
X148168083Y-97417099D01*
X148109405Y-97388241D01*
X148035367Y-97378054D01*
X147961270Y-97388272D01*
X147902198Y-97417286D01*
X147854474Y-97465707D01*
X147821474Y-97527380D01*
X147799599Y-97609575D01*
X147791459Y-97718040D01*
X147424637Y-97718040D01*
X147424637Y-97143581D01*
X147791459Y-97143581D01*
X147791459Y-97307712D01*
X147845647Y-97245512D01*
X147901572Y-97197272D01*
X147959529Y-97161350D01*
X148022589Y-97135663D01*
X148092856Y-97119782D01*
X148171654Y-97114272D01*
X148273767Y-97125001D01*
G37*
G36*
X150080503Y-97590454D02*
G01*
X150080503Y-98292500D01*
X149711666Y-98292500D01*
X149711666Y-98178285D01*
X149711666Y-97757241D01*
X149704980Y-97549330D01*
X149695008Y-97496931D01*
X149681991Y-97465982D01*
X149656619Y-97433901D01*
X149623556Y-97409836D01*
X149584683Y-97394938D01*
X149539475Y-97389778D01*
X149467451Y-97399968D01*
X149408413Y-97429275D01*
X149359132Y-97478804D01*
X149324402Y-97541498D01*
X149301825Y-97622108D01*
X149293553Y-97725368D01*
X149293553Y-98292500D01*
X148926731Y-98292500D01*
X148926731Y-96698082D01*
X149293553Y-96698082D01*
X149293553Y-97307712D01*
X149352191Y-97245270D01*
X149410825Y-97197057D01*
X149469774Y-97161350D01*
X149533402Y-97135416D01*
X149601739Y-97119656D01*
X149675763Y-97114272D01*
X149773985Y-97122761D01*
X149854940Y-97146551D01*
X149921972Y-97184276D01*
X149977464Y-97236180D01*
X150019974Y-97299117D01*
X150052126Y-97376944D01*
X150072963Y-97472786D01*
X150080503Y-97590454D01*
G37*
G36*
X151087745Y-97121518D02*
G01*
X151191952Y-97142093D01*
X151282562Y-97174727D01*
X151361507Y-97218818D01*
X151430281Y-97274465D01*
X151488672Y-97341326D01*
X151534534Y-97417538D01*
X151568235Y-97504451D01*
X151589373Y-97603884D01*
X151596794Y-97718040D01*
X151589373Y-97832197D01*
X151568235Y-97931630D01*
X151534534Y-98018543D01*
X151488672Y-98094755D01*
X151430281Y-98161616D01*
X151361507Y-98217262D01*
X151282562Y-98261353D01*
X151191952Y-98293987D01*
X151087745Y-98314563D01*
X150967655Y-98321809D01*
X150847142Y-98314564D01*
X150742517Y-98293987D01*
X150651501Y-98261350D01*
X150572165Y-98217256D01*
X150503013Y-98161616D01*
X150444229Y-98094700D01*
X150398088Y-98018458D01*
X150364199Y-97931544D01*
X150342951Y-97832140D01*
X150335493Y-97718040D01*
X150717611Y-97718040D01*
X150725868Y-97826486D01*
X150748077Y-97908711D01*
X150781633Y-97970465D01*
X150830066Y-98018624D01*
X150890759Y-98047718D01*
X150967655Y-98058026D01*
X151043121Y-98047767D01*
X151102974Y-98018727D01*
X151151020Y-97970465D01*
X151184322Y-97908747D01*
X151206379Y-97826524D01*
X151214584Y-97718040D01*
X151206379Y-97609557D01*
X151184322Y-97527333D01*
X151151020Y-97465615D01*
X151102974Y-97417353D01*
X151043121Y-97388313D01*
X150967655Y-97378054D01*
X150890759Y-97388363D01*
X150830066Y-97417456D01*
X150781633Y-97465615D01*
X150748077Y-97527370D01*
X150725868Y-97609594D01*
X150717611Y-97718040D01*
X150335493Y-97718040D01*
X150342951Y-97603940D01*
X150364199Y-97504536D01*
X150398088Y-97417623D01*
X150444229Y-97341380D01*
X150503013Y-97274465D01*
X150572165Y-97218825D01*
X150651501Y-97174731D01*
X150742517Y-97142093D01*
X150847142Y-97121517D01*
X150967655Y-97114272D01*
X151087745Y-97121518D01*
G37*
G36*
X153017279Y-97590454D02*
G01*
X153017279Y-98292500D01*
X152648442Y-98292500D01*
X152648442Y-98178285D01*
X152648442Y-97755226D01*
X152641756Y-97549330D01*
X152631784Y-97496931D01*
X152618767Y-97465982D01*
X152593395Y-97433901D01*
X152560332Y-97409836D01*
X152521459Y-97394938D01*
X152476251Y-97389778D01*
X152404227Y-97399968D01*
X152345189Y-97429275D01*
X152295908Y-97478804D01*
X152261178Y-97541498D01*
X152238601Y-97622108D01*
X152230329Y-97725368D01*
X152230329Y-98292500D01*
X151863507Y-98292500D01*
X151863507Y-97143581D01*
X152230329Y-97143581D01*
X152230329Y-97307712D01*
X152288967Y-97245270D01*
X152347601Y-97197057D01*
X152406550Y-97161350D01*
X152470178Y-97135416D01*
X152538515Y-97119656D01*
X152612539Y-97114272D01*
X152710761Y-97122761D01*
X152791716Y-97146551D01*
X152858748Y-97184276D01*
X152914240Y-97236180D01*
X152956750Y-97299117D01*
X152988902Y-97376944D01*
X153009739Y-97472786D01*
X153017279Y-97590454D01*
G37*
G36*
X154017021Y-97121399D02*
G01*
X154112855Y-97141832D01*
X154197920Y-97174642D01*
X154273756Y-97219587D01*
X154341503Y-97277121D01*
X154398799Y-97344957D01*
X154443609Y-97421026D01*
X154476356Y-97506490D01*
X154496769Y-97602911D01*
X154503894Y-97712178D01*
X154503894Y-97817691D01*
X153646235Y-97817691D01*
X153663613Y-97899811D01*
X153694916Y-97962952D01*
X153739475Y-98011132D01*
X153796244Y-98045399D01*
X153869230Y-98067524D01*
X153962866Y-98075612D01*
X154078788Y-98067073D01*
X154200087Y-98040716D01*
X154320858Y-97997804D01*
X154449581Y-97934928D01*
X154449581Y-98216296D01*
X154318576Y-98262372D01*
X154189279Y-98295156D01*
X154058888Y-98315177D01*
X153929069Y-98321809D01*
X153802073Y-98314540D01*
X153692432Y-98293965D01*
X153597689Y-98261484D01*
X153515741Y-98217859D01*
X153444918Y-98163173D01*
X153384297Y-98096637D01*
X153336768Y-98020496D01*
X153301865Y-97933360D01*
X153279965Y-97833320D01*
X153272269Y-97718040D01*
X153279768Y-97605001D01*
X153283216Y-97589080D01*
X153650357Y-97589080D01*
X154126814Y-97589080D01*
X154119581Y-97523034D01*
X154099107Y-97468660D01*
X154065814Y-97423392D01*
X154021732Y-97388828D01*
X153969446Y-97367830D01*
X153906537Y-97360469D01*
X153837674Y-97367493D01*
X153780784Y-97387333D01*
X153733338Y-97419362D01*
X153695696Y-97462620D01*
X153667854Y-97518213D01*
X153650357Y-97589080D01*
X153283216Y-97589080D01*
X153301175Y-97506165D01*
X153335400Y-97419391D01*
X153382122Y-97342923D01*
X153441804Y-97275472D01*
X153511837Y-97219382D01*
X153591869Y-97174991D01*
X153683357Y-97142183D01*
X153788178Y-97121533D01*
X153908552Y-97114272D01*
X154017021Y-97121399D01*
G37*
G36*
X155527424Y-96762562D02*
G01*
X156592079Y-96762562D01*
X156592079Y-97061516D01*
X155921907Y-97061516D01*
X155921907Y-97342883D01*
X156552145Y-97342883D01*
X156552145Y-97641837D01*
X155921907Y-97641837D01*
X155921907Y-98292500D01*
X155527424Y-98292500D01*
X155527424Y-96762562D01*
G37*
G36*
X157517998Y-97121399D02*
G01*
X157613832Y-97141832D01*
X157698897Y-97174642D01*
X157774733Y-97219587D01*
X157842480Y-97277121D01*
X157899776Y-97344957D01*
X157944586Y-97421026D01*
X157977333Y-97506490D01*
X157997746Y-97602911D01*
X158004871Y-97712178D01*
X158004871Y-97817691D01*
X157147212Y-97817691D01*
X157164590Y-97899811D01*
X157195893Y-97962952D01*
X157240452Y-98011132D01*
X157297221Y-98045399D01*
X157370207Y-98067524D01*
X157463843Y-98075612D01*
X157579765Y-98067073D01*
X157701063Y-98040716D01*
X157821835Y-97997804D01*
X157950558Y-97934928D01*
X157950558Y-98216296D01*
X157819553Y-98262372D01*
X157690256Y-98295156D01*
X157559865Y-98315177D01*
X157430046Y-98321809D01*
X157303050Y-98314540D01*
X157193409Y-98293965D01*
X157098666Y-98261484D01*
X157016718Y-98217859D01*
X156945895Y-98163173D01*
X156885274Y-98096637D01*
X156837745Y-98020496D01*
X156802842Y-97933360D01*
X156780942Y-97833320D01*
X156773246Y-97718040D01*
X156780745Y-97605001D01*
X156784193Y-97589080D01*
X157151334Y-97589080D01*
X157627791Y-97589080D01*
X157620558Y-97523034D01*
X157600084Y-97468660D01*
X157566791Y-97423392D01*
X157522709Y-97388828D01*
X157470423Y-97367830D01*
X157407514Y-97360469D01*
X157338651Y-97367493D01*
X157281761Y-97387333D01*
X157234315Y-97419362D01*
X157196673Y-97462620D01*
X157168831Y-97518213D01*
X157151334Y-97589080D01*
X156784193Y-97589080D01*
X156802152Y-97506165D01*
X156836377Y-97419391D01*
X156883099Y-97342923D01*
X156942781Y-97275472D01*
X157012814Y-97219382D01*
X157092846Y-97174991D01*
X157184334Y-97142183D01*
X157289155Y-97121533D01*
X157409529Y-97114272D01*
X157517998Y-97121399D01*
G37*
G36*
X158930368Y-97123821D02*
G01*
X159053693Y-97149574D01*
X159148057Y-97188165D01*
X159219277Y-97237737D01*
X159275943Y-97303530D01*
X159318791Y-97388976D01*
X159346831Y-97498810D01*
X159357122Y-97639180D01*
X159357122Y-98292500D01*
X158987185Y-98292500D01*
X158987185Y-98122506D01*
X158933999Y-98187794D01*
X158878777Y-98237724D01*
X158821222Y-98274273D01*
X158758024Y-98299853D01*
X158683915Y-98316060D01*
X158596824Y-98321809D01*
X158508665Y-98314805D01*
X158432307Y-98294810D01*
X158365705Y-98262638D01*
X158307305Y-98218128D01*
X158258945Y-98162776D01*
X158224601Y-98100484D01*
X158203531Y-98029865D01*
X158196205Y-97948941D01*
X158198181Y-97928700D01*
X158566050Y-97928700D01*
X158571536Y-97972441D01*
X158587074Y-98007742D01*
X158612669Y-98036594D01*
X158645869Y-98057405D01*
X158688232Y-98070753D01*
X158742271Y-98075612D01*
X158808158Y-98067309D01*
X158865506Y-98043078D01*
X158916477Y-98002156D01*
X158955500Y-97949544D01*
X158979025Y-97889021D01*
X158987185Y-97818241D01*
X158987185Y-97776659D01*
X158796584Y-97776659D01*
X158720568Y-97781768D01*
X158664530Y-97795286D01*
X158623935Y-97815218D01*
X158591889Y-97844777D01*
X158572781Y-97881789D01*
X158566050Y-97928700D01*
X158198181Y-97928700D01*
X158205813Y-97850498D01*
X158232657Y-97770894D01*
X158275417Y-97706156D01*
X158335057Y-97653743D01*
X158404841Y-97616511D01*
X158497037Y-97586995D01*
X158617028Y-97567141D01*
X158771030Y-97559771D01*
X158987185Y-97559771D01*
X158987185Y-97530187D01*
X158979123Y-97475466D01*
X158956442Y-97433612D01*
X158918492Y-97401410D01*
X158870633Y-97380601D01*
X158801479Y-97366069D01*
X158704352Y-97360469D01*
X158588953Y-97366513D01*
X158485083Y-97383916D01*
X158386688Y-97413441D01*
X158296589Y-97454258D01*
X158296589Y-97172890D01*
X158414883Y-97147554D01*
X158533260Y-97129201D01*
X158652256Y-97117997D01*
X158771030Y-97114272D01*
X158930368Y-97123821D01*
G37*
G36*
X160100017Y-96821181D02*
G01*
X160100017Y-97143581D01*
X160478105Y-97143581D01*
X160478105Y-97407363D01*
X160100017Y-97407363D01*
X160100017Y-97892796D01*
X160104446Y-97945171D01*
X160115656Y-97979305D01*
X160131707Y-98000599D01*
X160172490Y-98020089D01*
X160257737Y-98028717D01*
X160446323Y-98028717D01*
X160446323Y-98292500D01*
X160131707Y-98292500D01*
X160020346Y-98285422D01*
X159935343Y-98266424D01*
X159871279Y-98238043D01*
X159823778Y-98201550D01*
X159787415Y-98153945D01*
X159759116Y-98089720D01*
X159740165Y-98004481D01*
X159733103Y-97892796D01*
X159733103Y-97407363D01*
X159550745Y-97407363D01*
X159550745Y-97143581D01*
X159733103Y-97143581D01*
X159733103Y-96821181D01*
X160100017Y-96821181D01*
G37*
G36*
X161856917Y-97590454D02*
G01*
X161856917Y-98292500D01*
X161488079Y-98292500D01*
X161488079Y-98178285D01*
X161488079Y-97757241D01*
X161481393Y-97549330D01*
X161471421Y-97496931D01*
X161458404Y-97465982D01*
X161433032Y-97433901D01*
X161399969Y-97409836D01*
X161361096Y-97394938D01*
X161315888Y-97389778D01*
X161243864Y-97399968D01*
X161184826Y-97429275D01*
X161135545Y-97478804D01*
X161100815Y-97541498D01*
X161078238Y-97622108D01*
X161069966Y-97725368D01*
X161069966Y-98292500D01*
X160703144Y-98292500D01*
X160703144Y-96698082D01*
X161069966Y-96698082D01*
X161069966Y-97307712D01*
X161128604Y-97245270D01*
X161187238Y-97197057D01*
X161246187Y-97161350D01*
X161309815Y-97135416D01*
X161378152Y-97119656D01*
X161452176Y-97114272D01*
X161550398Y-97122761D01*
X161631353Y-97146551D01*
X161698385Y-97184276D01*
X161753877Y-97236180D01*
X161796387Y-97299117D01*
X161828540Y-97376944D01*
X161849377Y-97472786D01*
X161856917Y-97590454D01*
G37*
G36*
X162856658Y-97121399D02*
G01*
X162952492Y-97141832D01*
X163037557Y-97174642D01*
X163113393Y-97219587D01*
X163181140Y-97277121D01*
X163238436Y-97344957D01*
X163283247Y-97421026D01*
X163315994Y-97506490D01*
X163336406Y-97602911D01*
X163343531Y-97712178D01*
X163343531Y-97817691D01*
X162485872Y-97817691D01*
X162503250Y-97899811D01*
X162534553Y-97962952D01*
X162579112Y-98011132D01*
X162635881Y-98045399D01*
X162708867Y-98067524D01*
X162802503Y-98075612D01*
X162918425Y-98067073D01*
X163039724Y-98040716D01*
X163160495Y-97997804D01*
X163289218Y-97934928D01*
X163289218Y-98216296D01*
X163158213Y-98262372D01*
X163028916Y-98295156D01*
X162898525Y-98315177D01*
X162768706Y-98321809D01*
X162641710Y-98314540D01*
X162532069Y-98293965D01*
X162437326Y-98261484D01*
X162355378Y-98217859D01*
X162284555Y-98163173D01*
X162223934Y-98096637D01*
X162176405Y-98020496D01*
X162141502Y-97933360D01*
X162119603Y-97833320D01*
X162111906Y-97718040D01*
X162119406Y-97605001D01*
X162122854Y-97589080D01*
X162489994Y-97589080D01*
X162966451Y-97589080D01*
X162959219Y-97523034D01*
X162938745Y-97468660D01*
X162905451Y-97423392D01*
X162861369Y-97388828D01*
X162809083Y-97367830D01*
X162746174Y-97360469D01*
X162677311Y-97367493D01*
X162620422Y-97387333D01*
X162572976Y-97419362D01*
X162535334Y-97462620D01*
X162507491Y-97518213D01*
X162489994Y-97589080D01*
X162122854Y-97589080D01*
X162140812Y-97506165D01*
X162175037Y-97419391D01*
X162221759Y-97342923D01*
X162281441Y-97275472D01*
X162351474Y-97219382D01*
X162431506Y-97174991D01*
X162522995Y-97142183D01*
X162627815Y-97121533D01*
X162748189Y-97114272D01*
X162856658Y-97121399D01*
G37*
G36*
X164473399Y-97460120D02*
G01*
X164424803Y-97439055D01*
X164377594Y-97424674D01*
X164281790Y-97413225D01*
X164212255Y-97419461D01*
X164154142Y-97437066D01*
X164105233Y-97465238D01*
X164063987Y-97504358D01*
X164023587Y-97569384D01*
X163997347Y-97654516D01*
X163987691Y-97765484D01*
X163987691Y-98292500D01*
X163620869Y-98292500D01*
X163620869Y-97143581D01*
X163987691Y-97143581D01*
X163987691Y-97331160D01*
X164039361Y-97259950D01*
X164093419Y-97205769D01*
X164150082Y-97166204D01*
X164213215Y-97138053D01*
X164285860Y-97120454D01*
X164369901Y-97114272D01*
X164409834Y-97115921D01*
X164472391Y-97122973D01*
X164473399Y-97460120D01*
G37*
G36*
X164541726Y-96762562D02*
G01*
X164919905Y-96762562D01*
X165184237Y-97874386D01*
X165446554Y-96762562D01*
X165826748Y-96762562D01*
X166089065Y-97874386D01*
X166353397Y-96762562D01*
X166728462Y-96762562D01*
X166367777Y-98292500D01*
X165912752Y-98292500D01*
X165635140Y-97129385D01*
X165360458Y-98292500D01*
X164905525Y-98292500D01*
X164541726Y-96762562D01*
G37*
G36*
X166970904Y-97143581D02*
G01*
X167337726Y-97143581D01*
X167337726Y-98292500D01*
X166970904Y-98292500D01*
X166970904Y-97143581D01*
G37*
G36*
X166970904Y-96698082D02*
G01*
X167337726Y-96698082D01*
X167337726Y-96997035D01*
X166970904Y-96997035D01*
X166970904Y-96698082D01*
G37*
G36*
X168844216Y-97590454D02*
G01*
X168844216Y-98292500D01*
X168475379Y-98292500D01*
X168475379Y-98178285D01*
X168475379Y-97755226D01*
X168468693Y-97549330D01*
X168458720Y-97496931D01*
X168445703Y-97465982D01*
X168420332Y-97433901D01*
X168387268Y-97409836D01*
X168348396Y-97394938D01*
X168303188Y-97389778D01*
X168231164Y-97399968D01*
X168172126Y-97429275D01*
X168122845Y-97478804D01*
X168088114Y-97541498D01*
X168065538Y-97622108D01*
X168057265Y-97725368D01*
X168057265Y-98292500D01*
X167690443Y-98292500D01*
X167690443Y-97143581D01*
X168057265Y-97143581D01*
X168057265Y-97307712D01*
X168115903Y-97245270D01*
X168174537Y-97197057D01*
X168233487Y-97161350D01*
X168297114Y-97135416D01*
X168365451Y-97119656D01*
X168439475Y-97114272D01*
X168537698Y-97122761D01*
X168618652Y-97146551D01*
X168685684Y-97184276D01*
X168741176Y-97236180D01*
X168783687Y-97299117D01*
X168815839Y-97376944D01*
X168836676Y-97472786D01*
X168844216Y-97590454D01*
G37*
G36*
X169666751Y-97125612D02*
G01*
X169736632Y-97141358D01*
X169798961Y-97166754D01*
X169856197Y-97202354D01*
X169911785Y-97250692D01*
X169966023Y-97313574D01*
X169966023Y-97143581D01*
X170334952Y-97143581D01*
X170334952Y-98177461D01*
X170327157Y-98288036D01*
X170305029Y-98383198D01*
X170269793Y-98465426D01*
X170221737Y-98536706D01*
X170160196Y-98598414D01*
X170089693Y-98647537D01*
X170006091Y-98687425D01*
X169907279Y-98717596D01*
X169790719Y-98736956D01*
X169653515Y-98743860D01*
X169546979Y-98739820D01*
X169445511Y-98727923D01*
X169345440Y-98708006D01*
X169243645Y-98679380D01*
X169243645Y-98392151D01*
X169340717Y-98442006D01*
X169432139Y-98475956D01*
X169524979Y-98496686D01*
X169617611Y-98503525D01*
X169709392Y-98497572D01*
X169781674Y-98481359D01*
X169838184Y-98456730D01*
X169881943Y-98424574D01*
X169916691Y-98382735D01*
X169942834Y-98329481D01*
X169959827Y-98262186D01*
X169966023Y-98177461D01*
X169966023Y-98099059D01*
X169911837Y-98161619D01*
X169856246Y-98209919D01*
X169798961Y-98245696D01*
X169736622Y-98271195D01*
X169666742Y-98287001D01*
X169587935Y-98292500D01*
X169486680Y-98282004D01*
X169396545Y-98251414D01*
X169315026Y-98200536D01*
X169240531Y-98127178D01*
X169181797Y-98041230D01*
X169139111Y-97943819D01*
X169112533Y-97832871D01*
X169103315Y-97706866D01*
X169483430Y-97706866D01*
X169491409Y-97811049D01*
X169512767Y-97889142D01*
X169544888Y-97947018D01*
X169591217Y-97991784D01*
X169649703Y-98019022D01*
X169724223Y-98028717D01*
X169796533Y-98018917D01*
X169854807Y-97991014D01*
X169902459Y-97944453D01*
X169936029Y-97884885D01*
X169957953Y-97807323D01*
X169966023Y-97706866D01*
X169957931Y-97605652D01*
X169935987Y-97527798D01*
X169902459Y-97468271D01*
X169854800Y-97421656D01*
X169796525Y-97393724D01*
X169724223Y-97383916D01*
X169652588Y-97393692D01*
X169594590Y-97421594D01*
X169546903Y-97468271D01*
X169513426Y-97527791D01*
X169491512Y-97605645D01*
X169483430Y-97706866D01*
X169103315Y-97706866D01*
X169103235Y-97705767D01*
X169112563Y-97578091D01*
X169139184Y-97467018D01*
X169181873Y-97369849D01*
X169240531Y-97284448D01*
X169314963Y-97211586D01*
X169396462Y-97161008D01*
X169486620Y-97130578D01*
X169587935Y-97120134D01*
X169666751Y-97125612D01*
G37*
D12*
%TO.C,REF\u002A\u002A*%
G36*
X146152962Y-104602650D02*
G01*
X146156654Y-104602930D01*
X146160292Y-104603392D01*
X146163870Y-104604032D01*
X146167388Y-104604846D01*
X146170836Y-104605826D01*
X146174214Y-104606968D01*
X146177516Y-104608272D01*
X146180736Y-104609728D01*
X146183872Y-104611334D01*
X146186916Y-104613086D01*
X146189866Y-104614978D01*
X146192718Y-104617006D01*
X146195464Y-104619164D01*
X146198104Y-104621450D01*
X146200628Y-104623858D01*
X146203036Y-104626384D01*
X146205322Y-104629022D01*
X146207482Y-104631770D01*
X146209510Y-104634620D01*
X146211402Y-104637572D01*
X146213152Y-104640616D01*
X146214760Y-104643750D01*
X146216216Y-104646972D01*
X146217518Y-104650272D01*
X146218662Y-104653650D01*
X146219642Y-104657100D01*
X146220454Y-104660616D01*
X146221094Y-104664196D01*
X146221558Y-104667834D01*
X146221838Y-104671524D01*
X146221932Y-104675264D01*
X146221932Y-104941868D01*
X146221838Y-104945608D01*
X146221558Y-104949298D01*
X146221094Y-104952936D01*
X146220454Y-104956516D01*
X146219642Y-104960032D01*
X146218662Y-104963482D01*
X146217518Y-104966860D01*
X146216216Y-104970160D01*
X146214760Y-104973382D01*
X146213152Y-104976516D01*
X146211402Y-104979562D01*
X146209510Y-104982512D01*
X146207482Y-104985362D01*
X146205322Y-104988110D01*
X146203036Y-104990748D01*
X146200628Y-104993274D01*
X146198104Y-104995682D01*
X146195464Y-104997968D01*
X146192718Y-105000126D01*
X146189866Y-105002154D01*
X146186916Y-105004046D01*
X146183872Y-105005798D01*
X146180736Y-105007404D01*
X146177516Y-105008860D01*
X146174214Y-105010164D01*
X146170836Y-105011306D01*
X146167388Y-105012288D01*
X146163870Y-105013100D01*
X146160292Y-105013740D01*
X146156654Y-105014202D01*
X146152962Y-105014482D01*
X146149222Y-105014578D01*
X145882620Y-105014578D01*
X145878880Y-105014482D01*
X145875190Y-105014202D01*
X145871552Y-105013740D01*
X145867972Y-105013100D01*
X145864456Y-105012288D01*
X145861006Y-105011306D01*
X145857628Y-105010164D01*
X145854326Y-105008860D01*
X145851106Y-105007404D01*
X145847972Y-105005798D01*
X145844926Y-105004046D01*
X145841976Y-105002154D01*
X145839126Y-105000126D01*
X145836378Y-104997968D01*
X145833740Y-104995682D01*
X145831214Y-104993274D01*
X145828806Y-104990748D01*
X145826520Y-104988110D01*
X145824360Y-104985362D01*
X145822334Y-104982512D01*
X145820442Y-104979562D01*
X145818690Y-104976516D01*
X145817084Y-104973382D01*
X145815626Y-104970160D01*
X145814324Y-104966860D01*
X145813180Y-104963482D01*
X145812200Y-104960032D01*
X145811388Y-104956516D01*
X145810748Y-104952936D01*
X145810286Y-104949298D01*
X145810004Y-104945608D01*
X145809910Y-104941868D01*
X145809910Y-104675264D01*
X145810004Y-104671524D01*
X145810286Y-104667834D01*
X145810748Y-104664196D01*
X145811388Y-104660616D01*
X145812200Y-104657100D01*
X145813180Y-104653650D01*
X145814324Y-104650272D01*
X145815626Y-104646972D01*
X145817084Y-104643750D01*
X145818690Y-104640616D01*
X145820442Y-104637572D01*
X145822334Y-104634620D01*
X145824360Y-104631770D01*
X145826520Y-104629022D01*
X145828806Y-104626384D01*
X145831214Y-104623858D01*
X145833740Y-104621450D01*
X145836378Y-104619164D01*
X145839126Y-104617006D01*
X145841976Y-104614978D01*
X145844926Y-104613086D01*
X145847972Y-104611334D01*
X145851106Y-104609728D01*
X145854326Y-104608272D01*
X145857628Y-104606968D01*
X145861006Y-104605826D01*
X145864456Y-104604846D01*
X145867972Y-104604032D01*
X145871552Y-104603392D01*
X145875190Y-104602930D01*
X145878880Y-104602650D01*
X145882620Y-104602554D01*
X146149222Y-104602554D01*
X146152962Y-104602650D01*
G37*
G36*
X146152962Y-105208570D02*
G01*
X146156654Y-105208850D01*
X146160292Y-105209314D01*
X146163870Y-105209954D01*
X146167388Y-105210766D01*
X146170836Y-105211746D01*
X146174214Y-105212890D01*
X146177516Y-105214192D01*
X146180736Y-105215648D01*
X146183872Y-105217256D01*
X146186916Y-105219006D01*
X146189866Y-105220898D01*
X146192718Y-105222926D01*
X146195464Y-105225086D01*
X146198104Y-105227372D01*
X146200628Y-105229780D01*
X146203036Y-105232306D01*
X146205322Y-105234944D01*
X146207482Y-105237690D01*
X146209510Y-105240542D01*
X146211402Y-105243492D01*
X146213152Y-105246536D01*
X146214760Y-105249672D01*
X146216216Y-105252892D01*
X146217518Y-105256194D01*
X146218662Y-105259572D01*
X146219642Y-105263020D01*
X146220454Y-105266538D01*
X146221094Y-105270118D01*
X146221558Y-105273754D01*
X146221838Y-105277446D01*
X146221932Y-105281186D01*
X146221932Y-105547788D01*
X146221838Y-105551528D01*
X146221558Y-105555220D01*
X146221094Y-105558856D01*
X146220454Y-105562436D01*
X146219642Y-105565952D01*
X146218662Y-105569402D01*
X146217518Y-105572780D01*
X146216216Y-105576082D01*
X146214760Y-105579302D01*
X146213152Y-105582438D01*
X146211402Y-105585482D01*
X146209510Y-105588432D01*
X146207482Y-105591282D01*
X146205322Y-105594030D01*
X146203036Y-105596668D01*
X146200628Y-105599194D01*
X146198104Y-105601602D01*
X146195464Y-105603888D01*
X146192718Y-105606048D01*
X146189866Y-105608076D01*
X146186916Y-105609968D01*
X146183872Y-105611718D01*
X146180736Y-105613324D01*
X146177516Y-105614782D01*
X146174214Y-105616084D01*
X146170836Y-105617228D01*
X146167388Y-105618208D01*
X146163870Y-105619020D01*
X146160292Y-105619660D01*
X146156654Y-105620122D01*
X146152962Y-105620404D01*
X146149222Y-105620498D01*
X145882620Y-105620498D01*
X145878880Y-105620404D01*
X145875190Y-105620122D01*
X145871552Y-105619660D01*
X145867972Y-105619020D01*
X145864456Y-105618208D01*
X145861006Y-105617228D01*
X145857628Y-105616084D01*
X145854326Y-105614782D01*
X145851106Y-105613324D01*
X145847972Y-105611718D01*
X145844926Y-105609968D01*
X145841976Y-105608076D01*
X145839126Y-105606048D01*
X145836378Y-105603888D01*
X145833740Y-105601602D01*
X145831214Y-105599194D01*
X145828806Y-105596668D01*
X145826520Y-105594030D01*
X145824360Y-105591282D01*
X145822334Y-105588432D01*
X145820442Y-105585482D01*
X145818690Y-105582438D01*
X145817084Y-105579302D01*
X145815626Y-105576082D01*
X145814324Y-105572780D01*
X145813180Y-105569402D01*
X145812200Y-105565952D01*
X145811388Y-105562436D01*
X145810748Y-105558856D01*
X145810286Y-105555220D01*
X145810004Y-105551528D01*
X145809910Y-105547788D01*
X145809910Y-105281186D01*
X145810004Y-105277446D01*
X145810286Y-105273754D01*
X145810748Y-105270118D01*
X145811388Y-105266538D01*
X145812200Y-105263020D01*
X145813180Y-105259572D01*
X145814324Y-105256194D01*
X145815626Y-105252892D01*
X145817084Y-105249672D01*
X145818690Y-105246536D01*
X145820442Y-105243492D01*
X145822334Y-105240542D01*
X145824360Y-105237690D01*
X145826520Y-105234944D01*
X145828806Y-105232306D01*
X145831214Y-105229780D01*
X145833740Y-105227372D01*
X145836378Y-105225086D01*
X145839126Y-105222926D01*
X145841976Y-105220898D01*
X145844926Y-105219006D01*
X145847972Y-105217256D01*
X145851106Y-105215648D01*
X145854326Y-105214192D01*
X145857628Y-105212890D01*
X145861006Y-105211746D01*
X145864456Y-105210766D01*
X145867972Y-105209954D01*
X145871552Y-105209314D01*
X145875190Y-105208850D01*
X145878880Y-105208570D01*
X145882620Y-105208476D01*
X146149222Y-105208476D01*
X146152962Y-105208570D01*
G37*
G36*
X146152962Y-106411750D02*
G01*
X146156654Y-106412030D01*
X146160292Y-106412492D01*
X146163870Y-106413132D01*
X146167388Y-106413946D01*
X146170836Y-106414926D01*
X146174214Y-106416070D01*
X146177516Y-106417372D01*
X146180736Y-106418828D01*
X146183872Y-106420434D01*
X146186916Y-106422186D01*
X146189866Y-106424078D01*
X146192718Y-106426106D01*
X146195464Y-106428264D01*
X146198104Y-106430550D01*
X146200628Y-106432958D01*
X146203036Y-106435484D01*
X146205322Y-106438122D01*
X146207482Y-106440870D01*
X146209510Y-106443720D01*
X146211402Y-106446670D01*
X146213152Y-106449716D01*
X146214760Y-106452850D01*
X146216216Y-106456072D01*
X146217518Y-106459372D01*
X146218662Y-106462750D01*
X146219642Y-106466200D01*
X146220454Y-106469716D01*
X146221094Y-106473296D01*
X146221558Y-106476934D01*
X146221838Y-106480624D01*
X146221932Y-106484364D01*
X146221932Y-106750968D01*
X146221838Y-106754708D01*
X146221558Y-106758398D01*
X146221094Y-106762036D01*
X146220454Y-106765616D01*
X146219642Y-106769132D01*
X146218662Y-106772582D01*
X146217518Y-106775960D01*
X146216216Y-106779260D01*
X146214760Y-106782482D01*
X146213152Y-106785616D01*
X146211402Y-106788662D01*
X146209510Y-106791612D01*
X146207482Y-106794462D01*
X146205322Y-106797210D01*
X146203036Y-106799848D01*
X146200628Y-106802374D01*
X146198104Y-106804782D01*
X146195464Y-106807068D01*
X146192718Y-106809226D01*
X146189866Y-106811254D01*
X146186916Y-106813146D01*
X146183872Y-106814898D01*
X146180736Y-106816504D01*
X146177516Y-106817960D01*
X146174214Y-106819264D01*
X146170836Y-106820406D01*
X146167388Y-106821388D01*
X146163870Y-106822200D01*
X146160292Y-106822840D01*
X146156654Y-106823302D01*
X146152962Y-106823582D01*
X146149222Y-106823678D01*
X145882620Y-106823678D01*
X145878880Y-106823582D01*
X145875190Y-106823302D01*
X145871552Y-106822840D01*
X145867972Y-106822200D01*
X145864456Y-106821388D01*
X145861006Y-106820406D01*
X145857628Y-106819264D01*
X145854326Y-106817960D01*
X145851106Y-106816504D01*
X145847972Y-106814898D01*
X145844926Y-106813146D01*
X145841976Y-106811254D01*
X145839126Y-106809226D01*
X145836378Y-106807068D01*
X145833740Y-106804782D01*
X145831214Y-106802374D01*
X145828806Y-106799848D01*
X145826520Y-106797210D01*
X145824360Y-106794462D01*
X145822334Y-106791612D01*
X145820442Y-106788662D01*
X145818690Y-106785616D01*
X145817084Y-106782482D01*
X145815626Y-106779260D01*
X145814324Y-106775960D01*
X145813180Y-106772582D01*
X145812200Y-106769132D01*
X145811388Y-106765616D01*
X145810748Y-106762036D01*
X145810286Y-106758398D01*
X145810004Y-106754708D01*
X145809910Y-106750968D01*
X145809910Y-106484364D01*
X145810004Y-106480624D01*
X145810286Y-106476934D01*
X145810748Y-106473296D01*
X145811388Y-106469716D01*
X145812200Y-106466200D01*
X145813180Y-106462750D01*
X145814324Y-106459372D01*
X145815626Y-106456072D01*
X145817084Y-106452850D01*
X145818690Y-106449716D01*
X145820442Y-106446670D01*
X145822334Y-106443720D01*
X145824360Y-106440870D01*
X145826520Y-106438122D01*
X145828806Y-106435484D01*
X145831214Y-106432958D01*
X145833740Y-106430550D01*
X145836378Y-106428264D01*
X145839126Y-106426106D01*
X145841976Y-106424078D01*
X145844926Y-106422186D01*
X145847972Y-106420434D01*
X145851106Y-106418828D01*
X145854326Y-106417372D01*
X145857628Y-106416070D01*
X145861006Y-106414926D01*
X145864456Y-106413946D01*
X145867972Y-106413132D01*
X145871552Y-106412492D01*
X145875190Y-106412030D01*
X145878880Y-106411750D01*
X145882620Y-106411654D01*
X146149222Y-106411654D01*
X146152962Y-106411750D01*
G37*
G36*
X146761540Y-104602650D02*
G01*
X146765230Y-104602930D01*
X146768868Y-104603392D01*
X146772448Y-104604032D01*
X146775964Y-104604846D01*
X146779414Y-104605826D01*
X146782792Y-104606968D01*
X146786094Y-104608272D01*
X146789314Y-104609728D01*
X146792448Y-104611334D01*
X146795494Y-104613086D01*
X146798444Y-104614978D01*
X146801294Y-104617006D01*
X146804042Y-104619164D01*
X146806680Y-104621450D01*
X146809206Y-104623858D01*
X146811614Y-104626384D01*
X146813900Y-104629022D01*
X146816058Y-104631770D01*
X146818086Y-104634620D01*
X146819978Y-104637572D01*
X146821730Y-104640616D01*
X146823336Y-104643750D01*
X146824794Y-104646972D01*
X146826096Y-104650272D01*
X146827240Y-104653650D01*
X146828220Y-104657100D01*
X146829032Y-104660616D01*
X146829672Y-104664196D01*
X146830134Y-104667834D01*
X146830416Y-104671524D01*
X146830510Y-104675264D01*
X146830510Y-104941868D01*
X146830416Y-104945608D01*
X146830134Y-104949298D01*
X146829672Y-104952936D01*
X146829032Y-104956516D01*
X146828220Y-104960032D01*
X146827240Y-104963482D01*
X146826096Y-104966860D01*
X146824794Y-104970160D01*
X146823336Y-104973382D01*
X146821730Y-104976516D01*
X146819978Y-104979562D01*
X146818086Y-104982512D01*
X146816058Y-104985362D01*
X146813900Y-104988110D01*
X146811614Y-104990748D01*
X146809206Y-104993274D01*
X146806680Y-104995682D01*
X146804042Y-104997968D01*
X146801294Y-105000126D01*
X146798444Y-105002154D01*
X146795494Y-105004046D01*
X146792448Y-105005798D01*
X146789314Y-105007404D01*
X146786094Y-105008860D01*
X146782792Y-105010164D01*
X146779414Y-105011306D01*
X146775964Y-105012288D01*
X146772448Y-105013100D01*
X146768868Y-105013740D01*
X146765230Y-105014202D01*
X146761540Y-105014482D01*
X146757800Y-105014578D01*
X146491196Y-105014578D01*
X146487458Y-105014482D01*
X146483766Y-105014202D01*
X146480128Y-105013740D01*
X146476550Y-105013100D01*
X146473032Y-105012288D01*
X146469582Y-105011306D01*
X146466206Y-105010164D01*
X146462904Y-105008860D01*
X146459684Y-105007404D01*
X146456548Y-105005798D01*
X146453504Y-105004046D01*
X146450554Y-105002154D01*
X146447702Y-105000126D01*
X146444956Y-104997968D01*
X146442316Y-104995682D01*
X146439792Y-104993274D01*
X146437382Y-104990748D01*
X146435098Y-104988110D01*
X146432938Y-104985362D01*
X146430910Y-104982512D01*
X146429018Y-104979562D01*
X146427266Y-104976516D01*
X146425660Y-104973382D01*
X146424204Y-104970160D01*
X146422902Y-104966860D01*
X146421758Y-104963482D01*
X146420778Y-104960032D01*
X146419966Y-104956516D01*
X146419326Y-104952936D01*
X146418862Y-104949298D01*
X146418582Y-104945608D01*
X146418488Y-104941868D01*
X146418488Y-104675264D01*
X146418582Y-104671524D01*
X146418862Y-104667834D01*
X146419326Y-104664196D01*
X146419966Y-104660616D01*
X146420778Y-104657100D01*
X146421758Y-104653650D01*
X146422902Y-104650272D01*
X146424204Y-104646972D01*
X146425660Y-104643750D01*
X146427266Y-104640616D01*
X146429018Y-104637572D01*
X146430910Y-104634620D01*
X146432938Y-104631770D01*
X146435098Y-104629022D01*
X146437382Y-104626384D01*
X146439792Y-104623858D01*
X146442316Y-104621450D01*
X146444956Y-104619164D01*
X146447702Y-104617006D01*
X146450554Y-104614978D01*
X146453504Y-104613086D01*
X146456548Y-104611334D01*
X146459684Y-104609728D01*
X146462904Y-104608272D01*
X146466206Y-104606968D01*
X146469582Y-104605826D01*
X146473032Y-104604846D01*
X146476550Y-104604032D01*
X146480128Y-104603392D01*
X146483766Y-104602930D01*
X146487458Y-104602650D01*
X146491196Y-104602554D01*
X146757800Y-104602554D01*
X146761540Y-104602650D01*
G37*
G36*
X146761540Y-105208570D02*
G01*
X146765230Y-105208850D01*
X146768868Y-105209314D01*
X146772448Y-105209954D01*
X146775964Y-105210766D01*
X146779414Y-105211746D01*
X146782792Y-105212890D01*
X146786094Y-105214192D01*
X146789314Y-105215648D01*
X146792448Y-105217256D01*
X146795494Y-105219006D01*
X146798444Y-105220898D01*
X146801294Y-105222926D01*
X146804042Y-105225086D01*
X146806680Y-105227372D01*
X146809206Y-105229780D01*
X146811614Y-105232306D01*
X146813900Y-105234944D01*
X146816058Y-105237690D01*
X146818086Y-105240542D01*
X146819978Y-105243492D01*
X146821730Y-105246536D01*
X146823336Y-105249672D01*
X146824794Y-105252892D01*
X146826096Y-105256194D01*
X146827240Y-105259572D01*
X146828220Y-105263020D01*
X146829032Y-105266538D01*
X146829672Y-105270118D01*
X146830134Y-105273754D01*
X146830416Y-105277446D01*
X146830510Y-105281186D01*
X146830510Y-105547788D01*
X146830416Y-105551528D01*
X146830134Y-105555220D01*
X146829672Y-105558856D01*
X146829032Y-105562436D01*
X146828220Y-105565952D01*
X146827240Y-105569402D01*
X146826096Y-105572780D01*
X146824794Y-105576082D01*
X146823336Y-105579302D01*
X146821730Y-105582438D01*
X146819978Y-105585482D01*
X146818086Y-105588432D01*
X146816058Y-105591282D01*
X146813900Y-105594030D01*
X146811614Y-105596668D01*
X146809206Y-105599194D01*
X146806680Y-105601602D01*
X146804042Y-105603888D01*
X146801294Y-105606048D01*
X146798444Y-105608076D01*
X146795494Y-105609968D01*
X146792448Y-105611718D01*
X146789314Y-105613324D01*
X146786094Y-105614782D01*
X146782792Y-105616084D01*
X146779414Y-105617228D01*
X146775964Y-105618208D01*
X146772448Y-105619020D01*
X146768868Y-105619660D01*
X146765230Y-105620122D01*
X146761540Y-105620404D01*
X146757800Y-105620498D01*
X146491196Y-105620498D01*
X146487458Y-105620404D01*
X146483766Y-105620122D01*
X146480128Y-105619660D01*
X146476550Y-105619020D01*
X146473032Y-105618208D01*
X146469582Y-105617228D01*
X146466206Y-105616084D01*
X146462904Y-105614782D01*
X146459684Y-105613324D01*
X146456548Y-105611718D01*
X146453504Y-105609968D01*
X146450554Y-105608076D01*
X146447702Y-105606048D01*
X146444956Y-105603888D01*
X146442316Y-105601602D01*
X146439792Y-105599194D01*
X146437382Y-105596668D01*
X146435098Y-105594030D01*
X146432938Y-105591282D01*
X146430910Y-105588432D01*
X146429018Y-105585482D01*
X146427266Y-105582438D01*
X146425660Y-105579302D01*
X146424204Y-105576082D01*
X146422902Y-105572780D01*
X146421758Y-105569402D01*
X146420778Y-105565952D01*
X146419966Y-105562436D01*
X146419326Y-105558856D01*
X146418862Y-105555220D01*
X146418582Y-105551528D01*
X146418488Y-105547788D01*
X146418488Y-105281186D01*
X146418582Y-105277446D01*
X146418862Y-105273754D01*
X146419326Y-105270118D01*
X146419966Y-105266538D01*
X146420778Y-105263020D01*
X146421758Y-105259572D01*
X146422902Y-105256194D01*
X146424204Y-105252892D01*
X146425660Y-105249672D01*
X146427266Y-105246536D01*
X146429018Y-105243492D01*
X146430910Y-105240542D01*
X146432938Y-105237690D01*
X146435098Y-105234944D01*
X146437382Y-105232306D01*
X146439792Y-105229780D01*
X146442316Y-105227372D01*
X146444956Y-105225086D01*
X146447702Y-105222926D01*
X146450554Y-105220898D01*
X146453504Y-105219006D01*
X146456548Y-105217256D01*
X146459684Y-105215648D01*
X146462904Y-105214192D01*
X146466206Y-105212890D01*
X146469582Y-105211746D01*
X146473032Y-105210766D01*
X146476550Y-105209954D01*
X146480128Y-105209314D01*
X146483766Y-105208850D01*
X146487458Y-105208570D01*
X146491196Y-105208476D01*
X146757800Y-105208476D01*
X146761540Y-105208570D01*
G37*
G36*
X146761540Y-106411750D02*
G01*
X146765230Y-106412030D01*
X146768868Y-106412492D01*
X146772448Y-106413132D01*
X146775964Y-106413946D01*
X146779414Y-106414926D01*
X146782792Y-106416070D01*
X146786094Y-106417372D01*
X146789314Y-106418828D01*
X146792448Y-106420434D01*
X146795494Y-106422186D01*
X146798444Y-106424078D01*
X146801294Y-106426106D01*
X146804042Y-106428264D01*
X146806680Y-106430550D01*
X146809206Y-106432958D01*
X146811614Y-106435484D01*
X146813900Y-106438122D01*
X146816058Y-106440870D01*
X146818086Y-106443720D01*
X146819978Y-106446670D01*
X146821730Y-106449716D01*
X146823336Y-106452850D01*
X146824794Y-106456072D01*
X146826096Y-106459372D01*
X146827240Y-106462750D01*
X146828220Y-106466200D01*
X146829032Y-106469716D01*
X146829672Y-106473296D01*
X146830134Y-106476934D01*
X146830416Y-106480624D01*
X146830510Y-106484364D01*
X146830510Y-106750968D01*
X146830416Y-106754708D01*
X146830134Y-106758398D01*
X146829672Y-106762036D01*
X146829032Y-106765616D01*
X146828220Y-106769132D01*
X146827240Y-106772582D01*
X146826096Y-106775960D01*
X146824794Y-106779260D01*
X146823336Y-106782482D01*
X146821730Y-106785616D01*
X146819978Y-106788662D01*
X146818086Y-106791612D01*
X146816058Y-106794462D01*
X146813900Y-106797210D01*
X146811614Y-106799848D01*
X146809206Y-106802374D01*
X146806680Y-106804782D01*
X146804042Y-106807068D01*
X146801294Y-106809226D01*
X146798444Y-106811254D01*
X146795494Y-106813146D01*
X146792448Y-106814898D01*
X146789314Y-106816504D01*
X146786094Y-106817960D01*
X146782792Y-106819264D01*
X146779414Y-106820406D01*
X146775964Y-106821388D01*
X146772448Y-106822200D01*
X146768868Y-106822840D01*
X146765230Y-106823302D01*
X146761540Y-106823582D01*
X146757800Y-106823678D01*
X146491196Y-106823678D01*
X146487458Y-106823582D01*
X146483766Y-106823302D01*
X146480128Y-106822840D01*
X146476550Y-106822200D01*
X146473032Y-106821388D01*
X146469582Y-106820406D01*
X146466206Y-106819264D01*
X146462904Y-106817960D01*
X146459684Y-106816504D01*
X146456548Y-106814898D01*
X146453504Y-106813146D01*
X146450554Y-106811254D01*
X146447702Y-106809226D01*
X146444956Y-106807068D01*
X146442316Y-106804782D01*
X146439792Y-106802374D01*
X146437382Y-106799848D01*
X146435098Y-106797210D01*
X146432938Y-106794462D01*
X146430910Y-106791612D01*
X146429018Y-106788662D01*
X146427266Y-106785616D01*
X146425660Y-106782482D01*
X146424204Y-106779260D01*
X146422902Y-106775960D01*
X146421758Y-106772582D01*
X146420778Y-106769132D01*
X146419966Y-106765616D01*
X146419326Y-106762036D01*
X146418862Y-106758398D01*
X146418582Y-106754708D01*
X146418488Y-106750968D01*
X146418488Y-106484364D01*
X146418582Y-106480624D01*
X146418862Y-106476934D01*
X146419326Y-106473296D01*
X146419966Y-106469716D01*
X146420778Y-106466200D01*
X146421758Y-106462750D01*
X146422902Y-106459372D01*
X146424204Y-106456072D01*
X146425660Y-106452850D01*
X146427266Y-106449716D01*
X146429018Y-106446670D01*
X146430910Y-106443720D01*
X146432938Y-106440870D01*
X146435098Y-106438122D01*
X146437382Y-106435484D01*
X146439792Y-106432958D01*
X146442316Y-106430550D01*
X146444956Y-106428264D01*
X146447702Y-106426106D01*
X146450554Y-106424078D01*
X146453504Y-106422186D01*
X146456548Y-106420434D01*
X146459684Y-106418828D01*
X146462904Y-106417372D01*
X146466206Y-106416070D01*
X146469582Y-106414926D01*
X146473032Y-106413946D01*
X146476550Y-106413132D01*
X146480128Y-106412492D01*
X146483766Y-106412030D01*
X146487458Y-106411750D01*
X146491196Y-106411654D01*
X146757800Y-106411654D01*
X146761540Y-106411750D01*
G37*
G36*
X147364794Y-104602650D02*
G01*
X147368486Y-104602930D01*
X147372124Y-104603392D01*
X147375702Y-104604032D01*
X147379220Y-104604846D01*
X147382668Y-104605826D01*
X147386046Y-104606968D01*
X147389348Y-104608272D01*
X147392568Y-104609728D01*
X147395704Y-104611334D01*
X147398748Y-104613086D01*
X147401698Y-104614978D01*
X147404550Y-104617006D01*
X147407296Y-104619164D01*
X147409936Y-104621450D01*
X147412460Y-104623858D01*
X147414868Y-104626384D01*
X147417154Y-104629022D01*
X147419314Y-104631770D01*
X147421342Y-104634620D01*
X147423234Y-104637572D01*
X147424986Y-104640616D01*
X147426592Y-104643750D01*
X147428048Y-104646972D01*
X147429350Y-104650272D01*
X147430494Y-104653650D01*
X147431474Y-104657100D01*
X147432286Y-104660616D01*
X147432926Y-104664196D01*
X147433390Y-104667834D01*
X147433670Y-104671524D01*
X147433764Y-104675264D01*
X147433764Y-104941868D01*
X147433670Y-104945608D01*
X147433390Y-104949298D01*
X147432926Y-104952936D01*
X147432286Y-104956516D01*
X147431474Y-104960032D01*
X147430494Y-104963482D01*
X147429350Y-104966860D01*
X147428048Y-104970160D01*
X147426592Y-104973382D01*
X147424986Y-104976516D01*
X147423234Y-104979562D01*
X147421342Y-104982512D01*
X147419314Y-104985362D01*
X147417154Y-104988110D01*
X147414868Y-104990748D01*
X147412460Y-104993274D01*
X147409936Y-104995682D01*
X147407296Y-104997968D01*
X147404550Y-105000126D01*
X147401698Y-105002154D01*
X147398748Y-105004046D01*
X147395704Y-105005798D01*
X147392568Y-105007404D01*
X147389348Y-105008860D01*
X147386046Y-105010164D01*
X147382668Y-105011306D01*
X147379220Y-105012288D01*
X147375702Y-105013100D01*
X147372124Y-105013740D01*
X147368486Y-105014202D01*
X147364794Y-105014482D01*
X147361054Y-105014578D01*
X147094452Y-105014578D01*
X147090712Y-105014482D01*
X147087022Y-105014202D01*
X147083384Y-105013740D01*
X147079804Y-105013100D01*
X147076288Y-105012288D01*
X147072838Y-105011306D01*
X147069460Y-105010164D01*
X147066158Y-105008860D01*
X147062938Y-105007404D01*
X147059804Y-105005798D01*
X147056758Y-105004046D01*
X147053808Y-105002154D01*
X147050958Y-105000126D01*
X147048210Y-104997968D01*
X147045572Y-104995682D01*
X147043046Y-104993274D01*
X147040638Y-104990748D01*
X147038352Y-104988110D01*
X147036192Y-104985362D01*
X147034166Y-104982512D01*
X147032274Y-104979562D01*
X147030522Y-104976516D01*
X147028916Y-104973382D01*
X147027458Y-104970160D01*
X147026156Y-104966860D01*
X147025012Y-104963482D01*
X147024032Y-104960032D01*
X147023220Y-104956516D01*
X147022580Y-104952936D01*
X147022118Y-104949298D01*
X147021836Y-104945608D01*
X147021742Y-104941868D01*
X147021742Y-104675264D01*
X147021836Y-104671524D01*
X147022118Y-104667834D01*
X147022580Y-104664196D01*
X147023220Y-104660616D01*
X147024032Y-104657100D01*
X147025012Y-104653650D01*
X147026156Y-104650272D01*
X147027458Y-104646972D01*
X147028916Y-104643750D01*
X147030522Y-104640616D01*
X147032274Y-104637572D01*
X147034166Y-104634620D01*
X147036192Y-104631770D01*
X147038352Y-104629022D01*
X147040638Y-104626384D01*
X147043046Y-104623858D01*
X147045572Y-104621450D01*
X147048210Y-104619164D01*
X147050958Y-104617006D01*
X147053808Y-104614978D01*
X147056758Y-104613086D01*
X147059804Y-104611334D01*
X147062938Y-104609728D01*
X147066158Y-104608272D01*
X147069460Y-104606968D01*
X147072838Y-104605826D01*
X147076288Y-104604846D01*
X147079804Y-104604032D01*
X147083384Y-104603392D01*
X147087022Y-104602930D01*
X147090712Y-104602650D01*
X147094452Y-104602554D01*
X147361054Y-104602554D01*
X147364794Y-104602650D01*
G37*
G36*
X147364794Y-105208570D02*
G01*
X147368486Y-105208850D01*
X147372124Y-105209314D01*
X147375702Y-105209954D01*
X147379220Y-105210766D01*
X147382668Y-105211746D01*
X147386046Y-105212890D01*
X147389348Y-105214192D01*
X147392568Y-105215648D01*
X147395704Y-105217256D01*
X147398748Y-105219006D01*
X147401698Y-105220898D01*
X147404550Y-105222926D01*
X147407296Y-105225086D01*
X147409936Y-105227372D01*
X147412460Y-105229780D01*
X147414868Y-105232306D01*
X147417154Y-105234944D01*
X147419314Y-105237690D01*
X147421342Y-105240542D01*
X147423234Y-105243492D01*
X147424986Y-105246536D01*
X147426592Y-105249672D01*
X147428048Y-105252892D01*
X147429350Y-105256194D01*
X147430494Y-105259572D01*
X147431474Y-105263020D01*
X147432286Y-105266538D01*
X147432926Y-105270118D01*
X147433390Y-105273754D01*
X147433670Y-105277446D01*
X147433764Y-105281186D01*
X147433764Y-105547788D01*
X147433670Y-105551528D01*
X147433390Y-105555220D01*
X147432926Y-105558856D01*
X147432286Y-105562436D01*
X147431474Y-105565952D01*
X147430494Y-105569402D01*
X147429350Y-105572780D01*
X147428048Y-105576082D01*
X147426592Y-105579302D01*
X147424986Y-105582438D01*
X147423234Y-105585482D01*
X147421342Y-105588432D01*
X147419314Y-105591282D01*
X147417154Y-105594030D01*
X147414868Y-105596668D01*
X147412460Y-105599194D01*
X147409936Y-105601602D01*
X147407296Y-105603888D01*
X147404550Y-105606048D01*
X147401698Y-105608076D01*
X147398748Y-105609968D01*
X147395704Y-105611718D01*
X147392568Y-105613324D01*
X147389348Y-105614782D01*
X147386046Y-105616084D01*
X147382668Y-105617228D01*
X147379220Y-105618208D01*
X147375702Y-105619020D01*
X147372124Y-105619660D01*
X147368486Y-105620122D01*
X147364794Y-105620404D01*
X147361054Y-105620498D01*
X147094452Y-105620498D01*
X147090712Y-105620404D01*
X147087022Y-105620122D01*
X147083384Y-105619660D01*
X147079804Y-105619020D01*
X147076288Y-105618208D01*
X147072838Y-105617228D01*
X147069460Y-105616084D01*
X147066158Y-105614782D01*
X147062938Y-105613324D01*
X147059804Y-105611718D01*
X147056758Y-105609968D01*
X147053808Y-105608076D01*
X147050958Y-105606048D01*
X147048210Y-105603888D01*
X147045572Y-105601602D01*
X147043046Y-105599194D01*
X147040638Y-105596668D01*
X147038352Y-105594030D01*
X147036192Y-105591282D01*
X147034166Y-105588432D01*
X147032274Y-105585482D01*
X147030522Y-105582438D01*
X147028916Y-105579302D01*
X147027458Y-105576082D01*
X147026156Y-105572780D01*
X147025012Y-105569402D01*
X147024032Y-105565952D01*
X147023220Y-105562436D01*
X147022580Y-105558856D01*
X147022118Y-105555220D01*
X147021836Y-105551528D01*
X147021742Y-105547788D01*
X147021742Y-105281186D01*
X147021836Y-105277446D01*
X147022118Y-105273754D01*
X147022580Y-105270118D01*
X147023220Y-105266538D01*
X147024032Y-105263020D01*
X147025012Y-105259572D01*
X147026156Y-105256194D01*
X147027458Y-105252892D01*
X147028916Y-105249672D01*
X147030522Y-105246536D01*
X147032274Y-105243492D01*
X147034166Y-105240542D01*
X147036192Y-105237690D01*
X147038352Y-105234944D01*
X147040638Y-105232306D01*
X147043046Y-105229780D01*
X147045572Y-105227372D01*
X147048210Y-105225086D01*
X147050958Y-105222926D01*
X147053808Y-105220898D01*
X147056758Y-105219006D01*
X147059804Y-105217256D01*
X147062938Y-105215648D01*
X147066158Y-105214192D01*
X147069460Y-105212890D01*
X147072838Y-105211746D01*
X147076288Y-105210766D01*
X147079804Y-105209954D01*
X147083384Y-105209314D01*
X147087022Y-105208850D01*
X147090712Y-105208570D01*
X147094452Y-105208476D01*
X147361054Y-105208476D01*
X147364794Y-105208570D01*
G37*
G36*
X147364794Y-105814486D02*
G01*
X147368486Y-105814768D01*
X147372124Y-105815230D01*
X147375702Y-105815870D01*
X147379220Y-105816682D01*
X147382668Y-105817662D01*
X147386046Y-105818806D01*
X147389348Y-105820108D01*
X147392568Y-105821566D01*
X147395704Y-105823172D01*
X147398748Y-105824922D01*
X147401698Y-105826814D01*
X147404550Y-105828842D01*
X147407296Y-105831002D01*
X147409936Y-105833288D01*
X147412460Y-105835696D01*
X147414868Y-105838222D01*
X147417154Y-105840860D01*
X147419314Y-105843606D01*
X147421342Y-105846458D01*
X147423234Y-105849408D01*
X147424986Y-105852452D01*
X147426592Y-105855588D01*
X147428048Y-105858808D01*
X147429350Y-105862110D01*
X147430494Y-105865488D01*
X147431474Y-105868938D01*
X147432286Y-105872454D01*
X147432926Y-105876034D01*
X147433390Y-105879670D01*
X147433670Y-105883362D01*
X147433764Y-105887102D01*
X147433764Y-106153704D01*
X147433670Y-106157444D01*
X147433390Y-106161136D01*
X147432926Y-106164772D01*
X147432286Y-106168352D01*
X147431474Y-106171870D01*
X147430494Y-106175318D01*
X147429350Y-106178696D01*
X147428048Y-106181998D01*
X147426592Y-106185218D01*
X147424986Y-106188354D01*
X147423234Y-106191398D01*
X147421342Y-106194348D01*
X147419314Y-106197200D01*
X147417154Y-106199946D01*
X147414868Y-106202584D01*
X147412460Y-106205110D01*
X147409936Y-106207518D01*
X147407296Y-106209804D01*
X147404550Y-106211964D01*
X147401698Y-106213992D01*
X147398748Y-106215884D01*
X147395704Y-106217634D01*
X147392568Y-106219240D01*
X147389348Y-106220698D01*
X147386046Y-106222000D01*
X147382668Y-106223144D01*
X147379220Y-106224124D01*
X147375702Y-106224936D01*
X147372124Y-106225576D01*
X147368486Y-106226038D01*
X147364794Y-106226320D01*
X147361054Y-106226414D01*
X147094452Y-106226414D01*
X147090712Y-106226320D01*
X147087022Y-106226038D01*
X147083384Y-106225576D01*
X147079804Y-106224936D01*
X147076288Y-106224124D01*
X147072838Y-106223144D01*
X147069460Y-106222000D01*
X147066158Y-106220698D01*
X147062938Y-106219240D01*
X147059804Y-106217634D01*
X147056758Y-106215884D01*
X147053808Y-106213992D01*
X147050958Y-106211964D01*
X147048210Y-106209804D01*
X147045572Y-106207518D01*
X147043046Y-106205110D01*
X147040638Y-106202584D01*
X147038352Y-106199946D01*
X147036192Y-106197200D01*
X147034166Y-106194348D01*
X147032274Y-106191398D01*
X147030522Y-106188354D01*
X147028916Y-106185218D01*
X147027458Y-106181998D01*
X147026156Y-106178696D01*
X147025012Y-106175318D01*
X147024032Y-106171870D01*
X147023220Y-106168352D01*
X147022580Y-106164772D01*
X147022118Y-106161136D01*
X147021836Y-106157444D01*
X147021742Y-106153704D01*
X147021742Y-105887102D01*
X147021836Y-105883362D01*
X147022118Y-105879670D01*
X147022580Y-105876034D01*
X147023220Y-105872454D01*
X147024032Y-105868938D01*
X147025012Y-105865488D01*
X147026156Y-105862110D01*
X147027458Y-105858808D01*
X147028916Y-105855588D01*
X147030522Y-105852452D01*
X147032274Y-105849408D01*
X147034166Y-105846458D01*
X147036192Y-105843606D01*
X147038352Y-105840860D01*
X147040638Y-105838222D01*
X147043046Y-105835696D01*
X147045572Y-105833288D01*
X147048210Y-105831002D01*
X147050958Y-105828842D01*
X147053808Y-105826814D01*
X147056758Y-105824922D01*
X147059804Y-105823172D01*
X147062938Y-105821566D01*
X147066158Y-105820108D01*
X147069460Y-105818806D01*
X147072838Y-105817662D01*
X147076288Y-105816682D01*
X147079804Y-105815870D01*
X147083384Y-105815230D01*
X147087022Y-105814768D01*
X147090712Y-105814486D01*
X147094452Y-105814392D01*
X147361054Y-105814392D01*
X147364794Y-105814486D01*
G37*
G36*
X147970710Y-104602650D02*
G01*
X147974402Y-104602930D01*
X147978038Y-104603392D01*
X147981618Y-104604032D01*
X147985136Y-104604846D01*
X147988584Y-104605826D01*
X147991962Y-104606968D01*
X147995264Y-104608272D01*
X147998484Y-104609728D01*
X148001620Y-104611334D01*
X148004664Y-104613086D01*
X148007614Y-104614978D01*
X148010466Y-104617006D01*
X148013212Y-104619164D01*
X148015850Y-104621450D01*
X148018376Y-104623858D01*
X148020784Y-104626384D01*
X148023070Y-104629022D01*
X148025230Y-104631770D01*
X148027258Y-104634620D01*
X148029150Y-104637572D01*
X148030900Y-104640616D01*
X148032508Y-104643750D01*
X148033964Y-104646972D01*
X148035266Y-104650272D01*
X148036410Y-104653650D01*
X148037390Y-104657100D01*
X148038202Y-104660616D01*
X148038842Y-104664196D01*
X148039306Y-104667834D01*
X148039586Y-104671524D01*
X148039680Y-104675264D01*
X148039680Y-104941868D01*
X148039586Y-104945608D01*
X148039306Y-104949298D01*
X148038842Y-104952936D01*
X148038202Y-104956516D01*
X148037390Y-104960032D01*
X148036410Y-104963482D01*
X148035266Y-104966860D01*
X148033964Y-104970160D01*
X148032508Y-104973382D01*
X148030900Y-104976516D01*
X148029150Y-104979562D01*
X148027258Y-104982512D01*
X148025230Y-104985362D01*
X148023070Y-104988110D01*
X148020784Y-104990748D01*
X148018376Y-104993274D01*
X148015850Y-104995682D01*
X148013212Y-104997968D01*
X148010466Y-105000126D01*
X148007614Y-105002154D01*
X148004664Y-105004046D01*
X148001620Y-105005798D01*
X147998484Y-105007404D01*
X147995264Y-105008860D01*
X147991962Y-105010164D01*
X147988584Y-105011306D01*
X147985136Y-105012288D01*
X147981618Y-105013100D01*
X147978038Y-105013740D01*
X147974402Y-105014202D01*
X147970710Y-105014482D01*
X147966970Y-105014578D01*
X147700368Y-105014578D01*
X147696628Y-105014482D01*
X147692936Y-105014202D01*
X147689300Y-105013740D01*
X147685720Y-105013100D01*
X147682204Y-105012288D01*
X147678754Y-105011306D01*
X147675376Y-105010164D01*
X147672074Y-105008860D01*
X147668854Y-105007404D01*
X147665718Y-105005798D01*
X147662674Y-105004046D01*
X147659724Y-105002154D01*
X147656874Y-105000126D01*
X147654126Y-104997968D01*
X147651488Y-104995682D01*
X147648962Y-104993274D01*
X147646554Y-104990748D01*
X147644268Y-104988110D01*
X147642108Y-104985362D01*
X147640080Y-104982512D01*
X147638188Y-104979562D01*
X147636438Y-104976516D01*
X147634832Y-104973382D01*
X147633374Y-104970160D01*
X147632072Y-104966860D01*
X147630928Y-104963482D01*
X147629948Y-104960032D01*
X147629136Y-104956516D01*
X147628496Y-104952936D01*
X147628034Y-104949298D01*
X147627752Y-104945608D01*
X147627658Y-104941868D01*
X147627658Y-104675264D01*
X147627752Y-104671524D01*
X147628034Y-104667834D01*
X147628496Y-104664196D01*
X147629136Y-104660616D01*
X147629948Y-104657100D01*
X147630928Y-104653650D01*
X147632072Y-104650272D01*
X147633374Y-104646972D01*
X147634832Y-104643750D01*
X147636438Y-104640616D01*
X147638188Y-104637572D01*
X147640080Y-104634620D01*
X147642108Y-104631770D01*
X147644268Y-104629022D01*
X147646554Y-104626384D01*
X147648962Y-104623858D01*
X147651488Y-104621450D01*
X147654126Y-104619164D01*
X147656874Y-104617006D01*
X147659724Y-104614978D01*
X147662674Y-104613086D01*
X147665718Y-104611334D01*
X147668854Y-104609728D01*
X147672074Y-104608272D01*
X147675376Y-104606968D01*
X147678754Y-104605826D01*
X147682204Y-104604846D01*
X147685720Y-104604032D01*
X147689300Y-104603392D01*
X147692936Y-104602930D01*
X147696628Y-104602650D01*
X147700368Y-104602554D01*
X147966970Y-104602554D01*
X147970710Y-104602650D01*
G37*
G36*
X147970710Y-105208570D02*
G01*
X147974402Y-105208850D01*
X147978038Y-105209314D01*
X147981618Y-105209954D01*
X147985136Y-105210766D01*
X147988584Y-105211746D01*
X147991962Y-105212890D01*
X147995264Y-105214192D01*
X147998484Y-105215648D01*
X148001620Y-105217256D01*
X148004664Y-105219006D01*
X148007614Y-105220898D01*
X148010466Y-105222926D01*
X148013212Y-105225086D01*
X148015850Y-105227372D01*
X148018376Y-105229780D01*
X148020784Y-105232306D01*
X148023070Y-105234944D01*
X148025230Y-105237690D01*
X148027258Y-105240542D01*
X148029150Y-105243492D01*
X148030900Y-105246536D01*
X148032508Y-105249672D01*
X148033964Y-105252892D01*
X148035266Y-105256194D01*
X148036410Y-105259572D01*
X148037390Y-105263020D01*
X148038202Y-105266538D01*
X148038842Y-105270118D01*
X148039306Y-105273754D01*
X148039586Y-105277446D01*
X148039680Y-105281186D01*
X148039680Y-105547788D01*
X148039586Y-105551528D01*
X148039306Y-105555220D01*
X148038842Y-105558856D01*
X148038202Y-105562436D01*
X148037390Y-105565952D01*
X148036410Y-105569402D01*
X148035266Y-105572780D01*
X148033964Y-105576082D01*
X148032508Y-105579302D01*
X148030900Y-105582438D01*
X148029150Y-105585482D01*
X148027258Y-105588432D01*
X148025230Y-105591282D01*
X148023070Y-105594030D01*
X148020784Y-105596668D01*
X148018376Y-105599194D01*
X148015850Y-105601602D01*
X148013212Y-105603888D01*
X148010466Y-105606048D01*
X148007614Y-105608076D01*
X148004664Y-105609968D01*
X148001620Y-105611718D01*
X147998484Y-105613324D01*
X147995264Y-105614782D01*
X147991962Y-105616084D01*
X147988584Y-105617228D01*
X147985136Y-105618208D01*
X147981618Y-105619020D01*
X147978038Y-105619660D01*
X147974402Y-105620122D01*
X147970710Y-105620404D01*
X147966970Y-105620498D01*
X147700368Y-105620498D01*
X147696628Y-105620404D01*
X147692936Y-105620122D01*
X147689300Y-105619660D01*
X147685720Y-105619020D01*
X147682204Y-105618208D01*
X147678754Y-105617228D01*
X147675376Y-105616084D01*
X147672074Y-105614782D01*
X147668854Y-105613324D01*
X147665718Y-105611718D01*
X147662674Y-105609968D01*
X147659724Y-105608076D01*
X147656874Y-105606048D01*
X147654126Y-105603888D01*
X147651488Y-105601602D01*
X147648962Y-105599194D01*
X147646554Y-105596668D01*
X147644268Y-105594030D01*
X147642108Y-105591282D01*
X147640080Y-105588432D01*
X147638188Y-105585482D01*
X147636438Y-105582438D01*
X147634832Y-105579302D01*
X147633374Y-105576082D01*
X147632072Y-105572780D01*
X147630928Y-105569402D01*
X147629948Y-105565952D01*
X147629136Y-105562436D01*
X147628496Y-105558856D01*
X147628034Y-105555220D01*
X147627752Y-105551528D01*
X147627658Y-105547788D01*
X147627658Y-105281186D01*
X147627752Y-105277446D01*
X147628034Y-105273754D01*
X147628496Y-105270118D01*
X147629136Y-105266538D01*
X147629948Y-105263020D01*
X147630928Y-105259572D01*
X147632072Y-105256194D01*
X147633374Y-105252892D01*
X147634832Y-105249672D01*
X147636438Y-105246536D01*
X147638188Y-105243492D01*
X147640080Y-105240542D01*
X147642108Y-105237690D01*
X147644268Y-105234944D01*
X147646554Y-105232306D01*
X147648962Y-105229780D01*
X147651488Y-105227372D01*
X147654126Y-105225086D01*
X147656874Y-105222926D01*
X147659724Y-105220898D01*
X147662674Y-105219006D01*
X147665718Y-105217256D01*
X147668854Y-105215648D01*
X147672074Y-105214192D01*
X147675376Y-105212890D01*
X147678754Y-105211746D01*
X147682204Y-105210766D01*
X147685720Y-105209954D01*
X147689300Y-105209314D01*
X147692936Y-105208850D01*
X147696628Y-105208570D01*
X147700368Y-105208476D01*
X147966970Y-105208476D01*
X147970710Y-105208570D01*
G37*
G36*
X147970710Y-105814486D02*
G01*
X147974402Y-105814768D01*
X147978038Y-105815230D01*
X147981618Y-105815870D01*
X147985136Y-105816682D01*
X147988584Y-105817662D01*
X147991962Y-105818806D01*
X147995264Y-105820108D01*
X147998484Y-105821566D01*
X148001620Y-105823172D01*
X148004664Y-105824922D01*
X148007614Y-105826814D01*
X148010466Y-105828842D01*
X148013212Y-105831002D01*
X148015850Y-105833288D01*
X148018376Y-105835696D01*
X148020784Y-105838222D01*
X148023070Y-105840860D01*
X148025230Y-105843606D01*
X148027258Y-105846458D01*
X148029150Y-105849408D01*
X148030900Y-105852452D01*
X148032508Y-105855588D01*
X148033964Y-105858808D01*
X148035266Y-105862110D01*
X148036410Y-105865488D01*
X148037390Y-105868938D01*
X148038202Y-105872454D01*
X148038842Y-105876034D01*
X148039306Y-105879670D01*
X148039586Y-105883362D01*
X148039680Y-105887102D01*
X148039680Y-106153704D01*
X148039586Y-106157444D01*
X148039306Y-106161136D01*
X148038842Y-106164772D01*
X148038202Y-106168352D01*
X148037390Y-106171870D01*
X148036410Y-106175318D01*
X148035266Y-106178696D01*
X148033964Y-106181998D01*
X148032508Y-106185218D01*
X148030900Y-106188354D01*
X148029150Y-106191398D01*
X148027258Y-106194348D01*
X148025230Y-106197200D01*
X148023070Y-106199946D01*
X148020784Y-106202584D01*
X148018376Y-106205110D01*
X148015850Y-106207518D01*
X148013212Y-106209804D01*
X148010466Y-106211964D01*
X148007614Y-106213992D01*
X148004664Y-106215884D01*
X148001620Y-106217634D01*
X147998484Y-106219240D01*
X147995264Y-106220698D01*
X147991962Y-106222000D01*
X147988584Y-106223144D01*
X147985136Y-106224124D01*
X147981618Y-106224936D01*
X147978038Y-106225576D01*
X147974402Y-106226038D01*
X147970710Y-106226320D01*
X147966970Y-106226414D01*
X147700368Y-106226414D01*
X147696628Y-106226320D01*
X147692936Y-106226038D01*
X147689300Y-106225576D01*
X147685720Y-106224936D01*
X147682204Y-106224124D01*
X147678754Y-106223144D01*
X147675376Y-106222000D01*
X147672074Y-106220698D01*
X147668854Y-106219240D01*
X147665718Y-106217634D01*
X147662674Y-106215884D01*
X147659724Y-106213992D01*
X147656874Y-106211964D01*
X147654126Y-106209804D01*
X147651488Y-106207518D01*
X147648962Y-106205110D01*
X147646554Y-106202584D01*
X147644268Y-106199946D01*
X147642108Y-106197200D01*
X147640080Y-106194348D01*
X147638188Y-106191398D01*
X147636438Y-106188354D01*
X147634832Y-106185218D01*
X147633374Y-106181998D01*
X147632072Y-106178696D01*
X147630928Y-106175318D01*
X147629948Y-106171870D01*
X147629136Y-106168352D01*
X147628496Y-106164772D01*
X147628034Y-106161136D01*
X147627752Y-106157444D01*
X147627658Y-106153704D01*
X147627658Y-105887102D01*
X147627752Y-105883362D01*
X147628034Y-105879670D01*
X147628496Y-105876034D01*
X147629136Y-105872454D01*
X147629948Y-105868938D01*
X147630928Y-105865488D01*
X147632072Y-105862110D01*
X147633374Y-105858808D01*
X147634832Y-105855588D01*
X147636438Y-105852452D01*
X147638188Y-105849408D01*
X147640080Y-105846458D01*
X147642108Y-105843606D01*
X147644268Y-105840860D01*
X147646554Y-105838222D01*
X147648962Y-105835696D01*
X147651488Y-105833288D01*
X147654126Y-105831002D01*
X147656874Y-105828842D01*
X147659724Y-105826814D01*
X147662674Y-105824922D01*
X147665718Y-105823172D01*
X147668854Y-105821566D01*
X147672074Y-105820108D01*
X147675376Y-105818806D01*
X147678754Y-105817662D01*
X147682204Y-105816682D01*
X147685720Y-105815870D01*
X147689300Y-105815230D01*
X147692936Y-105814768D01*
X147696628Y-105814486D01*
X147700368Y-105814392D01*
X147966970Y-105814392D01*
X147970710Y-105814486D01*
G37*
G36*
X148573960Y-104602650D02*
G01*
X148577652Y-104602930D01*
X148581288Y-104603392D01*
X148584868Y-104604032D01*
X148588386Y-104604846D01*
X148591834Y-104605826D01*
X148595212Y-104606968D01*
X148598514Y-104608272D01*
X148601734Y-104609728D01*
X148604870Y-104611334D01*
X148607914Y-104613086D01*
X148610864Y-104614978D01*
X148613716Y-104617006D01*
X148616462Y-104619164D01*
X148619100Y-104621450D01*
X148621626Y-104623858D01*
X148624034Y-104626384D01*
X148626320Y-104629022D01*
X148628480Y-104631770D01*
X148630508Y-104634620D01*
X148632400Y-104637572D01*
X148634150Y-104640616D01*
X148635756Y-104643750D01*
X148637214Y-104646972D01*
X148638516Y-104650272D01*
X148639660Y-104653650D01*
X148640640Y-104657100D01*
X148641452Y-104660616D01*
X148642092Y-104664196D01*
X148642554Y-104667834D01*
X148642836Y-104671524D01*
X148642930Y-104675264D01*
X148642930Y-104941868D01*
X148642836Y-104945608D01*
X148642554Y-104949298D01*
X148642092Y-104952936D01*
X148641452Y-104956516D01*
X148640640Y-104960032D01*
X148639660Y-104963482D01*
X148638516Y-104966860D01*
X148637214Y-104970160D01*
X148635756Y-104973382D01*
X148634150Y-104976516D01*
X148632400Y-104979562D01*
X148630508Y-104982512D01*
X148628480Y-104985362D01*
X148626320Y-104988110D01*
X148624034Y-104990748D01*
X148621626Y-104993274D01*
X148619100Y-104995682D01*
X148616462Y-104997968D01*
X148613716Y-105000126D01*
X148610864Y-105002154D01*
X148607914Y-105004046D01*
X148604870Y-105005798D01*
X148601734Y-105007404D01*
X148598514Y-105008860D01*
X148595212Y-105010164D01*
X148591834Y-105011306D01*
X148588386Y-105012288D01*
X148584868Y-105013100D01*
X148581288Y-105013740D01*
X148577652Y-105014202D01*
X148573960Y-105014482D01*
X148570220Y-105014578D01*
X148303618Y-105014578D01*
X148299878Y-105014482D01*
X148296186Y-105014202D01*
X148292550Y-105013740D01*
X148288970Y-105013100D01*
X148285454Y-105012288D01*
X148282004Y-105011306D01*
X148278626Y-105010164D01*
X148275324Y-105008860D01*
X148272104Y-105007404D01*
X148268968Y-105005798D01*
X148265924Y-105004046D01*
X148262974Y-105002154D01*
X148260124Y-105000126D01*
X148257376Y-104997968D01*
X148254738Y-104995682D01*
X148252212Y-104993274D01*
X148249804Y-104990748D01*
X148247518Y-104988110D01*
X148245358Y-104985362D01*
X148243330Y-104982512D01*
X148241438Y-104979562D01*
X148239688Y-104976516D01*
X148238082Y-104973382D01*
X148236624Y-104970160D01*
X148235322Y-104966860D01*
X148234178Y-104963482D01*
X148233198Y-104960032D01*
X148232386Y-104956516D01*
X148231746Y-104952936D01*
X148231284Y-104949298D01*
X148231002Y-104945608D01*
X148230908Y-104941868D01*
X148230908Y-104675264D01*
X148231002Y-104671524D01*
X148231284Y-104667834D01*
X148231746Y-104664196D01*
X148232386Y-104660616D01*
X148233198Y-104657100D01*
X148234178Y-104653650D01*
X148235322Y-104650272D01*
X148236624Y-104646972D01*
X148238082Y-104643750D01*
X148239688Y-104640616D01*
X148241438Y-104637572D01*
X148243330Y-104634620D01*
X148245358Y-104631770D01*
X148247518Y-104629022D01*
X148249804Y-104626384D01*
X148252212Y-104623858D01*
X148254738Y-104621450D01*
X148257376Y-104619164D01*
X148260124Y-104617006D01*
X148262974Y-104614978D01*
X148265924Y-104613086D01*
X148268968Y-104611334D01*
X148272104Y-104609728D01*
X148275324Y-104608272D01*
X148278626Y-104606968D01*
X148282004Y-104605826D01*
X148285454Y-104604846D01*
X148288970Y-104604032D01*
X148292550Y-104603392D01*
X148296186Y-104602930D01*
X148299878Y-104602650D01*
X148303618Y-104602554D01*
X148570220Y-104602554D01*
X148573960Y-104602650D01*
G37*
G36*
X148573960Y-105208570D02*
G01*
X148577652Y-105208850D01*
X148581288Y-105209314D01*
X148584868Y-105209954D01*
X148588386Y-105210766D01*
X148591834Y-105211746D01*
X148595212Y-105212890D01*
X148598514Y-105214192D01*
X148601734Y-105215648D01*
X148604870Y-105217256D01*
X148607914Y-105219006D01*
X148610864Y-105220898D01*
X148613716Y-105222926D01*
X148616462Y-105225086D01*
X148619100Y-105227372D01*
X148621626Y-105229780D01*
X148624034Y-105232306D01*
X148626320Y-105234944D01*
X148628480Y-105237690D01*
X148630508Y-105240542D01*
X148632400Y-105243492D01*
X148634150Y-105246536D01*
X148635756Y-105249672D01*
X148637214Y-105252892D01*
X148638516Y-105256194D01*
X148639660Y-105259572D01*
X148640640Y-105263020D01*
X148641452Y-105266538D01*
X148642092Y-105270118D01*
X148642554Y-105273754D01*
X148642836Y-105277446D01*
X148642930Y-105281186D01*
X148642930Y-105547788D01*
X148642836Y-105551528D01*
X148642554Y-105555220D01*
X148642092Y-105558856D01*
X148641452Y-105562436D01*
X148640640Y-105565952D01*
X148639660Y-105569402D01*
X148638516Y-105572780D01*
X148637214Y-105576082D01*
X148635756Y-105579302D01*
X148634150Y-105582438D01*
X148632400Y-105585482D01*
X148630508Y-105588432D01*
X148628480Y-105591282D01*
X148626320Y-105594030D01*
X148624034Y-105596668D01*
X148621626Y-105599194D01*
X148619100Y-105601602D01*
X148616462Y-105603888D01*
X148613716Y-105606048D01*
X148610864Y-105608076D01*
X148607914Y-105609968D01*
X148604870Y-105611718D01*
X148601734Y-105613324D01*
X148598514Y-105614782D01*
X148595212Y-105616084D01*
X148591834Y-105617228D01*
X148588386Y-105618208D01*
X148584868Y-105619020D01*
X148581288Y-105619660D01*
X148577652Y-105620122D01*
X148573960Y-105620404D01*
X148570220Y-105620498D01*
X148303618Y-105620498D01*
X148299878Y-105620404D01*
X148296186Y-105620122D01*
X148292550Y-105619660D01*
X148288970Y-105619020D01*
X148285454Y-105618208D01*
X148282004Y-105617228D01*
X148278626Y-105616084D01*
X148275324Y-105614782D01*
X148272104Y-105613324D01*
X148268968Y-105611718D01*
X148265924Y-105609968D01*
X148262974Y-105608076D01*
X148260124Y-105606048D01*
X148257376Y-105603888D01*
X148254738Y-105601602D01*
X148252212Y-105599194D01*
X148249804Y-105596668D01*
X148247518Y-105594030D01*
X148245358Y-105591282D01*
X148243330Y-105588432D01*
X148241438Y-105585482D01*
X148239688Y-105582438D01*
X148238082Y-105579302D01*
X148236624Y-105576082D01*
X148235322Y-105572780D01*
X148234178Y-105569402D01*
X148233198Y-105565952D01*
X148232386Y-105562436D01*
X148231746Y-105558856D01*
X148231284Y-105555220D01*
X148231002Y-105551528D01*
X148230908Y-105547788D01*
X148230908Y-105281186D01*
X148231002Y-105277446D01*
X148231284Y-105273754D01*
X148231746Y-105270118D01*
X148232386Y-105266538D01*
X148233198Y-105263020D01*
X148234178Y-105259572D01*
X148235322Y-105256194D01*
X148236624Y-105252892D01*
X148238082Y-105249672D01*
X148239688Y-105246536D01*
X148241438Y-105243492D01*
X148243330Y-105240542D01*
X148245358Y-105237690D01*
X148247518Y-105234944D01*
X148249804Y-105232306D01*
X148252212Y-105229780D01*
X148254738Y-105227372D01*
X148257376Y-105225086D01*
X148260124Y-105222926D01*
X148262974Y-105220898D01*
X148265924Y-105219006D01*
X148268968Y-105217256D01*
X148272104Y-105215648D01*
X148275324Y-105214192D01*
X148278626Y-105212890D01*
X148282004Y-105211746D01*
X148285454Y-105210766D01*
X148288970Y-105209954D01*
X148292550Y-105209314D01*
X148296186Y-105208850D01*
X148299878Y-105208570D01*
X148303618Y-105208476D01*
X148570220Y-105208476D01*
X148573960Y-105208570D01*
G37*
G36*
X148573960Y-105814486D02*
G01*
X148577652Y-105814768D01*
X148581288Y-105815230D01*
X148584868Y-105815870D01*
X148588386Y-105816682D01*
X148591834Y-105817662D01*
X148595212Y-105818806D01*
X148598514Y-105820108D01*
X148601734Y-105821566D01*
X148604870Y-105823172D01*
X148607914Y-105824922D01*
X148610864Y-105826814D01*
X148613716Y-105828842D01*
X148616462Y-105831002D01*
X148619100Y-105833288D01*
X148621626Y-105835696D01*
X148624034Y-105838222D01*
X148626320Y-105840860D01*
X148628480Y-105843606D01*
X148630508Y-105846458D01*
X148632400Y-105849408D01*
X148634150Y-105852452D01*
X148635756Y-105855588D01*
X148637214Y-105858808D01*
X148638516Y-105862110D01*
X148639660Y-105865488D01*
X148640640Y-105868938D01*
X148641452Y-105872454D01*
X148642092Y-105876034D01*
X148642554Y-105879670D01*
X148642836Y-105883362D01*
X148642930Y-105887102D01*
X148642930Y-106153704D01*
X148642836Y-106157444D01*
X148642554Y-106161136D01*
X148642092Y-106164772D01*
X148641452Y-106168352D01*
X148640640Y-106171870D01*
X148639660Y-106175318D01*
X148638516Y-106178696D01*
X148637214Y-106181998D01*
X148635756Y-106185218D01*
X148634150Y-106188354D01*
X148632400Y-106191398D01*
X148630508Y-106194348D01*
X148628480Y-106197200D01*
X148626320Y-106199946D01*
X148624034Y-106202584D01*
X148621626Y-106205110D01*
X148619100Y-106207518D01*
X148616462Y-106209804D01*
X148613716Y-106211964D01*
X148610864Y-106213992D01*
X148607914Y-106215884D01*
X148604870Y-106217634D01*
X148601734Y-106219240D01*
X148598514Y-106220698D01*
X148595212Y-106222000D01*
X148591834Y-106223144D01*
X148588386Y-106224124D01*
X148584868Y-106224936D01*
X148581288Y-106225576D01*
X148577652Y-106226038D01*
X148573960Y-106226320D01*
X148570220Y-106226414D01*
X148303618Y-106226414D01*
X148299878Y-106226320D01*
X148296186Y-106226038D01*
X148292550Y-106225576D01*
X148288970Y-106224936D01*
X148285454Y-106224124D01*
X148282004Y-106223144D01*
X148278626Y-106222000D01*
X148275324Y-106220698D01*
X148272104Y-106219240D01*
X148268968Y-106217634D01*
X148265924Y-106215884D01*
X148262974Y-106213992D01*
X148260124Y-106211964D01*
X148257376Y-106209804D01*
X148254738Y-106207518D01*
X148252212Y-106205110D01*
X148249804Y-106202584D01*
X148247518Y-106199946D01*
X148245358Y-106197200D01*
X148243330Y-106194348D01*
X148241438Y-106191398D01*
X148239688Y-106188354D01*
X148238082Y-106185218D01*
X148236624Y-106181998D01*
X148235322Y-106178696D01*
X148234178Y-106175318D01*
X148233198Y-106171870D01*
X148232386Y-106168352D01*
X148231746Y-106164772D01*
X148231284Y-106161136D01*
X148231002Y-106157444D01*
X148230908Y-106153704D01*
X148230908Y-105887102D01*
X148231002Y-105883362D01*
X148231284Y-105879670D01*
X148231746Y-105876034D01*
X148232386Y-105872454D01*
X148233198Y-105868938D01*
X148234178Y-105865488D01*
X148235322Y-105862110D01*
X148236624Y-105858808D01*
X148238082Y-105855588D01*
X148239688Y-105852452D01*
X148241438Y-105849408D01*
X148243330Y-105846458D01*
X148245358Y-105843606D01*
X148247518Y-105840860D01*
X148249804Y-105838222D01*
X148252212Y-105835696D01*
X148254738Y-105833288D01*
X148257376Y-105831002D01*
X148260124Y-105828842D01*
X148262974Y-105826814D01*
X148265924Y-105824922D01*
X148268968Y-105823172D01*
X148272104Y-105821566D01*
X148275324Y-105820108D01*
X148278626Y-105818806D01*
X148282004Y-105817662D01*
X148285454Y-105816682D01*
X148288970Y-105815870D01*
X148292550Y-105815230D01*
X148296186Y-105814768D01*
X148299878Y-105814486D01*
X148303618Y-105814392D01*
X148570220Y-105814392D01*
X148573960Y-105814486D01*
G37*
G36*
X149182542Y-104602650D02*
G01*
X149186234Y-104602930D01*
X149189872Y-104603392D01*
X149193450Y-104604032D01*
X149196968Y-104604846D01*
X149200416Y-104605826D01*
X149203794Y-104606968D01*
X149207096Y-104608272D01*
X149210316Y-104609728D01*
X149213452Y-104611334D01*
X149216496Y-104613086D01*
X149219446Y-104614978D01*
X149222298Y-104617006D01*
X149225044Y-104619164D01*
X149227684Y-104621450D01*
X149230208Y-104623858D01*
X149232616Y-104626384D01*
X149234902Y-104629022D01*
X149237062Y-104631770D01*
X149239090Y-104634620D01*
X149240982Y-104637572D01*
X149242732Y-104640616D01*
X149244340Y-104643750D01*
X149245796Y-104646972D01*
X149247098Y-104650272D01*
X149248242Y-104653650D01*
X149249222Y-104657100D01*
X149250034Y-104660616D01*
X149250674Y-104664196D01*
X149251138Y-104667834D01*
X149251418Y-104671524D01*
X149251512Y-104675264D01*
X149251512Y-104941868D01*
X149251418Y-104945608D01*
X149251138Y-104949298D01*
X149250674Y-104952936D01*
X149250034Y-104956516D01*
X149249222Y-104960032D01*
X149248242Y-104963482D01*
X149247098Y-104966860D01*
X149245796Y-104970160D01*
X149244340Y-104973382D01*
X149242732Y-104976516D01*
X149240982Y-104979562D01*
X149239090Y-104982512D01*
X149237062Y-104985362D01*
X149234902Y-104988110D01*
X149232616Y-104990748D01*
X149230208Y-104993274D01*
X149227684Y-104995682D01*
X149225044Y-104997968D01*
X149222298Y-105000126D01*
X149219446Y-105002154D01*
X149216496Y-105004046D01*
X149213452Y-105005798D01*
X149210316Y-105007404D01*
X149207096Y-105008860D01*
X149203794Y-105010164D01*
X149200416Y-105011306D01*
X149196968Y-105012288D01*
X149193450Y-105013100D01*
X149189872Y-105013740D01*
X149186234Y-105014202D01*
X149182542Y-105014482D01*
X149178802Y-105014578D01*
X148912200Y-105014578D01*
X148908460Y-105014482D01*
X148904768Y-105014202D01*
X148901132Y-105013740D01*
X148897552Y-105013100D01*
X148894036Y-105012288D01*
X148890586Y-105011306D01*
X148887208Y-105010164D01*
X148883906Y-105008860D01*
X148880686Y-105007404D01*
X148877552Y-105005798D01*
X148874506Y-105004046D01*
X148871556Y-105002154D01*
X148868706Y-105000126D01*
X148865958Y-104997968D01*
X148863320Y-104995682D01*
X148860794Y-104993274D01*
X148858386Y-104990748D01*
X148856100Y-104988110D01*
X148853940Y-104985362D01*
X148851914Y-104982512D01*
X148850022Y-104979562D01*
X148848270Y-104976516D01*
X148846664Y-104973382D01*
X148845206Y-104970160D01*
X148843904Y-104966860D01*
X148842760Y-104963482D01*
X148841780Y-104960032D01*
X148840968Y-104956516D01*
X148840328Y-104952936D01*
X148839866Y-104949298D01*
X148839584Y-104945608D01*
X148839490Y-104941868D01*
X148839490Y-104675264D01*
X148839584Y-104671524D01*
X148839866Y-104667834D01*
X148840328Y-104664196D01*
X148840968Y-104660616D01*
X148841780Y-104657100D01*
X148842760Y-104653650D01*
X148843904Y-104650272D01*
X148845206Y-104646972D01*
X148846664Y-104643750D01*
X148848270Y-104640616D01*
X148850022Y-104637572D01*
X148851914Y-104634620D01*
X148853940Y-104631770D01*
X148856100Y-104629022D01*
X148858386Y-104626384D01*
X148860794Y-104623858D01*
X148863320Y-104621450D01*
X148865958Y-104619164D01*
X148868706Y-104617006D01*
X148871556Y-104614978D01*
X148874506Y-104613086D01*
X148877552Y-104611334D01*
X148880686Y-104609728D01*
X148883906Y-104608272D01*
X148887208Y-104606968D01*
X148890586Y-104605826D01*
X148894036Y-104604846D01*
X148897552Y-104604032D01*
X148901132Y-104603392D01*
X148904768Y-104602930D01*
X148908460Y-104602650D01*
X148912200Y-104602554D01*
X149178802Y-104602554D01*
X149182542Y-104602650D01*
G37*
G36*
X149182542Y-105208570D02*
G01*
X149186234Y-105208850D01*
X149189872Y-105209314D01*
X149193450Y-105209954D01*
X149196968Y-105210766D01*
X149200416Y-105211746D01*
X149203794Y-105212890D01*
X149207096Y-105214192D01*
X149210316Y-105215648D01*
X149213452Y-105217256D01*
X149216496Y-105219006D01*
X149219446Y-105220898D01*
X149222298Y-105222926D01*
X149225044Y-105225086D01*
X149227684Y-105227372D01*
X149230208Y-105229780D01*
X149232616Y-105232306D01*
X149234902Y-105234944D01*
X149237062Y-105237690D01*
X149239090Y-105240542D01*
X149240982Y-105243492D01*
X149242732Y-105246536D01*
X149244340Y-105249672D01*
X149245796Y-105252892D01*
X149247098Y-105256194D01*
X149248242Y-105259572D01*
X149249222Y-105263020D01*
X149250034Y-105266538D01*
X149250674Y-105270118D01*
X149251138Y-105273754D01*
X149251418Y-105277446D01*
X149251512Y-105281186D01*
X149251512Y-105547788D01*
X149251418Y-105551528D01*
X149251138Y-105555220D01*
X149250674Y-105558856D01*
X149250034Y-105562436D01*
X149249222Y-105565952D01*
X149248242Y-105569402D01*
X149247098Y-105572780D01*
X149245796Y-105576082D01*
X149244340Y-105579302D01*
X149242732Y-105582438D01*
X149240982Y-105585482D01*
X149239090Y-105588432D01*
X149237062Y-105591282D01*
X149234902Y-105594030D01*
X149232616Y-105596668D01*
X149230208Y-105599194D01*
X149227684Y-105601602D01*
X149225044Y-105603888D01*
X149222298Y-105606048D01*
X149219446Y-105608076D01*
X149216496Y-105609968D01*
X149213452Y-105611718D01*
X149210316Y-105613324D01*
X149207096Y-105614782D01*
X149203794Y-105616084D01*
X149200416Y-105617228D01*
X149196968Y-105618208D01*
X149193450Y-105619020D01*
X149189872Y-105619660D01*
X149186234Y-105620122D01*
X149182542Y-105620404D01*
X149178802Y-105620498D01*
X148912200Y-105620498D01*
X148908460Y-105620404D01*
X148904768Y-105620122D01*
X148901132Y-105619660D01*
X148897552Y-105619020D01*
X148894036Y-105618208D01*
X148890586Y-105617228D01*
X148887208Y-105616084D01*
X148883906Y-105614782D01*
X148880686Y-105613324D01*
X148877552Y-105611718D01*
X148874506Y-105609968D01*
X148871556Y-105608076D01*
X148868706Y-105606048D01*
X148865958Y-105603888D01*
X148863320Y-105601602D01*
X148860794Y-105599194D01*
X148858386Y-105596668D01*
X148856100Y-105594030D01*
X148853940Y-105591282D01*
X148851914Y-105588432D01*
X148850022Y-105585482D01*
X148848270Y-105582438D01*
X148846664Y-105579302D01*
X148845206Y-105576082D01*
X148843904Y-105572780D01*
X148842760Y-105569402D01*
X148841780Y-105565952D01*
X148840968Y-105562436D01*
X148840328Y-105558856D01*
X148839866Y-105555220D01*
X148839584Y-105551528D01*
X148839490Y-105547788D01*
X148839490Y-105281186D01*
X148839584Y-105277446D01*
X148839866Y-105273754D01*
X148840328Y-105270118D01*
X148840968Y-105266538D01*
X148841780Y-105263020D01*
X148842760Y-105259572D01*
X148843904Y-105256194D01*
X148845206Y-105252892D01*
X148846664Y-105249672D01*
X148848270Y-105246536D01*
X148850022Y-105243492D01*
X148851914Y-105240542D01*
X148853940Y-105237690D01*
X148856100Y-105234944D01*
X148858386Y-105232306D01*
X148860794Y-105229780D01*
X148863320Y-105227372D01*
X148865958Y-105225086D01*
X148868706Y-105222926D01*
X148871556Y-105220898D01*
X148874506Y-105219006D01*
X148877552Y-105217256D01*
X148880686Y-105215648D01*
X148883906Y-105214192D01*
X148887208Y-105212890D01*
X148890586Y-105211746D01*
X148894036Y-105210766D01*
X148897552Y-105209954D01*
X148901132Y-105209314D01*
X148904768Y-105208850D01*
X148908460Y-105208570D01*
X148912200Y-105208476D01*
X149178802Y-105208476D01*
X149182542Y-105208570D01*
G37*
G36*
X149182542Y-105814486D02*
G01*
X149186234Y-105814768D01*
X149189872Y-105815230D01*
X149193450Y-105815870D01*
X149196968Y-105816682D01*
X149200416Y-105817662D01*
X149203794Y-105818806D01*
X149207096Y-105820108D01*
X149210316Y-105821566D01*
X149213452Y-105823172D01*
X149216496Y-105824922D01*
X149219446Y-105826814D01*
X149222298Y-105828842D01*
X149225044Y-105831002D01*
X149227684Y-105833288D01*
X149230208Y-105835696D01*
X149232616Y-105838222D01*
X149234902Y-105840860D01*
X149237062Y-105843606D01*
X149239090Y-105846458D01*
X149240982Y-105849408D01*
X149242732Y-105852452D01*
X149244340Y-105855588D01*
X149245796Y-105858808D01*
X149247098Y-105862110D01*
X149248242Y-105865488D01*
X149249222Y-105868938D01*
X149250034Y-105872454D01*
X149250674Y-105876034D01*
X149251138Y-105879670D01*
X149251418Y-105883362D01*
X149251512Y-105887102D01*
X149251512Y-106153704D01*
X149251418Y-106157444D01*
X149251138Y-106161136D01*
X149250674Y-106164772D01*
X149250034Y-106168352D01*
X149249222Y-106171870D01*
X149248242Y-106175318D01*
X149247098Y-106178696D01*
X149245796Y-106181998D01*
X149244340Y-106185218D01*
X149242732Y-106188354D01*
X149240982Y-106191398D01*
X149239090Y-106194348D01*
X149237062Y-106197200D01*
X149234902Y-106199946D01*
X149232616Y-106202584D01*
X149230208Y-106205110D01*
X149227684Y-106207518D01*
X149225044Y-106209804D01*
X149222298Y-106211964D01*
X149219446Y-106213992D01*
X149216496Y-106215884D01*
X149213452Y-106217634D01*
X149210316Y-106219240D01*
X149207096Y-106220698D01*
X149203794Y-106222000D01*
X149200416Y-106223144D01*
X149196968Y-106224124D01*
X149193450Y-106224936D01*
X149189872Y-106225576D01*
X149186234Y-106226038D01*
X149182542Y-106226320D01*
X149178802Y-106226414D01*
X148912200Y-106226414D01*
X148908460Y-106226320D01*
X148904768Y-106226038D01*
X148901132Y-106225576D01*
X148897552Y-106224936D01*
X148894036Y-106224124D01*
X148890586Y-106223144D01*
X148887208Y-106222000D01*
X148883906Y-106220698D01*
X148880686Y-106219240D01*
X148877552Y-106217634D01*
X148874506Y-106215884D01*
X148871556Y-106213992D01*
X148868706Y-106211964D01*
X148865958Y-106209804D01*
X148863320Y-106207518D01*
X148860794Y-106205110D01*
X148858386Y-106202584D01*
X148856100Y-106199946D01*
X148853940Y-106197200D01*
X148851914Y-106194348D01*
X148850022Y-106191398D01*
X148848270Y-106188354D01*
X148846664Y-106185218D01*
X148845206Y-106181998D01*
X148843904Y-106178696D01*
X148842760Y-106175318D01*
X148841780Y-106171870D01*
X148840968Y-106168352D01*
X148840328Y-106164772D01*
X148839866Y-106161136D01*
X148839584Y-106157444D01*
X148839490Y-106153704D01*
X148839490Y-105887102D01*
X148839584Y-105883362D01*
X148839866Y-105879670D01*
X148840328Y-105876034D01*
X148840968Y-105872454D01*
X148841780Y-105868938D01*
X148842760Y-105865488D01*
X148843904Y-105862110D01*
X148845206Y-105858808D01*
X148846664Y-105855588D01*
X148848270Y-105852452D01*
X148850022Y-105849408D01*
X148851914Y-105846458D01*
X148853940Y-105843606D01*
X148856100Y-105840860D01*
X148858386Y-105838222D01*
X148860794Y-105835696D01*
X148863320Y-105833288D01*
X148865958Y-105831002D01*
X148868706Y-105828842D01*
X148871556Y-105826814D01*
X148874506Y-105824922D01*
X148877552Y-105823172D01*
X148880686Y-105821566D01*
X148883906Y-105820108D01*
X148887208Y-105818806D01*
X148890586Y-105817662D01*
X148894036Y-105816682D01*
X148897552Y-105815870D01*
X148901132Y-105815230D01*
X148904768Y-105814768D01*
X148908460Y-105814486D01*
X148912200Y-105814392D01*
X149178802Y-105814392D01*
X149182542Y-105814486D01*
G37*
G36*
X149785792Y-104594002D02*
G01*
X149789484Y-104594282D01*
X149793120Y-104594746D01*
X149796700Y-104595386D01*
X149800218Y-104596198D01*
X149803666Y-104597178D01*
X149807044Y-104598322D01*
X149810346Y-104599624D01*
X149813566Y-104601080D01*
X149816702Y-104602686D01*
X149819746Y-104604438D01*
X149822696Y-104606330D01*
X149825548Y-104608358D01*
X149828294Y-104610518D01*
X149830934Y-104612804D01*
X149833458Y-104615212D01*
X149835866Y-104617736D01*
X149838152Y-104620376D01*
X149840312Y-104623122D01*
X149842340Y-104625974D01*
X149844232Y-104628924D01*
X149845982Y-104631968D01*
X149847590Y-104635104D01*
X149849046Y-104638324D01*
X149850348Y-104641626D01*
X149851492Y-104645004D01*
X149852472Y-104648452D01*
X149853284Y-104651970D01*
X149853924Y-104655548D01*
X149854388Y-104659186D01*
X149854668Y-104662878D01*
X149854762Y-104666616D01*
X149854762Y-104933220D01*
X149854668Y-104936960D01*
X149854388Y-104940650D01*
X149853924Y-104944288D01*
X149853284Y-104947868D01*
X149852472Y-104951384D01*
X149851492Y-104954834D01*
X149850348Y-104958212D01*
X149849046Y-104961514D01*
X149847590Y-104964734D01*
X149845982Y-104967868D01*
X149844232Y-104970914D01*
X149842340Y-104973864D01*
X149840312Y-104976714D01*
X149838152Y-104979462D01*
X149835866Y-104982100D01*
X149833458Y-104984626D01*
X149830934Y-104987034D01*
X149828294Y-104989320D01*
X149825548Y-104991478D01*
X149822696Y-104993506D01*
X149819746Y-104995398D01*
X149816702Y-104997150D01*
X149813566Y-104998756D01*
X149810346Y-105000214D01*
X149807044Y-105001516D01*
X149803666Y-105002660D01*
X149800218Y-105003640D01*
X149796700Y-105004452D01*
X149793120Y-105005092D01*
X149789484Y-105005554D01*
X149785792Y-105005836D01*
X149782052Y-105005930D01*
X149515450Y-105005930D01*
X149511710Y-105005836D01*
X149508018Y-105005554D01*
X149504382Y-105005092D01*
X149500802Y-105004452D01*
X149497286Y-105003640D01*
X149493836Y-105002660D01*
X149490458Y-105001516D01*
X149487156Y-105000214D01*
X149483936Y-104998756D01*
X149480802Y-104997150D01*
X149477756Y-104995398D01*
X149474806Y-104993506D01*
X149471956Y-104991478D01*
X149469208Y-104989320D01*
X149466570Y-104987034D01*
X149464044Y-104984626D01*
X149461636Y-104982100D01*
X149459350Y-104979462D01*
X149457190Y-104976714D01*
X149455162Y-104973864D01*
X149453270Y-104970914D01*
X149451520Y-104967868D01*
X149449914Y-104964734D01*
X149448456Y-104961514D01*
X149447154Y-104958212D01*
X149446010Y-104954834D01*
X149445030Y-104951384D01*
X149444218Y-104947868D01*
X149443578Y-104944288D01*
X149443116Y-104940650D01*
X149442834Y-104936960D01*
X149442740Y-104933220D01*
X149442740Y-104666616D01*
X149442834Y-104662878D01*
X149443116Y-104659186D01*
X149443578Y-104655548D01*
X149444218Y-104651970D01*
X149445030Y-104648452D01*
X149446010Y-104645004D01*
X149447154Y-104641626D01*
X149448456Y-104638324D01*
X149449914Y-104635104D01*
X149451520Y-104631968D01*
X149453270Y-104628924D01*
X149455162Y-104625974D01*
X149457190Y-104623122D01*
X149459350Y-104620376D01*
X149461636Y-104617736D01*
X149464044Y-104615212D01*
X149466570Y-104612804D01*
X149469208Y-104610518D01*
X149471956Y-104608358D01*
X149474806Y-104606330D01*
X149477756Y-104604438D01*
X149480802Y-104602686D01*
X149483936Y-104601080D01*
X149487156Y-104599624D01*
X149490458Y-104598322D01*
X149493836Y-104597178D01*
X149497286Y-104596198D01*
X149500802Y-104595386D01*
X149504382Y-104594746D01*
X149508018Y-104594282D01*
X149511710Y-104594002D01*
X149515450Y-104593908D01*
X149782052Y-104593908D01*
X149785792Y-104594002D01*
G37*
G36*
X149785792Y-105208570D02*
G01*
X149789484Y-105208850D01*
X149793120Y-105209314D01*
X149796700Y-105209954D01*
X149800218Y-105210766D01*
X149803666Y-105211746D01*
X149807044Y-105212890D01*
X149810346Y-105214192D01*
X149813566Y-105215648D01*
X149816702Y-105217256D01*
X149819746Y-105219006D01*
X149822696Y-105220898D01*
X149825548Y-105222926D01*
X149828294Y-105225086D01*
X149830934Y-105227372D01*
X149833458Y-105229780D01*
X149835866Y-105232306D01*
X149838152Y-105234944D01*
X149840312Y-105237690D01*
X149842340Y-105240542D01*
X149844232Y-105243492D01*
X149845982Y-105246536D01*
X149847590Y-105249672D01*
X149849046Y-105252892D01*
X149850348Y-105256194D01*
X149851492Y-105259572D01*
X149852472Y-105263020D01*
X149853284Y-105266538D01*
X149853924Y-105270118D01*
X149854388Y-105273754D01*
X149854668Y-105277446D01*
X149854762Y-105281186D01*
X149854762Y-105547788D01*
X149854668Y-105551528D01*
X149854388Y-105555220D01*
X149853924Y-105558856D01*
X149853284Y-105562436D01*
X149852472Y-105565952D01*
X149851492Y-105569402D01*
X149850348Y-105572780D01*
X149849046Y-105576082D01*
X149847590Y-105579302D01*
X149845982Y-105582438D01*
X149844232Y-105585482D01*
X149842340Y-105588432D01*
X149840312Y-105591282D01*
X149838152Y-105594030D01*
X149835866Y-105596668D01*
X149833458Y-105599194D01*
X149830934Y-105601602D01*
X149828294Y-105603888D01*
X149825548Y-105606048D01*
X149822696Y-105608076D01*
X149819746Y-105609968D01*
X149816702Y-105611718D01*
X149813566Y-105613324D01*
X149810346Y-105614782D01*
X149807044Y-105616084D01*
X149803666Y-105617228D01*
X149800218Y-105618208D01*
X149796700Y-105619020D01*
X149793120Y-105619660D01*
X149789484Y-105620122D01*
X149785792Y-105620404D01*
X149782052Y-105620498D01*
X149515450Y-105620498D01*
X149511710Y-105620404D01*
X149508018Y-105620122D01*
X149504382Y-105619660D01*
X149500802Y-105619020D01*
X149497286Y-105618208D01*
X149493836Y-105617228D01*
X149490458Y-105616084D01*
X149487156Y-105614782D01*
X149483936Y-105613324D01*
X149480802Y-105611718D01*
X149477756Y-105609968D01*
X149474806Y-105608076D01*
X149471956Y-105606048D01*
X149469208Y-105603888D01*
X149466570Y-105601602D01*
X149464044Y-105599194D01*
X149461636Y-105596668D01*
X149459350Y-105594030D01*
X149457190Y-105591282D01*
X149455162Y-105588432D01*
X149453270Y-105585482D01*
X149451520Y-105582438D01*
X149449914Y-105579302D01*
X149448456Y-105576082D01*
X149447154Y-105572780D01*
X149446010Y-105569402D01*
X149445030Y-105565952D01*
X149444218Y-105562436D01*
X149443578Y-105558856D01*
X149443116Y-105555220D01*
X149442834Y-105551528D01*
X149442740Y-105547788D01*
X149442740Y-105281186D01*
X149442834Y-105277446D01*
X149443116Y-105273754D01*
X149443578Y-105270118D01*
X149444218Y-105266538D01*
X149445030Y-105263020D01*
X149446010Y-105259572D01*
X149447154Y-105256194D01*
X149448456Y-105252892D01*
X149449914Y-105249672D01*
X149451520Y-105246536D01*
X149453270Y-105243492D01*
X149455162Y-105240542D01*
X149457190Y-105237690D01*
X149459350Y-105234944D01*
X149461636Y-105232306D01*
X149464044Y-105229780D01*
X149466570Y-105227372D01*
X149469208Y-105225086D01*
X149471956Y-105222926D01*
X149474806Y-105220898D01*
X149477756Y-105219006D01*
X149480802Y-105217256D01*
X149483936Y-105215648D01*
X149487156Y-105214192D01*
X149490458Y-105212890D01*
X149493836Y-105211746D01*
X149497286Y-105210766D01*
X149500802Y-105209954D01*
X149504382Y-105209314D01*
X149508018Y-105208850D01*
X149511710Y-105208570D01*
X149515450Y-105208476D01*
X149782052Y-105208476D01*
X149785792Y-105208570D01*
G37*
G36*
X149785792Y-105814486D02*
G01*
X149789484Y-105814768D01*
X149793120Y-105815230D01*
X149796700Y-105815870D01*
X149800218Y-105816682D01*
X149803666Y-105817662D01*
X149807044Y-105818806D01*
X149810346Y-105820108D01*
X149813566Y-105821566D01*
X149816702Y-105823172D01*
X149819746Y-105824922D01*
X149822696Y-105826814D01*
X149825548Y-105828842D01*
X149828294Y-105831002D01*
X149830934Y-105833288D01*
X149833458Y-105835696D01*
X149835866Y-105838222D01*
X149838152Y-105840860D01*
X149840312Y-105843606D01*
X149842340Y-105846458D01*
X149844232Y-105849408D01*
X149845982Y-105852452D01*
X149847590Y-105855588D01*
X149849046Y-105858808D01*
X149850348Y-105862110D01*
X149851492Y-105865488D01*
X149852472Y-105868938D01*
X149853284Y-105872454D01*
X149853924Y-105876034D01*
X149854388Y-105879670D01*
X149854668Y-105883362D01*
X149854762Y-105887102D01*
X149854762Y-106153704D01*
X149854668Y-106157444D01*
X149854388Y-106161136D01*
X149853924Y-106164772D01*
X149853284Y-106168352D01*
X149852472Y-106171870D01*
X149851492Y-106175318D01*
X149850348Y-106178696D01*
X149849046Y-106181998D01*
X149847590Y-106185218D01*
X149845982Y-106188354D01*
X149844232Y-106191398D01*
X149842340Y-106194348D01*
X149840312Y-106197200D01*
X149838152Y-106199946D01*
X149835866Y-106202584D01*
X149833458Y-106205110D01*
X149830934Y-106207518D01*
X149828294Y-106209804D01*
X149825548Y-106211964D01*
X149822696Y-106213992D01*
X149819746Y-106215884D01*
X149816702Y-106217634D01*
X149813566Y-106219240D01*
X149810346Y-106220698D01*
X149807044Y-106222000D01*
X149803666Y-106223144D01*
X149800218Y-106224124D01*
X149796700Y-106224936D01*
X149793120Y-106225576D01*
X149789484Y-106226038D01*
X149785792Y-106226320D01*
X149782052Y-106226414D01*
X149515450Y-106226414D01*
X149511710Y-106226320D01*
X149508018Y-106226038D01*
X149504382Y-106225576D01*
X149500802Y-106224936D01*
X149497286Y-106224124D01*
X149493836Y-106223144D01*
X149490458Y-106222000D01*
X149487156Y-106220698D01*
X149483936Y-106219240D01*
X149480802Y-106217634D01*
X149477756Y-106215884D01*
X149474806Y-106213992D01*
X149471956Y-106211964D01*
X149469208Y-106209804D01*
X149466570Y-106207518D01*
X149464044Y-106205110D01*
X149461636Y-106202584D01*
X149459350Y-106199946D01*
X149457190Y-106197200D01*
X149455162Y-106194348D01*
X149453270Y-106191398D01*
X149451520Y-106188354D01*
X149449914Y-106185218D01*
X149448456Y-106181998D01*
X149447154Y-106178696D01*
X149446010Y-106175318D01*
X149445030Y-106171870D01*
X149444218Y-106168352D01*
X149443578Y-106164772D01*
X149443116Y-106161136D01*
X149442834Y-106157444D01*
X149442740Y-106153704D01*
X149442740Y-105887102D01*
X149442834Y-105883362D01*
X149443116Y-105879670D01*
X149443578Y-105876034D01*
X149444218Y-105872454D01*
X149445030Y-105868938D01*
X149446010Y-105865488D01*
X149447154Y-105862110D01*
X149448456Y-105858808D01*
X149449914Y-105855588D01*
X149451520Y-105852452D01*
X149453270Y-105849408D01*
X149455162Y-105846458D01*
X149457190Y-105843606D01*
X149459350Y-105840860D01*
X149461636Y-105838222D01*
X149464044Y-105835696D01*
X149466570Y-105833288D01*
X149469208Y-105831002D01*
X149471956Y-105828842D01*
X149474806Y-105826814D01*
X149477756Y-105824922D01*
X149480802Y-105823172D01*
X149483936Y-105821566D01*
X149487156Y-105820108D01*
X149490458Y-105818806D01*
X149493836Y-105817662D01*
X149497286Y-105816682D01*
X149500802Y-105815870D01*
X149504382Y-105815230D01*
X149508018Y-105814768D01*
X149511710Y-105814486D01*
X149515450Y-105814392D01*
X149782052Y-105814392D01*
X149785792Y-105814486D01*
G37*
G36*
X150391708Y-105208570D02*
G01*
X150395400Y-105208850D01*
X150399036Y-105209314D01*
X150402616Y-105209954D01*
X150406134Y-105210766D01*
X150409582Y-105211746D01*
X150412960Y-105212890D01*
X150416262Y-105214192D01*
X150419482Y-105215648D01*
X150422618Y-105217256D01*
X150425662Y-105219006D01*
X150428612Y-105220898D01*
X150431464Y-105222926D01*
X150434210Y-105225086D01*
X150436848Y-105227372D01*
X150439374Y-105229780D01*
X150441782Y-105232306D01*
X150444068Y-105234944D01*
X150446228Y-105237690D01*
X150448256Y-105240542D01*
X150450148Y-105243492D01*
X150451898Y-105246536D01*
X150453504Y-105249672D01*
X150454962Y-105252892D01*
X150456264Y-105256194D01*
X150457408Y-105259572D01*
X150458388Y-105263020D01*
X150459200Y-105266538D01*
X150459840Y-105270118D01*
X150460302Y-105273754D01*
X150460584Y-105277446D01*
X150460678Y-105281186D01*
X150460678Y-105547788D01*
X150460584Y-105551528D01*
X150460302Y-105555220D01*
X150459840Y-105558856D01*
X150459200Y-105562436D01*
X150458388Y-105565952D01*
X150457408Y-105569402D01*
X150456264Y-105572780D01*
X150454962Y-105576082D01*
X150453504Y-105579302D01*
X150451898Y-105582438D01*
X150450148Y-105585482D01*
X150448256Y-105588432D01*
X150446228Y-105591282D01*
X150444068Y-105594030D01*
X150441782Y-105596668D01*
X150439374Y-105599194D01*
X150436848Y-105601602D01*
X150434210Y-105603888D01*
X150431464Y-105606048D01*
X150428612Y-105608076D01*
X150425662Y-105609968D01*
X150422618Y-105611718D01*
X150419482Y-105613324D01*
X150416262Y-105614782D01*
X150412960Y-105616084D01*
X150409582Y-105617228D01*
X150406134Y-105618208D01*
X150402616Y-105619020D01*
X150399036Y-105619660D01*
X150395400Y-105620122D01*
X150391708Y-105620404D01*
X150387968Y-105620498D01*
X150121366Y-105620498D01*
X150117626Y-105620404D01*
X150113934Y-105620122D01*
X150110298Y-105619660D01*
X150106718Y-105619020D01*
X150103200Y-105618208D01*
X150099752Y-105617228D01*
X150096374Y-105616084D01*
X150093072Y-105614782D01*
X150089852Y-105613324D01*
X150086716Y-105611718D01*
X150083672Y-105609968D01*
X150080722Y-105608076D01*
X150077870Y-105606048D01*
X150075124Y-105603888D01*
X150072486Y-105601602D01*
X150069960Y-105599194D01*
X150067552Y-105596668D01*
X150065266Y-105594030D01*
X150063106Y-105591282D01*
X150061078Y-105588432D01*
X150059186Y-105585482D01*
X150057436Y-105582438D01*
X150055830Y-105579302D01*
X150054372Y-105576082D01*
X150053070Y-105572780D01*
X150051926Y-105569402D01*
X150050946Y-105565952D01*
X150050134Y-105562436D01*
X150049494Y-105558856D01*
X150049032Y-105555220D01*
X150048750Y-105551528D01*
X150048656Y-105547788D01*
X150048656Y-105281186D01*
X150048750Y-105277446D01*
X150049032Y-105273754D01*
X150049494Y-105270118D01*
X150050134Y-105266538D01*
X150050946Y-105263020D01*
X150051926Y-105259572D01*
X150053070Y-105256194D01*
X150054372Y-105252892D01*
X150055830Y-105249672D01*
X150057436Y-105246536D01*
X150059186Y-105243492D01*
X150061078Y-105240542D01*
X150063106Y-105237690D01*
X150065266Y-105234944D01*
X150067552Y-105232306D01*
X150069960Y-105229780D01*
X150072486Y-105227372D01*
X150075124Y-105225086D01*
X150077870Y-105222926D01*
X150080722Y-105220898D01*
X150083672Y-105219006D01*
X150086716Y-105217256D01*
X150089852Y-105215648D01*
X150093072Y-105214192D01*
X150096374Y-105212890D01*
X150099752Y-105211746D01*
X150103200Y-105210766D01*
X150106718Y-105209954D01*
X150110298Y-105209314D01*
X150113934Y-105208850D01*
X150117626Y-105208570D01*
X150121366Y-105208476D01*
X150387968Y-105208476D01*
X150391708Y-105208570D01*
G37*
G36*
X150391708Y-106411750D02*
G01*
X150395400Y-106412030D01*
X150399036Y-106412492D01*
X150402616Y-106413132D01*
X150406134Y-106413946D01*
X150409582Y-106414926D01*
X150412960Y-106416070D01*
X150416262Y-106417372D01*
X150419482Y-106418828D01*
X150422618Y-106420434D01*
X150425662Y-106422186D01*
X150428612Y-106424078D01*
X150431464Y-106426106D01*
X150434210Y-106428264D01*
X150436848Y-106430550D01*
X150439374Y-106432958D01*
X150441782Y-106435484D01*
X150444068Y-106438122D01*
X150446228Y-106440870D01*
X150448256Y-106443720D01*
X150450148Y-106446670D01*
X150451898Y-106449716D01*
X150453504Y-106452850D01*
X150454962Y-106456072D01*
X150456264Y-106459372D01*
X150457408Y-106462750D01*
X150458388Y-106466200D01*
X150459200Y-106469716D01*
X150459840Y-106473296D01*
X150460302Y-106476934D01*
X150460584Y-106480624D01*
X150460678Y-106484364D01*
X150460678Y-106750968D01*
X150460584Y-106754708D01*
X150460302Y-106758398D01*
X150459840Y-106762036D01*
X150459200Y-106765616D01*
X150458388Y-106769132D01*
X150457408Y-106772582D01*
X150456264Y-106775960D01*
X150454962Y-106779260D01*
X150453504Y-106782482D01*
X150451898Y-106785616D01*
X150450148Y-106788662D01*
X150448256Y-106791612D01*
X150446228Y-106794462D01*
X150444068Y-106797210D01*
X150441782Y-106799848D01*
X150439374Y-106802374D01*
X150436848Y-106804782D01*
X150434210Y-106807068D01*
X150431464Y-106809226D01*
X150428612Y-106811254D01*
X150425662Y-106813146D01*
X150422618Y-106814898D01*
X150419482Y-106816504D01*
X150416262Y-106817960D01*
X150412960Y-106819264D01*
X150409582Y-106820406D01*
X150406134Y-106821388D01*
X150402616Y-106822200D01*
X150399036Y-106822840D01*
X150395400Y-106823302D01*
X150391708Y-106823582D01*
X150387968Y-106823678D01*
X150121366Y-106823678D01*
X150117626Y-106823582D01*
X150113934Y-106823302D01*
X150110298Y-106822840D01*
X150106718Y-106822200D01*
X150103200Y-106821388D01*
X150099752Y-106820406D01*
X150096374Y-106819264D01*
X150093072Y-106817960D01*
X150089852Y-106816504D01*
X150086716Y-106814898D01*
X150083672Y-106813146D01*
X150080722Y-106811254D01*
X150077870Y-106809226D01*
X150075124Y-106807068D01*
X150072486Y-106804782D01*
X150069960Y-106802374D01*
X150067552Y-106799848D01*
X150065266Y-106797210D01*
X150063106Y-106794462D01*
X150061078Y-106791612D01*
X150059186Y-106788662D01*
X150057436Y-106785616D01*
X150055830Y-106782482D01*
X150054372Y-106779260D01*
X150053070Y-106775960D01*
X150051926Y-106772582D01*
X150050946Y-106769132D01*
X150050134Y-106765616D01*
X150049494Y-106762036D01*
X150049032Y-106758398D01*
X150048750Y-106754708D01*
X150048656Y-106750968D01*
X150048656Y-106484364D01*
X150048750Y-106480624D01*
X150049032Y-106476934D01*
X150049494Y-106473296D01*
X150050134Y-106469716D01*
X150050946Y-106466200D01*
X150051926Y-106462750D01*
X150053070Y-106459372D01*
X150054372Y-106456072D01*
X150055830Y-106452850D01*
X150057436Y-106449716D01*
X150059186Y-106446670D01*
X150061078Y-106443720D01*
X150063106Y-106440870D01*
X150065266Y-106438122D01*
X150067552Y-106435484D01*
X150069960Y-106432958D01*
X150072486Y-106430550D01*
X150075124Y-106428264D01*
X150077870Y-106426106D01*
X150080722Y-106424078D01*
X150083672Y-106422186D01*
X150086716Y-106420434D01*
X150089852Y-106418828D01*
X150093072Y-106417372D01*
X150096374Y-106416070D01*
X150099752Y-106414926D01*
X150103200Y-106413946D01*
X150106718Y-106413132D01*
X150110298Y-106412492D01*
X150113934Y-106412030D01*
X150117626Y-106411750D01*
X150121366Y-106411654D01*
X150387968Y-106411654D01*
X150391708Y-106411750D01*
G37*
G36*
X151000290Y-105208570D02*
G01*
X151003982Y-105208850D01*
X151007618Y-105209314D01*
X151011198Y-105209954D01*
X151014716Y-105210766D01*
X151018164Y-105211746D01*
X151021542Y-105212890D01*
X151024844Y-105214192D01*
X151028064Y-105215648D01*
X151031200Y-105217256D01*
X151034244Y-105219006D01*
X151037194Y-105220898D01*
X151040046Y-105222926D01*
X151042792Y-105225086D01*
X151045432Y-105227372D01*
X151047956Y-105229780D01*
X151050364Y-105232306D01*
X151052650Y-105234944D01*
X151054810Y-105237690D01*
X151056838Y-105240542D01*
X151058730Y-105243492D01*
X151060480Y-105246536D01*
X151062088Y-105249672D01*
X151063544Y-105252892D01*
X151064846Y-105256194D01*
X151065990Y-105259572D01*
X151066970Y-105263020D01*
X151067782Y-105266538D01*
X151068422Y-105270118D01*
X151068886Y-105273754D01*
X151069166Y-105277446D01*
X151069260Y-105281186D01*
X151069260Y-105547788D01*
X151069166Y-105551528D01*
X151068886Y-105555220D01*
X151068422Y-105558856D01*
X151067782Y-105562436D01*
X151066970Y-105565952D01*
X151065990Y-105569402D01*
X151064846Y-105572780D01*
X151063544Y-105576082D01*
X151062088Y-105579302D01*
X151060480Y-105582438D01*
X151058730Y-105585482D01*
X151056838Y-105588432D01*
X151054810Y-105591282D01*
X151052650Y-105594030D01*
X151050364Y-105596668D01*
X151047956Y-105599194D01*
X151045432Y-105601602D01*
X151042792Y-105603888D01*
X151040046Y-105606048D01*
X151037194Y-105608076D01*
X151034244Y-105609968D01*
X151031200Y-105611718D01*
X151028064Y-105613324D01*
X151024844Y-105614782D01*
X151021542Y-105616084D01*
X151018164Y-105617228D01*
X151014716Y-105618208D01*
X151011198Y-105619020D01*
X151007618Y-105619660D01*
X151003982Y-105620122D01*
X151000290Y-105620404D01*
X150996550Y-105620498D01*
X150729948Y-105620498D01*
X150726208Y-105620404D01*
X150722518Y-105620122D01*
X150718880Y-105619660D01*
X150715300Y-105619020D01*
X150711784Y-105618208D01*
X150708334Y-105617228D01*
X150704956Y-105616084D01*
X150701654Y-105614782D01*
X150698434Y-105613324D01*
X150695300Y-105611718D01*
X150692254Y-105609968D01*
X150689304Y-105608076D01*
X150686454Y-105606048D01*
X150683706Y-105603888D01*
X150681068Y-105601602D01*
X150678542Y-105599194D01*
X150676134Y-105596668D01*
X150673848Y-105594030D01*
X150671688Y-105591282D01*
X150669660Y-105588432D01*
X150667770Y-105585482D01*
X150666018Y-105582438D01*
X150664412Y-105579302D01*
X150662954Y-105576082D01*
X150661652Y-105572780D01*
X150660508Y-105569402D01*
X150659528Y-105565952D01*
X150658716Y-105562436D01*
X150658076Y-105558856D01*
X150657614Y-105555220D01*
X150657332Y-105551528D01*
X150657238Y-105547788D01*
X150657238Y-105281186D01*
X150657332Y-105277446D01*
X150657614Y-105273754D01*
X150658076Y-105270118D01*
X150658716Y-105266538D01*
X150659528Y-105263020D01*
X150660508Y-105259572D01*
X150661652Y-105256194D01*
X150662954Y-105252892D01*
X150664412Y-105249672D01*
X150666018Y-105246536D01*
X150667770Y-105243492D01*
X150669660Y-105240542D01*
X150671688Y-105237690D01*
X150673848Y-105234944D01*
X150676134Y-105232306D01*
X150678542Y-105229780D01*
X150681068Y-105227372D01*
X150683706Y-105225086D01*
X150686454Y-105222926D01*
X150689304Y-105220898D01*
X150692254Y-105219006D01*
X150695300Y-105217256D01*
X150698434Y-105215648D01*
X150701654Y-105214192D01*
X150704956Y-105212890D01*
X150708334Y-105211746D01*
X150711784Y-105210766D01*
X150715300Y-105209954D01*
X150718880Y-105209314D01*
X150722518Y-105208850D01*
X150726208Y-105208570D01*
X150729948Y-105208476D01*
X150996550Y-105208476D01*
X151000290Y-105208570D01*
G37*
G36*
X151000290Y-106420402D02*
G01*
X151003982Y-106420684D01*
X151007618Y-106421146D01*
X151011198Y-106421786D01*
X151014716Y-106422598D01*
X151018164Y-106423578D01*
X151021542Y-106424722D01*
X151024844Y-106426024D01*
X151028064Y-106427482D01*
X151031200Y-106429088D01*
X151034244Y-106430838D01*
X151037194Y-106432730D01*
X151040046Y-106434758D01*
X151042792Y-106436918D01*
X151045432Y-106439204D01*
X151047956Y-106441612D01*
X151050364Y-106444138D01*
X151052650Y-106446776D01*
X151054810Y-106449522D01*
X151056838Y-106452374D01*
X151058730Y-106455324D01*
X151060480Y-106458368D01*
X151062088Y-106461504D01*
X151063544Y-106464724D01*
X151064846Y-106468026D01*
X151065990Y-106471404D01*
X151066970Y-106474852D01*
X151067782Y-106478370D01*
X151068422Y-106481950D01*
X151068886Y-106485586D01*
X151069166Y-106489278D01*
X151069260Y-106493018D01*
X151069260Y-106759620D01*
X151069166Y-106763360D01*
X151068886Y-106767052D01*
X151068422Y-106770688D01*
X151067782Y-106774268D01*
X151066970Y-106777786D01*
X151065990Y-106781234D01*
X151064846Y-106784612D01*
X151063544Y-106787914D01*
X151062088Y-106791134D01*
X151060480Y-106794270D01*
X151058730Y-106797314D01*
X151056838Y-106800264D01*
X151054810Y-106803116D01*
X151052650Y-106805862D01*
X151050364Y-106808500D01*
X151047956Y-106811026D01*
X151045432Y-106813434D01*
X151042792Y-106815720D01*
X151040046Y-106817880D01*
X151037194Y-106819908D01*
X151034244Y-106821800D01*
X151031200Y-106823550D01*
X151028064Y-106825158D01*
X151024844Y-106826614D01*
X151021542Y-106827916D01*
X151018164Y-106829060D01*
X151014716Y-106830040D01*
X151011198Y-106830852D01*
X151007618Y-106831492D01*
X151003982Y-106831956D01*
X151000290Y-106832236D01*
X150996550Y-106832330D01*
X150729948Y-106832330D01*
X150726208Y-106832236D01*
X150722518Y-106831956D01*
X150718880Y-106831492D01*
X150715300Y-106830852D01*
X150711784Y-106830040D01*
X150708334Y-106829060D01*
X150704956Y-106827916D01*
X150701654Y-106826614D01*
X150698434Y-106825158D01*
X150695300Y-106823550D01*
X150692254Y-106821800D01*
X150689304Y-106819908D01*
X150686454Y-106817880D01*
X150683706Y-106815720D01*
X150681068Y-106813434D01*
X150678542Y-106811026D01*
X150676134Y-106808500D01*
X150673848Y-106805862D01*
X150671688Y-106803116D01*
X150669660Y-106800264D01*
X150667770Y-106797314D01*
X150666018Y-106794270D01*
X150664412Y-106791134D01*
X150662954Y-106787914D01*
X150661652Y-106784612D01*
X150660508Y-106781234D01*
X150659528Y-106777786D01*
X150658716Y-106774268D01*
X150658076Y-106770688D01*
X150657614Y-106767052D01*
X150657332Y-106763360D01*
X150657238Y-106759620D01*
X150657238Y-106493018D01*
X150657332Y-106489278D01*
X150657614Y-106485586D01*
X150658076Y-106481950D01*
X150658716Y-106478370D01*
X150659528Y-106474852D01*
X150660508Y-106471404D01*
X150661652Y-106468026D01*
X150662954Y-106464724D01*
X150664412Y-106461504D01*
X150666018Y-106458368D01*
X150667770Y-106455324D01*
X150669660Y-106452374D01*
X150671688Y-106449522D01*
X150673848Y-106446776D01*
X150676134Y-106444138D01*
X150678542Y-106441612D01*
X150681068Y-106439204D01*
X150683706Y-106436918D01*
X150686454Y-106434758D01*
X150689304Y-106432730D01*
X150692254Y-106430838D01*
X150695300Y-106429088D01*
X150698434Y-106427482D01*
X150701654Y-106426024D01*
X150704956Y-106424722D01*
X150708334Y-106423578D01*
X150711784Y-106422598D01*
X150715300Y-106421786D01*
X150718880Y-106421146D01*
X150722518Y-106420684D01*
X150726208Y-106420402D01*
X150729948Y-106420308D01*
X150996550Y-106420308D01*
X151000290Y-106420402D01*
G37*
G36*
X149767030Y-106420402D02*
G01*
X149771728Y-106420684D01*
X149776358Y-106421146D01*
X149780912Y-106421786D01*
X149785388Y-106422598D01*
X149789778Y-106423578D01*
X149794074Y-106424722D01*
X149798276Y-106426024D01*
X149802372Y-106427482D01*
X149806360Y-106429088D01*
X149810234Y-106430838D01*
X149813986Y-106432730D01*
X149817612Y-106434758D01*
X149821106Y-106436918D01*
X149824462Y-106439204D01*
X149827672Y-106441612D01*
X149830734Y-106444138D01*
X149833642Y-106446776D01*
X149836386Y-106449522D01*
X149838966Y-106452374D01*
X149841370Y-106455324D01*
X149843598Y-106458368D01*
X149845640Y-106461504D01*
X149847490Y-106464724D01*
X149849146Y-106468026D01*
X149850600Y-106471404D01*
X149851846Y-106474852D01*
X149852878Y-106478370D01*
X149853692Y-106481950D01*
X149854280Y-106485586D01*
X149854638Y-106489278D01*
X149854758Y-106493018D01*
X149854758Y-106759620D01*
X149854638Y-106763360D01*
X149854280Y-106767052D01*
X149853692Y-106770688D01*
X149852878Y-106774268D01*
X149851846Y-106777786D01*
X149850600Y-106781234D01*
X149849146Y-106784612D01*
X149847490Y-106787914D01*
X149845640Y-106791134D01*
X149843598Y-106794270D01*
X149841370Y-106797314D01*
X149838966Y-106800264D01*
X149836386Y-106803116D01*
X149833642Y-106805862D01*
X149830734Y-106808500D01*
X149827672Y-106811026D01*
X149821106Y-106815720D01*
X149813986Y-106819908D01*
X149806360Y-106823550D01*
X149798276Y-106826614D01*
X149789778Y-106829060D01*
X149780912Y-106830852D01*
X149771728Y-106831956D01*
X149767030Y-106832236D01*
X149762270Y-106832330D01*
X149589124Y-106832330D01*
X149423152Y-106832330D01*
X148994890Y-106832330D01*
X148655770Y-106832330D01*
X148220724Y-106832330D01*
X147881604Y-106832330D01*
X147453342Y-106832330D01*
X147287418Y-106832330D01*
X147114224Y-106832330D01*
X147109464Y-106832236D01*
X147104766Y-106831956D01*
X147100136Y-106831492D01*
X147095582Y-106830852D01*
X147091106Y-106830040D01*
X147086716Y-106829060D01*
X147082420Y-106827916D01*
X147078218Y-106826614D01*
X147074122Y-106825158D01*
X147070134Y-106823550D01*
X147066260Y-106821800D01*
X147062508Y-106819908D01*
X147058882Y-106817880D01*
X147055388Y-106815720D01*
X147052034Y-106813434D01*
X147048822Y-106811026D01*
X147045760Y-106808500D01*
X147042852Y-106805862D01*
X147040108Y-106803116D01*
X147037530Y-106800264D01*
X147035124Y-106797314D01*
X147032898Y-106794270D01*
X147030856Y-106791134D01*
X147029004Y-106787914D01*
X147027348Y-106784612D01*
X147025894Y-106781234D01*
X147024648Y-106777786D01*
X147023616Y-106774268D01*
X147022802Y-106770688D01*
X147022214Y-106767052D01*
X147021858Y-106763360D01*
X147021736Y-106759620D01*
X147021736Y-106493018D01*
X147021858Y-106489278D01*
X147022214Y-106485586D01*
X147022802Y-106481950D01*
X147023616Y-106478370D01*
X147024648Y-106474852D01*
X147025894Y-106471404D01*
X147027348Y-106468026D01*
X147029004Y-106464724D01*
X147030856Y-106461504D01*
X147032898Y-106458368D01*
X147035124Y-106455324D01*
X147037530Y-106452374D01*
X147040108Y-106449522D01*
X147042852Y-106446776D01*
X147045760Y-106444138D01*
X147048822Y-106441612D01*
X147055388Y-106436918D01*
X147062508Y-106432730D01*
X147070134Y-106429088D01*
X147078218Y-106426024D01*
X147086716Y-106423578D01*
X147095582Y-106421786D01*
X147104766Y-106420684D01*
X147109464Y-106420402D01*
X147114224Y-106420308D01*
X147287418Y-106420308D01*
X147453342Y-106420308D01*
X147881604Y-106420308D01*
X148220724Y-106420308D01*
X148655770Y-106420308D01*
X148994890Y-106420308D01*
X149423152Y-106420308D01*
X149589124Y-106420308D01*
X149762270Y-106420308D01*
X149767030Y-106420402D01*
G37*
G36*
X146756212Y-105814486D02*
G01*
X146759902Y-105814768D01*
X146763540Y-105815230D01*
X146767120Y-105815870D01*
X146770636Y-105816682D01*
X146774086Y-105817662D01*
X146777464Y-105818806D01*
X146780766Y-105820108D01*
X146783986Y-105821566D01*
X146787120Y-105823172D01*
X146790166Y-105824924D01*
X146793116Y-105826816D01*
X146795966Y-105828844D01*
X146798714Y-105831002D01*
X146801352Y-105833288D01*
X146803878Y-105835696D01*
X146806286Y-105838222D01*
X146808572Y-105840860D01*
X146810732Y-105843608D01*
X146812760Y-105846458D01*
X146814650Y-105849408D01*
X146816402Y-105852454D01*
X146818008Y-105855588D01*
X146819466Y-105858808D01*
X146820768Y-105862110D01*
X146821912Y-105865488D01*
X146822892Y-105868938D01*
X146823704Y-105872454D01*
X146824344Y-105876034D01*
X146824806Y-105879672D01*
X146825088Y-105883362D01*
X146825182Y-105887102D01*
X146825182Y-106153704D01*
X146825088Y-106157444D01*
X146824806Y-106161136D01*
X146824344Y-106164774D01*
X146823704Y-106168352D01*
X146822892Y-106171870D01*
X146821912Y-106175320D01*
X146820768Y-106178696D01*
X146819466Y-106181998D01*
X146818008Y-106185218D01*
X146816402Y-106188354D01*
X146814650Y-106191398D01*
X146812760Y-106194348D01*
X146810732Y-106197200D01*
X146808572Y-106199946D01*
X146806286Y-106202586D01*
X146803878Y-106205112D01*
X146801352Y-106207520D01*
X146798714Y-106209806D01*
X146795966Y-106211964D01*
X146793116Y-106213992D01*
X146790166Y-106215884D01*
X146787120Y-106217636D01*
X146783986Y-106219242D01*
X146780766Y-106220698D01*
X146777464Y-106222000D01*
X146774086Y-106223144D01*
X146770636Y-106224124D01*
X146767120Y-106224936D01*
X146763540Y-106225576D01*
X146759902Y-106226040D01*
X146756212Y-106226320D01*
X146752472Y-106226414D01*
X146712142Y-106226414D01*
X146485870Y-106226414D01*
X146146556Y-106226414D01*
X145928282Y-106226414D01*
X145879954Y-106226414D01*
X145876214Y-106226320D01*
X145872522Y-106226040D01*
X145868884Y-106225576D01*
X145865306Y-106224936D01*
X145861788Y-106224124D01*
X145858340Y-106223144D01*
X145854962Y-106222000D01*
X145851660Y-106220698D01*
X145848440Y-106219242D01*
X145845304Y-106217636D01*
X145842260Y-106215884D01*
X145839310Y-106213992D01*
X145836458Y-106211964D01*
X145833712Y-106209806D01*
X145831074Y-106207520D01*
X145828548Y-106205112D01*
X145826140Y-106202586D01*
X145823854Y-106199946D01*
X145821694Y-106197200D01*
X145819666Y-106194348D01*
X145817774Y-106191398D01*
X145816024Y-106188354D01*
X145814418Y-106185218D01*
X145812960Y-106181998D01*
X145811658Y-106178696D01*
X145810514Y-106175320D01*
X145809534Y-106171870D01*
X145808722Y-106168352D01*
X145808082Y-106164774D01*
X145807620Y-106161136D01*
X145807338Y-106157444D01*
X145807244Y-106153704D01*
X145807244Y-105887102D01*
X145807338Y-105883362D01*
X145807620Y-105879672D01*
X145808082Y-105876034D01*
X145808722Y-105872454D01*
X145809534Y-105868938D01*
X145810514Y-105865488D01*
X145811658Y-105862110D01*
X145812960Y-105858808D01*
X145814418Y-105855588D01*
X145816024Y-105852454D01*
X145817774Y-105849408D01*
X145819666Y-105846458D01*
X145821694Y-105843608D01*
X145823854Y-105840860D01*
X145826140Y-105838222D01*
X145828548Y-105835696D01*
X145831074Y-105833288D01*
X145833712Y-105831002D01*
X145836458Y-105828844D01*
X145839310Y-105826816D01*
X145842260Y-105824924D01*
X145845304Y-105823172D01*
X145848440Y-105821566D01*
X145851660Y-105820108D01*
X145854962Y-105818806D01*
X145858340Y-105817662D01*
X145861788Y-105816682D01*
X145865306Y-105815870D01*
X145868884Y-105815230D01*
X145872522Y-105814768D01*
X145876214Y-105814486D01*
X145879954Y-105814392D01*
X145928282Y-105814392D01*
X146146556Y-105814392D01*
X146485870Y-105814392D01*
X146712142Y-105814392D01*
X146752472Y-105814392D01*
X146756212Y-105814486D01*
G37*
G36*
X151000290Y-104602654D02*
G01*
X151003982Y-104602936D01*
X151007618Y-104603398D01*
X151011198Y-104604038D01*
X151014716Y-104604850D01*
X151018164Y-104605830D01*
X151021542Y-104606974D01*
X151024844Y-104608276D01*
X151028064Y-104609732D01*
X151031200Y-104611340D01*
X151034244Y-104613090D01*
X151037194Y-104614982D01*
X151040046Y-104617010D01*
X151042792Y-104619170D01*
X151045432Y-104621456D01*
X151047956Y-104623864D01*
X151050364Y-104626390D01*
X151052650Y-104629028D01*
X151054810Y-104631774D01*
X151056838Y-104634626D01*
X151058730Y-104637576D01*
X151060480Y-104640620D01*
X151062088Y-104643756D01*
X151063544Y-104646976D01*
X151064846Y-104650278D01*
X151065990Y-104653656D01*
X151066970Y-104657104D01*
X151067782Y-104660622D01*
X151068422Y-104664202D01*
X151068886Y-104667838D01*
X151069166Y-104671530D01*
X151069260Y-104675270D01*
X151069260Y-104941872D01*
X151069166Y-104945612D01*
X151068886Y-104949304D01*
X151068422Y-104952940D01*
X151067782Y-104956520D01*
X151066970Y-104960036D01*
X151065990Y-104963486D01*
X151064846Y-104966864D01*
X151063544Y-104970166D01*
X151062088Y-104973386D01*
X151060480Y-104976522D01*
X151058730Y-104979566D01*
X151056838Y-104982516D01*
X151054810Y-104985368D01*
X151052650Y-104988114D01*
X151050364Y-104990752D01*
X151047956Y-104993278D01*
X151045432Y-104995686D01*
X151042792Y-104997972D01*
X151040046Y-105000132D01*
X151037194Y-105002160D01*
X151034244Y-105004052D01*
X151031200Y-105005802D01*
X151028064Y-105007408D01*
X151024844Y-105008866D01*
X151021542Y-105010168D01*
X151018164Y-105011312D01*
X151014716Y-105012292D01*
X151011198Y-105013104D01*
X151007618Y-105013744D01*
X151003982Y-105014206D01*
X151000290Y-105014488D01*
X150996550Y-105014582D01*
X150950888Y-105014582D01*
X150729948Y-105014582D01*
X150387970Y-105014582D01*
X150167028Y-105014582D01*
X150121366Y-105014582D01*
X150117626Y-105014488D01*
X150113934Y-105014206D01*
X150110298Y-105013744D01*
X150106718Y-105013104D01*
X150103202Y-105012292D01*
X150099752Y-105011312D01*
X150096374Y-105010168D01*
X150093072Y-105008866D01*
X150089852Y-105007408D01*
X150086718Y-105005802D01*
X150083672Y-105004052D01*
X150080722Y-105002160D01*
X150077872Y-105000132D01*
X150075124Y-104997972D01*
X150072486Y-104995686D01*
X150069960Y-104993278D01*
X150067552Y-104990752D01*
X150065266Y-104988114D01*
X150063108Y-104985368D01*
X150061080Y-104982516D01*
X150059188Y-104979566D01*
X150057436Y-104976522D01*
X150055830Y-104973386D01*
X150054372Y-104970166D01*
X150053070Y-104966864D01*
X150051926Y-104963486D01*
X150050946Y-104960036D01*
X150050134Y-104956520D01*
X150049494Y-104952940D01*
X150049032Y-104949304D01*
X150048750Y-104945612D01*
X150048656Y-104941872D01*
X150048656Y-104675270D01*
X150048750Y-104671530D01*
X150049032Y-104667838D01*
X150049494Y-104664202D01*
X150050134Y-104660622D01*
X150050946Y-104657104D01*
X150051926Y-104653656D01*
X150053070Y-104650278D01*
X150054372Y-104646976D01*
X150055830Y-104643756D01*
X150057436Y-104640620D01*
X150059188Y-104637576D01*
X150061080Y-104634626D01*
X150063108Y-104631774D01*
X150065266Y-104629028D01*
X150067552Y-104626390D01*
X150069960Y-104623864D01*
X150072486Y-104621456D01*
X150075124Y-104619170D01*
X150077872Y-104617010D01*
X150080722Y-104614982D01*
X150083672Y-104613090D01*
X150086718Y-104611340D01*
X150089852Y-104609732D01*
X150093072Y-104608276D01*
X150096374Y-104606974D01*
X150099752Y-104605830D01*
X150103202Y-104604850D01*
X150106718Y-104604038D01*
X150110298Y-104603398D01*
X150113934Y-104602936D01*
X150117626Y-104602654D01*
X150121366Y-104602560D01*
X150167028Y-104602560D01*
X150387970Y-104602560D01*
X150729948Y-104602560D01*
X150950888Y-104602560D01*
X150996550Y-104602560D01*
X151000290Y-104602654D01*
G37*
G36*
X151000290Y-105814486D02*
G01*
X151003982Y-105814768D01*
X151007618Y-105815230D01*
X151011198Y-105815870D01*
X151014716Y-105816682D01*
X151018164Y-105817662D01*
X151021542Y-105818806D01*
X151024844Y-105820108D01*
X151028064Y-105821566D01*
X151031200Y-105823172D01*
X151034244Y-105824922D01*
X151037194Y-105826814D01*
X151040046Y-105828842D01*
X151042792Y-105831002D01*
X151045432Y-105833288D01*
X151047956Y-105835696D01*
X151050364Y-105838222D01*
X151052650Y-105840860D01*
X151054810Y-105843606D01*
X151056838Y-105846458D01*
X151058730Y-105849408D01*
X151060480Y-105852452D01*
X151062088Y-105855588D01*
X151063544Y-105858808D01*
X151064846Y-105862110D01*
X151065990Y-105865488D01*
X151066970Y-105868936D01*
X151067782Y-105872454D01*
X151068422Y-105876034D01*
X151068886Y-105879670D01*
X151069166Y-105883362D01*
X151069260Y-105887102D01*
X151069260Y-106153704D01*
X151069166Y-106157444D01*
X151068886Y-106161136D01*
X151068422Y-106164772D01*
X151067782Y-106168352D01*
X151066970Y-106171870D01*
X151065990Y-106175318D01*
X151064846Y-106178696D01*
X151063544Y-106181998D01*
X151062088Y-106185218D01*
X151060480Y-106188354D01*
X151058730Y-106191398D01*
X151056838Y-106194348D01*
X151054810Y-106197200D01*
X151052650Y-106199946D01*
X151050364Y-106202584D01*
X151047956Y-106205110D01*
X151045432Y-106207518D01*
X151042792Y-106209804D01*
X151040046Y-106211964D01*
X151037194Y-106213992D01*
X151034244Y-106215884D01*
X151031200Y-106217634D01*
X151028064Y-106219240D01*
X151024844Y-106220698D01*
X151021542Y-106222000D01*
X151018164Y-106223144D01*
X151014716Y-106224124D01*
X151011198Y-106224936D01*
X151007618Y-106225576D01*
X151003982Y-106226038D01*
X151000290Y-106226320D01*
X150996550Y-106226414D01*
X150950888Y-106226414D01*
X150729948Y-106226414D01*
X150387970Y-106226414D01*
X150167028Y-106226414D01*
X150121366Y-106226414D01*
X150117626Y-106226320D01*
X150113934Y-106226038D01*
X150110298Y-106225576D01*
X150106718Y-106224936D01*
X150103202Y-106224124D01*
X150099752Y-106223144D01*
X150096374Y-106222000D01*
X150093072Y-106220698D01*
X150089852Y-106219240D01*
X150086718Y-106217634D01*
X150083672Y-106215884D01*
X150080722Y-106213992D01*
X150077872Y-106211964D01*
X150075124Y-106209804D01*
X150072486Y-106207518D01*
X150069960Y-106205110D01*
X150067552Y-106202584D01*
X150065266Y-106199946D01*
X150063108Y-106197200D01*
X150061080Y-106194348D01*
X150059188Y-106191398D01*
X150057436Y-106188354D01*
X150055830Y-106185218D01*
X150054372Y-106181998D01*
X150053070Y-106178696D01*
X150051926Y-106175318D01*
X150050946Y-106171870D01*
X150050134Y-106168352D01*
X150049494Y-106164772D01*
X150049032Y-106161136D01*
X150048750Y-106157444D01*
X150048656Y-106153704D01*
X150048656Y-105887102D01*
X150048750Y-105883362D01*
X150049032Y-105879670D01*
X150049494Y-105876034D01*
X150050134Y-105872454D01*
X150050946Y-105868936D01*
X150051926Y-105865488D01*
X150053070Y-105862110D01*
X150054372Y-105858808D01*
X150055830Y-105855588D01*
X150057436Y-105852452D01*
X150059188Y-105849408D01*
X150061080Y-105846458D01*
X150063108Y-105843606D01*
X150065266Y-105840860D01*
X150067552Y-105838222D01*
X150069960Y-105835696D01*
X150072486Y-105833288D01*
X150075124Y-105831002D01*
X150077872Y-105828842D01*
X150080722Y-105826814D01*
X150083672Y-105824922D01*
X150086718Y-105823172D01*
X150089852Y-105821566D01*
X150093072Y-105820108D01*
X150096374Y-105818806D01*
X150099752Y-105817662D01*
X150103202Y-105816682D01*
X150106718Y-105815870D01*
X150110298Y-105815230D01*
X150113934Y-105814768D01*
X150117626Y-105814486D01*
X150121366Y-105814392D01*
X150167028Y-105814392D01*
X150387970Y-105814392D01*
X150729948Y-105814392D01*
X150950888Y-105814392D01*
X150996550Y-105814392D01*
X151000290Y-105814486D01*
G37*
G36*
X145676188Y-102710686D02*
G01*
X145703084Y-102713262D01*
X145729730Y-102717740D01*
X145756036Y-102724108D01*
X145781910Y-102732356D01*
X145807262Y-102742470D01*
X145832000Y-102754438D01*
X145856036Y-102768250D01*
X145879278Y-102783894D01*
X145901636Y-102801356D01*
X147200914Y-103891616D01*
X147204424Y-103894424D01*
X147208022Y-103897046D01*
X147211702Y-103899484D01*
X147215458Y-103901738D01*
X147219284Y-103903808D01*
X147223176Y-103905692D01*
X147227126Y-103907392D01*
X147231126Y-103908910D01*
X147235174Y-103910242D01*
X147239262Y-103911390D01*
X147243384Y-103912356D01*
X147247534Y-103913136D01*
X147251706Y-103913734D01*
X147255894Y-103914148D01*
X147260092Y-103914378D01*
X147264294Y-103914424D01*
X147268492Y-103914286D01*
X147272682Y-103913966D01*
X147276860Y-103913462D01*
X147281016Y-103912774D01*
X147285144Y-103911904D01*
X147289242Y-103910850D01*
X147293300Y-103909614D01*
X147297314Y-103908194D01*
X147301276Y-103906592D01*
X147305184Y-103904806D01*
X147309026Y-103902838D01*
X147312802Y-103900688D01*
X147316500Y-103898354D01*
X147320120Y-103895838D01*
X147323652Y-103893140D01*
X147327090Y-103890260D01*
X148181770Y-103141590D01*
X148195608Y-103130020D01*
X148209850Y-103119194D01*
X148224474Y-103109114D01*
X148239450Y-103099780D01*
X148254752Y-103091190D01*
X148270352Y-103083344D01*
X148286224Y-103076244D01*
X148302342Y-103069890D01*
X148318676Y-103064280D01*
X148335200Y-103059416D01*
X148351888Y-103055296D01*
X148368712Y-103051922D01*
X148385646Y-103049294D01*
X148402662Y-103047410D01*
X148419732Y-103046272D01*
X148436830Y-103045880D01*
X148453930Y-103046232D01*
X148471004Y-103047328D01*
X148488026Y-103049172D01*
X148504966Y-103051760D01*
X148521798Y-103055094D01*
X148538498Y-103059172D01*
X148555036Y-103063996D01*
X148571384Y-103069566D01*
X148587518Y-103075880D01*
X148603408Y-103082942D01*
X148619030Y-103090748D01*
X148634356Y-103099298D01*
X148649356Y-103108596D01*
X148664006Y-103118638D01*
X148678278Y-103129426D01*
X148692146Y-103140960D01*
X149551868Y-103890696D01*
X149555310Y-103893572D01*
X149558846Y-103896264D01*
X149562468Y-103898774D01*
X149566170Y-103901102D01*
X149569946Y-103903246D01*
X149573792Y-103905208D01*
X149577698Y-103906986D01*
X149581662Y-103908580D01*
X149585674Y-103909992D01*
X149589732Y-103911222D01*
X149593826Y-103912268D01*
X149597954Y-103913130D01*
X149602106Y-103913810D01*
X149606280Y-103914306D01*
X149610466Y-103914620D01*
X149614660Y-103914750D01*
X149618854Y-103914698D01*
X149623046Y-103914462D01*
X149627226Y-103914042D01*
X149631390Y-103913440D01*
X149635530Y-103912654D01*
X149639642Y-103911684D01*
X149643720Y-103910532D01*
X149647756Y-103909196D01*
X149651746Y-103907676D01*
X149655682Y-103905974D01*
X149659560Y-103904088D01*
X149663372Y-103902018D01*
X149667114Y-103899766D01*
X149670778Y-103897330D01*
X149674358Y-103894710D01*
X149677850Y-103891908D01*
X150977564Y-102801356D01*
X150999922Y-102783900D01*
X151023162Y-102768264D01*
X151047196Y-102754456D01*
X151071932Y-102742490D01*
X151097280Y-102732376D01*
X151123150Y-102724130D01*
X151149450Y-102717760D01*
X151176092Y-102713280D01*
X151202984Y-102710702D01*
X151230038Y-102710038D01*
X151257160Y-102711300D01*
X151284262Y-102714500D01*
X151311252Y-102719648D01*
X151338040Y-102726762D01*
X151364538Y-102735848D01*
X151390654Y-102746920D01*
X151415926Y-102759810D01*
X151439926Y-102774268D01*
X151462602Y-102790218D01*
X151483906Y-102807586D01*
X151503788Y-102826290D01*
X151522200Y-102846256D01*
X151539092Y-102867408D01*
X151554414Y-102889668D01*
X151568118Y-102912958D01*
X151580154Y-102937202D01*
X151590474Y-102962324D01*
X151599028Y-102988246D01*
X151605768Y-103014892D01*
X151610642Y-103042184D01*
X151613602Y-103070046D01*
X151614600Y-103098400D01*
X151614600Y-107126626D01*
X151614094Y-107146554D01*
X151612594Y-107166224D01*
X151610124Y-107185612D01*
X151606706Y-107204692D01*
X151602370Y-107223438D01*
X151597136Y-107241828D01*
X151591030Y-107259838D01*
X151584076Y-107277442D01*
X151576300Y-107294614D01*
X151567726Y-107311334D01*
X151558376Y-107327572D01*
X151548280Y-107343308D01*
X151537456Y-107358514D01*
X151525934Y-107373168D01*
X151513736Y-107387244D01*
X151500888Y-107400718D01*
X151487412Y-107413566D01*
X151473336Y-107425762D01*
X151458680Y-107437284D01*
X151443474Y-107448104D01*
X151427738Y-107458200D01*
X151411500Y-107467548D01*
X151394782Y-107476120D01*
X151377608Y-107483896D01*
X151360006Y-107490848D01*
X151341998Y-107496952D01*
X151323610Y-107502184D01*
X151304864Y-107506520D01*
X151285788Y-107509936D01*
X151266404Y-107512406D01*
X151246738Y-107513906D01*
X151226814Y-107514412D01*
X145652386Y-107514412D01*
X145632458Y-107513906D01*
X145612788Y-107512406D01*
X145593402Y-107509936D01*
X145574322Y-107506520D01*
X145555574Y-107502184D01*
X145537184Y-107496952D01*
X145519174Y-107490848D01*
X145501572Y-107483896D01*
X145484398Y-107476120D01*
X145467680Y-107467548D01*
X145451440Y-107458200D01*
X145435706Y-107448104D01*
X145420498Y-107437284D01*
X145405846Y-107425762D01*
X145391768Y-107413566D01*
X145378294Y-107400718D01*
X145365446Y-107387244D01*
X145353250Y-107373168D01*
X145341730Y-107358514D01*
X145330908Y-107343308D01*
X145320812Y-107327572D01*
X145311466Y-107311334D01*
X145302892Y-107294614D01*
X145295118Y-107277442D01*
X145288166Y-107259838D01*
X145282060Y-107241828D01*
X145276828Y-107223438D01*
X145272492Y-107204692D01*
X145269076Y-107185612D01*
X145266606Y-107166224D01*
X145265106Y-107146554D01*
X145264600Y-107126626D01*
X145555440Y-107126626D01*
X145555566Y-107131616D01*
X145555940Y-107136542D01*
X145556556Y-107141394D01*
X145557410Y-107146170D01*
X145558492Y-107150862D01*
X145559798Y-107155462D01*
X145561320Y-107159968D01*
X145563056Y-107164370D01*
X145564996Y-107168666D01*
X145567138Y-107172846D01*
X145569470Y-107176906D01*
X145571992Y-107180840D01*
X145574694Y-107184640D01*
X145577572Y-107188302D01*
X145580618Y-107191820D01*
X145583828Y-107195186D01*
X145587194Y-107198396D01*
X145590712Y-107201442D01*
X145594374Y-107204318D01*
X145598174Y-107207022D01*
X145602108Y-107209542D01*
X145606168Y-107211876D01*
X145610348Y-107214016D01*
X145614642Y-107215958D01*
X145619044Y-107217692D01*
X145623550Y-107219216D01*
X145628152Y-107220522D01*
X145632842Y-107221604D01*
X145637618Y-107222456D01*
X145642472Y-107223072D01*
X145647396Y-107223446D01*
X145652386Y-107223572D01*
X151226814Y-107223572D01*
X151231800Y-107223446D01*
X151236722Y-107223072D01*
X151241572Y-107222456D01*
X151246344Y-107221604D01*
X151251032Y-107220522D01*
X151255632Y-107219216D01*
X151260136Y-107217692D01*
X151264538Y-107215958D01*
X151268832Y-107214016D01*
X151273012Y-107211876D01*
X151277072Y-107209542D01*
X151281006Y-107207022D01*
X151284806Y-107204318D01*
X151288468Y-107201442D01*
X151291988Y-107198396D01*
X151295354Y-107195186D01*
X151298566Y-107191820D01*
X151301614Y-107188302D01*
X151304492Y-107184640D01*
X151307196Y-107180840D01*
X151309718Y-107176906D01*
X151312054Y-107172846D01*
X151314196Y-107168666D01*
X151316138Y-107164370D01*
X151317874Y-107159968D01*
X151319398Y-107155462D01*
X151320706Y-107150862D01*
X151321790Y-107146170D01*
X151322642Y-107141394D01*
X151323258Y-107136542D01*
X151323634Y-107131616D01*
X151323760Y-107126626D01*
X151323760Y-104332480D01*
X151323602Y-104326248D01*
X151323134Y-104320096D01*
X151322362Y-104314034D01*
X151321296Y-104308068D01*
X151319942Y-104302206D01*
X151318308Y-104296458D01*
X151316402Y-104290828D01*
X151314232Y-104285326D01*
X151311804Y-104279958D01*
X151309126Y-104274732D01*
X151306208Y-104269658D01*
X151303054Y-104264742D01*
X151299674Y-104259990D01*
X151296076Y-104255412D01*
X151292266Y-104251014D01*
X151288254Y-104246804D01*
X151284044Y-104242790D01*
X151279646Y-104238982D01*
X151275068Y-104235382D01*
X151270316Y-104232002D01*
X151265400Y-104228850D01*
X151260324Y-104225930D01*
X151255100Y-104223254D01*
X151249732Y-104220826D01*
X151244230Y-104218654D01*
X151238600Y-104216748D01*
X151232850Y-104215114D01*
X151226990Y-104213762D01*
X151221024Y-104212694D01*
X151214962Y-104211924D01*
X151208810Y-104211456D01*
X151202576Y-104211298D01*
X145676624Y-104211298D01*
X145670386Y-104211456D01*
X145664230Y-104211924D01*
X145658166Y-104212694D01*
X145652196Y-104213762D01*
X145646334Y-104215114D01*
X145640582Y-104216748D01*
X145634952Y-104218654D01*
X145629448Y-104220826D01*
X145624080Y-104223254D01*
X145618854Y-104225930D01*
X145613780Y-104228850D01*
X145608862Y-104232002D01*
X145604112Y-104235382D01*
X145599534Y-104238982D01*
X145595138Y-104242790D01*
X145590928Y-104246804D01*
X145586916Y-104251014D01*
X145583108Y-104255412D01*
X145579512Y-104259990D01*
X145576132Y-104264742D01*
X145572982Y-104269658D01*
X145570064Y-104274732D01*
X145567388Y-104279958D01*
X145564962Y-104285326D01*
X145562792Y-104290828D01*
X145560888Y-104296458D01*
X145559254Y-104302206D01*
X145557902Y-104308068D01*
X145556836Y-104314034D01*
X145556066Y-104320096D01*
X145555598Y-104326248D01*
X145555440Y-104332480D01*
X145555440Y-107126626D01*
X145264600Y-107126626D01*
X145264600Y-104332480D01*
X145264600Y-103098400D01*
X145264850Y-103084166D01*
X145265598Y-103070046D01*
X145266836Y-103056048D01*
X145268556Y-103042184D01*
X145270756Y-103028462D01*
X145273428Y-103014892D01*
X145276566Y-103001484D01*
X145280164Y-102988246D01*
X145284216Y-102975190D01*
X145288714Y-102962324D01*
X145293654Y-102949658D01*
X145299030Y-102937202D01*
X145304834Y-102924966D01*
X145311062Y-102912958D01*
X145317706Y-102901188D01*
X145324762Y-102889668D01*
X145332222Y-102878404D01*
X145340080Y-102867408D01*
X145348330Y-102856690D01*
X145356968Y-102846256D01*
X145365984Y-102836120D01*
X145375374Y-102826290D01*
X145385134Y-102816776D01*
X145395254Y-102807586D01*
X145405730Y-102798730D01*
X145416554Y-102790218D01*
X145427722Y-102782062D01*
X145439228Y-102774268D01*
X145451064Y-102766848D01*
X145463226Y-102759810D01*
X145475706Y-102753164D01*
X145488498Y-102746920D01*
X145514614Y-102735848D01*
X145541114Y-102726760D01*
X145567904Y-102719646D01*
X145594898Y-102714492D01*
X145622004Y-102711290D01*
X145649130Y-102710024D01*
X145676188Y-102710686D01*
G37*
D13*
%TO.C,JP1*%
X131899998Y-104300000D02*
X131900002Y-103700001D01*
X132600001Y-103000001D02*
X134000000Y-103000000D01*
X133999999Y-104999999D02*
X132600000Y-105000000D01*
X134700002Y-103700000D02*
X134699998Y-104299999D01*
X131900002Y-103700001D02*
G75*
G02*
X132600001Y-103000001I699994J6D01*
G01*
X132600000Y-105000000D02*
G75*
G02*
X131899998Y-104300000I1J700003D01*
G01*
X134000000Y-103000000D02*
G75*
G02*
X134700000Y-103700000I0J-700000D01*
G01*
X134699998Y-104299999D02*
G75*
G02*
X133999999Y-104999999I-699994J-6D01*
G01*
%TD*%
M02*
