%TF.GenerationSoftware,KiCad,Pcbnew,9.0.1*%
%TF.CreationDate,2025-07-30T00:23:40-04:00*%
%TF.ProjectId,T5848,54353834-382e-46b6-9963-61645f706362,rev?*%
%TF.SameCoordinates,Original*%
%TF.FileFunction,Legend,Bot*%
%TF.FilePolarity,Positive*%
%FSLAX46Y46*%
G04 Gerber Fmt 4.6, Leading zero omitted, Abs format (unit mm)*
G04 Created by KiCad (PCBNEW 9.0.1) date 2025-07-30 00:23:40*
%MOMM*%
%LPD*%
G01*
G04 APERTURE LIST*
%ADD10C,0.150000*%
%ADD11C,0.120000*%
G04 APERTURE END LIST*
D10*
X163366665Y-106809580D02*
X163414284Y-106857200D01*
X163414284Y-106857200D02*
X163557141Y-106904819D01*
X163557141Y-106904819D02*
X163652379Y-106904819D01*
X163652379Y-106904819D02*
X163795236Y-106857200D01*
X163795236Y-106857200D02*
X163890474Y-106761961D01*
X163890474Y-106761961D02*
X163938093Y-106666723D01*
X163938093Y-106666723D02*
X163985712Y-106476247D01*
X163985712Y-106476247D02*
X163985712Y-106333390D01*
X163985712Y-106333390D02*
X163938093Y-106142914D01*
X163938093Y-106142914D02*
X163890474Y-106047676D01*
X163890474Y-106047676D02*
X163795236Y-105952438D01*
X163795236Y-105952438D02*
X163652379Y-105904819D01*
X163652379Y-105904819D02*
X163557141Y-105904819D01*
X163557141Y-105904819D02*
X163414284Y-105952438D01*
X163414284Y-105952438D02*
X163366665Y-106000057D01*
X162461903Y-105904819D02*
X162938093Y-105904819D01*
X162938093Y-105904819D02*
X162985712Y-106381009D01*
X162985712Y-106381009D02*
X162938093Y-106333390D01*
X162938093Y-106333390D02*
X162842855Y-106285771D01*
X162842855Y-106285771D02*
X162604760Y-106285771D01*
X162604760Y-106285771D02*
X162509522Y-106333390D01*
X162509522Y-106333390D02*
X162461903Y-106381009D01*
X162461903Y-106381009D02*
X162414284Y-106476247D01*
X162414284Y-106476247D02*
X162414284Y-106714342D01*
X162414284Y-106714342D02*
X162461903Y-106809580D01*
X162461903Y-106809580D02*
X162509522Y-106857200D01*
X162509522Y-106857200D02*
X162604760Y-106904819D01*
X162604760Y-106904819D02*
X162842855Y-106904819D01*
X162842855Y-106904819D02*
X162938093Y-106857200D01*
X162938093Y-106857200D02*
X162985712Y-106809580D01*
X155766666Y-102079580D02*
X155814285Y-102127200D01*
X155814285Y-102127200D02*
X155957142Y-102174819D01*
X155957142Y-102174819D02*
X156052380Y-102174819D01*
X156052380Y-102174819D02*
X156195237Y-102127200D01*
X156195237Y-102127200D02*
X156290475Y-102031961D01*
X156290475Y-102031961D02*
X156338094Y-101936723D01*
X156338094Y-101936723D02*
X156385713Y-101746247D01*
X156385713Y-101746247D02*
X156385713Y-101603390D01*
X156385713Y-101603390D02*
X156338094Y-101412914D01*
X156338094Y-101412914D02*
X156290475Y-101317676D01*
X156290475Y-101317676D02*
X156195237Y-101222438D01*
X156195237Y-101222438D02*
X156052380Y-101174819D01*
X156052380Y-101174819D02*
X155957142Y-101174819D01*
X155957142Y-101174819D02*
X155814285Y-101222438D01*
X155814285Y-101222438D02*
X155766666Y-101270057D01*
X154909523Y-101508152D02*
X154909523Y-102174819D01*
X155147618Y-101127200D02*
X155385713Y-101841485D01*
X155385713Y-101841485D02*
X154766666Y-101841485D01*
X135447066Y-103534380D02*
X135494685Y-103582000D01*
X135494685Y-103582000D02*
X135637542Y-103629619D01*
X135637542Y-103629619D02*
X135732780Y-103629619D01*
X135732780Y-103629619D02*
X135875637Y-103582000D01*
X135875637Y-103582000D02*
X135970875Y-103486761D01*
X135970875Y-103486761D02*
X136018494Y-103391523D01*
X136018494Y-103391523D02*
X136066113Y-103201047D01*
X136066113Y-103201047D02*
X136066113Y-103058190D01*
X136066113Y-103058190D02*
X136018494Y-102867714D01*
X136018494Y-102867714D02*
X135970875Y-102772476D01*
X135970875Y-102772476D02*
X135875637Y-102677238D01*
X135875637Y-102677238D02*
X135732780Y-102629619D01*
X135732780Y-102629619D02*
X135637542Y-102629619D01*
X135637542Y-102629619D02*
X135494685Y-102677238D01*
X135494685Y-102677238D02*
X135447066Y-102724857D01*
X135113732Y-102629619D02*
X134494685Y-102629619D01*
X134494685Y-102629619D02*
X134828018Y-103010571D01*
X134828018Y-103010571D02*
X134685161Y-103010571D01*
X134685161Y-103010571D02*
X134589923Y-103058190D01*
X134589923Y-103058190D02*
X134542304Y-103105809D01*
X134542304Y-103105809D02*
X134494685Y-103201047D01*
X134494685Y-103201047D02*
X134494685Y-103439142D01*
X134494685Y-103439142D02*
X134542304Y-103534380D01*
X134542304Y-103534380D02*
X134589923Y-103582000D01*
X134589923Y-103582000D02*
X134685161Y-103629619D01*
X134685161Y-103629619D02*
X134970875Y-103629619D01*
X134970875Y-103629619D02*
X135066113Y-103582000D01*
X135066113Y-103582000D02*
X135113732Y-103534380D01*
X155563723Y-105458419D02*
X155563723Y-104458419D01*
X155563723Y-104458419D02*
X155230390Y-105172704D01*
X155230390Y-105172704D02*
X154897057Y-104458419D01*
X154897057Y-104458419D02*
X154897057Y-105458419D01*
X154420866Y-105458419D02*
X154420866Y-104458419D01*
X153849438Y-105458419D02*
X154278009Y-104886990D01*
X153849438Y-104458419D02*
X154420866Y-105029847D01*
X153468485Y-104553657D02*
X153420866Y-104506038D01*
X153420866Y-104506038D02*
X153325628Y-104458419D01*
X153325628Y-104458419D02*
X153087533Y-104458419D01*
X153087533Y-104458419D02*
X152992295Y-104506038D01*
X152992295Y-104506038D02*
X152944676Y-104553657D01*
X152944676Y-104553657D02*
X152897057Y-104648895D01*
X152897057Y-104648895D02*
X152897057Y-104744133D01*
X152897057Y-104744133D02*
X152944676Y-104886990D01*
X152944676Y-104886990D02*
X153516104Y-105458419D01*
X153516104Y-105458419D02*
X152897057Y-105458419D01*
X171296666Y-106654819D02*
X171629999Y-106178628D01*
X171868094Y-106654819D02*
X171868094Y-105654819D01*
X171868094Y-105654819D02*
X171487142Y-105654819D01*
X171487142Y-105654819D02*
X171391904Y-105702438D01*
X171391904Y-105702438D02*
X171344285Y-105750057D01*
X171344285Y-105750057D02*
X171296666Y-105845295D01*
X171296666Y-105845295D02*
X171296666Y-105988152D01*
X171296666Y-105988152D02*
X171344285Y-106083390D01*
X171344285Y-106083390D02*
X171391904Y-106131009D01*
X171391904Y-106131009D02*
X171487142Y-106178628D01*
X171487142Y-106178628D02*
X171868094Y-106178628D01*
X170915713Y-105750057D02*
X170868094Y-105702438D01*
X170868094Y-105702438D02*
X170772856Y-105654819D01*
X170772856Y-105654819D02*
X170534761Y-105654819D01*
X170534761Y-105654819D02*
X170439523Y-105702438D01*
X170439523Y-105702438D02*
X170391904Y-105750057D01*
X170391904Y-105750057D02*
X170344285Y-105845295D01*
X170344285Y-105845295D02*
X170344285Y-105940533D01*
X170344285Y-105940533D02*
X170391904Y-106083390D01*
X170391904Y-106083390D02*
X170963332Y-106654819D01*
X170963332Y-106654819D02*
X170344285Y-106654819D01*
X135345466Y-106658580D02*
X135393085Y-106706200D01*
X135393085Y-106706200D02*
X135535942Y-106753819D01*
X135535942Y-106753819D02*
X135631180Y-106753819D01*
X135631180Y-106753819D02*
X135774037Y-106706200D01*
X135774037Y-106706200D02*
X135869275Y-106610961D01*
X135869275Y-106610961D02*
X135916894Y-106515723D01*
X135916894Y-106515723D02*
X135964513Y-106325247D01*
X135964513Y-106325247D02*
X135964513Y-106182390D01*
X135964513Y-106182390D02*
X135916894Y-105991914D01*
X135916894Y-105991914D02*
X135869275Y-105896676D01*
X135869275Y-105896676D02*
X135774037Y-105801438D01*
X135774037Y-105801438D02*
X135631180Y-105753819D01*
X135631180Y-105753819D02*
X135535942Y-105753819D01*
X135535942Y-105753819D02*
X135393085Y-105801438D01*
X135393085Y-105801438D02*
X135345466Y-105849057D01*
X134964513Y-105849057D02*
X134916894Y-105801438D01*
X134916894Y-105801438D02*
X134821656Y-105753819D01*
X134821656Y-105753819D02*
X134583561Y-105753819D01*
X134583561Y-105753819D02*
X134488323Y-105801438D01*
X134488323Y-105801438D02*
X134440704Y-105849057D01*
X134440704Y-105849057D02*
X134393085Y-105944295D01*
X134393085Y-105944295D02*
X134393085Y-106039533D01*
X134393085Y-106039533D02*
X134440704Y-106182390D01*
X134440704Y-106182390D02*
X135012132Y-106753819D01*
X135012132Y-106753819D02*
X134393085Y-106753819D01*
X140882666Y-102454819D02*
X141215999Y-101978628D01*
X141454094Y-102454819D02*
X141454094Y-101454819D01*
X141454094Y-101454819D02*
X141073142Y-101454819D01*
X141073142Y-101454819D02*
X140977904Y-101502438D01*
X140977904Y-101502438D02*
X140930285Y-101550057D01*
X140930285Y-101550057D02*
X140882666Y-101645295D01*
X140882666Y-101645295D02*
X140882666Y-101788152D01*
X140882666Y-101788152D02*
X140930285Y-101883390D01*
X140930285Y-101883390D02*
X140977904Y-101931009D01*
X140977904Y-101931009D02*
X141073142Y-101978628D01*
X141073142Y-101978628D02*
X141454094Y-101978628D01*
X139930285Y-102454819D02*
X140501713Y-102454819D01*
X140215999Y-102454819D02*
X140215999Y-101454819D01*
X140215999Y-101454819D02*
X140311237Y-101597676D01*
X140311237Y-101597676D02*
X140406475Y-101692914D01*
X140406475Y-101692914D02*
X140501713Y-101740533D01*
X136753504Y-108354819D02*
X136753504Y-109164342D01*
X136753504Y-109164342D02*
X136705885Y-109259580D01*
X136705885Y-109259580D02*
X136658266Y-109307200D01*
X136658266Y-109307200D02*
X136563028Y-109354819D01*
X136563028Y-109354819D02*
X136372552Y-109354819D01*
X136372552Y-109354819D02*
X136277314Y-109307200D01*
X136277314Y-109307200D02*
X136229695Y-109259580D01*
X136229695Y-109259580D02*
X136182076Y-109164342D01*
X136182076Y-109164342D02*
X136182076Y-108354819D01*
X135753504Y-108450057D02*
X135705885Y-108402438D01*
X135705885Y-108402438D02*
X135610647Y-108354819D01*
X135610647Y-108354819D02*
X135372552Y-108354819D01*
X135372552Y-108354819D02*
X135277314Y-108402438D01*
X135277314Y-108402438D02*
X135229695Y-108450057D01*
X135229695Y-108450057D02*
X135182076Y-108545295D01*
X135182076Y-108545295D02*
X135182076Y-108640533D01*
X135182076Y-108640533D02*
X135229695Y-108783390D01*
X135229695Y-108783390D02*
X135801123Y-109354819D01*
X135801123Y-109354819D02*
X135182076Y-109354819D01*
X135347388Y-111859303D02*
X135395007Y-111906923D01*
X135395007Y-111906923D02*
X135537864Y-111954542D01*
X135537864Y-111954542D02*
X135633102Y-111954542D01*
X135633102Y-111954542D02*
X135775959Y-111906923D01*
X135775959Y-111906923D02*
X135871197Y-111811684D01*
X135871197Y-111811684D02*
X135918816Y-111716446D01*
X135918816Y-111716446D02*
X135966435Y-111525970D01*
X135966435Y-111525970D02*
X135966435Y-111383113D01*
X135966435Y-111383113D02*
X135918816Y-111192637D01*
X135918816Y-111192637D02*
X135871197Y-111097399D01*
X135871197Y-111097399D02*
X135775959Y-111002161D01*
X135775959Y-111002161D02*
X135633102Y-110954542D01*
X135633102Y-110954542D02*
X135537864Y-110954542D01*
X135537864Y-110954542D02*
X135395007Y-111002161D01*
X135395007Y-111002161D02*
X135347388Y-111049780D01*
X134395007Y-111954542D02*
X134966435Y-111954542D01*
X134680721Y-111954542D02*
X134680721Y-110954542D01*
X134680721Y-110954542D02*
X134775959Y-111097399D01*
X134775959Y-111097399D02*
X134871197Y-111192637D01*
X134871197Y-111192637D02*
X134966435Y-111240256D01*
X167261904Y-100254819D02*
X167261904Y-101064342D01*
X167261904Y-101064342D02*
X167214285Y-101159580D01*
X167214285Y-101159580D02*
X167166666Y-101207200D01*
X167166666Y-101207200D02*
X167071428Y-101254819D01*
X167071428Y-101254819D02*
X166880952Y-101254819D01*
X166880952Y-101254819D02*
X166785714Y-101207200D01*
X166785714Y-101207200D02*
X166738095Y-101159580D01*
X166738095Y-101159580D02*
X166690476Y-101064342D01*
X166690476Y-101064342D02*
X166690476Y-100254819D01*
X166309523Y-100254819D02*
X165690476Y-100254819D01*
X165690476Y-100254819D02*
X166023809Y-100635771D01*
X166023809Y-100635771D02*
X165880952Y-100635771D01*
X165880952Y-100635771D02*
X165785714Y-100683390D01*
X165785714Y-100683390D02*
X165738095Y-100731009D01*
X165738095Y-100731009D02*
X165690476Y-100826247D01*
X165690476Y-100826247D02*
X165690476Y-101064342D01*
X165690476Y-101064342D02*
X165738095Y-101159580D01*
X165738095Y-101159580D02*
X165785714Y-101207200D01*
X165785714Y-101207200D02*
X165880952Y-101254819D01*
X165880952Y-101254819D02*
X166166666Y-101254819D01*
X166166666Y-101254819D02*
X166261904Y-101207200D01*
X166261904Y-101207200D02*
X166309523Y-101159580D01*
X143727323Y-105458419D02*
X143727323Y-104458419D01*
X143727323Y-104458419D02*
X143393990Y-105172704D01*
X143393990Y-105172704D02*
X143060657Y-104458419D01*
X143060657Y-104458419D02*
X143060657Y-105458419D01*
X142584466Y-105458419D02*
X142584466Y-104458419D01*
X142013038Y-105458419D02*
X142441609Y-104886990D01*
X142013038Y-104458419D02*
X142584466Y-105029847D01*
X141060657Y-105458419D02*
X141632085Y-105458419D01*
X141346371Y-105458419D02*
X141346371Y-104458419D01*
X141346371Y-104458419D02*
X141441609Y-104601276D01*
X141441609Y-104601276D02*
X141536847Y-104696514D01*
X141536847Y-104696514D02*
X141632085Y-104744133D01*
X173666666Y-104459580D02*
X173714285Y-104507200D01*
X173714285Y-104507200D02*
X173857142Y-104554819D01*
X173857142Y-104554819D02*
X173952380Y-104554819D01*
X173952380Y-104554819D02*
X174095237Y-104507200D01*
X174095237Y-104507200D02*
X174190475Y-104411961D01*
X174190475Y-104411961D02*
X174238094Y-104316723D01*
X174238094Y-104316723D02*
X174285713Y-104126247D01*
X174285713Y-104126247D02*
X174285713Y-103983390D01*
X174285713Y-103983390D02*
X174238094Y-103792914D01*
X174238094Y-103792914D02*
X174190475Y-103697676D01*
X174190475Y-103697676D02*
X174095237Y-103602438D01*
X174095237Y-103602438D02*
X173952380Y-103554819D01*
X173952380Y-103554819D02*
X173857142Y-103554819D01*
X173857142Y-103554819D02*
X173714285Y-103602438D01*
X173714285Y-103602438D02*
X173666666Y-103650057D01*
X172809523Y-103554819D02*
X172999999Y-103554819D01*
X172999999Y-103554819D02*
X173095237Y-103602438D01*
X173095237Y-103602438D02*
X173142856Y-103650057D01*
X173142856Y-103650057D02*
X173238094Y-103792914D01*
X173238094Y-103792914D02*
X173285713Y-103983390D01*
X173285713Y-103983390D02*
X173285713Y-104364342D01*
X173285713Y-104364342D02*
X173238094Y-104459580D01*
X173238094Y-104459580D02*
X173190475Y-104507200D01*
X173190475Y-104507200D02*
X173095237Y-104554819D01*
X173095237Y-104554819D02*
X172904761Y-104554819D01*
X172904761Y-104554819D02*
X172809523Y-104507200D01*
X172809523Y-104507200D02*
X172761904Y-104459580D01*
X172761904Y-104459580D02*
X172714285Y-104364342D01*
X172714285Y-104364342D02*
X172714285Y-104126247D01*
X172714285Y-104126247D02*
X172761904Y-104031009D01*
X172761904Y-104031009D02*
X172809523Y-103983390D01*
X172809523Y-103983390D02*
X172904761Y-103935771D01*
X172904761Y-103935771D02*
X173095237Y-103935771D01*
X173095237Y-103935771D02*
X173190475Y-103983390D01*
X173190475Y-103983390D02*
X173238094Y-104031009D01*
X173238094Y-104031009D02*
X173285713Y-104126247D01*
D11*
%TO.C,C5*%
X162840000Y-104492165D02*
X162839999Y-104707837D01*
X163560001Y-104492163D02*
X163560000Y-104707835D01*
%TO.C,C4*%
X155239998Y-103267836D02*
X155240000Y-103052163D01*
X155960000Y-103267837D02*
X155960002Y-103052164D01*
%TO.C,C3*%
X136819998Y-103267836D02*
X136820000Y-103052163D01*
X137540000Y-103267837D02*
X137540002Y-103052164D01*
%TO.C,MK2*%
X156285000Y-103150000D02*
X156285000Y-106850000D01*
X156285000Y-106850000D02*
X159135000Y-106850000D01*
X158835000Y-103150000D02*
X156285000Y-103150000D01*
X159135000Y-106850000D02*
X159135000Y-103450000D01*
X159415000Y-103150000D02*
X159135000Y-103150000D01*
X159135000Y-102870000D01*
X159415000Y-103150000D01*
G36*
X159415000Y-103150000D02*
G01*
X159135000Y-103150000D01*
X159135000Y-102870000D01*
X159415000Y-103150000D01*
G37*
%TO.C,R2*%
X170976359Y-104650000D02*
X171283640Y-104650001D01*
X170976360Y-105409999D02*
X171283641Y-105410000D01*
%TO.C,C2*%
X133407836Y-105940000D02*
X133192164Y-105940000D01*
X133407836Y-106660000D02*
X133192164Y-106660000D01*
%TO.C,R1*%
X138920001Y-102153640D02*
X138920000Y-101846359D01*
X139680000Y-102153641D02*
X139679999Y-101846360D01*
%TO.C,U2*%
X131740000Y-108900001D02*
X131740000Y-108099999D01*
X131740000Y-108900001D02*
X131740000Y-109699999D01*
X134860000Y-108899999D02*
X134860000Y-108100001D01*
X134860000Y-108899999D02*
X134860000Y-109700001D01*
X135140000Y-110440000D02*
X134810001Y-110200000D01*
X135140000Y-109960000D01*
X135140000Y-110440000D01*
G36*
X135140000Y-110440000D02*
G01*
X134810001Y-110200000D01*
X135140000Y-109960000D01*
X135140000Y-110440000D01*
G37*
%TO.C,C1*%
X133407836Y-111140000D02*
X133192164Y-111140000D01*
X133407836Y-111860000D02*
X133192164Y-111860000D01*
%TO.C,U3*%
X165500000Y-102140000D02*
X167300000Y-102140000D01*
X165510000Y-106460000D02*
X167510000Y-106460000D01*
X168100000Y-102140000D02*
X167620000Y-102140000D01*
X167620000Y-101660000D01*
X168100000Y-102140000D01*
G36*
X168100000Y-102140000D02*
G01*
X167620000Y-102140000D01*
X167620000Y-101660000D01*
X168100000Y-102140000D01*
G37*
%TO.C,MK1*%
X137865000Y-103150000D02*
X137865000Y-106850000D01*
X137865000Y-106850000D02*
X140715000Y-106850000D01*
X140415000Y-103150000D02*
X137865000Y-103150000D01*
X140715000Y-106850000D02*
X140715000Y-103450000D01*
X140995000Y-103150000D02*
X140715000Y-103150000D01*
X140715000Y-102870000D01*
X140995000Y-103150000D01*
G36*
X140995000Y-103150000D02*
G01*
X140715000Y-103150000D01*
X140715000Y-102870000D01*
X140995000Y-103150000D01*
G37*
%TO.C,C6*%
X171012163Y-104460002D02*
X171227836Y-104459999D01*
X171012164Y-103740001D02*
X171227837Y-103739998D01*
%TD*%
M02*
