%TF.GenerationSoftware,KiCad,Pcbnew,9.0.1*%
%TF.CreationDate,2025-07-30T00:23:41-04:00*%
%TF.ProjectId,T5848,54353834-382e-46b6-9963-61645f706362,rev?*%
%TF.SameCoordinates,Original*%
%TF.FileFunction,Other,User*%
%FSLAX46Y46*%
G04 Gerber Fmt 4.6, Leading zero omitted, Abs format (unit mm)*
G04 Created by KiCad (PCBNEW 9.0.1) date 2025-07-30 00:23:41*
%MOMM*%
%LPD*%
G01*
G04 APERTURE LIST*
%ADD10C,0.050000*%
G04 APERTURE END LIST*
D10*
%TO.C,C5*%
X162740000Y-103690000D02*
X162740000Y-105510000D01*
X162740000Y-105510000D02*
X163660000Y-105510000D01*
X163660000Y-103690000D02*
X162740000Y-103690000D01*
X163660000Y-105510000D02*
X163660000Y-103690000D01*
%TO.C,C4*%
X155140000Y-102250000D02*
X155140000Y-104070000D01*
X155140000Y-104070000D02*
X156060000Y-104070000D01*
X156060000Y-102250000D02*
X155140000Y-102250000D01*
X156060000Y-104070000D02*
X156060000Y-102250000D01*
%TO.C,C3*%
X136720000Y-102250000D02*
X136720000Y-104070000D01*
X136720000Y-104070000D02*
X137640000Y-104070000D01*
X137640000Y-102250000D02*
X136720000Y-102250000D01*
X137640000Y-104070000D02*
X137640000Y-102250000D01*
%TO.C,MK2*%
X159290000Y-103000000D02*
X156130000Y-103000000D01*
X156130000Y-107000000D01*
X159290000Y-107000000D01*
X159290000Y-103000000D01*
%TO.C,R2*%
X170199998Y-105500001D02*
X172059998Y-105500000D01*
X170200002Y-104560000D02*
X170199998Y-105500001D01*
X172059998Y-105500000D02*
X172060002Y-104559999D01*
X172060002Y-104559999D02*
X170200002Y-104560000D01*
%TO.C,J1*%
X131480000Y-113390000D02*
X173139999Y-113390002D01*
X131480000Y-116930000D02*
X131480000Y-113390000D01*
X173139999Y-113390002D02*
X173140000Y-116929999D01*
X173140000Y-116929999D02*
X131480000Y-116930000D01*
%TO.C,C2*%
X132390000Y-105840000D02*
X132390000Y-106760000D01*
X132390000Y-106760000D02*
X134210000Y-106760000D01*
X134210000Y-105840000D02*
X132390000Y-105840000D01*
X134210000Y-106760000D02*
X134210000Y-105840000D01*
%TO.C,R1*%
X138829999Y-102930001D02*
X139770000Y-102929999D01*
X138830000Y-101070001D02*
X138829999Y-102930001D01*
X139770000Y-102929999D02*
X139770001Y-101069999D01*
X139770001Y-101069999D02*
X138830000Y-101070001D01*
%TO.C,U2*%
X131600000Y-107850001D02*
X131600000Y-109950001D01*
X131600000Y-109950001D02*
X131800000Y-109949999D01*
X131799999Y-107849999D02*
X131600000Y-107850001D01*
X131800000Y-106850000D02*
X131799999Y-107849999D01*
X131800000Y-109949999D02*
X131800000Y-110950000D01*
X131800000Y-110950000D02*
X134800000Y-110950000D01*
X134800000Y-106850000D02*
X131800000Y-106850000D01*
X134800000Y-107850001D02*
X134800000Y-106850000D01*
X134800000Y-110950000D02*
X134800001Y-109950001D01*
X134800001Y-109950001D02*
X135000000Y-109949999D01*
X135000000Y-107849999D02*
X134800000Y-107850001D01*
X135000000Y-109949999D02*
X135000000Y-107849999D01*
%TO.C,C1*%
X132390000Y-111040000D02*
X132390000Y-111960000D01*
X132390000Y-111960000D02*
X134210000Y-111960000D01*
X134210000Y-111040000D02*
X132390000Y-111040000D01*
X134210000Y-111960000D02*
X134210000Y-111040000D01*
%TO.C,U3*%
X164850000Y-102050000D02*
X164850000Y-106550000D01*
X164850000Y-106550000D02*
X168150000Y-106550000D01*
X168150000Y-102050000D02*
X164850000Y-102050000D01*
X168150000Y-106550000D02*
X168150000Y-102050000D01*
%TO.C,MK1*%
X140870000Y-103000000D02*
X137710000Y-103000000D01*
X137710000Y-107000000D01*
X140870000Y-107000000D01*
X140870000Y-103000000D01*
%TO.C,J2*%
X141650000Y-93070000D02*
X173130000Y-93069999D01*
X141650000Y-96610000D02*
X141650000Y-93070000D01*
X173130000Y-93069999D02*
X173130000Y-96610001D01*
X173130000Y-96610001D02*
X141650000Y-96610000D01*
%TO.C,C6*%
X170210000Y-103640000D02*
X170210000Y-104560000D01*
X170210000Y-104560000D02*
X172030000Y-104560000D01*
X172030000Y-103640000D02*
X170210000Y-103640000D01*
X172030000Y-104560000D02*
X172030000Y-103640000D01*
%TD*%
M02*
