%TF.GenerationSoftware,KiCad,Pcbnew,9.0.1*%
%TF.CreationDate,2025-07-30T00:23:41-04:00*%
%TF.ProjectId,T5848,54353834-382e-46b6-9963-61645f706362,rev?*%
%TF.SameCoordinates,Original*%
%TF.FileFunction,AssemblyDrawing,Bot*%
%FSLAX46Y46*%
G04 Gerber Fmt 4.6, Leading zero omitted, Abs format (unit mm)*
G04 Created by KiCad (PCBNEW 9.0.1) date 2025-07-30 00:23:41*
%MOMM*%
%LPD*%
G01*
G04 APERTURE LIST*
%ADD10C,0.150000*%
%ADD11C,0.040000*%
%ADD12C,0.130000*%
%ADD13C,0.060000*%
%ADD14C,0.100000*%
G04 APERTURE END LIST*
D10*
X164814819Y-104004761D02*
X164814819Y-103433333D01*
X164814819Y-103719047D02*
X163814819Y-103719047D01*
X163814819Y-103719047D02*
X163957676Y-103623809D01*
X163957676Y-103623809D02*
X164052914Y-103528571D01*
X164052914Y-103528571D02*
X164100533Y-103433333D01*
X164148152Y-104861904D02*
X164814819Y-104861904D01*
X164148152Y-104433333D02*
X164671961Y-104433333D01*
X164671961Y-104433333D02*
X164767200Y-104480952D01*
X164767200Y-104480952D02*
X164814819Y-104576190D01*
X164814819Y-104576190D02*
X164814819Y-104719047D01*
X164814819Y-104719047D02*
X164767200Y-104814285D01*
X164767200Y-104814285D02*
X164719580Y-104861904D01*
X164291009Y-105671428D02*
X164291009Y-105338095D01*
X164814819Y-105338095D02*
X163814819Y-105338095D01*
X163814819Y-105338095D02*
X163814819Y-105814285D01*
D11*
X163289765Y-104558333D02*
X163301670Y-104546429D01*
X163301670Y-104546429D02*
X163313574Y-104510714D01*
X163313574Y-104510714D02*
X163313574Y-104486905D01*
X163313574Y-104486905D02*
X163301670Y-104451191D01*
X163301670Y-104451191D02*
X163277860Y-104427381D01*
X163277860Y-104427381D02*
X163254050Y-104415476D01*
X163254050Y-104415476D02*
X163206431Y-104403572D01*
X163206431Y-104403572D02*
X163170717Y-104403572D01*
X163170717Y-104403572D02*
X163123098Y-104415476D01*
X163123098Y-104415476D02*
X163099289Y-104427381D01*
X163099289Y-104427381D02*
X163075479Y-104451191D01*
X163075479Y-104451191D02*
X163063574Y-104486905D01*
X163063574Y-104486905D02*
X163063574Y-104510714D01*
X163063574Y-104510714D02*
X163075479Y-104546429D01*
X163075479Y-104546429D02*
X163087384Y-104558333D01*
X163063574Y-104784524D02*
X163063574Y-104665476D01*
X163063574Y-104665476D02*
X163182622Y-104653572D01*
X163182622Y-104653572D02*
X163170717Y-104665476D01*
X163170717Y-104665476D02*
X163158812Y-104689286D01*
X163158812Y-104689286D02*
X163158812Y-104748810D01*
X163158812Y-104748810D02*
X163170717Y-104772619D01*
X163170717Y-104772619D02*
X163182622Y-104784524D01*
X163182622Y-104784524D02*
X163206431Y-104796429D01*
X163206431Y-104796429D02*
X163265955Y-104796429D01*
X163265955Y-104796429D02*
X163289765Y-104784524D01*
X163289765Y-104784524D02*
X163301670Y-104772619D01*
X163301670Y-104772619D02*
X163313574Y-104748810D01*
X163313574Y-104748810D02*
X163313574Y-104689286D01*
X163313574Y-104689286D02*
X163301670Y-104665476D01*
X163301670Y-104665476D02*
X163289765Y-104653572D01*
D10*
X154894819Y-102564761D02*
X154894819Y-101993333D01*
X154894819Y-102279047D02*
X153894819Y-102279047D01*
X153894819Y-102279047D02*
X154037676Y-102183809D01*
X154037676Y-102183809D02*
X154132914Y-102088571D01*
X154132914Y-102088571D02*
X154180533Y-101993333D01*
X154228152Y-103421904D02*
X154894819Y-103421904D01*
X154228152Y-102993333D02*
X154751961Y-102993333D01*
X154751961Y-102993333D02*
X154847200Y-103040952D01*
X154847200Y-103040952D02*
X154894819Y-103136190D01*
X154894819Y-103136190D02*
X154894819Y-103279047D01*
X154894819Y-103279047D02*
X154847200Y-103374285D01*
X154847200Y-103374285D02*
X154799580Y-103421904D01*
X154371009Y-104231428D02*
X154371009Y-103898095D01*
X154894819Y-103898095D02*
X153894819Y-103898095D01*
X153894819Y-103898095D02*
X153894819Y-104374285D01*
D11*
X155689765Y-103118333D02*
X155701670Y-103106429D01*
X155701670Y-103106429D02*
X155713574Y-103070714D01*
X155713574Y-103070714D02*
X155713574Y-103046905D01*
X155713574Y-103046905D02*
X155701670Y-103011191D01*
X155701670Y-103011191D02*
X155677860Y-102987381D01*
X155677860Y-102987381D02*
X155654050Y-102975476D01*
X155654050Y-102975476D02*
X155606431Y-102963572D01*
X155606431Y-102963572D02*
X155570717Y-102963572D01*
X155570717Y-102963572D02*
X155523098Y-102975476D01*
X155523098Y-102975476D02*
X155499289Y-102987381D01*
X155499289Y-102987381D02*
X155475479Y-103011191D01*
X155475479Y-103011191D02*
X155463574Y-103046905D01*
X155463574Y-103046905D02*
X155463574Y-103070714D01*
X155463574Y-103070714D02*
X155475479Y-103106429D01*
X155475479Y-103106429D02*
X155487384Y-103118333D01*
X155546908Y-103332619D02*
X155713574Y-103332619D01*
X155451670Y-103273095D02*
X155630241Y-103213572D01*
X155630241Y-103213572D02*
X155630241Y-103368333D01*
D10*
X136474819Y-102564761D02*
X136474819Y-101993333D01*
X136474819Y-102279047D02*
X135474819Y-102279047D01*
X135474819Y-102279047D02*
X135617676Y-102183809D01*
X135617676Y-102183809D02*
X135712914Y-102088571D01*
X135712914Y-102088571D02*
X135760533Y-101993333D01*
X135808152Y-103421904D02*
X136474819Y-103421904D01*
X135808152Y-102993333D02*
X136331961Y-102993333D01*
X136331961Y-102993333D02*
X136427200Y-103040952D01*
X136427200Y-103040952D02*
X136474819Y-103136190D01*
X136474819Y-103136190D02*
X136474819Y-103279047D01*
X136474819Y-103279047D02*
X136427200Y-103374285D01*
X136427200Y-103374285D02*
X136379580Y-103421904D01*
X135951009Y-104231428D02*
X135951009Y-103898095D01*
X136474819Y-103898095D02*
X135474819Y-103898095D01*
X135474819Y-103898095D02*
X135474819Y-104374285D01*
D11*
X137269765Y-103118333D02*
X137281670Y-103106429D01*
X137281670Y-103106429D02*
X137293574Y-103070714D01*
X137293574Y-103070714D02*
X137293574Y-103046905D01*
X137293574Y-103046905D02*
X137281670Y-103011191D01*
X137281670Y-103011191D02*
X137257860Y-102987381D01*
X137257860Y-102987381D02*
X137234050Y-102975476D01*
X137234050Y-102975476D02*
X137186431Y-102963572D01*
X137186431Y-102963572D02*
X137150717Y-102963572D01*
X137150717Y-102963572D02*
X137103098Y-102975476D01*
X137103098Y-102975476D02*
X137079289Y-102987381D01*
X137079289Y-102987381D02*
X137055479Y-103011191D01*
X137055479Y-103011191D02*
X137043574Y-103046905D01*
X137043574Y-103046905D02*
X137043574Y-103070714D01*
X137043574Y-103070714D02*
X137055479Y-103106429D01*
X137055479Y-103106429D02*
X137067384Y-103118333D01*
X137043574Y-103201667D02*
X137043574Y-103356429D01*
X137043574Y-103356429D02*
X137138812Y-103273095D01*
X137138812Y-103273095D02*
X137138812Y-103308810D01*
X137138812Y-103308810D02*
X137150717Y-103332619D01*
X137150717Y-103332619D02*
X137162622Y-103344524D01*
X137162622Y-103344524D02*
X137186431Y-103356429D01*
X137186431Y-103356429D02*
X137245955Y-103356429D01*
X137245955Y-103356429D02*
X137269765Y-103344524D01*
X137269765Y-103344524D02*
X137281670Y-103332619D01*
X137281670Y-103332619D02*
X137293574Y-103308810D01*
X137293574Y-103308810D02*
X137293574Y-103237381D01*
X137293574Y-103237381D02*
X137281670Y-103213572D01*
X137281670Y-103213572D02*
X137269765Y-103201667D01*
D10*
X159900475Y-107354819D02*
X159329047Y-107354819D01*
X159614761Y-108354819D02*
X159614761Y-107354819D01*
X158519523Y-107354819D02*
X158995713Y-107354819D01*
X158995713Y-107354819D02*
X159043332Y-107831009D01*
X159043332Y-107831009D02*
X158995713Y-107783390D01*
X158995713Y-107783390D02*
X158900475Y-107735771D01*
X158900475Y-107735771D02*
X158662380Y-107735771D01*
X158662380Y-107735771D02*
X158567142Y-107783390D01*
X158567142Y-107783390D02*
X158519523Y-107831009D01*
X158519523Y-107831009D02*
X158471904Y-107926247D01*
X158471904Y-107926247D02*
X158471904Y-108164342D01*
X158471904Y-108164342D02*
X158519523Y-108259580D01*
X158519523Y-108259580D02*
X158567142Y-108307200D01*
X158567142Y-108307200D02*
X158662380Y-108354819D01*
X158662380Y-108354819D02*
X158900475Y-108354819D01*
X158900475Y-108354819D02*
X158995713Y-108307200D01*
X158995713Y-108307200D02*
X159043332Y-108259580D01*
X157900475Y-107783390D02*
X157995713Y-107735771D01*
X157995713Y-107735771D02*
X158043332Y-107688152D01*
X158043332Y-107688152D02*
X158090951Y-107592914D01*
X158090951Y-107592914D02*
X158090951Y-107545295D01*
X158090951Y-107545295D02*
X158043332Y-107450057D01*
X158043332Y-107450057D02*
X157995713Y-107402438D01*
X157995713Y-107402438D02*
X157900475Y-107354819D01*
X157900475Y-107354819D02*
X157709999Y-107354819D01*
X157709999Y-107354819D02*
X157614761Y-107402438D01*
X157614761Y-107402438D02*
X157567142Y-107450057D01*
X157567142Y-107450057D02*
X157519523Y-107545295D01*
X157519523Y-107545295D02*
X157519523Y-107592914D01*
X157519523Y-107592914D02*
X157567142Y-107688152D01*
X157567142Y-107688152D02*
X157614761Y-107735771D01*
X157614761Y-107735771D02*
X157709999Y-107783390D01*
X157709999Y-107783390D02*
X157900475Y-107783390D01*
X157900475Y-107783390D02*
X157995713Y-107831009D01*
X157995713Y-107831009D02*
X158043332Y-107878628D01*
X158043332Y-107878628D02*
X158090951Y-107973866D01*
X158090951Y-107973866D02*
X158090951Y-108164342D01*
X158090951Y-108164342D02*
X158043332Y-108259580D01*
X158043332Y-108259580D02*
X157995713Y-108307200D01*
X157995713Y-108307200D02*
X157900475Y-108354819D01*
X157900475Y-108354819D02*
X157709999Y-108354819D01*
X157709999Y-108354819D02*
X157614761Y-108307200D01*
X157614761Y-108307200D02*
X157567142Y-108259580D01*
X157567142Y-108259580D02*
X157519523Y-108164342D01*
X157519523Y-108164342D02*
X157519523Y-107973866D01*
X157519523Y-107973866D02*
X157567142Y-107878628D01*
X157567142Y-107878628D02*
X157614761Y-107831009D01*
X157614761Y-107831009D02*
X157709999Y-107783390D01*
X156662380Y-107688152D02*
X156662380Y-108354819D01*
X156900475Y-107307200D02*
X157138570Y-108021485D01*
X157138570Y-108021485D02*
X156519523Y-108021485D01*
X155995713Y-107783390D02*
X156090951Y-107735771D01*
X156090951Y-107735771D02*
X156138570Y-107688152D01*
X156138570Y-107688152D02*
X156186189Y-107592914D01*
X156186189Y-107592914D02*
X156186189Y-107545295D01*
X156186189Y-107545295D02*
X156138570Y-107450057D01*
X156138570Y-107450057D02*
X156090951Y-107402438D01*
X156090951Y-107402438D02*
X155995713Y-107354819D01*
X155995713Y-107354819D02*
X155805237Y-107354819D01*
X155805237Y-107354819D02*
X155709999Y-107402438D01*
X155709999Y-107402438D02*
X155662380Y-107450057D01*
X155662380Y-107450057D02*
X155614761Y-107545295D01*
X155614761Y-107545295D02*
X155614761Y-107592914D01*
X155614761Y-107592914D02*
X155662380Y-107688152D01*
X155662380Y-107688152D02*
X155709999Y-107735771D01*
X155709999Y-107735771D02*
X155805237Y-107783390D01*
X155805237Y-107783390D02*
X155995713Y-107783390D01*
X155995713Y-107783390D02*
X156090951Y-107831009D01*
X156090951Y-107831009D02*
X156138570Y-107878628D01*
X156138570Y-107878628D02*
X156186189Y-107973866D01*
X156186189Y-107973866D02*
X156186189Y-108164342D01*
X156186189Y-108164342D02*
X156138570Y-108259580D01*
X156138570Y-108259580D02*
X156090951Y-108307200D01*
X156090951Y-108307200D02*
X155995713Y-108354819D01*
X155995713Y-108354819D02*
X155805237Y-108354819D01*
X155805237Y-108354819D02*
X155709999Y-108307200D01*
X155709999Y-108307200D02*
X155662380Y-108259580D01*
X155662380Y-108259580D02*
X155614761Y-108164342D01*
X155614761Y-108164342D02*
X155614761Y-107973866D01*
X155614761Y-107973866D02*
X155662380Y-107878628D01*
X155662380Y-107878628D02*
X155709999Y-107831009D01*
X155709999Y-107831009D02*
X155805237Y-107783390D01*
D12*
X157346664Y-106057618D02*
X158146664Y-106057618D01*
X158146664Y-106057618D02*
X157575236Y-105790952D01*
X157575236Y-105790952D02*
X158146664Y-105524285D01*
X158146664Y-105524285D02*
X157346664Y-105524285D01*
X157346664Y-105143332D02*
X158146664Y-105143332D01*
X157346664Y-104686189D02*
X157803807Y-105029047D01*
X158146664Y-104686189D02*
X157689521Y-105143332D01*
X158070474Y-104381428D02*
X158108569Y-104343332D01*
X158108569Y-104343332D02*
X158146664Y-104267142D01*
X158146664Y-104267142D02*
X158146664Y-104076666D01*
X158146664Y-104076666D02*
X158108569Y-104000475D01*
X158108569Y-104000475D02*
X158070474Y-103962380D01*
X158070474Y-103962380D02*
X157994283Y-103924285D01*
X157994283Y-103924285D02*
X157918093Y-103924285D01*
X157918093Y-103924285D02*
X157803807Y-103962380D01*
X157803807Y-103962380D02*
X157346664Y-104419523D01*
X157346664Y-104419523D02*
X157346664Y-103924285D01*
D10*
X171915714Y-104314819D02*
X172487142Y-104314819D01*
X172201428Y-104314819D02*
X172201428Y-103314819D01*
X172201428Y-103314819D02*
X172296666Y-103457676D01*
X172296666Y-103457676D02*
X172391904Y-103552914D01*
X172391904Y-103552914D02*
X172487142Y-103600533D01*
X171487142Y-104314819D02*
X171487142Y-103314819D01*
X171487142Y-103314819D02*
X171153809Y-104029104D01*
X171153809Y-104029104D02*
X170820476Y-103314819D01*
X170820476Y-103314819D02*
X170820476Y-104314819D01*
X169772857Y-104314819D02*
X170106190Y-103838628D01*
X170344285Y-104314819D02*
X170344285Y-103314819D01*
X170344285Y-103314819D02*
X169963333Y-103314819D01*
X169963333Y-103314819D02*
X169868095Y-103362438D01*
X169868095Y-103362438D02*
X169820476Y-103410057D01*
X169820476Y-103410057D02*
X169772857Y-103505295D01*
X169772857Y-103505295D02*
X169772857Y-103648152D01*
X169772857Y-103648152D02*
X169820476Y-103743390D01*
X169820476Y-103743390D02*
X169868095Y-103791009D01*
X169868095Y-103791009D02*
X169963333Y-103838628D01*
X169963333Y-103838628D02*
X170344285Y-103838628D01*
D11*
X171173332Y-105148200D02*
X171259999Y-105024391D01*
X171321904Y-105148200D02*
X171321904Y-104888200D01*
X171321904Y-104888200D02*
X171222856Y-104888200D01*
X171222856Y-104888200D02*
X171198094Y-104900581D01*
X171198094Y-104900581D02*
X171185713Y-104912962D01*
X171185713Y-104912962D02*
X171173332Y-104937724D01*
X171173332Y-104937724D02*
X171173332Y-104974867D01*
X171173332Y-104974867D02*
X171185713Y-104999629D01*
X171185713Y-104999629D02*
X171198094Y-105012010D01*
X171198094Y-105012010D02*
X171222856Y-105024391D01*
X171222856Y-105024391D02*
X171321904Y-105024391D01*
X171074285Y-104912962D02*
X171061904Y-104900581D01*
X171061904Y-104900581D02*
X171037142Y-104888200D01*
X171037142Y-104888200D02*
X170975237Y-104888200D01*
X170975237Y-104888200D02*
X170950475Y-104900581D01*
X170950475Y-104900581D02*
X170938094Y-104912962D01*
X170938094Y-104912962D02*
X170925713Y-104937724D01*
X170925713Y-104937724D02*
X170925713Y-104962486D01*
X170925713Y-104962486D02*
X170938094Y-104999629D01*
X170938094Y-104999629D02*
X171086666Y-105148200D01*
X171086666Y-105148200D02*
X170925713Y-105148200D01*
D10*
X174099579Y-109850475D02*
X174147199Y-109802856D01*
X174147199Y-109802856D02*
X174194818Y-109659999D01*
X174194818Y-109659999D02*
X174194818Y-109564761D01*
X174194818Y-109564761D02*
X174147199Y-109421904D01*
X174147199Y-109421904D02*
X174051960Y-109326666D01*
X174051960Y-109326666D02*
X173956722Y-109279047D01*
X173956722Y-109279047D02*
X173766246Y-109231428D01*
X173766246Y-109231428D02*
X173623389Y-109231428D01*
X173623389Y-109231428D02*
X173432913Y-109279047D01*
X173432913Y-109279047D02*
X173337675Y-109326666D01*
X173337675Y-109326666D02*
X173242437Y-109421904D01*
X173242437Y-109421904D02*
X173194818Y-109564761D01*
X173194818Y-109564761D02*
X173194818Y-109659999D01*
X173194818Y-109659999D02*
X173242437Y-109802856D01*
X173242437Y-109802856D02*
X173290056Y-109850475D01*
X174194818Y-110421904D02*
X174147199Y-110326666D01*
X174147199Y-110326666D02*
X174099579Y-110279047D01*
X174099579Y-110279047D02*
X174004341Y-110231428D01*
X174004341Y-110231428D02*
X173718627Y-110231428D01*
X173718627Y-110231428D02*
X173623389Y-110279047D01*
X173623389Y-110279047D02*
X173575770Y-110326666D01*
X173575770Y-110326666D02*
X173528151Y-110421904D01*
X173528151Y-110421904D02*
X173528151Y-110564761D01*
X173528151Y-110564761D02*
X173575770Y-110659999D01*
X173575770Y-110659999D02*
X173623389Y-110707618D01*
X173623389Y-110707618D02*
X173718627Y-110755237D01*
X173718627Y-110755237D02*
X174004341Y-110755237D01*
X174004341Y-110755237D02*
X174099579Y-110707618D01*
X174099579Y-110707618D02*
X174147199Y-110659999D01*
X174147199Y-110659999D02*
X174194818Y-110564761D01*
X174194818Y-110564761D02*
X174194818Y-110421904D01*
X173528151Y-111183809D02*
X174194818Y-111183809D01*
X173623389Y-111183809D02*
X173575770Y-111231428D01*
X173575770Y-111231428D02*
X173528151Y-111326666D01*
X173528151Y-111326666D02*
X173528151Y-111469523D01*
X173528151Y-111469523D02*
X173575770Y-111564761D01*
X173575770Y-111564761D02*
X173671008Y-111612380D01*
X173671008Y-111612380D02*
X174194818Y-111612380D01*
X173528151Y-112088571D02*
X174194818Y-112088571D01*
X173623389Y-112088571D02*
X173575770Y-112136190D01*
X173575770Y-112136190D02*
X173528151Y-112231428D01*
X173528151Y-112231428D02*
X173528151Y-112374285D01*
X173528151Y-112374285D02*
X173575770Y-112469523D01*
X173575770Y-112469523D02*
X173671008Y-112517142D01*
X173671008Y-112517142D02*
X174194818Y-112517142D01*
X174290056Y-112755238D02*
X174290056Y-113517142D01*
X173194818Y-113945714D02*
X173194818Y-114040952D01*
X173194818Y-114040952D02*
X173242437Y-114136190D01*
X173242437Y-114136190D02*
X173290056Y-114183809D01*
X173290056Y-114183809D02*
X173385294Y-114231428D01*
X173385294Y-114231428D02*
X173575770Y-114279047D01*
X173575770Y-114279047D02*
X173813865Y-114279047D01*
X173813865Y-114279047D02*
X174004341Y-114231428D01*
X174004341Y-114231428D02*
X174099579Y-114183809D01*
X174099579Y-114183809D02*
X174147199Y-114136190D01*
X174147199Y-114136190D02*
X174194818Y-114040952D01*
X174194818Y-114040952D02*
X174194818Y-113945714D01*
X174194818Y-113945714D02*
X174147199Y-113850476D01*
X174147199Y-113850476D02*
X174099579Y-113802857D01*
X174099579Y-113802857D02*
X174004341Y-113755238D01*
X174004341Y-113755238D02*
X173813865Y-113707619D01*
X173813865Y-113707619D02*
X173575770Y-113707619D01*
X173575770Y-113707619D02*
X173385294Y-113755238D01*
X173385294Y-113755238D02*
X173290056Y-113802857D01*
X173290056Y-113802857D02*
X173242437Y-113850476D01*
X173242437Y-113850476D02*
X173194818Y-113945714D01*
X174194818Y-115231428D02*
X174194818Y-114660000D01*
X174194818Y-114945714D02*
X173194818Y-114945714D01*
X173194818Y-114945714D02*
X173337675Y-114850476D01*
X173337675Y-114850476D02*
X173432913Y-114755238D01*
X173432913Y-114755238D02*
X173480532Y-114660000D01*
X174194818Y-115564762D02*
X173528151Y-116088571D01*
X173528151Y-115564762D02*
X174194818Y-116088571D01*
X174194818Y-116993333D02*
X174194818Y-116421905D01*
X174194818Y-116707619D02*
X173194818Y-116707619D01*
X173194818Y-116707619D02*
X173337675Y-116612381D01*
X173337675Y-116612381D02*
X173432913Y-116517143D01*
X173432913Y-116517143D02*
X173480532Y-116421905D01*
X173194818Y-117850476D02*
X173194818Y-117660000D01*
X173194818Y-117660000D02*
X173242437Y-117564762D01*
X173242437Y-117564762D02*
X173290056Y-117517143D01*
X173290056Y-117517143D02*
X173432913Y-117421905D01*
X173432913Y-117421905D02*
X173623389Y-117374286D01*
X173623389Y-117374286D02*
X174004341Y-117374286D01*
X174004341Y-117374286D02*
X174099579Y-117421905D01*
X174099579Y-117421905D02*
X174147199Y-117469524D01*
X174147199Y-117469524D02*
X174194818Y-117564762D01*
X174194818Y-117564762D02*
X174194818Y-117755238D01*
X174194818Y-117755238D02*
X174147199Y-117850476D01*
X174147199Y-117850476D02*
X174099579Y-117898095D01*
X174099579Y-117898095D02*
X174004341Y-117945714D01*
X174004341Y-117945714D02*
X173766246Y-117945714D01*
X173766246Y-117945714D02*
X173671008Y-117898095D01*
X173671008Y-117898095D02*
X173623389Y-117850476D01*
X173623389Y-117850476D02*
X173575770Y-117755238D01*
X173575770Y-117755238D02*
X173575770Y-117564762D01*
X173575770Y-117564762D02*
X173623389Y-117469524D01*
X173623389Y-117469524D02*
X173671008Y-117421905D01*
X173671008Y-117421905D02*
X173766246Y-117374286D01*
X174290056Y-118136191D02*
X174290056Y-118898095D01*
X174194818Y-119136191D02*
X173194818Y-119136191D01*
X173194818Y-119136191D02*
X173194818Y-119517143D01*
X173194818Y-119517143D02*
X173242437Y-119612381D01*
X173242437Y-119612381D02*
X173290056Y-119660000D01*
X173290056Y-119660000D02*
X173385294Y-119707619D01*
X173385294Y-119707619D02*
X173528151Y-119707619D01*
X173528151Y-119707619D02*
X173623389Y-119660000D01*
X173623389Y-119660000D02*
X173671008Y-119612381D01*
X173671008Y-119612381D02*
X173718627Y-119517143D01*
X173718627Y-119517143D02*
X173718627Y-119136191D01*
X174194818Y-120136191D02*
X173528151Y-120136191D01*
X173194818Y-120136191D02*
X173242437Y-120088572D01*
X173242437Y-120088572D02*
X173290056Y-120136191D01*
X173290056Y-120136191D02*
X173242437Y-120183810D01*
X173242437Y-120183810D02*
X173194818Y-120136191D01*
X173194818Y-120136191D02*
X173290056Y-120136191D01*
X173528151Y-120612381D02*
X174194818Y-120612381D01*
X173623389Y-120612381D02*
X173575770Y-120660000D01*
X173575770Y-120660000D02*
X173528151Y-120755238D01*
X173528151Y-120755238D02*
X173528151Y-120898095D01*
X173528151Y-120898095D02*
X173575770Y-120993333D01*
X173575770Y-120993333D02*
X173671008Y-121040952D01*
X173671008Y-121040952D02*
X174194818Y-121040952D01*
X152643333Y-114614819D02*
X152643333Y-115329104D01*
X152643333Y-115329104D02*
X152690952Y-115471961D01*
X152690952Y-115471961D02*
X152786190Y-115567200D01*
X152786190Y-115567200D02*
X152929047Y-115614819D01*
X152929047Y-115614819D02*
X153024285Y-115614819D01*
X151643333Y-115614819D02*
X152214761Y-115614819D01*
X151929047Y-115614819D02*
X151929047Y-114614819D01*
X151929047Y-114614819D02*
X152024285Y-114757676D01*
X152024285Y-114757676D02*
X152119523Y-114852914D01*
X152119523Y-114852914D02*
X152214761Y-114900533D01*
X151424042Y-115115532D02*
X153243576Y-115115532D01*
X133895238Y-107914819D02*
X134466666Y-107914819D01*
X134180952Y-107914819D02*
X134180952Y-106914819D01*
X134180952Y-106914819D02*
X134276190Y-107057676D01*
X134276190Y-107057676D02*
X134371428Y-107152914D01*
X134371428Y-107152914D02*
X134466666Y-107200533D01*
X133038095Y-107248152D02*
X133038095Y-107914819D01*
X133466666Y-107248152D02*
X133466666Y-107771961D01*
X133466666Y-107771961D02*
X133419047Y-107867200D01*
X133419047Y-107867200D02*
X133323809Y-107914819D01*
X133323809Y-107914819D02*
X133180952Y-107914819D01*
X133180952Y-107914819D02*
X133085714Y-107867200D01*
X133085714Y-107867200D02*
X133038095Y-107819580D01*
X132228571Y-107391009D02*
X132561904Y-107391009D01*
X132561904Y-107914819D02*
X132561904Y-106914819D01*
X132561904Y-106914819D02*
X132085714Y-106914819D01*
D11*
X133341666Y-106389765D02*
X133353570Y-106401670D01*
X133353570Y-106401670D02*
X133389285Y-106413574D01*
X133389285Y-106413574D02*
X133413094Y-106413574D01*
X133413094Y-106413574D02*
X133448808Y-106401670D01*
X133448808Y-106401670D02*
X133472618Y-106377860D01*
X133472618Y-106377860D02*
X133484523Y-106354050D01*
X133484523Y-106354050D02*
X133496427Y-106306431D01*
X133496427Y-106306431D02*
X133496427Y-106270717D01*
X133496427Y-106270717D02*
X133484523Y-106223098D01*
X133484523Y-106223098D02*
X133472618Y-106199289D01*
X133472618Y-106199289D02*
X133448808Y-106175479D01*
X133448808Y-106175479D02*
X133413094Y-106163574D01*
X133413094Y-106163574D02*
X133389285Y-106163574D01*
X133389285Y-106163574D02*
X133353570Y-106175479D01*
X133353570Y-106175479D02*
X133341666Y-106187384D01*
X133246427Y-106187384D02*
X133234523Y-106175479D01*
X133234523Y-106175479D02*
X133210713Y-106163574D01*
X133210713Y-106163574D02*
X133151189Y-106163574D01*
X133151189Y-106163574D02*
X133127380Y-106175479D01*
X133127380Y-106175479D02*
X133115475Y-106187384D01*
X133115475Y-106187384D02*
X133103570Y-106211193D01*
X133103570Y-106211193D02*
X133103570Y-106235003D01*
X133103570Y-106235003D02*
X133115475Y-106270717D01*
X133115475Y-106270717D02*
X133258332Y-106413574D01*
X133258332Y-106413574D02*
X133103570Y-106413574D01*
D10*
X138584819Y-100428571D02*
X138584819Y-99857143D01*
X138584819Y-100142857D02*
X137584819Y-100142857D01*
X137584819Y-100142857D02*
X137727676Y-100047619D01*
X137727676Y-100047619D02*
X137822914Y-99952381D01*
X137822914Y-99952381D02*
X137870533Y-99857143D01*
X137584819Y-101047619D02*
X137584819Y-101142857D01*
X137584819Y-101142857D02*
X137632438Y-101238095D01*
X137632438Y-101238095D02*
X137680057Y-101285714D01*
X137680057Y-101285714D02*
X137775295Y-101333333D01*
X137775295Y-101333333D02*
X137965771Y-101380952D01*
X137965771Y-101380952D02*
X138203866Y-101380952D01*
X138203866Y-101380952D02*
X138394342Y-101333333D01*
X138394342Y-101333333D02*
X138489580Y-101285714D01*
X138489580Y-101285714D02*
X138537200Y-101238095D01*
X138537200Y-101238095D02*
X138584819Y-101142857D01*
X138584819Y-101142857D02*
X138584819Y-101047619D01*
X138584819Y-101047619D02*
X138537200Y-100952381D01*
X138537200Y-100952381D02*
X138489580Y-100904762D01*
X138489580Y-100904762D02*
X138394342Y-100857143D01*
X138394342Y-100857143D02*
X138203866Y-100809524D01*
X138203866Y-100809524D02*
X137965771Y-100809524D01*
X137965771Y-100809524D02*
X137775295Y-100857143D01*
X137775295Y-100857143D02*
X137680057Y-100904762D01*
X137680057Y-100904762D02*
X137632438Y-100952381D01*
X137632438Y-100952381D02*
X137584819Y-101047619D01*
X137584819Y-102000000D02*
X137584819Y-102095238D01*
X137584819Y-102095238D02*
X137632438Y-102190476D01*
X137632438Y-102190476D02*
X137680057Y-102238095D01*
X137680057Y-102238095D02*
X137775295Y-102285714D01*
X137775295Y-102285714D02*
X137965771Y-102333333D01*
X137965771Y-102333333D02*
X138203866Y-102333333D01*
X138203866Y-102333333D02*
X138394342Y-102285714D01*
X138394342Y-102285714D02*
X138489580Y-102238095D01*
X138489580Y-102238095D02*
X138537200Y-102190476D01*
X138537200Y-102190476D02*
X138584819Y-102095238D01*
X138584819Y-102095238D02*
X138584819Y-102000000D01*
X138584819Y-102000000D02*
X138537200Y-101904762D01*
X138537200Y-101904762D02*
X138489580Y-101857143D01*
X138489580Y-101857143D02*
X138394342Y-101809524D01*
X138394342Y-101809524D02*
X138203866Y-101761905D01*
X138203866Y-101761905D02*
X137965771Y-101761905D01*
X137965771Y-101761905D02*
X137775295Y-101809524D01*
X137775295Y-101809524D02*
X137680057Y-101857143D01*
X137680057Y-101857143D02*
X137632438Y-101904762D01*
X137632438Y-101904762D02*
X137584819Y-102000000D01*
X138584819Y-102761905D02*
X137584819Y-102761905D01*
X138203866Y-102857143D02*
X138584819Y-103142857D01*
X137918152Y-103142857D02*
X138299104Y-102761905D01*
X138584819Y-104142857D02*
X138108628Y-103809524D01*
X138584819Y-103571429D02*
X137584819Y-103571429D01*
X137584819Y-103571429D02*
X137584819Y-103952381D01*
X137584819Y-103952381D02*
X137632438Y-104047619D01*
X137632438Y-104047619D02*
X137680057Y-104095238D01*
X137680057Y-104095238D02*
X137775295Y-104142857D01*
X137775295Y-104142857D02*
X137918152Y-104142857D01*
X137918152Y-104142857D02*
X138013390Y-104095238D01*
X138013390Y-104095238D02*
X138061009Y-104047619D01*
X138061009Y-104047619D02*
X138108628Y-103952381D01*
X138108628Y-103952381D02*
X138108628Y-103571429D01*
D11*
X139418200Y-101956667D02*
X139294391Y-101870000D01*
X139418200Y-101808095D02*
X139158200Y-101808095D01*
X139158200Y-101808095D02*
X139158200Y-101907143D01*
X139158200Y-101907143D02*
X139170581Y-101931905D01*
X139170581Y-101931905D02*
X139182962Y-101944286D01*
X139182962Y-101944286D02*
X139207724Y-101956667D01*
X139207724Y-101956667D02*
X139244867Y-101956667D01*
X139244867Y-101956667D02*
X139269629Y-101944286D01*
X139269629Y-101944286D02*
X139282010Y-101931905D01*
X139282010Y-101931905D02*
X139294391Y-101907143D01*
X139294391Y-101907143D02*
X139294391Y-101808095D01*
X139418200Y-102204286D02*
X139418200Y-102055714D01*
X139418200Y-102130000D02*
X139158200Y-102130000D01*
X139158200Y-102130000D02*
X139195343Y-102105238D01*
X139195343Y-102105238D02*
X139220105Y-102080476D01*
X139220105Y-102080476D02*
X139232486Y-102055714D01*
D13*
X133081927Y-108595238D02*
X133405737Y-108595238D01*
X133405737Y-108595238D02*
X133443832Y-108614285D01*
X133443832Y-108614285D02*
X133462880Y-108633333D01*
X133462880Y-108633333D02*
X133481927Y-108671428D01*
X133481927Y-108671428D02*
X133481927Y-108747619D01*
X133481927Y-108747619D02*
X133462880Y-108785714D01*
X133462880Y-108785714D02*
X133443832Y-108804761D01*
X133443832Y-108804761D02*
X133405737Y-108823809D01*
X133405737Y-108823809D02*
X133081927Y-108823809D01*
X133120022Y-108995238D02*
X133100975Y-109014286D01*
X133100975Y-109014286D02*
X133081927Y-109052381D01*
X133081927Y-109052381D02*
X133081927Y-109147619D01*
X133081927Y-109147619D02*
X133100975Y-109185714D01*
X133100975Y-109185714D02*
X133120022Y-109204762D01*
X133120022Y-109204762D02*
X133158118Y-109223809D01*
X133158118Y-109223809D02*
X133196213Y-109223809D01*
X133196213Y-109223809D02*
X133253356Y-109204762D01*
X133253356Y-109204762D02*
X133481927Y-108976190D01*
X133481927Y-108976190D02*
X133481927Y-109223809D01*
D10*
X133895238Y-113114819D02*
X134466666Y-113114819D01*
X134180952Y-113114819D02*
X134180952Y-112114819D01*
X134180952Y-112114819D02*
X134276190Y-112257676D01*
X134276190Y-112257676D02*
X134371428Y-112352914D01*
X134371428Y-112352914D02*
X134466666Y-112400533D01*
X133038095Y-112448152D02*
X133038095Y-113114819D01*
X133466666Y-112448152D02*
X133466666Y-112971961D01*
X133466666Y-112971961D02*
X133419047Y-113067200D01*
X133419047Y-113067200D02*
X133323809Y-113114819D01*
X133323809Y-113114819D02*
X133180952Y-113114819D01*
X133180952Y-113114819D02*
X133085714Y-113067200D01*
X133085714Y-113067200D02*
X133038095Y-113019580D01*
X132228571Y-112591009D02*
X132561904Y-112591009D01*
X132561904Y-113114819D02*
X132561904Y-112114819D01*
X132561904Y-112114819D02*
X132085714Y-112114819D01*
D11*
X133341666Y-111589765D02*
X133353570Y-111601670D01*
X133353570Y-111601670D02*
X133389285Y-111613574D01*
X133389285Y-111613574D02*
X133413094Y-111613574D01*
X133413094Y-111613574D02*
X133448808Y-111601670D01*
X133448808Y-111601670D02*
X133472618Y-111577860D01*
X133472618Y-111577860D02*
X133484523Y-111554050D01*
X133484523Y-111554050D02*
X133496427Y-111506431D01*
X133496427Y-111506431D02*
X133496427Y-111470717D01*
X133496427Y-111470717D02*
X133484523Y-111423098D01*
X133484523Y-111423098D02*
X133472618Y-111399289D01*
X133472618Y-111399289D02*
X133448808Y-111375479D01*
X133448808Y-111375479D02*
X133413094Y-111363574D01*
X133413094Y-111363574D02*
X133389285Y-111363574D01*
X133389285Y-111363574D02*
X133353570Y-111375479D01*
X133353570Y-111375479D02*
X133341666Y-111387384D01*
X133103570Y-111613574D02*
X133246427Y-111613574D01*
X133174999Y-111613574D02*
X133174999Y-111363574D01*
X133174999Y-111363574D02*
X133198808Y-111399289D01*
X133198808Y-111399289D02*
X133222618Y-111423098D01*
X133222618Y-111423098D02*
X133246427Y-111435003D01*
D10*
X171666666Y-107254819D02*
X171095238Y-107254819D01*
X171380952Y-108254819D02*
X171380952Y-107254819D01*
X170857142Y-107254819D02*
X170190476Y-108254819D01*
X170190476Y-107254819D02*
X170857142Y-108254819D01*
X169476190Y-107731009D02*
X169333333Y-107778628D01*
X169333333Y-107778628D02*
X169285714Y-107826247D01*
X169285714Y-107826247D02*
X169238095Y-107921485D01*
X169238095Y-107921485D02*
X169238095Y-108064342D01*
X169238095Y-108064342D02*
X169285714Y-108159580D01*
X169285714Y-108159580D02*
X169333333Y-108207200D01*
X169333333Y-108207200D02*
X169428571Y-108254819D01*
X169428571Y-108254819D02*
X169809523Y-108254819D01*
X169809523Y-108254819D02*
X169809523Y-107254819D01*
X169809523Y-107254819D02*
X169476190Y-107254819D01*
X169476190Y-107254819D02*
X169380952Y-107302438D01*
X169380952Y-107302438D02*
X169333333Y-107350057D01*
X169333333Y-107350057D02*
X169285714Y-107445295D01*
X169285714Y-107445295D02*
X169285714Y-107540533D01*
X169285714Y-107540533D02*
X169333333Y-107635771D01*
X169333333Y-107635771D02*
X169380952Y-107683390D01*
X169380952Y-107683390D02*
X169476190Y-107731009D01*
X169476190Y-107731009D02*
X169809523Y-107731009D01*
X168619047Y-107254819D02*
X168523809Y-107254819D01*
X168523809Y-107254819D02*
X168428571Y-107302438D01*
X168428571Y-107302438D02*
X168380952Y-107350057D01*
X168380952Y-107350057D02*
X168333333Y-107445295D01*
X168333333Y-107445295D02*
X168285714Y-107635771D01*
X168285714Y-107635771D02*
X168285714Y-107873866D01*
X168285714Y-107873866D02*
X168333333Y-108064342D01*
X168333333Y-108064342D02*
X168380952Y-108159580D01*
X168380952Y-108159580D02*
X168428571Y-108207200D01*
X168428571Y-108207200D02*
X168523809Y-108254819D01*
X168523809Y-108254819D02*
X168619047Y-108254819D01*
X168619047Y-108254819D02*
X168714285Y-108207200D01*
X168714285Y-108207200D02*
X168761904Y-108159580D01*
X168761904Y-108159580D02*
X168809523Y-108064342D01*
X168809523Y-108064342D02*
X168857142Y-107873866D01*
X168857142Y-107873866D02*
X168857142Y-107635771D01*
X168857142Y-107635771D02*
X168809523Y-107445295D01*
X168809523Y-107445295D02*
X168761904Y-107350057D01*
X168761904Y-107350057D02*
X168714285Y-107302438D01*
X168714285Y-107302438D02*
X168619047Y-107254819D01*
X167333333Y-108254819D02*
X167904761Y-108254819D01*
X167619047Y-108254819D02*
X167619047Y-107254819D01*
X167619047Y-107254819D02*
X167714285Y-107397676D01*
X167714285Y-107397676D02*
X167809523Y-107492914D01*
X167809523Y-107492914D02*
X167904761Y-107540533D01*
X166714285Y-107254819D02*
X166619047Y-107254819D01*
X166619047Y-107254819D02*
X166523809Y-107302438D01*
X166523809Y-107302438D02*
X166476190Y-107350057D01*
X166476190Y-107350057D02*
X166428571Y-107445295D01*
X166428571Y-107445295D02*
X166380952Y-107635771D01*
X166380952Y-107635771D02*
X166380952Y-107873866D01*
X166380952Y-107873866D02*
X166428571Y-108064342D01*
X166428571Y-108064342D02*
X166476190Y-108159580D01*
X166476190Y-108159580D02*
X166523809Y-108207200D01*
X166523809Y-108207200D02*
X166619047Y-108254819D01*
X166619047Y-108254819D02*
X166714285Y-108254819D01*
X166714285Y-108254819D02*
X166809523Y-108207200D01*
X166809523Y-108207200D02*
X166857142Y-108159580D01*
X166857142Y-108159580D02*
X166904761Y-108064342D01*
X166904761Y-108064342D02*
X166952380Y-107873866D01*
X166952380Y-107873866D02*
X166952380Y-107635771D01*
X166952380Y-107635771D02*
X166904761Y-107445295D01*
X166904761Y-107445295D02*
X166857142Y-107350057D01*
X166857142Y-107350057D02*
X166809523Y-107302438D01*
X166809523Y-107302438D02*
X166714285Y-107254819D01*
X165809523Y-107683390D02*
X165904761Y-107635771D01*
X165904761Y-107635771D02*
X165952380Y-107588152D01*
X165952380Y-107588152D02*
X165999999Y-107492914D01*
X165999999Y-107492914D02*
X165999999Y-107445295D01*
X165999999Y-107445295D02*
X165952380Y-107350057D01*
X165952380Y-107350057D02*
X165904761Y-107302438D01*
X165904761Y-107302438D02*
X165809523Y-107254819D01*
X165809523Y-107254819D02*
X165619047Y-107254819D01*
X165619047Y-107254819D02*
X165523809Y-107302438D01*
X165523809Y-107302438D02*
X165476190Y-107350057D01*
X165476190Y-107350057D02*
X165428571Y-107445295D01*
X165428571Y-107445295D02*
X165428571Y-107492914D01*
X165428571Y-107492914D02*
X165476190Y-107588152D01*
X165476190Y-107588152D02*
X165523809Y-107635771D01*
X165523809Y-107635771D02*
X165619047Y-107683390D01*
X165619047Y-107683390D02*
X165809523Y-107683390D01*
X165809523Y-107683390D02*
X165904761Y-107731009D01*
X165904761Y-107731009D02*
X165952380Y-107778628D01*
X165952380Y-107778628D02*
X165999999Y-107873866D01*
X165999999Y-107873866D02*
X165999999Y-108064342D01*
X165999999Y-108064342D02*
X165952380Y-108159580D01*
X165952380Y-108159580D02*
X165904761Y-108207200D01*
X165904761Y-108207200D02*
X165809523Y-108254819D01*
X165809523Y-108254819D02*
X165619047Y-108254819D01*
X165619047Y-108254819D02*
X165523809Y-108207200D01*
X165523809Y-108207200D02*
X165476190Y-108159580D01*
X165476190Y-108159580D02*
X165428571Y-108064342D01*
X165428571Y-108064342D02*
X165428571Y-107873866D01*
X165428571Y-107873866D02*
X165476190Y-107778628D01*
X165476190Y-107778628D02*
X165523809Y-107731009D01*
X165523809Y-107731009D02*
X165619047Y-107683390D01*
X164999999Y-108254819D02*
X164999999Y-107254819D01*
X164999999Y-107254819D02*
X164761904Y-107254819D01*
X164761904Y-107254819D02*
X164619047Y-107302438D01*
X164619047Y-107302438D02*
X164523809Y-107397676D01*
X164523809Y-107397676D02*
X164476190Y-107492914D01*
X164476190Y-107492914D02*
X164428571Y-107683390D01*
X164428571Y-107683390D02*
X164428571Y-107826247D01*
X164428571Y-107826247D02*
X164476190Y-108016723D01*
X164476190Y-108016723D02*
X164523809Y-108111961D01*
X164523809Y-108111961D02*
X164619047Y-108207200D01*
X164619047Y-108207200D02*
X164761904Y-108254819D01*
X164761904Y-108254819D02*
X164999999Y-108254819D01*
X163333333Y-108350057D02*
X163428571Y-108302438D01*
X163428571Y-108302438D02*
X163523809Y-108207200D01*
X163523809Y-108207200D02*
X163666666Y-108064342D01*
X163666666Y-108064342D02*
X163761904Y-108016723D01*
X163761904Y-108016723D02*
X163857142Y-108016723D01*
X163809523Y-108254819D02*
X163904761Y-108207200D01*
X163904761Y-108207200D02*
X163999999Y-108111961D01*
X163999999Y-108111961D02*
X164047618Y-107921485D01*
X164047618Y-107921485D02*
X164047618Y-107588152D01*
X164047618Y-107588152D02*
X163999999Y-107397676D01*
X163999999Y-107397676D02*
X163904761Y-107302438D01*
X163904761Y-107302438D02*
X163809523Y-107254819D01*
X163809523Y-107254819D02*
X163619047Y-107254819D01*
X163619047Y-107254819D02*
X163523809Y-107302438D01*
X163523809Y-107302438D02*
X163428571Y-107397676D01*
X163428571Y-107397676D02*
X163380952Y-107588152D01*
X163380952Y-107588152D02*
X163380952Y-107921485D01*
X163380952Y-107921485D02*
X163428571Y-108111961D01*
X163428571Y-108111961D02*
X163523809Y-108207200D01*
X163523809Y-108207200D02*
X163619047Y-108254819D01*
X163619047Y-108254819D02*
X163809523Y-108254819D01*
X162999999Y-108207200D02*
X162857142Y-108254819D01*
X162857142Y-108254819D02*
X162619047Y-108254819D01*
X162619047Y-108254819D02*
X162523809Y-108207200D01*
X162523809Y-108207200D02*
X162476190Y-108159580D01*
X162476190Y-108159580D02*
X162428571Y-108064342D01*
X162428571Y-108064342D02*
X162428571Y-107969104D01*
X162428571Y-107969104D02*
X162476190Y-107873866D01*
X162476190Y-107873866D02*
X162523809Y-107826247D01*
X162523809Y-107826247D02*
X162619047Y-107778628D01*
X162619047Y-107778628D02*
X162809523Y-107731009D01*
X162809523Y-107731009D02*
X162904761Y-107683390D01*
X162904761Y-107683390D02*
X162952380Y-107635771D01*
X162952380Y-107635771D02*
X162999999Y-107540533D01*
X162999999Y-107540533D02*
X162999999Y-107445295D01*
X162999999Y-107445295D02*
X162952380Y-107350057D01*
X162952380Y-107350057D02*
X162904761Y-107302438D01*
X162904761Y-107302438D02*
X162809523Y-107254819D01*
X162809523Y-107254819D02*
X162571428Y-107254819D01*
X162571428Y-107254819D02*
X162428571Y-107302438D01*
X161428571Y-108254819D02*
X161761904Y-107778628D01*
X161999999Y-108254819D02*
X161999999Y-107254819D01*
X161999999Y-107254819D02*
X161619047Y-107254819D01*
X161619047Y-107254819D02*
X161523809Y-107302438D01*
X161523809Y-107302438D02*
X161476190Y-107350057D01*
X161476190Y-107350057D02*
X161428571Y-107445295D01*
X161428571Y-107445295D02*
X161428571Y-107588152D01*
X161428571Y-107588152D02*
X161476190Y-107683390D01*
X161476190Y-107683390D02*
X161523809Y-107731009D01*
X161523809Y-107731009D02*
X161619047Y-107778628D01*
X161619047Y-107778628D02*
X161999999Y-107778628D01*
X166008557Y-103614285D02*
X166737128Y-103614285D01*
X166737128Y-103614285D02*
X166822842Y-103657142D01*
X166822842Y-103657142D02*
X166865700Y-103700000D01*
X166865700Y-103700000D02*
X166908557Y-103785714D01*
X166908557Y-103785714D02*
X166908557Y-103957142D01*
X166908557Y-103957142D02*
X166865700Y-104042857D01*
X166865700Y-104042857D02*
X166822842Y-104085714D01*
X166822842Y-104085714D02*
X166737128Y-104128571D01*
X166737128Y-104128571D02*
X166008557Y-104128571D01*
X166008557Y-104471428D02*
X166008557Y-105028571D01*
X166008557Y-105028571D02*
X166351414Y-104728571D01*
X166351414Y-104728571D02*
X166351414Y-104857142D01*
X166351414Y-104857142D02*
X166394271Y-104942857D01*
X166394271Y-104942857D02*
X166437128Y-104985714D01*
X166437128Y-104985714D02*
X166522842Y-105028571D01*
X166522842Y-105028571D02*
X166737128Y-105028571D01*
X166737128Y-105028571D02*
X166822842Y-104985714D01*
X166822842Y-104985714D02*
X166865700Y-104942857D01*
X166865700Y-104942857D02*
X166908557Y-104857142D01*
X166908557Y-104857142D02*
X166908557Y-104599999D01*
X166908557Y-104599999D02*
X166865700Y-104514285D01*
X166865700Y-104514285D02*
X166822842Y-104471428D01*
X141480475Y-107354819D02*
X140909047Y-107354819D01*
X141194761Y-108354819D02*
X141194761Y-107354819D01*
X140099523Y-107354819D02*
X140575713Y-107354819D01*
X140575713Y-107354819D02*
X140623332Y-107831009D01*
X140623332Y-107831009D02*
X140575713Y-107783390D01*
X140575713Y-107783390D02*
X140480475Y-107735771D01*
X140480475Y-107735771D02*
X140242380Y-107735771D01*
X140242380Y-107735771D02*
X140147142Y-107783390D01*
X140147142Y-107783390D02*
X140099523Y-107831009D01*
X140099523Y-107831009D02*
X140051904Y-107926247D01*
X140051904Y-107926247D02*
X140051904Y-108164342D01*
X140051904Y-108164342D02*
X140099523Y-108259580D01*
X140099523Y-108259580D02*
X140147142Y-108307200D01*
X140147142Y-108307200D02*
X140242380Y-108354819D01*
X140242380Y-108354819D02*
X140480475Y-108354819D01*
X140480475Y-108354819D02*
X140575713Y-108307200D01*
X140575713Y-108307200D02*
X140623332Y-108259580D01*
X139480475Y-107783390D02*
X139575713Y-107735771D01*
X139575713Y-107735771D02*
X139623332Y-107688152D01*
X139623332Y-107688152D02*
X139670951Y-107592914D01*
X139670951Y-107592914D02*
X139670951Y-107545295D01*
X139670951Y-107545295D02*
X139623332Y-107450057D01*
X139623332Y-107450057D02*
X139575713Y-107402438D01*
X139575713Y-107402438D02*
X139480475Y-107354819D01*
X139480475Y-107354819D02*
X139289999Y-107354819D01*
X139289999Y-107354819D02*
X139194761Y-107402438D01*
X139194761Y-107402438D02*
X139147142Y-107450057D01*
X139147142Y-107450057D02*
X139099523Y-107545295D01*
X139099523Y-107545295D02*
X139099523Y-107592914D01*
X139099523Y-107592914D02*
X139147142Y-107688152D01*
X139147142Y-107688152D02*
X139194761Y-107735771D01*
X139194761Y-107735771D02*
X139289999Y-107783390D01*
X139289999Y-107783390D02*
X139480475Y-107783390D01*
X139480475Y-107783390D02*
X139575713Y-107831009D01*
X139575713Y-107831009D02*
X139623332Y-107878628D01*
X139623332Y-107878628D02*
X139670951Y-107973866D01*
X139670951Y-107973866D02*
X139670951Y-108164342D01*
X139670951Y-108164342D02*
X139623332Y-108259580D01*
X139623332Y-108259580D02*
X139575713Y-108307200D01*
X139575713Y-108307200D02*
X139480475Y-108354819D01*
X139480475Y-108354819D02*
X139289999Y-108354819D01*
X139289999Y-108354819D02*
X139194761Y-108307200D01*
X139194761Y-108307200D02*
X139147142Y-108259580D01*
X139147142Y-108259580D02*
X139099523Y-108164342D01*
X139099523Y-108164342D02*
X139099523Y-107973866D01*
X139099523Y-107973866D02*
X139147142Y-107878628D01*
X139147142Y-107878628D02*
X139194761Y-107831009D01*
X139194761Y-107831009D02*
X139289999Y-107783390D01*
X138242380Y-107688152D02*
X138242380Y-108354819D01*
X138480475Y-107307200D02*
X138718570Y-108021485D01*
X138718570Y-108021485D02*
X138099523Y-108021485D01*
X137575713Y-107783390D02*
X137670951Y-107735771D01*
X137670951Y-107735771D02*
X137718570Y-107688152D01*
X137718570Y-107688152D02*
X137766189Y-107592914D01*
X137766189Y-107592914D02*
X137766189Y-107545295D01*
X137766189Y-107545295D02*
X137718570Y-107450057D01*
X137718570Y-107450057D02*
X137670951Y-107402438D01*
X137670951Y-107402438D02*
X137575713Y-107354819D01*
X137575713Y-107354819D02*
X137385237Y-107354819D01*
X137385237Y-107354819D02*
X137289999Y-107402438D01*
X137289999Y-107402438D02*
X137242380Y-107450057D01*
X137242380Y-107450057D02*
X137194761Y-107545295D01*
X137194761Y-107545295D02*
X137194761Y-107592914D01*
X137194761Y-107592914D02*
X137242380Y-107688152D01*
X137242380Y-107688152D02*
X137289999Y-107735771D01*
X137289999Y-107735771D02*
X137385237Y-107783390D01*
X137385237Y-107783390D02*
X137575713Y-107783390D01*
X137575713Y-107783390D02*
X137670951Y-107831009D01*
X137670951Y-107831009D02*
X137718570Y-107878628D01*
X137718570Y-107878628D02*
X137766189Y-107973866D01*
X137766189Y-107973866D02*
X137766189Y-108164342D01*
X137766189Y-108164342D02*
X137718570Y-108259580D01*
X137718570Y-108259580D02*
X137670951Y-108307200D01*
X137670951Y-108307200D02*
X137575713Y-108354819D01*
X137575713Y-108354819D02*
X137385237Y-108354819D01*
X137385237Y-108354819D02*
X137289999Y-108307200D01*
X137289999Y-108307200D02*
X137242380Y-108259580D01*
X137242380Y-108259580D02*
X137194761Y-108164342D01*
X137194761Y-108164342D02*
X137194761Y-107973866D01*
X137194761Y-107973866D02*
X137242380Y-107878628D01*
X137242380Y-107878628D02*
X137289999Y-107831009D01*
X137289999Y-107831009D02*
X137385237Y-107783390D01*
D12*
X138926664Y-106057618D02*
X139726664Y-106057618D01*
X139726664Y-106057618D02*
X139155236Y-105790952D01*
X139155236Y-105790952D02*
X139726664Y-105524285D01*
X139726664Y-105524285D02*
X138926664Y-105524285D01*
X138926664Y-105143332D02*
X139726664Y-105143332D01*
X138926664Y-104686189D02*
X139383807Y-105029047D01*
X139726664Y-104686189D02*
X139269521Y-105143332D01*
X138926664Y-103924285D02*
X138926664Y-104381428D01*
X138926664Y-104152856D02*
X139726664Y-104152856D01*
X139726664Y-104152856D02*
X139612379Y-104229047D01*
X139612379Y-104229047D02*
X139536188Y-104305237D01*
X139536188Y-104305237D02*
X139498093Y-104381428D01*
D10*
X174099580Y-89530474D02*
X174147200Y-89482855D01*
X174147200Y-89482855D02*
X174194819Y-89339998D01*
X174194819Y-89339998D02*
X174194819Y-89244760D01*
X174194819Y-89244760D02*
X174147200Y-89101903D01*
X174147200Y-89101903D02*
X174051961Y-89006665D01*
X174051961Y-89006665D02*
X173956723Y-88959046D01*
X173956723Y-88959046D02*
X173766247Y-88911427D01*
X173766247Y-88911427D02*
X173623390Y-88911427D01*
X173623390Y-88911427D02*
X173432914Y-88959046D01*
X173432914Y-88959046D02*
X173337676Y-89006665D01*
X173337676Y-89006665D02*
X173242438Y-89101903D01*
X173242438Y-89101903D02*
X173194819Y-89244760D01*
X173194819Y-89244760D02*
X173194819Y-89339998D01*
X173194819Y-89339998D02*
X173242438Y-89482855D01*
X173242438Y-89482855D02*
X173290057Y-89530474D01*
X174194819Y-90101903D02*
X174147200Y-90006665D01*
X174147200Y-90006665D02*
X174099580Y-89959046D01*
X174099580Y-89959046D02*
X174004342Y-89911427D01*
X174004342Y-89911427D02*
X173718628Y-89911427D01*
X173718628Y-89911427D02*
X173623390Y-89959046D01*
X173623390Y-89959046D02*
X173575771Y-90006665D01*
X173575771Y-90006665D02*
X173528152Y-90101903D01*
X173528152Y-90101903D02*
X173528152Y-90244760D01*
X173528152Y-90244760D02*
X173575771Y-90339998D01*
X173575771Y-90339998D02*
X173623390Y-90387617D01*
X173623390Y-90387617D02*
X173718628Y-90435236D01*
X173718628Y-90435236D02*
X174004342Y-90435236D01*
X174004342Y-90435236D02*
X174099580Y-90387617D01*
X174099580Y-90387617D02*
X174147200Y-90339998D01*
X174147200Y-90339998D02*
X174194819Y-90244760D01*
X174194819Y-90244760D02*
X174194819Y-90101903D01*
X173528152Y-90863808D02*
X174194819Y-90863808D01*
X173623390Y-90863808D02*
X173575771Y-90911427D01*
X173575771Y-90911427D02*
X173528152Y-91006665D01*
X173528152Y-91006665D02*
X173528152Y-91149522D01*
X173528152Y-91149522D02*
X173575771Y-91244760D01*
X173575771Y-91244760D02*
X173671009Y-91292379D01*
X173671009Y-91292379D02*
X174194819Y-91292379D01*
X173528152Y-91768570D02*
X174194819Y-91768570D01*
X173623390Y-91768570D02*
X173575771Y-91816189D01*
X173575771Y-91816189D02*
X173528152Y-91911427D01*
X173528152Y-91911427D02*
X173528152Y-92054284D01*
X173528152Y-92054284D02*
X173575771Y-92149522D01*
X173575771Y-92149522D02*
X173671009Y-92197141D01*
X173671009Y-92197141D02*
X174194819Y-92197141D01*
X174290057Y-92435237D02*
X174290057Y-93197141D01*
X173194819Y-93625713D02*
X173194819Y-93720951D01*
X173194819Y-93720951D02*
X173242438Y-93816189D01*
X173242438Y-93816189D02*
X173290057Y-93863808D01*
X173290057Y-93863808D02*
X173385295Y-93911427D01*
X173385295Y-93911427D02*
X173575771Y-93959046D01*
X173575771Y-93959046D02*
X173813866Y-93959046D01*
X173813866Y-93959046D02*
X174004342Y-93911427D01*
X174004342Y-93911427D02*
X174099580Y-93863808D01*
X174099580Y-93863808D02*
X174147200Y-93816189D01*
X174147200Y-93816189D02*
X174194819Y-93720951D01*
X174194819Y-93720951D02*
X174194819Y-93625713D01*
X174194819Y-93625713D02*
X174147200Y-93530475D01*
X174147200Y-93530475D02*
X174099580Y-93482856D01*
X174099580Y-93482856D02*
X174004342Y-93435237D01*
X174004342Y-93435237D02*
X173813866Y-93387618D01*
X173813866Y-93387618D02*
X173575771Y-93387618D01*
X173575771Y-93387618D02*
X173385295Y-93435237D01*
X173385295Y-93435237D02*
X173290057Y-93482856D01*
X173290057Y-93482856D02*
X173242438Y-93530475D01*
X173242438Y-93530475D02*
X173194819Y-93625713D01*
X174194819Y-94911427D02*
X174194819Y-94339999D01*
X174194819Y-94625713D02*
X173194819Y-94625713D01*
X173194819Y-94625713D02*
X173337676Y-94530475D01*
X173337676Y-94530475D02*
X173432914Y-94435237D01*
X173432914Y-94435237D02*
X173480533Y-94339999D01*
X174194819Y-95244761D02*
X173528152Y-95768570D01*
X173528152Y-95244761D02*
X174194819Y-95768570D01*
X174194819Y-96673332D02*
X174194819Y-96101904D01*
X174194819Y-96387618D02*
X173194819Y-96387618D01*
X173194819Y-96387618D02*
X173337676Y-96292380D01*
X173337676Y-96292380D02*
X173432914Y-96197142D01*
X173432914Y-96197142D02*
X173480533Y-96101904D01*
X173290057Y-97054285D02*
X173242438Y-97101904D01*
X173242438Y-97101904D02*
X173194819Y-97197142D01*
X173194819Y-97197142D02*
X173194819Y-97435237D01*
X173194819Y-97435237D02*
X173242438Y-97530475D01*
X173242438Y-97530475D02*
X173290057Y-97578094D01*
X173290057Y-97578094D02*
X173385295Y-97625713D01*
X173385295Y-97625713D02*
X173480533Y-97625713D01*
X173480533Y-97625713D02*
X173623390Y-97578094D01*
X173623390Y-97578094D02*
X174194819Y-97006666D01*
X174194819Y-97006666D02*
X174194819Y-97625713D01*
X174290057Y-97816190D02*
X174290057Y-98578094D01*
X174194819Y-98816190D02*
X173194819Y-98816190D01*
X173194819Y-98816190D02*
X173194819Y-99197142D01*
X173194819Y-99197142D02*
X173242438Y-99292380D01*
X173242438Y-99292380D02*
X173290057Y-99339999D01*
X173290057Y-99339999D02*
X173385295Y-99387618D01*
X173385295Y-99387618D02*
X173528152Y-99387618D01*
X173528152Y-99387618D02*
X173623390Y-99339999D01*
X173623390Y-99339999D02*
X173671009Y-99292380D01*
X173671009Y-99292380D02*
X173718628Y-99197142D01*
X173718628Y-99197142D02*
X173718628Y-98816190D01*
X174194819Y-99816190D02*
X173528152Y-99816190D01*
X173194819Y-99816190D02*
X173242438Y-99768571D01*
X173242438Y-99768571D02*
X173290057Y-99816190D01*
X173290057Y-99816190D02*
X173242438Y-99863809D01*
X173242438Y-99863809D02*
X173194819Y-99816190D01*
X173194819Y-99816190D02*
X173290057Y-99816190D01*
X173528152Y-100292380D02*
X174194819Y-100292380D01*
X173623390Y-100292380D02*
X173575771Y-100339999D01*
X173575771Y-100339999D02*
X173528152Y-100435237D01*
X173528152Y-100435237D02*
X173528152Y-100578094D01*
X173528152Y-100578094D02*
X173575771Y-100673332D01*
X173575771Y-100673332D02*
X173671009Y-100720951D01*
X173671009Y-100720951D02*
X174194819Y-100720951D01*
X157723333Y-94294819D02*
X157723333Y-95009104D01*
X157723333Y-95009104D02*
X157770952Y-95151961D01*
X157770952Y-95151961D02*
X157866190Y-95247200D01*
X157866190Y-95247200D02*
X158009047Y-95294819D01*
X158009047Y-95294819D02*
X158104285Y-95294819D01*
X157294761Y-94390057D02*
X157247142Y-94342438D01*
X157247142Y-94342438D02*
X157151904Y-94294819D01*
X157151904Y-94294819D02*
X156913809Y-94294819D01*
X156913809Y-94294819D02*
X156818571Y-94342438D01*
X156818571Y-94342438D02*
X156770952Y-94390057D01*
X156770952Y-94390057D02*
X156723333Y-94485295D01*
X156723333Y-94485295D02*
X156723333Y-94580533D01*
X156723333Y-94580533D02*
X156770952Y-94723390D01*
X156770952Y-94723390D02*
X157342380Y-95294819D01*
X157342380Y-95294819D02*
X156723333Y-95294819D01*
X156498333Y-94794819D02*
X158323576Y-94794819D01*
X171715238Y-103394819D02*
X172286666Y-103394819D01*
X172000952Y-103394819D02*
X172000952Y-102394819D01*
X172000952Y-102394819D02*
X172096190Y-102537676D01*
X172096190Y-102537676D02*
X172191428Y-102632914D01*
X172191428Y-102632914D02*
X172286666Y-102680533D01*
X170858095Y-102728152D02*
X170858095Y-103394819D01*
X171286666Y-102728152D02*
X171286666Y-103251961D01*
X171286666Y-103251961D02*
X171239047Y-103347200D01*
X171239047Y-103347200D02*
X171143809Y-103394819D01*
X171143809Y-103394819D02*
X171000952Y-103394819D01*
X171000952Y-103394819D02*
X170905714Y-103347200D01*
X170905714Y-103347200D02*
X170858095Y-103299580D01*
X170048571Y-102871009D02*
X170381904Y-102871009D01*
X170381904Y-103394819D02*
X170381904Y-102394819D01*
X170381904Y-102394819D02*
X169905714Y-102394819D01*
D11*
X171161666Y-104189765D02*
X171173570Y-104201670D01*
X171173570Y-104201670D02*
X171209285Y-104213574D01*
X171209285Y-104213574D02*
X171233094Y-104213574D01*
X171233094Y-104213574D02*
X171268808Y-104201670D01*
X171268808Y-104201670D02*
X171292618Y-104177860D01*
X171292618Y-104177860D02*
X171304523Y-104154050D01*
X171304523Y-104154050D02*
X171316427Y-104106431D01*
X171316427Y-104106431D02*
X171316427Y-104070717D01*
X171316427Y-104070717D02*
X171304523Y-104023098D01*
X171304523Y-104023098D02*
X171292618Y-103999289D01*
X171292618Y-103999289D02*
X171268808Y-103975479D01*
X171268808Y-103975479D02*
X171233094Y-103963574D01*
X171233094Y-103963574D02*
X171209285Y-103963574D01*
X171209285Y-103963574D02*
X171173570Y-103975479D01*
X171173570Y-103975479D02*
X171161666Y-103987384D01*
X170947380Y-103963574D02*
X170994999Y-103963574D01*
X170994999Y-103963574D02*
X171018808Y-103975479D01*
X171018808Y-103975479D02*
X171030713Y-103987384D01*
X171030713Y-103987384D02*
X171054523Y-104023098D01*
X171054523Y-104023098D02*
X171066427Y-104070717D01*
X171066427Y-104070717D02*
X171066427Y-104165955D01*
X171066427Y-104165955D02*
X171054523Y-104189765D01*
X171054523Y-104189765D02*
X171042618Y-104201670D01*
X171042618Y-104201670D02*
X171018808Y-104213574D01*
X171018808Y-104213574D02*
X170971189Y-104213574D01*
X170971189Y-104213574D02*
X170947380Y-104201670D01*
X170947380Y-104201670D02*
X170935475Y-104189765D01*
X170935475Y-104189765D02*
X170923570Y-104165955D01*
X170923570Y-104165955D02*
X170923570Y-104106431D01*
X170923570Y-104106431D02*
X170935475Y-104082622D01*
X170935475Y-104082622D02*
X170947380Y-104070717D01*
X170947380Y-104070717D02*
X170971189Y-104058812D01*
X170971189Y-104058812D02*
X171018808Y-104058812D01*
X171018808Y-104058812D02*
X171042618Y-104070717D01*
X171042618Y-104070717D02*
X171054523Y-104082622D01*
X171054523Y-104082622D02*
X171066427Y-104106431D01*
D14*
%TO.C,C5*%
X162950000Y-104100000D02*
X162950001Y-105100000D01*
X162950001Y-105100000D02*
X163450000Y-105100000D01*
X163449999Y-104100000D02*
X162950000Y-104100000D01*
X163450000Y-105100000D02*
X163449999Y-104100000D01*
%TO.C,C4*%
X155350000Y-102660000D02*
X155350002Y-103660000D01*
X155350002Y-103660000D02*
X155850000Y-103660000D01*
X155849998Y-102660000D02*
X155350000Y-102660000D01*
X155850000Y-103660000D02*
X155849998Y-102660000D01*
%TO.C,C3*%
X136930000Y-102660000D02*
X136930002Y-103660000D01*
X136930002Y-103660000D02*
X137430000Y-103660000D01*
X137429998Y-102660000D02*
X136930000Y-102660000D01*
X137430000Y-103660000D02*
X137429998Y-102660000D01*
%TO.C,MK2*%
X156385000Y-103250000D02*
X158535000Y-103250000D01*
X156385000Y-106750000D02*
X156385000Y-103250000D01*
X158535000Y-103250000D02*
X159035000Y-103750000D01*
X159035000Y-103750000D02*
X159035000Y-106750000D01*
X159035000Y-106750000D02*
X156385000Y-106750000D01*
%TO.C,R2*%
X170605000Y-104760000D02*
X170605000Y-105300000D01*
X170605000Y-105300000D02*
X171655000Y-105300000D01*
X171655000Y-104760000D02*
X170605000Y-104760000D01*
X171655000Y-105300000D02*
X171655000Y-104760000D01*
X131940000Y-114524999D02*
X131940000Y-116429999D01*
X132040000Y-116429999D02*
G75*
G02*
X131940000Y-116429999I-50000J0D01*
G01*
X132040000Y-116429999D02*
X132040000Y-114524999D01*
X132040000Y-114524999D02*
G75*
G03*
X131940000Y-114524999I-50000J0D01*
G01*
X131990000Y-116480000D02*
X172630000Y-116480000D01*
X172630000Y-116380000D02*
G75*
G02*
X172630000Y-116480000I0J-50000D01*
G01*
X172630000Y-116380000D02*
X131990000Y-116380000D01*
X131990000Y-116380000D02*
G75*
G03*
X131990000Y-116480000I0J-50000D01*
G01*
X132589643Y-113854642D02*
X131954644Y-114489643D01*
X132025354Y-114560354D02*
G75*
G02*
X131954644Y-114489644I-35355J35355D01*
G01*
X132025355Y-114560354D02*
X132660354Y-113925353D01*
X132660354Y-113925352D02*
G75*
G03*
X132589644Y-113854642I-35355J35355D01*
G01*
X172629999Y-113840000D02*
X132624999Y-113839998D01*
X132624999Y-113939998D02*
G75*
G02*
X132624999Y-113839998I0J50000D01*
G01*
X132624999Y-113939998D02*
X172629999Y-113940000D01*
X172629999Y-113940000D02*
G75*
G03*
X172629999Y-113840000I0J50000D01*
G01*
X172680000Y-116430001D02*
X172680000Y-113890001D01*
X172580000Y-113890001D02*
G75*
G02*
X172680000Y-113890001I50000J0D01*
G01*
X172580000Y-113890001D02*
X172580000Y-116430001D01*
X172580000Y-116430001D02*
G75*
G03*
X172680000Y-116430001I50000J0D01*
G01*
%TO.C,C2*%
X132800000Y-106050000D02*
X132800000Y-106550000D01*
X132800000Y-106550000D02*
X133800000Y-106550000D01*
X133800000Y-106050000D02*
X132800000Y-106050000D01*
X133800000Y-106550000D02*
X133800000Y-106050000D01*
%TO.C,R1*%
X139030000Y-101475000D02*
X139030000Y-102525000D01*
X139030000Y-102525000D02*
X139570000Y-102525000D01*
X139570000Y-101475000D02*
X139030000Y-101475000D01*
X139570000Y-102525000D02*
X139570000Y-101475000D01*
%TO.C,U2*%
X131849999Y-108100000D02*
X131849999Y-109700000D01*
X131849999Y-109700000D02*
X134350000Y-109700000D01*
X134350000Y-109700000D02*
X134750000Y-109300000D01*
X134750000Y-109300000D02*
X134750001Y-108100000D01*
X134750001Y-108100000D02*
X131849999Y-108100000D01*
%TO.C,C1*%
X132800000Y-111250000D02*
X132800000Y-111750000D01*
X132800000Y-111750000D02*
X133800000Y-111750000D01*
X133800000Y-111250000D02*
X132800000Y-111250000D01*
X133800000Y-111750000D02*
X133800000Y-111250000D01*
%TO.C,U3*%
X165500000Y-102300000D02*
X165500000Y-106300000D01*
X165500000Y-106300000D02*
X167500000Y-106300000D01*
X167000000Y-102300000D02*
X165500000Y-102300000D01*
X167000000Y-102300000D02*
X167500000Y-102800000D01*
X167500000Y-106300000D02*
X167500000Y-102800000D01*
%TO.C,MK1*%
X137965000Y-103250000D02*
X140115000Y-103250000D01*
X137965000Y-106750000D02*
X137965000Y-103250000D01*
X140115000Y-103250000D02*
X140615000Y-103750000D01*
X140615000Y-103750000D02*
X140615000Y-106750000D01*
X140615000Y-106750000D02*
X137965000Y-106750000D01*
X142100000Y-94204999D02*
X142100000Y-96109999D01*
X142200000Y-96109999D02*
G75*
G02*
X142100000Y-96109999I-50000J0D01*
G01*
X142200000Y-96109999D02*
X142200000Y-94204999D01*
X142200000Y-94204999D02*
G75*
G03*
X142100000Y-94204999I-50000J0D01*
G01*
X142150000Y-96160000D02*
X172629998Y-96160000D01*
X172629998Y-96060000D02*
G75*
G02*
X172629998Y-96160000I0J-50000D01*
G01*
X172629998Y-96060000D02*
X142150000Y-96060000D01*
X142150000Y-96060000D02*
G75*
G03*
X142150000Y-96160000I0J-50000D01*
G01*
X142749643Y-93534642D02*
X142114644Y-94169643D01*
X142185354Y-94240354D02*
G75*
G02*
X142114644Y-94169644I-35355J35355D01*
G01*
X142185355Y-94240354D02*
X142820354Y-93605353D01*
X142820354Y-93605352D02*
G75*
G03*
X142749644Y-93534642I-35355J35355D01*
G01*
X172679999Y-96110000D02*
X172679999Y-93570000D01*
X172579999Y-93570000D02*
G75*
G02*
X172679999Y-93570000I50000J0D01*
G01*
X172579999Y-93570000D02*
X172579999Y-96110000D01*
X172579999Y-96110000D02*
G75*
G03*
X172679999Y-96110000I50000J0D01*
G01*
X172629999Y-93520000D02*
X142784999Y-93519998D01*
X142784999Y-93619998D02*
G75*
G02*
X142784999Y-93519998I0J50000D01*
G01*
X142784999Y-93619998D02*
X172629999Y-93620000D01*
X172629999Y-93620000D02*
G75*
G03*
X172629999Y-93520000I0J50000D01*
G01*
%TO.C,C6*%
X170620000Y-103850000D02*
X170620000Y-104349998D01*
X170620000Y-104349998D02*
X171620000Y-104350000D01*
X171620000Y-103850002D02*
X170620000Y-103850000D01*
X171620000Y-104350000D02*
X171620000Y-103850002D01*
%TD*%
X131455000Y-113365000D02*
X173165000Y-116955000D01*
X131455000Y-116955000D02*
X173165000Y-113365000D01*
X141625000Y-93044999D02*
X173155000Y-96635001D01*
X141625000Y-96635001D02*
X173155000Y-93044999D01*
M02*
